<svg width="89" height="89" viewBox="0 0 89 89" fill="none" xmlns="http://www.w3.org/2000/svg">
<path d="M44.75 0.25C56.4195 0.25 67.6111 4.8857 75.8627 13.1373C84.1143 21.3889 88.75 32.5805 88.75 44.25C88.75 55.9195 84.1143 67.1111 75.8627 75.3627C67.6111 83.6143 56.4195 88.25 44.75 88.25C33.0805 88.25 21.8889 83.6143 13.6373 75.3627C5.3857 67.1111 0.75 55.9195 0.75 44.25C0.75 32.5805 5.3857 21.3889 13.6373 13.1373C21.8889 4.8857 33.0805 0.25 44.75 0.25ZM39.2689 52.9306L29.4946 43.15C29.1442 42.7996 28.7282 42.5216 28.2704 42.332C27.8125 42.1424 27.3218 42.0448 26.8263 42.0448C26.3307 42.0448 25.84 42.1424 25.3822 42.332C24.9244 42.5216 24.5084 42.7996 24.158 43.15C23.4503 43.8577 23.0528 44.8175 23.0528 45.8183C23.0528 46.8191 23.4503 47.7789 24.158 48.4866L36.6037 60.9323C36.9531 61.2844 37.3688 61.564 37.8268 61.7547C38.2847 61.9454 38.7759 62.0436 39.272 62.0436C39.7681 62.0436 40.2593 61.9454 40.7172 61.7547C41.1752 61.564 41.5909 61.2844 41.9403 60.9323L67.7117 35.1546C68.0668 34.8056 68.3493 34.3898 68.5429 33.9311C68.7365 33.4725 68.8373 32.98 68.8396 32.4822C68.8419 31.9843 68.7457 31.491 68.5564 31.0305C68.367 30.5701 68.0884 30.1516 67.7366 29.7994C67.3848 29.4472 66.9667 29.1681 66.5065 28.9782C66.0463 28.7884 65.553 28.6915 65.0551 28.6932C64.5573 28.695 64.0647 28.7952 63.6058 28.9883C63.1469 29.1813 62.7308 29.4633 62.3814 29.818L39.2689 52.9306Z" fill="#EB8319"/>
</svg>
