<svg width="24" height="24" viewBox="0 0 24 24" fill="none" xmlns="http://www.w3.org/2000/svg">
<g clip-path="url(#clip0_205_2629)">
<path d="M-7.8125e-05 15.0174C0.146172 14.8299 0.340547 14.7849 0.573047 14.7868C1.64117 14.7956 2.7093 14.7906 3.77742 14.7906C3.81617 14.7906 3.85555 14.7906 3.8943 14.7906C4.18305 14.7974 4.3518 14.9412 4.34992 15.1793C4.34805 15.4174 4.18367 15.5543 3.88805 15.5599C3.49867 15.5643 3.10867 15.5599 2.71867 15.5599H2.37492V16.3724C2.44367 16.3781 2.51117 16.3887 2.57805 16.3887C3.16305 16.3887 3.74742 16.3887 4.33242 16.3887C4.4618 16.3887 4.53492 16.3606 4.5968 16.2281C5.0268 15.3112 5.75867 14.7993 6.76805 14.7968C7.7868 14.7937 8.51805 15.3081 8.96805 16.2281C8.98979 16.2678 9.02026 16.3022 9.05718 16.3285C9.09409 16.3548 9.13648 16.3724 9.18117 16.3799C11.6762 16.3879 14.171 16.3897 16.6655 16.3856C16.71 16.3826 16.7542 16.3771 16.798 16.3693V16.1081C16.798 15.2977 16.798 14.4868 16.798 13.6756C16.798 13.3674 16.9399 13.1899 17.1793 13.1918C17.4187 13.1937 17.5543 13.3624 17.5543 13.6806C17.5543 14.5074 17.5543 15.3337 17.558 16.1599C17.57 16.2362 17.5929 16.3103 17.6262 16.3799C17.6855 16.3224 17.7674 16.2749 17.8018 16.2049C18.2462 15.3043 18.9705 14.8006 19.9693 14.7968C20.978 14.7924 21.7143 15.2968 22.1505 16.2112C22.213 16.3462 22.2843 16.3987 22.4293 16.3899C22.6793 16.3787 22.9293 16.3868 23.1899 16.3868V14.7737C23.0155 14.7643 22.838 14.7618 22.6624 14.7437C22.3841 14.7211 22.1235 14.5976 21.9298 14.3964C21.7361 14.1952 21.6226 13.9302 21.6105 13.6512C21.5955 13.3637 21.598 13.0743 21.6068 12.7862C21.6149 12.5331 21.7537 12.4031 22.008 12.3999C22.3718 12.3949 22.7362 12.3999 23.1018 12.3999C23.0705 12.0281 22.6018 11.5687 22.0599 11.5631C20.5712 11.5468 19.0824 11.5574 17.5537 11.5574C17.5537 11.6956 17.558 11.8243 17.5537 11.9524C17.543 12.2074 17.3937 12.3581 17.1662 12.3512C16.9499 12.3449 16.8043 12.1931 16.8012 11.9512C16.7962 11.5299 16.8012 11.1093 16.8012 10.6881V5.1612H2.36617C2.3618 5.2587 2.35305 5.35682 2.35305 5.45432C2.35305 7.55182 2.35305 9.64911 2.35305 11.7462C2.35514 11.8319 2.35284 11.9176 2.34617 12.0031C2.34307 12.0975 2.30287 12.1868 2.23431 12.2517C2.16574 12.3167 2.07434 12.352 1.97992 12.3499C1.88564 12.3524 1.79392 12.3191 1.72303 12.2569C1.65214 12.1947 1.60729 12.1081 1.59742 12.0143C1.59207 11.952 1.59082 11.8893 1.59367 11.8268V5.30182C1.59367 4.69682 1.8918 4.39807 2.49555 4.39807H16.6693C17.2505 4.39807 17.548 4.69057 17.553 5.26807C17.553 5.49995 17.553 5.73245 17.553 5.9912H17.8268C18.6537 5.9912 19.4799 5.9912 20.3062 5.9912C21.2593 5.99432 21.9237 6.6412 21.9537 7.5912C21.9568 7.67682 21.9537 7.76307 21.9537 7.84807C21.9668 8.07745 21.9112 8.26745 21.6605 8.34807C21.8593 9.13807 22.0518 9.91432 22.2543 10.6874C22.2686 10.7236 22.2906 10.7562 22.3188 10.7829C22.3469 10.8097 22.3806 10.83 22.4174 10.8424C23.4018 11.1206 23.9499 11.8381 23.9505 12.8643C23.9505 14.1352 23.9505 15.406 23.9505 16.6768C23.9505 17.0218 23.8174 17.1568 23.4724 17.1587C23.108 17.1587 22.7437 17.1587 22.3837 17.1587C22.1262 18.6943 21.2699 19.5456 19.9987 19.5506C18.6943 19.5556 17.838 18.7206 17.568 17.1706H9.1668C9.12867 17.9387 8.8368 18.5793 8.2293 19.0537C7.76367 19.4174 7.2293 19.5706 6.63742 19.5506C5.44367 19.5099 4.5943 18.6249 4.37305 17.1587C3.75555 17.1587 3.13367 17.1587 2.51242 17.1587C2.40313 17.1605 2.29401 17.1492 2.18742 17.1249C2.0188 17.087 1.86805 16.993 1.75985 16.8582C1.65165 16.7234 1.5924 16.5559 1.5918 16.3831C1.58617 16.1193 1.5918 15.8556 1.5918 15.5587C1.24867 15.5587 0.924297 15.5493 0.600547 15.5618C0.364297 15.5712 0.156797 15.5318 -0.00195312 15.3424L-7.8125e-05 15.0174ZM17.568 8.36432V10.7812H21.463C21.4678 10.7607 21.4699 10.7397 21.4693 10.7187C21.288 9.99557 21.1005 9.2737 20.9293 8.54807C20.8949 8.39995 20.8343 8.3637 20.6943 8.36432C19.993 8.36995 19.2912 8.36432 18.5893 8.36432H17.568ZM6.76867 15.5662C6.3401 15.5672 5.92939 15.738 5.62646 16.0411C5.32354 16.3443 5.15308 16.7551 5.15242 17.1837C5.15942 17.6125 5.33372 18.0216 5.63813 18.3237C5.94254 18.6257 6.35296 18.7969 6.7818 18.8006C7.21048 18.7964 7.62007 18.6227 7.92097 18.3173C8.22188 18.012 8.38959 17.5999 8.38742 17.1712C8.38895 16.9588 8.34802 16.7483 8.26703 16.552C8.18605 16.3557 8.06665 16.1775 7.91585 16.028C7.76504 15.8785 7.58588 15.7606 7.38888 15.6813C7.19187 15.602 6.98101 15.5629 6.76867 15.5662ZM19.9693 15.5662C19.7569 15.5658 19.5464 15.6075 19.3503 15.689C19.1541 15.7705 18.976 15.8901 18.8264 16.0409C18.6767 16.1917 18.5585 16.3707 18.4785 16.5675C18.3986 16.7643 18.3585 16.975 18.3605 17.1874C18.3617 17.3999 18.4046 17.6101 18.4869 17.806C18.5693 18.0019 18.6894 18.1797 18.8405 18.3292C18.9915 18.4786 19.1705 18.5969 19.3672 18.6772C19.564 18.7575 19.7746 18.7982 19.9871 18.7971C20.1996 18.796 20.4098 18.7531 20.6057 18.6707C20.8016 18.5884 20.9794 18.4683 21.1288 18.3172C21.2783 18.1662 21.3966 17.9872 21.4769 17.7904C21.5571 17.5937 21.5979 17.3831 21.5968 17.1706C21.5961 16.9581 21.5533 16.7479 21.471 16.5521C21.3886 16.3563 21.2684 16.1787 21.1171 16.0295C20.9658 15.8804 20.7865 15.7627 20.5895 15.6832C20.3925 15.6036 20.1817 15.5639 19.9693 15.5662ZM21.1837 7.57432C21.1768 7.08682 20.8449 6.76557 20.3387 6.76182C19.4668 6.75495 18.5943 6.76182 17.7224 6.76182C17.6698 6.76602 17.6176 6.77416 17.5662 6.7862V7.57557L21.1837 7.57432ZM23.1912 13.9768V13.1674H22.3787C22.293 13.8849 22.4493 14.0418 23.1912 13.9768Z" fill="#767676"/>
<path d="M9.16057 11.4599L12.3868 8.22807C12.4378 8.16912 12.495 8.11589 12.5574 8.06932C12.7287 7.95869 12.9018 7.96619 13.0449 8.11557C13.1881 8.26494 13.1881 8.43682 13.0743 8.60494C13.0316 8.66062 12.9837 8.71211 12.9312 8.75869C11.8062 9.88369 10.6812 11.0087 9.55619 12.1337C9.24744 12.4424 9.09869 12.4424 8.79432 12.1381C8.18807 11.5318 7.57682 10.9306 6.98182 10.3143C6.87718 10.2064 6.81752 10.0627 6.81494 9.91244C6.82307 9.80682 6.96494 9.65432 7.07244 9.62932C7.14199 9.61961 7.2128 9.62484 7.28016 9.64467C7.34752 9.6645 7.40988 9.69847 7.46307 9.74432C7.97744 10.2324 8.47307 10.7399 8.97369 11.2443C9.03557 11.2999 9.08557 11.3699 9.16057 11.4599Z" fill="#767676"/>
<path d="M12.7713 15.5624C11.8988 15.5624 11.0261 15.5624 10.1532 15.5624C10.0754 15.565 9.99762 15.5606 9.92066 15.5493C9.71754 15.5118 9.60004 15.3824 9.59817 15.1793C9.59629 14.9762 9.72316 14.8493 9.91879 14.8043C9.99561 14.7918 10.0736 14.788 10.1513 14.7931C11.9046 14.7931 13.6577 14.7931 15.4107 14.7931C15.5112 14.7897 15.6116 14.8023 15.7082 14.8306C15.7831 14.8577 15.8473 14.9083 15.8912 14.9749C15.9351 15.0415 15.9563 15.1204 15.9517 15.2C15.947 15.2796 15.9168 15.3556 15.8655 15.4166C15.8142 15.4776 15.7445 15.5205 15.6669 15.5387C15.5755 15.5564 15.4825 15.5642 15.3894 15.5618C14.5161 15.5622 13.6434 15.5624 12.7713 15.5624Z" fill="#767676"/>
<path d="M3.58133 13.1957C4.36008 13.1957 5.1382 13.1957 5.91695 13.1957C6.25883 13.1957 6.47133 13.4932 6.30133 13.7482C6.26157 13.8022 6.21095 13.8474 6.15273 13.8807C6.0945 13.9141 6.02995 13.9349 5.9632 13.9419C4.3757 13.9544 2.78758 13.9519 1.19945 13.9488C0.949453 13.9488 0.790703 13.7869 0.797578 13.5632C0.804453 13.3394 0.966953 13.1969 1.22258 13.1957C2.00883 13.1938 2.79508 13.1957 3.58133 13.1957Z" fill="#767676"/>
<path d="M17.5679 8.36438H18.5891C19.291 8.36438 19.9929 8.36438 20.6941 8.36438C20.8341 8.36438 20.8947 8.40001 20.9291 8.54813C21.1004 9.27376 21.2879 9.99563 21.4691 10.7188C21.4697 10.7398 21.4676 10.7608 21.4629 10.7813H17.5679V8.36438Z" fill="white"/>
<path d="M6.76859 15.5662C6.98093 15.5629 7.1918 15.602 7.3888 15.6813C7.5858 15.7606 7.76497 15.8785 7.91577 16.028C8.06657 16.1776 8.18597 16.3557 8.26696 16.552C8.34794 16.7484 8.38887 16.9589 8.38734 17.1712C8.38951 17.5999 8.2218 18.012 7.9209 18.3174C7.61999 18.6227 7.2104 18.7965 6.78172 18.8006C6.35288 18.7969 5.94246 18.6258 5.63805 18.3237C5.33364 18.0216 5.15934 17.6125 5.15234 17.1837C5.153 16.7552 5.32346 16.3443 5.62639 16.0412C5.92931 15.738 6.34003 15.5672 6.76859 15.5662ZM7.55734 17.1669C7.55505 17.0117 7.50664 16.8606 7.41828 16.733C7.32992 16.6054 7.2056 16.5069 7.06113 16.4502C6.91666 16.3934 6.75857 16.3809 6.60696 16.4142C6.45536 16.4475 6.31708 16.5251 6.20973 16.6373C6.10238 16.7494 6.0308 16.8909 6.0041 17.0438C5.97739 17.1967 5.99677 17.3541 6.05976 17.496C6.12276 17.6379 6.22652 17.7578 6.35786 17.8405C6.4892 17.9233 6.64218 17.9651 6.79734 17.9606C7.00217 17.9525 7.19585 17.8653 7.33762 17.7172C7.47938 17.5691 7.55815 17.3718 7.55734 17.1669Z" fill="white"/>
<path d="M19.9692 15.5662C20.1813 15.5643 20.3916 15.6042 20.5882 15.6837C20.7848 15.7633 20.9637 15.8809 21.1147 16.0298C21.2657 16.1787 21.3858 16.356 21.4681 16.5514C21.5504 16.7469 21.5932 16.9567 21.5942 17.1687C21.5965 17.5979 21.4281 18.0104 21.1262 18.3154C20.8244 18.6204 20.4137 18.7931 19.9845 18.7953C19.5554 18.7975 19.1429 18.6292 18.8379 18.3273C18.5328 18.0254 18.3602 17.6148 18.358 17.1856C18.3561 16.9731 18.3965 16.7624 18.4767 16.5656C18.557 16.3689 18.6755 16.19 18.8253 16.0394C18.9752 15.8887 19.1535 15.7693 19.3498 15.6881C19.5462 15.6069 19.7567 15.5655 19.9692 15.5662ZM19.9861 16.395C19.7814 16.3959 19.5849 16.4754 19.4372 16.6171C19.2894 16.7587 19.2018 16.9518 19.1923 17.1562C19.1761 17.575 19.543 17.955 19.9686 17.9606C20.0731 17.9645 20.1773 17.9474 20.275 17.9104C20.3728 17.8733 20.4622 17.8171 20.5379 17.745C20.6136 17.6729 20.6741 17.5863 20.7158 17.4904C20.7575 17.3946 20.7796 17.2913 20.7807 17.1868C20.7819 17.0822 20.7621 16.9785 20.7226 16.8817C20.683 16.785 20.6245 16.6971 20.5504 16.6233C20.4764 16.5495 20.3883 16.4913 20.2913 16.4521C20.1944 16.4128 20.0906 16.3934 19.9861 16.395Z" fill="white"/>
<path d="M21.1839 7.57443H17.5664V6.78505C17.6178 6.77302 17.67 6.76487 17.7227 6.76068C18.5945 6.76068 19.467 6.75505 20.3389 6.76068C20.8452 6.76568 21.177 7.08693 21.1839 7.57443Z" fill="white"/>
<path d="M23.191 13.9769C22.4492 14.0394 22.2929 13.885 22.3785 13.1675H23.191V13.9769Z" fill="white"/>
<path d="M7.5576 17.1669C7.55971 17.3221 7.51559 17.4745 7.43084 17.6046C7.34609 17.7347 7.22456 17.8367 7.0817 17.8975C6.93884 17.9583 6.78112 17.9753 6.6286 17.9462C6.47608 17.9171 6.33567 17.8433 6.22522 17.7342C6.11476 17.625 6.03927 17.4855 6.00835 17.3334C5.97743 17.1812 5.99247 17.0233 6.05156 16.8797C6.11066 16.7361 6.21113 16.6134 6.3402 16.5271C6.46926 16.4407 6.62109 16.3948 6.77635 16.395C6.98087 16.3985 7.17618 16.4806 7.32168 16.6244C7.46719 16.7681 7.55168 16.9624 7.5576 17.1669Z" fill="#767676"/>
<path d="M19.9862 16.395C20.0907 16.3934 20.1945 16.4128 20.2914 16.4521C20.3883 16.4913 20.4764 16.5495 20.5505 16.6233C20.6246 16.6971 20.6831 16.785 20.7226 16.8817C20.7622 16.9785 20.782 17.0822 20.7808 17.1868C20.7796 17.2913 20.7575 17.3946 20.7158 17.4904C20.6741 17.5863 20.6136 17.6729 20.538 17.745C20.4623 17.8171 20.3729 17.8733 20.2751 17.9104C20.1773 17.9474 20.0731 17.9645 19.9687 17.9606C19.543 17.955 19.1762 17.575 19.1924 17.1562C19.2019 16.9518 19.2895 16.7587 19.4372 16.6171C19.585 16.4754 19.7815 16.3959 19.9862 16.395Z" fill="#767676"/>
</g>
<defs>
<clipPath id="clip0_205_2629">
<rect width="24" height="24" fill="white"/>
</clipPath>
</defs>
</svg>
