<svg width="9" height="17" viewBox="0 0 9 17" fill="none" xmlns="http://www.w3.org/2000/svg">
<mask id="path-1-inside-1_956_219" fill="white">
<path fill-rule="evenodd" clip-rule="evenodd" d="M8.5687 16.0683C8.51065 16.1265 8.44168 16.1727 8.36574 16.2042C8.28981 16.2357 8.20841 16.252 8.1262 16.252C8.04399 16.252 7.96259 16.2357 7.88666 16.2042C7.81073 16.1727 7.74176 16.1265 7.6837 16.0683L0.183702 8.56834C0.125498 8.51028 0.079319 8.44131 0.0478115 8.36538C0.0163031 8.28945 8.4877e-05 8.20805 8.4877e-05 8.12584C8.4877e-05 8.04363 0.0163031 7.96223 0.0478115 7.88629C0.079319 7.81036 0.125498 7.74139 0.183702 7.68334L7.6837 0.183336C7.80106 0.0659771 7.96023 4.76837e-05 8.1262 4.76837e-05C8.29217 4.76837e-05 8.45134 0.0659771 8.5687 0.183336C8.68606 0.300694 8.75199 0.459867 8.75199 0.625836C8.75199 0.791806 8.68606 0.950978 8.5687 1.06834L1.50995 8.12584L8.5687 15.1833C8.62691 15.2414 8.67309 15.3104 8.70459 15.3863C8.7361 15.4622 8.75232 15.5436 8.75232 15.6258C8.75232 15.708 8.7361 15.7894 8.70459 15.8654C8.67309 15.9413 8.62691 16.0103 8.5687 16.0683Z"/>
</mask>
<path fill-rule="evenodd" clip-rule="evenodd" d="M8.5687 16.0683C8.51065 16.1265 8.44168 16.1727 8.36574 16.2042C8.28981 16.2357 8.20841 16.252 8.1262 16.252C8.04399 16.252 7.96259 16.2357 7.88666 16.2042C7.81073 16.1727 7.74176 16.1265 7.6837 16.0683L0.183702 8.56834C0.125498 8.51028 0.079319 8.44131 0.0478115 8.36538C0.0163031 8.28945 8.4877e-05 8.20805 8.4877e-05 8.12584C8.4877e-05 8.04363 0.0163031 7.96223 0.0478115 7.88629C0.079319 7.81036 0.125498 7.74139 0.183702 7.68334L7.6837 0.183336C7.80106 0.0659771 7.96023 4.76837e-05 8.1262 4.76837e-05C8.29217 4.76837e-05 8.45134 0.0659771 8.5687 0.183336C8.68606 0.300694 8.75199 0.459867 8.75199 0.625836C8.75199 0.791806 8.68606 0.950978 8.5687 1.06834L1.50995 8.12584L8.5687 15.1833C8.62691 15.2414 8.67309 15.3104 8.70459 15.3863C8.7361 15.4622 8.75232 15.5436 8.75232 15.6258C8.75232 15.708 8.7361 15.7894 8.70459 15.8654C8.67309 15.9413 8.62691 16.0103 8.5687 16.0683Z" fill="black"/>
<path d="M7.6837 16.0683L13.3477 10.4186L13.3406 10.4115L7.6837 16.0683ZM0.183702 8.56834L5.84056 2.91148L5.8334 2.90434L0.183702 8.56834ZM0.183702 7.68334L5.83341 13.3473L5.84056 13.3402L0.183702 7.68334ZM8.5687 1.06834L14.2251 6.72569L14.2256 6.72519L8.5687 1.06834ZM1.50995 8.12584L-4.1464 2.46848L-9.80476 8.12584L-4.1464 13.7832L1.50995 8.12584ZM8.5687 15.1833L2.91235 20.8407L2.919 20.8473L8.5687 15.1833ZM2.9047 10.4186C3.58978 9.73183 4.40361 9.18692 5.29961 8.81513L11.4319 23.5933C12.4797 23.1585 13.4315 22.5213 14.2327 21.718L2.9047 10.4186ZM5.29961 8.81513C6.19559 8.44333 7.15613 8.25195 8.1262 8.25195L8.1262 24.252C9.26069 24.252 10.384 24.0281 11.4319 23.5933L5.29961 8.81513ZM8.1262 8.25195C9.09627 8.25195 10.0568 8.44333 10.9528 8.81513L4.82052 23.5933C5.86837 24.0281 6.99171 24.252 8.1262 24.252L8.1262 8.25195ZM10.9528 8.81513C11.8488 9.18692 12.6626 9.73183 13.3477 10.4186L2.0197 21.718C2.82089 22.5213 3.77267 23.1585 4.82052 23.5933L10.9528 8.81513ZM13.3406 10.4115L5.84056 2.91148L-5.47315 14.2252L2.02685 21.7252L13.3406 10.4115ZM5.8334 2.90434C6.52024 3.58944 7.06513 4.40329 7.43691 5.29924L-7.34129 11.4315C-6.9065 12.4793 -6.26925 13.4311 -5.466 14.2323L5.8334 2.90434ZM7.43691 5.29924C7.8087 6.19522 8.00008 7.15576 8.00008 8.12584L-7.99992 8.12584C-7.99992 9.26033 -7.7761 10.3837 -7.34129 11.4315L7.43691 5.29924ZM8.00008 8.12584C8.00008 9.09591 7.8087 10.0565 7.43691 10.9524L-7.34129 4.82016C-7.7761 5.868 -7.99992 6.99134 -7.99992 8.12584L8.00008 8.12584ZM7.43691 10.9524C7.06513 11.8484 6.52024 12.6622 5.8334 13.3473L-5.466 2.01934C-6.26925 2.82056 -6.9065 3.77234 -7.34129 4.82016L7.43691 10.9524ZM5.84056 13.3402L13.3406 5.84019L2.02685 -5.47352L-5.47315 2.02648L5.84056 13.3402ZM13.3406 5.84019C11.9576 7.22313 10.0819 8.00005 8.1262 8.00005L8.1262 -7.99995C5.83852 -7.99995 3.64451 -7.09118 2.02685 -5.47352L13.3406 5.84019ZM8.1262 8.00005C6.17046 8.00005 4.29479 7.22313 2.91185 5.84019L14.2256 -5.47352C12.6079 -7.09118 10.4139 -7.99995 8.1262 -7.99995L8.1262 8.00005ZM2.91185 5.84019C1.52892 4.45726 0.751992 2.5816 0.751992 0.625836L16.752 0.625836C16.752 -1.66187 15.8432 -3.85587 14.2256 -5.47352L2.91185 5.84019ZM0.751992 0.625836C0.751992 -1.32993 1.52892 -3.20559 2.91185 -4.58852L14.2256 6.72519C15.8432 5.10754 16.752 2.91354 16.752 0.625836L0.751992 0.625836ZM2.91235 -4.58902L-4.1464 2.46848L7.1663 13.7832L14.2251 6.72569L2.91235 -4.58902ZM-4.1464 13.7832L2.91235 20.8407L14.2251 9.52598L7.1663 2.46848L-4.1464 13.7832ZM2.919 20.8473C2.2322 20.1623 1.68729 19.3484 1.31549 18.4524L16.0937 12.3202C15.6589 11.2723 15.0216 10.3205 14.2184 9.51934L2.919 20.8473ZM1.31549 18.4524C0.943685 17.5564 0.752319 16.5959 0.752319 15.6258L16.7523 15.6258C16.7523 14.4914 16.5285 13.368 16.0937 12.3202L1.31549 18.4524ZM0.752319 15.6258C0.752319 14.6558 0.943685 13.6953 1.31549 12.7992L16.0937 18.9315C16.5285 17.8836 16.7523 16.7603 16.7523 15.6258L0.752319 15.6258ZM1.31549 12.7992C1.68729 11.9032 2.2322 11.0894 2.919 10.4043L14.2184 21.7323C15.0216 20.9312 15.6589 19.9794 16.0937 18.9315L1.31549 12.7992Z" fill="#EB8319" mask="url(#path-1-inside-1_956_219)"/>
</svg>
