<svg width="349" height="267" viewBox="0 0 349 267" fill="none" xmlns="http://www.w3.org/2000/svg">
<g clip-path="url(#clip0_205_4276)">
<path d="M166.718 265.117L16.3701 174.827C11.5851 172.099 7.47997 167.609 12.1429 164.677L163.031 76.3083C165.297 74.8824 168.731 73.9525 171.032 75.3075L328.858 168.379C333.643 171.204 334.505 179.095 329.729 181.921L186.537 264.976C183.531 266.748 180.122 267.693 176.646 267.718C173.17 267.742 169.748 266.846 166.718 265.117Z" fill="#EB8319"/>
<path d="M111.817 126.533V133.308L104.914 137.293L97.8105 133.033V126.187L106.343 123.876L111.817 126.533Z" fill="#FF671C"/>
<path d="M112.383 126.674L108.121 125.656L104.591 130.128L96.8953 125.656L100.721 121.29L104.635 122.14L112.383 126.674Z" fill="#B26542"/>
<path d="M108.121 125.656L100.721 121.29L96.8953 125.656L104.591 130.128L108.121 125.656Z" fill="#8E3F17"/>
<path d="M102.508 134.672V130.881L103.833 131.66V135.362L102.508 134.672Z" fill="#8E3F17"/>
<path d="M100.347 133.334V129.553L101.68 130.332V134.034L100.347 133.334Z" fill="#8E3F17"/>
<path d="M98.3423 132.13V128.339L99.6758 129.119V132.83L98.3423 132.13Z" fill="#8E3F17"/>
<path d="M109.891 134.415V131.342L108.121 132.369V135.442L109.891 134.415Z" fill="#8E3F17"/>
<path d="M109.891 131.342C109.891 131.342 109.838 130.314 108.941 130.545C108.043 130.775 108.121 132.378 108.121 132.378" fill="#8E3F17"/>
<path style="mix-blend-mode:multiply" opacity="0.68" d="M138.566 113.895L134.033 111.238L126.085 115.055C125.492 116.374 128.107 118.721 130.443 118.358C133.228 117.021 135.939 115.531 138.566 113.895Z" fill="url(#paint0_linear_205_4276)"/>
<path d="M132.848 113.93C133.741 114.379 134.727 114.604 135.723 114.587C136.719 114.57 137.697 114.312 138.574 113.833C139.577 112.717 139.821 111.025 139.664 109.227C139.395 106.916 138.784 104.658 137.851 102.532C137.432 101.558 136.265 99.6803 135.01 100.584C133.972 101.328 133.676 102.674 133.266 103.834C132.351 106.686 130.896 110.405 132.395 113.31C132.514 113.539 132.667 113.748 132.848 113.93Z" fill="#2C9135"/>
<path d="M133.911 109.617C134.094 107.846 134.696 106.296 134.609 104.48C134.462 103.199 134.571 101.901 134.931 100.663C133.964 101.425 133.676 102.718 133.31 103.843C132.395 106.695 130.939 110.414 132.438 113.319C132.551 113.54 132.695 113.743 132.866 113.921C134.024 114.478 135.317 114.681 136.587 114.506C134.478 113.806 133.676 111.929 133.911 109.617Z" fill="#247728"/>
<path d="M96.7385 114.949L236.061 198.225L250.415 189.528L110.745 106.934L96.7385 114.949Z" fill="#53646C"/>
<path d="M236.758 114.072L98.8651 195.914L85.1987 187.642L223.518 106.074L236.758 114.072Z" fill="#53646C"/>
<path d="M19.1331 160.585L157.331 242.604L170.997 234.332L32.5815 152.712L19.1331 160.585Z" fill="#53646C"/>
<path d="M320.098 164.11L188.167 242.41L174.51 234.146L307.19 155.892L320.098 164.11Z" fill="#53646C"/>
<path d="M204.501 118.385V41.6887L188.036 51.0233V128.029L204.501 118.385Z" fill="#66A3FF"/>
<path opacity="0.33" d="M204.501 118.385V41.6887L188.036 51.0233V128.029L204.501 118.385Z" fill="#1E4549"/>
<path d="M188.036 51.0233L171.32 41.6887V118.057L188.036 128.029V51.0233Z" fill="#66A3FF"/>
<path d="M204.501 41.6886L188.036 31.4241L171.32 41.6886L188.036 51.0232L204.501 41.6886Z" fill="#CCCCCC"/>
<path d="M171.32 41.6887L188.036 51.0233L204.501 41.6887V43.9471L188.036 53.1577L171.32 43.7877V41.6887Z" fill="#1E4549"/>
<path d="M173.307 51.5636V47.9856L175.407 49.1546V52.5998L173.307 51.5636Z" fill="#1E4549"/>
<path d="M178.536 54.433V50.8462L180.628 52.0152V55.4604L178.536 54.433Z" fill="#1E4549"/>
<path d="M183.958 57.8161V54.2292L186.049 55.3983V58.8434L183.958 57.8161Z" fill="#1E4549"/>
<path d="M173.307 64.414V60.8271L175.407 61.9962V65.4413L173.307 64.414Z" fill="#1E4549"/>
<path d="M178.536 67.2748V63.6968L180.628 64.8658V68.3021L178.536 67.2748Z" fill="#1E4549"/>
<path d="M183.958 70.6578V67.0798L186.049 68.2489V71.6851L183.958 70.6578Z" fill="#1E4549"/>
<path d="M173.307 79.1069V75.52L175.407 76.6891V80.1342L173.307 79.1069Z" fill="#1E4549"/>
<path d="M178.536 81.9674V78.3894L180.628 79.5584V82.9947L178.536 81.9674Z" fill="#1E4549"/>
<path d="M183.958 85.3593V81.7725L186.049 82.9415V86.3866L183.958 85.3593Z" fill="#1E4549"/>
<path d="M173.307 93.6579V90.071L175.407 91.2401V94.6852L173.307 93.6579Z" fill="#1E4549"/>
<path d="M178.536 96.5184V92.9404L180.628 94.1095V97.5457L178.536 96.5184Z" fill="#1E4549"/>
<path d="M183.958 99.9017V96.3237L186.049 97.4928V100.929L183.958 99.9017Z" fill="#1E4549"/>
<path d="M173.307 108.209V104.622L175.407 105.791V109.236L173.307 108.209Z" fill="#1E4549"/>
<path d="M178.536 111.069V107.491L180.628 108.66V112.097L178.536 111.069Z" fill="#1E4549"/>
<path d="M183.958 114.452V110.875L186.049 112.044V115.48L183.958 114.452Z" fill="#1E4549"/>
<path d="M203.542 51.6078V48.021L201.441 49.19V52.6352L203.542 51.6078Z" fill="#1E4549"/>
<path d="M198.321 54.4684V50.8904L196.221 52.0594V55.4957L198.321 54.4684Z" fill="#1E4549"/>
<path d="M192.9 57.8514V54.2734L190.799 55.4425V58.8788L192.9 57.8514Z" fill="#1E4549"/>
<path d="M203.542 64.4496V60.8628L201.441 62.0318V65.477L203.542 64.4496Z" fill="#1E4549"/>
<path d="M198.321 67.3102V63.7322L196.221 64.9012V68.3375L198.321 67.3102Z" fill="#1E4549"/>
<path d="M192.9 70.7021V67.1152L190.799 68.2843V71.7294L192.9 70.7021Z" fill="#1E4549"/>
<path d="M203.542 79.1422V75.5642L201.441 76.7332V80.1695L203.542 79.1422Z" fill="#1E4549"/>
<path d="M198.321 82.0116V78.4248L196.221 79.5938V83.039L198.321 82.0116Z" fill="#1E4549"/>
<path d="M192.9 85.3949V81.8081L190.799 82.9771V86.4223L192.9 85.3949Z" fill="#1E4549"/>
<path d="M203.542 93.6932V90.1152L201.441 91.2843V94.7205L203.542 93.6932Z" fill="#1E4549"/>
<path d="M198.321 96.5627V92.9758L196.221 94.1449V97.59L198.321 96.5627Z" fill="#1E4549"/>
<path d="M192.9 99.946V96.3591L190.799 97.5282V100.973L192.9 99.946Z" fill="#1E4549"/>
<path d="M203.542 108.244V104.666L201.441 105.826V109.272L203.542 108.244Z" fill="#1E4549"/>
<path d="M198.321 111.114V107.527L196.221 108.696V112.141L198.321 111.114Z" fill="#1E4549"/>
<path d="M192.9 114.497V110.91L190.799 112.079V115.524L192.9 114.497Z" fill="#1E4549"/>
<path d="M203.734 57.9047V54.3179L201.642 55.4869V58.932L203.734 57.9047Z" fill="#1E4549"/>
<path d="M198.513 60.7652V57.1873L196.412 58.3563V61.7926L198.513 60.7652Z" fill="#1E4549"/>
<path d="M193.092 64.1483V60.5703L190.991 61.7394V65.1756L193.092 64.1483Z" fill="#1E4549"/>
<path d="M203.455 72.0041V68.4172L201.363 69.5863V73.0314L203.455 72.0041Z" fill="#1E4549"/>
<path d="M198.234 74.8646V71.2866L196.133 72.4468V75.8919L198.234 74.8646Z" fill="#1E4549"/>
<path d="M192.813 78.2477V74.6697L190.712 75.8387V79.275L192.813 78.2477Z" fill="#1E4549"/>
<path d="M203.455 86.679V83.1011L201.363 84.2701V87.7064L203.455 86.679Z" fill="#1E4549"/>
<path d="M198.234 89.5485V85.9617L196.133 87.1307V90.5758L198.234 89.5485Z" fill="#1E4549"/>
<path d="M192.813 92.9316V89.3447L190.712 90.5138V93.9589L192.813 92.9316Z" fill="#1E4549"/>
<path d="M203.455 101.567V97.9797L201.363 99.1488V102.585L203.455 101.567Z" fill="#1E4549"/>
<path d="M198.234 104.427V100.84L196.133 102.009V105.455L198.234 104.427Z" fill="#1E4549"/>
<path d="M192.813 107.81V104.223L190.712 105.392V108.838L192.813 107.81Z" fill="#1E4549"/>
<path d="M203.638 114.78V111.193L201.546 112.362V115.808L203.638 114.78Z" fill="#1E4549"/>
<path d="M198.417 117.641V114.063L196.316 115.232V118.668L198.417 117.641Z" fill="#1E4549"/>
<path d="M192.996 121.033V117.446L190.895 118.615V122.06L192.996 121.033Z" fill="#1E4549"/>
<path d="M173.211 57.639V54.061L175.303 55.2301V58.6752L173.211 57.639Z" fill="#1E4549"/>
<path d="M178.432 60.5085V56.9216L180.532 58.0907V61.5358L178.432 60.5085Z" fill="#1E4549"/>
<path d="M183.853 63.8915V60.3047L185.953 61.4737V64.9189L183.853 63.8915Z" fill="#1E4549"/>
<path d="M173.115 72.0041V68.4172L175.207 69.5863V73.0314L173.115 72.0041Z" fill="#1E4549"/>
<path d="M178.336 74.8646V71.2866L180.436 72.4468V75.8919L178.336 74.8646Z" fill="#1E4549"/>
<path d="M183.757 78.2477V74.6697L185.858 75.8387V79.275L183.757 78.2477Z" fill="#1E4549"/>
<path d="M173.115 86.4222V82.8442L175.207 84.0044V87.4496L173.115 86.4222Z" fill="#1E4549"/>
<path d="M178.336 89.2917V85.7048L180.436 86.8739V90.319L178.336 89.2917Z" fill="#1E4549"/>
<path d="M183.757 92.6747V89.0879L185.858 90.2569V93.7021L183.757 92.6747Z" fill="#1E4549"/>
<path d="M173.211 101.071V97.4927L175.303 98.6617V102.098L173.211 101.071Z" fill="#1E4549"/>
<path d="M178.432 103.94V100.353L180.532 101.522V104.967L178.432 103.94Z" fill="#1E4549"/>
<path d="M183.853 107.323V103.736L185.953 104.905V108.35L183.853 107.323Z" fill="#1E4549"/>
<path d="M173.115 114.78V111.193L175.207 112.362V115.808L173.115 114.78Z" fill="#1E4549"/>
<path d="M178.336 117.641V114.063L180.436 115.232V118.668L178.336 117.641Z" fill="#1E4549"/>
<path d="M183.757 121.033V117.446L185.858 118.615V122.06L183.757 121.033Z" fill="#1E4549"/>
<path d="M157.331 242.604C157.331 242.604 174.414 251.567 188.167 242.409L174.509 234.146C173.41 234.643 172.169 234.712 171.023 234.341C168.818 233.748 157.331 242.604 157.331 242.604Z" fill="#53646C"/>
<path d="M162.255 229.178C162.255 229.178 172.505 235.377 182.999 229.178C182.999 229.178 183.199 237.902 176.549 239.345C169.899 240.789 162.255 229.178 162.255 229.178Z" fill="#53646C"/>
<path style="mix-blend-mode:multiply" opacity="0.68" d="M181.534 224.75L177.002 222.093L169.053 225.91C168.461 227.23 171.075 229.577 173.411 229.214C176.197 227.876 178.908 226.386 181.534 224.75Z" fill="url(#paint1_linear_205_4276)"/>
<path d="M175.817 224.812C176.71 225.261 177.696 225.486 178.692 225.469C179.688 225.452 180.665 225.193 181.543 224.714C182.545 223.599 182.79 221.907 182.633 220.109C182.367 217.807 181.762 215.559 180.837 213.44C180.419 212.466 179.251 210.588 177.996 211.492C176.959 212.236 176.662 213.582 176.253 214.742C175.338 217.594 173.882 221.314 175.381 224.218C175.497 224.437 175.644 224.636 175.817 224.812Z" fill="#2C9135"/>
<path d="M176.88 220.517C177.063 218.745 177.665 217.195 177.577 215.38C177.43 214.098 177.54 212.8 177.9 211.563C176.932 212.324 176.645 213.617 176.279 214.742C175.364 217.594 173.908 221.314 175.407 224.218C175.52 224.439 175.664 224.642 175.834 224.821C176.993 225.378 178.286 225.581 179.556 225.405C177.447 224.697 176.645 222.81 176.88 220.517Z" fill="#247728"/>
<path style="mix-blend-mode:multiply" opacity="0.68" d="M193.972 218.674L189.44 216.018L181.491 219.835C180.898 221.154 183.513 223.501 185.849 223.138C188.634 221.801 191.346 220.311 193.972 218.674Z" fill="url(#paint2_linear_205_4276)"/>
<path d="M188.089 218.887C188.982 219.336 189.967 219.561 190.963 219.544C191.959 219.527 192.937 219.268 193.815 218.79C194.817 217.674 195.061 215.982 194.904 214.184C194.639 211.882 194.033 209.634 193.109 207.515C192.691 206.541 191.523 204.664 190.268 205.567C189.23 206.311 188.934 207.657 188.524 208.817C187.609 211.669 186.154 215.389 187.653 218.294C187.769 218.512 187.916 218.712 188.089 218.887Z" fill="#2C9135"/>
<path d="M189.152 214.592C189.335 212.82 189.937 211.271 189.849 209.455C189.702 208.174 189.812 206.875 190.172 205.638C189.204 206.4 188.917 207.693 188.551 208.817C187.636 211.669 186.18 215.389 187.679 218.294C187.792 218.514 187.936 218.717 188.106 218.896C189.265 219.453 190.558 219.656 191.828 219.48C189.727 218.763 188.926 216.886 189.152 214.592Z" fill="#247728"/>
<path style="mix-blend-mode:multiply" opacity="0.68" d="M229.663 199.226L225.131 196.569L217.165 200.413C216.572 201.732 219.187 204.079 221.523 203.716C224.314 202.371 227.032 200.872 229.663 199.226Z" fill="url(#paint3_linear_205_4276)"/>
<path d="M223.937 199.252C224.83 199.701 225.815 199.926 226.812 199.909C227.808 199.892 228.785 199.634 229.663 199.155C230.665 198.039 230.909 196.347 230.753 194.55C230.487 192.248 229.881 189.999 228.957 187.881C228.539 186.906 227.371 185.029 226.116 185.932C225.079 186.676 224.782 188.022 224.373 189.183C223.457 192.034 222.002 195.754 223.501 198.659C223.617 198.877 223.764 199.077 223.937 199.252Z" fill="#2C9135"/>
<path d="M225.009 194.957C225.192 193.186 225.793 191.636 225.706 189.82C225.559 188.539 225.669 187.24 226.029 186.003C225.061 186.765 224.774 188.058 224.407 189.183C223.492 192.034 222.037 195.754 223.536 198.659C223.649 198.88 223.793 199.082 223.963 199.261C225.122 199.818 226.415 200.021 227.685 199.846C225.575 199.137 224.774 197.295 225.009 194.957Z" fill="#247728"/>
<path style="mix-blend-mode:multiply" opacity="0.68" d="M119.382 193.372L114.85 190.715L106.901 194.532C106.308 195.852 108.923 198.198 111.259 197.835C114.044 196.498 116.756 195.008 119.382 193.372Z" fill="url(#paint4_linear_205_4276)"/>
<path d="M113.656 193.398C114.549 193.847 115.534 194.072 116.531 194.055C117.527 194.038 118.504 193.78 119.382 193.301C120.384 192.185 120.628 190.493 120.472 188.696C120.206 186.394 119.6 184.145 118.676 182.027C118.258 181.052 117.09 179.175 115.835 180.078C114.798 180.822 114.501 182.168 114.092 183.329C113.176 186.18 111.721 189.9 113.22 192.805C113.336 193.023 113.483 193.223 113.656 193.398Z" fill="#2C9135"/>
<path d="M114.719 189.103C114.902 187.332 115.503 185.782 115.416 183.966C115.269 182.685 115.379 181.386 115.739 180.149C114.771 180.911 114.484 182.204 114.118 183.329C113.203 186.18 111.747 189.9 113.246 192.805C113.359 193.026 113.503 193.228 113.673 193.407C114.832 193.964 116.125 194.167 117.395 193.992C115.294 193.283 114.492 191.397 114.719 189.103Z" fill="#247728"/>
<path style="mix-blend-mode:multiply" opacity="0.68" d="M132.848 187.438L128.316 184.781L120.367 188.598C119.774 189.918 122.389 192.265 124.725 191.902C127.51 190.564 130.222 189.074 132.848 187.438Z" fill="url(#paint5_linear_205_4276)"/>
<path d="M127.13 187.465C128.023 187.913 129.009 188.139 130.005 188.122C131.001 188.105 131.979 187.846 132.857 187.367C133.859 186.251 134.103 184.56 133.946 182.762C133.68 180.46 133.075 178.212 132.151 176.093C131.732 175.119 130.564 173.241 129.309 174.145C128.272 174.889 127.976 176.235 127.566 177.395C126.651 180.247 125.195 183.966 126.695 186.871C126.811 187.089 126.958 187.289 127.13 187.465Z" fill="#2C9135"/>
<path d="M128.194 183.169C128.377 181.398 128.978 179.848 128.891 178.032C128.744 176.751 128.853 175.453 129.213 174.215C128.246 174.977 127.958 176.27 127.592 177.395C126.677 180.247 125.222 183.966 126.721 186.871C126.834 187.092 126.978 187.295 127.148 187.473C128.306 188.03 129.599 188.233 130.869 188.058C128.76 187.349 127.958 185.463 128.194 183.169Z" fill="#247728"/>
<path style="mix-blend-mode:multiply" opacity="0.68" d="M138.566 152.278L134.033 149.621L126.085 153.438C125.492 154.758 128.107 157.105 130.443 156.742C133.228 155.405 135.939 153.914 138.566 152.278Z" fill="url(#paint6_linear_205_4276)"/>
<path d="M132.848 152.305C133.741 152.753 134.727 152.979 135.723 152.962C136.719 152.945 137.697 152.686 138.574 152.207C139.577 151.091 139.821 149.4 139.664 147.602C139.398 145.3 138.793 143.052 137.868 140.933C137.45 139.959 136.282 138.081 135.027 138.985C133.99 139.729 133.694 141.075 133.284 142.235C132.369 145.087 130.913 148.806 132.412 151.711C132.529 151.929 132.676 152.129 132.848 152.305Z" fill="#2C9135"/>
<path d="M133.911 148.009C134.094 146.238 134.696 144.688 134.609 142.873C134.462 141.591 134.571 140.293 134.931 139.056C133.964 139.817 133.676 141.11 133.31 142.235C132.395 145.087 130.939 148.807 132.438 151.711C132.551 151.932 132.695 152.135 132.866 152.314C134.024 152.871 135.317 153.074 136.587 152.898C134.478 152.19 133.676 150.303 133.911 148.009Z" fill="#247728"/>
<path style="mix-blend-mode:multiply" opacity="0.68" d="M100.695 176.04L96.1632 173.383L88.1708 177.191C87.5781 178.511 90.1929 180.858 92.5287 180.494C95.3286 179.161 98.0549 177.674 100.695 176.04Z" fill="url(#paint7_linear_205_4276)"/>
<path d="M94.9692 176.04C95.8622 176.489 96.8479 176.714 97.844 176.697C98.8401 176.68 99.8178 176.421 100.696 175.942C101.698 174.827 101.942 173.135 101.785 171.337C101.519 169.035 100.914 166.787 99.9895 164.668C99.5712 163.694 98.4033 161.817 97.1482 162.72C96.111 163.464 95.8147 164.81 95.405 165.97C94.4899 168.822 93.0343 172.542 94.5334 175.446C94.6498 175.665 94.7966 175.864 94.9692 176.04Z" fill="#2C9135"/>
<path d="M96.015 171.736C96.198 169.964 96.7994 168.414 96.7122 166.599C96.565 165.317 96.6747 164.019 97.0347 162.782C96.0672 163.543 95.7796 164.836 95.4136 165.961C94.4984 168.813 93.0429 172.533 94.542 175.438C94.655 175.658 94.7989 175.861 94.9691 176.04C96.1277 176.597 97.4206 176.8 98.6907 176.624C96.6076 175.916 95.8058 174.029 96.015 171.736Z" fill="#247728"/>
<path style="mix-blend-mode:multiply" opacity="0.68" d="M127.008 241.276L162.255 216.779L143.952 207.923L108.487 230.161C110.605 231.702 124.934 239.753 127.008 241.276Z" fill="url(#paint8_linear_205_4276)"/>
<path style="mix-blend-mode:multiply" opacity="0.68" d="M39.6935 189.555L74.8966 165.031L56.6719 156.175L21.2073 178.458C23.2816 179.981 37.6191 188.04 39.6935 189.555Z" fill="url(#paint9_linear_205_4276)"/>
<path style="mix-blend-mode:multiply" opacity="0.68" d="M66.2769 177.705C66.2769 177.705 102.805 156.042 104.391 154.926L86.1663 146.07L47.0498 166.156C49.1242 167.688 64.1938 176.19 66.2769 177.705Z" fill="url(#paint10_linear_205_4276)"/>
<path d="M83.3771 160.639V81.5513L66.4075 91.187V170.584L83.3771 160.639Z" fill="#66A3FF"/>
<path opacity="0.33" d="M83.3771 160.639V81.5513L66.4075 91.187V170.584L83.3771 160.639Z" fill="#1E4549"/>
<path d="M66.4076 91.187L49.1677 81.5513V160.302L66.4076 170.584V91.187Z" fill="#66A3FF"/>
<path d="M83.3772 81.5511L66.4076 70.9678L49.1677 81.5511L66.4076 91.1869L83.3772 81.5511Z" fill="#9D9CA1"/>
<path d="M79.307 77.6633V80.6302L65.7626 88.5832L52.2183 80.6302V77.6633" fill="#CC9825"/>
<path d="M79.307 77.6899L65.8672 69.3118L52.2183 77.6899L65.8672 85.3152L79.307 77.6899Z" fill="#F9E1AA"/>
<path d="M49.1677 87.1218L66.5557 96.2616L83.3772 87.2812V88.6628L66.5557 97.6343L49.1677 88.5034V87.1218Z" fill="#CCCCCC"/>
<path d="M49.1677 92.8608L66.5557 101.992L83.3772 93.0114V94.393L66.5557 103.373L49.1677 94.2336V92.8608Z" fill="#CCCCCC"/>
<path d="M49.1677 99.1045L66.6255 108.271L83.3772 99.3348V100.716L66.6255 109.652L49.1677 100.486V99.1045Z" fill="#CCCCCC"/>
<path d="M49.1677 104.764L66.7649 114.001L83.3772 105.136V106.526L66.7649 115.382L49.1677 106.145V104.764Z" fill="#CCCCCC"/>
<path d="M49.1677 110.281L66.486 119.377L83.3772 110.361V111.743L66.4947 120.758L49.1677 111.654V110.281Z" fill="#CCCCCC"/>
<path d="M49.1677 115.94L66.6255 125.107L83.3772 116.171V117.552L66.6255 126.488L49.1677 117.313V115.94Z" fill="#CCCCCC"/>
<path d="M49.1677 121.538L66.4163 130.598L83.3772 121.546V122.928L66.425 131.979L49.1677 122.91V121.538Z" fill="#CCCCCC"/>
<path d="M49.1677 127.383L66.5557 136.514L83.3772 127.542V128.924L66.5557 137.895L49.1677 128.764V127.383Z" fill="#CCCCCC"/>
<path d="M49.1677 133.219L66.6952 142.43L83.3772 133.529V134.911L66.6952 143.811L49.1677 134.601V133.219Z" fill="#CCCCCC"/>
<path d="M49.1677 138.878L66.8259 148.16L83.3772 139.33V140.712L66.8346 149.541L49.1677 140.26V138.878Z" fill="#CCCCCC"/>
<path d="M49.1677 145.149L66.4163 154.209L83.3772 145.158V146.539L66.425 155.59L49.1677 146.53V145.149Z" fill="#CCCCCC"/>
<path d="M49.1677 150.808L66.5557 159.939L83.3772 150.968V152.349L66.5557 161.321L49.1677 152.19V150.808Z" fill="#CCCCCC"/>
<path d="M49.1677 156.308L66.6255 165.483L83.3772 156.538V157.929L66.6255 166.865L49.1677 157.689V156.308Z" fill="#CCCCCC"/>
<path d="M104.382 154.607V108.492L94.4897 114.107V160.408L104.382 154.607Z" fill="#66A3FF"/>
<path opacity="0.33" d="M104.382 154.607V108.492L94.4897 114.107V160.408L104.382 154.607Z" fill="#1E4549"/>
<path d="M94.4897 114.107L84.4404 108.492V154.412L94.4897 160.408V114.107Z" fill="#66A3FF"/>
<path d="M104.382 108.492L94.4897 102.319L84.4404 108.492L94.4897 114.107L104.382 108.492Z" fill="#9D9CA1"/>
<path d="M102.012 106.225V107.952L94.115 112.593L86.2185 107.952V106.225" fill="#CC9825"/>
<path d="M102.012 106.243L94.176 101.354L86.2185 106.243L94.176 110.689L102.012 106.243Z" fill="#F9E1AA"/>
<path d="M84.4404 111.742L94.5769 117.065L104.382 111.831V112.646L94.5769 117.871L84.4404 112.548V111.742Z" fill="#CCCCCC"/>
<path d="M84.4404 115.081L94.5769 120.413L104.382 115.179V115.985L94.5769 121.219L84.4404 115.887V115.081Z" fill="#CCCCCC"/>
<path d="M84.4404 118.73L94.6118 124.071L104.382 118.863V119.669L94.6205 124.877L84.4404 119.527V118.73Z" fill="#CCCCCC"/>
<path d="M84.4404 122.025L94.6989 127.418L104.382 122.246V123.052L94.6989 128.224L84.4404 122.831V122.025Z" fill="#CCCCCC"/>
<path d="M84.4404 125.249L94.5333 130.554L104.382 125.293V126.099L94.542 131.351L84.4404 126.046V125.249Z" fill="#CCCCCC"/>
<path d="M84.4404 128.543L94.6118 133.892L104.382 128.676V129.491L94.6205 134.698L84.4404 129.349V128.543Z" fill="#CCCCCC"/>
<path d="M84.4404 131.811L94.4985 137.089L104.382 131.811V132.626L94.4985 137.895L84.4404 132.617V131.811Z" fill="#CCCCCC"/>
<path d="M84.4404 135.221L94.5769 140.543L104.382 135.309V136.115L94.5769 141.349L84.4404 136.018V135.221Z" fill="#CCCCCC"/>
<path d="M84.4404 138.622L94.6553 143.989L104.382 138.799V139.605L94.6553 144.794L84.4404 139.428V138.622Z" fill="#CCCCCC"/>
<path d="M84.4404 141.925L94.7338 147.336L104.382 142.182V142.997L94.7338 148.142L84.4404 142.731V141.925Z" fill="#CCCCCC"/>
<path d="M84.4404 145.574L94.4985 150.861L104.382 145.583V146.389L94.4985 151.667L84.4404 146.38V145.574Z" fill="#CCCCCC"/>
<path d="M84.4404 148.877L94.5769 154.2L104.382 148.975V149.781L94.5769 155.006L84.4404 149.683V148.877Z" fill="#CCCCCC"/>
<path d="M84.4404 152.092L94.6118 157.433L104.382 152.225V153.031L94.6205 158.239L84.4404 152.889V152.092Z" fill="#CCCCCC"/>
<path style="mix-blend-mode:multiply" opacity="0.68" d="M254.338 181.106C254.338 181.106 293.175 161.232 294.735 160.098L273.321 148.957L233.149 170.053C235.241 171.612 252.263 179.582 254.338 181.106Z" fill="url(#paint11_linear_205_4276)"/>
<path d="M295.223 160.028V105.03L275.29 116.348V168.645L275.709 168.742C282.001 165.35 288.887 163.304 295.223 160.028Z" fill="#66A3FF"/>
<path opacity="0.33" d="M295.223 160.028V105.03L275.29 116.348V168.645L275.709 168.742C282.001 165.35 288.887 163.304 295.223 160.028Z" fill="#1E4549"/>
<path d="M275.29 168.636V116.339L255.043 105.021V158.619C262.217 161.037 268.021 166.652 275.29 168.636Z" fill="#66A3FF"/>
<path d="M295.223 105.02L275.29 92.595L255.043 105.02L275.29 116.339L295.223 105.02Z" fill="#CCCCCC"/>
<path d="M255.043 105.021L275.29 116.339L295.223 105.021V107.766L275.29 118.916L255.043 107.571V105.021Z" fill="#1E4549"/>
<path d="M257.449 116.994V112.655L259.994 114.072V118.234L257.449 116.994Z" fill="#E0E0E0"/>
<path d="M263.777 120.466V116.126L266.322 117.535V121.706L263.777 120.466Z" fill="#E0E0E0"/>
<path d="M270.348 124.558V120.218L272.885 121.635V125.806L270.348 124.558Z" fill="#E0E0E0"/>
<path d="M257.449 132.546V128.207L259.994 129.624V133.795L257.449 132.546Z" fill="#E0E0E0"/>
<path d="M263.777 136.018V131.678L266.322 133.095V137.267L263.777 136.018Z" fill="#E0E0E0"/>
<path d="M270.348 140.118V135.779L272.885 137.196V141.358L270.348 140.118Z" fill="#E0E0E0"/>
<path d="M257.449 150.347V146.008L259.994 147.425V151.596L257.449 150.347Z" fill="#E0E0E0"/>
<path d="M263.777 153.819V149.479L266.322 150.897V155.059L263.777 153.819Z" fill="#E0E0E0"/>
<path d="M270.348 157.911V153.571L272.885 154.988V159.16L270.348 157.911Z" fill="#E0E0E0"/>
<path d="M294.064 117.039V112.699L291.528 114.116V118.287L294.064 117.039Z" fill="#E0E0E0"/>
<path d="M287.736 120.51V116.171L285.2 117.588V121.75L287.736 120.51Z" fill="#E0E0E0"/>
<path d="M281.174 124.611V120.271L278.637 121.688V125.851L281.174 124.611Z" fill="#E0E0E0"/>
<path d="M294.064 132.599V128.26L291.528 129.668V133.839L294.064 132.599Z" fill="#E0E0E0"/>
<path d="M287.736 136.062V131.723L285.2 133.14V137.311L287.736 136.062Z" fill="#E0E0E0"/>
<path d="M281.174 140.163V135.823L278.637 137.24V141.411L281.174 140.163Z" fill="#E0E0E0"/>
<path d="M294.064 150.392V146.052L291.528 147.469V151.641L294.064 150.392Z" fill="#E0E0E0"/>
<path d="M287.736 153.864V149.524L285.2 150.941V155.112L287.736 153.864Z" fill="#E0E0E0"/>
<path d="M281.174 157.964V153.624L278.637 155.041V159.204L281.174 157.964Z" fill="#E0E0E0"/>
<path d="M255.043 137.24L275.465 147.965L295.223 137.417V141.712L275.29 152.243L255.043 141.712V137.24Z" fill="#2E5B5A"/>
<path d="M255.043 155.059L275.465 165.793L295.223 155.245V159.54L275.29 170.071L255.043 159.54V155.059Z" fill="#2E5B5A"/>
<path d="M255.043 120.218L275.465 130.952L295.223 120.404V124.699L275.29 135.23L255.043 124.699V120.218Z" fill="#2E5B5A"/>
<path style="mix-blend-mode:multiply" opacity="0.68" d="M216.067 162.755C216.067 162.755 252.098 139.906 253.684 138.79L232.269 127.649L192.098 148.745C194.164 150.356 213.984 161.285 216.067 162.755Z" fill="url(#paint12_linear_205_4276)"/>
<path d="M219.082 122.716V139.658L236.348 149.63L254.128 138.985V121.848L232.766 116.064L219.082 122.716Z" fill="#66A3FF"/>
<path d="M217.653 123.061L228.33 120.519L237.168 131.705L256.429 120.519L246.842 109.59L237.045 111.707L217.653 123.061Z" fill="#6B7B82"/>
<path d="M228.33 120.519L246.842 109.59L256.429 120.519L237.167 131.705L228.33 120.519Z" fill="#6B7B82"/>
<g style="mix-blend-mode:multiply">
<path d="M242.379 143.068V133.591L239.05 135.54V144.812L242.379 143.068Z" fill="#6B7B82"/>
</g>
<g style="mix-blend-mode:multiply">
<path d="M247.775 139.738V130.261L244.445 132.21V141.482L247.775 139.738Z" fill="#6B7B82"/>
</g>
<g style="mix-blend-mode:multiply">
<path d="M252.795 136.709V127.241L249.465 129.181V138.453L252.795 136.709Z" fill="#6B7B82"/>
</g>
<g style="mix-blend-mode:multiply">
<path d="M223.893 142.43V134.734L228.33 137.32V144.998L223.893 142.43Z" fill="#6B7B82"/>
<path d="M223.893 134.734C223.893 134.734 224.033 132.165 226.273 132.741C228.513 133.317 228.33 137.32 228.33 137.32" fill="#6B7B82"/>
</g>
<path d="M245.866 108.74V116.968L238.03 121.573L230.186 116.968V108.74" fill="#53646C"/>
<path d="M245.866 108.74L238.083 103.887L230.186 108.74L238.083 113.16L245.866 108.74Z" fill="#66A3FF"/>
<path d="M235.318 118.046C236.516 117.486 236.901 115.735 236.177 114.135C235.453 112.536 233.895 111.692 232.696 112.252C231.498 112.812 231.113 114.563 231.837 116.163C232.561 117.763 234.119 118.606 235.318 118.046Z" fill="white"/>
<path d="M238.205 110.45C240.241 110.45 241.891 109.799 241.891 108.997C241.891 108.195 240.241 107.545 238.205 107.545C236.168 107.545 234.518 108.195 234.518 108.997C234.518 109.799 236.168 110.45 238.205 110.45Z" fill="#53646C"/>
<path d="M234.518 109.006V103.143H241.891V109.006" fill="#53646C"/>
<path d="M238.205 104.596C240.241 104.596 241.891 103.945 241.891 103.143C241.891 102.341 240.241 101.691 238.205 101.691C236.168 101.691 234.518 102.341 234.518 103.143C234.518 103.945 236.168 104.596 238.205 104.596Z" fill="#53646C"/>
<path d="M234.901 103.249L238.205 93.4365L241.508 103.179C240.586 103.962 239.404 104.355 238.205 104.277C237.016 104.362 235.839 103.996 234.901 103.249Z" fill="#66A3FF"/>
<path d="M244.567 115.777C245.291 114.178 244.906 112.427 243.708 111.867C242.509 111.307 240.951 112.15 240.227 113.75C239.503 115.35 239.888 117.101 241.086 117.661C242.285 118.22 243.843 117.377 244.567 115.777Z" fill="white"/>
<path style="mix-blend-mode:multiply" opacity="0.68" d="M198.182 211.846C198.182 211.846 215.613 201.564 216.354 201.024L206.017 195.648L186.659 205.833C187.636 206.568 197.179 211.111 198.182 211.846Z" fill="url(#paint13_linear_205_4276)"/>
<path d="M197.65 192.424V201.458L206.862 206.789L216.354 201.103V191.955L204.954 188.864L197.65 192.424Z" fill="#F9AC91"/>
<path d="M196.883 192.601L202.583 191.246L207.298 197.215L217.574 191.246L212.458 185.41L207.229 186.544L196.883 192.601Z" fill="#B26542"/>
<path d="M202.583 191.246L212.458 185.41L217.574 191.246L207.298 197.215L202.583 191.246Z" fill="#8E3F17"/>
<path d="M210.079 203.282V198.225L208.301 199.261V204.212L210.079 203.282Z" fill="#8E3F17"/>
<path d="M212.964 201.502V196.445L211.186 197.481V202.432L212.964 201.502Z" fill="#8E3F17"/>
<path d="M215.639 199.89V194.833L213.861 195.869V200.82L215.639 199.89Z" fill="#8E3F17"/>
<path d="M200.212 202.946V198.836L202.583 200.218V204.309L200.212 202.946Z" fill="#8E3F17"/>
<path d="M200.212 198.836C200.212 198.836 200.291 197.463 201.485 197.773C202.679 198.083 202.583 200.218 202.583 200.218" fill="#8E3F17"/>
<path style="mix-blend-mode:multiply" opacity="0.68" d="M178.998 200.607C178.998 200.607 196.43 190.325 197.171 189.785L186.834 184.409L167.485 194.585C168.452 195.329 177.996 199.872 178.998 200.607Z" fill="url(#paint14_linear_205_4276)"/>
<path style="mix-blend-mode:multiply" opacity="0.68" d="M242.345 187.704C242.345 187.704 259.776 177.421 260.517 176.881L250.18 171.505L230.796 181.681C231.798 182.425 241.342 186.969 242.345 187.704Z" fill="url(#paint15_linear_205_4276)"/>
<path style="mix-blend-mode:multiply" opacity="0.68" d="M215.77 173.649C215.77 173.649 233.202 163.366 233.943 162.826L223.606 157.441L204.222 167.617C205.224 168.37 214.768 172.913 215.77 173.649Z" fill="url(#paint16_linear_205_4276)"/>
<path style="mix-blend-mode:multiply" opacity="0.68" d="M197.354 162.357C197.354 162.357 214.785 152.075 215.526 151.534L205.189 146.158L185.788 156.343C186.808 157.078 196.351 161.631 197.354 162.357Z" fill="url(#paint17_linear_205_4276)"/>
<path d="M196.979 142.474V151.508L206.192 156.839L215.683 151.153V142.005L204.283 138.914L196.979 142.474Z" fill="#FF671C"/>
<path d="M196.212 142.651L201.912 141.296L206.627 147.266L216.912 141.296L211.787 135.46L206.558 136.594L196.212 142.651Z" fill="#B26542"/>
<path d="M201.912 141.296L211.787 135.46L216.912 141.296L206.627 147.266L201.912 141.296Z" fill="#8E3F17"/>
<path d="M209.408 153.332V148.275L207.63 149.311V154.262L209.408 153.332Z" fill="#8E3F17"/>
<path d="M212.292 151.552V146.495L210.514 147.531V152.482L212.292 151.552Z" fill="#8E3F17"/>
<path d="M214.968 149.94V144.883L213.19 145.919V150.87L214.968 149.94Z" fill="#8E3F17"/>
<path d="M199.541 152.996V148.886L201.912 150.268V154.359L199.541 152.996Z" fill="#8E3F17"/>
<path d="M199.541 148.886C199.541 148.886 199.62 147.513 200.814 147.823C202.008 148.133 201.912 150.268 201.912 150.268" fill="#8E3F17"/>
<path d="M216.066 153.757V162.8L225.279 168.122L234.771 162.436V153.297L223.37 150.206L216.066 153.757Z" fill="#F9AC91"/>
<path d="M215.3 153.943L221 152.588L225.715 158.557L236 152.588L230.875 146.752L225.654 147.885L215.3 153.943Z" fill="#B26542"/>
<path d="M221 152.588L230.875 146.752L235.999 152.588L225.715 158.557L221 152.588Z" fill="#8E3F17"/>
<path d="M228.495 164.624V159.567L226.717 160.603V165.554L228.495 164.624Z" fill="#8E3F17"/>
<path d="M231.38 162.844V157.787L229.602 158.823V163.774L231.38 162.844Z" fill="#8E3F17"/>
<path d="M234.056 161.232V156.166L232.278 157.211V162.162L234.056 161.232Z" fill="#8E3F17"/>
<path d="M218.629 164.279V160.169L221 161.551V165.651L218.629 164.279Z" fill="#8E3F17"/>
<path d="M218.629 160.169C218.629 160.169 218.707 158.796 219.901 159.106C221.095 159.416 221 161.551 221 161.551" fill="#8E3F17"/>
<path d="M241.909 168.264V177.297L251.122 182.629L260.613 176.943V167.794L249.213 164.704L241.909 168.264Z" fill="#A2DB52"/>
<path d="M241.142 168.441L246.842 167.086L251.557 173.055L261.833 167.086L256.717 161.25L251.487 162.383L241.142 168.441Z" fill="#B26542"/>
<path d="M246.842 167.086L256.717 161.25L261.833 167.086L251.557 173.055L246.842 167.086Z" fill="#8E3F17"/>
<path d="M254.338 179.122V174.065L252.56 175.101V180.052L254.338 179.122Z" fill="#8E3F17"/>
<path d="M257.222 177.342V172.285L255.444 173.321V178.272L257.222 177.342Z" fill="#8E3F17"/>
<path d="M259.898 175.73V170.673L258.12 171.709V176.66L259.898 175.73Z" fill="#8E3F17"/>
<path d="M244.471 178.785V174.676L246.842 176.058V180.149L244.471 178.785Z" fill="#8E3F17"/>
<path d="M244.471 174.676C244.471 174.676 244.55 173.303 245.744 173.613C246.938 173.923 246.798 176.04 246.798 176.04" fill="#8E3F17"/>
<path d="M178.562 181.132V190.175L187.775 195.497L197.267 189.811V180.672L185.866 177.581L178.562 181.132Z" fill="#FF671C"/>
<path d="M177.795 181.318L183.496 179.954L188.211 185.924L198.487 179.954L193.371 174.127L188.141 175.252L177.795 181.318Z" fill="#B26542"/>
<path d="M183.496 179.954L193.371 174.127L198.487 179.954L188.211 185.924L183.496 179.954Z" fill="#8E3F17"/>
<path d="M190.991 191.99V186.933L189.213 187.969V192.92L190.991 191.99Z" fill="#8E3F17"/>
<path d="M193.876 190.219V185.162L192.098 186.198V191.149L193.876 190.219Z" fill="#8E3F17"/>
<path d="M196.552 188.598V183.541L194.774 184.577V189.528L196.552 188.598Z" fill="#8E3F17"/>
<path d="M181.125 191.654V187.544L183.495 188.926V193.026L181.125 191.654Z" fill="#8E3F17"/>
<path d="M181.125 187.553C181.125 187.553 181.203 186.18 182.397 186.49C183.591 186.8 183.495 188.935 183.495 188.935" fill="#8E3F17"/>
<path d="M143.952 92.2498C143.952 92.2498 160.756 81.1705 161.087 80.9136C161.418 80.6568 180.393 92.2498 180.393 92.2498V207.923L162.255 216.779L143.952 207.923V92.2498Z" fill="#66A3FF"/>
<path opacity="0.39" d="M143.987 92.2498V207.932L162.212 216.744L161.872 102.86L143.987 92.2498Z" fill="#1E4549"/>
<g style="mix-blend-mode:multiply" opacity="0.74">
<path d="M146.209 94.0918L149.016 95.8896V209.499L146.209 208.144V94.0918Z" fill="#53646C"/>
<path d="M150.523 96.7397L153.33 98.5464V212.147L150.523 210.792V96.7397Z" fill="#53646C"/>
<path d="M155.195 99.5029L158.002 101.301V214.91L155.195 213.555V99.5029Z" fill="#53646C"/>
</g>
<path d="M180.436 92.2498V207.932L162.211 216.744L161.872 102.86L180.436 92.2498Z" fill="#66A3FF"/>
<g style="mix-blend-mode:multiply" opacity="0.74">
<path d="M177.22 94.6497L174.414 96.4564V210.057L177.22 208.702V94.6497Z" fill="#53646C"/>
<path d="M172.906 97.3066L170.099 99.1045V212.705L172.906 211.359V97.3066Z" fill="#53646C"/>
<path d="M168.243 100.07L165.436 101.868V215.468L168.243 214.122V100.07Z" fill="#53646C"/>
</g>
<path d="M153.679 79.585L171.154 69.905L180.436 92.2497L161.872 102.86L153.679 79.585Z" fill="#66A3FF"/>
<path d="M161.95 59.3926L175.538 68.3995L167.781 77.3976L160.651 79.7268" fill="#66A3FF"/>
<path d="M150.114 87.1927L161.95 80.4265V59.3926L150.114 66.6548V87.1927Z" fill="#66A3FF"/>
<path d="M163.702 96.1996L175.538 89.4333V68.3994L163.702 75.6616V96.1996Z" fill="#66A3FF"/>
<path d="M163.327 72.0395L169.48 68.5236V57.5859L163.327 61.3588V72.0395Z" fill="#66A3FF"/>
<path opacity="0.45" d="M163.702 96.1996L175.538 89.4333V68.3994L163.702 75.6616V96.1996Z" fill="white"/>
<path opacity="0.5" d="M163.702 75.6617L150.114 67.1772V89.5307L163.702 96.1996" fill="#102C2D"/>
<path d="M143.987 92.2496L153.679 79.585L161.872 102.86L143.987 92.2496Z" fill="#66A3FF"/>
<path opacity="0.39" d="M143.987 92.2496L153.679 79.585L161.872 102.86L143.987 92.2496Z" fill="#1E4549"/>
<path d="M162.412 52.9009L169.481 57.5859L165.445 62.2621L161.741 63.4754" fill="#66A3FF"/>
<path d="M156.259 67.3545L162.412 63.8385V52.9009L156.259 56.6737V67.3545Z" fill="#66A3FF"/>
<path opacity="0.45" d="M163.327 72.0395L169.48 68.5236V57.5859L163.327 61.3588V72.0395Z" fill="white"/>
<path opacity="0.5" d="M163.327 61.3587L156.259 56.9482V67.3545L163.327 72.0395" fill="#102C2D"/>
<path d="M160.651 55.912C159.588 54.3444 163.711 17.927 163.711 17.927L166.412 56.9482C166.412 56.9482 163.24 59.7291 160.651 55.912Z" fill="#66A3FF"/>
<path opacity="0.5" d="M160.651 55.912C159.588 54.3444 163.711 17.927 163.711 17.927L166.412 56.9482C166.412 56.9482 163.24 59.7291 160.651 55.912Z" fill="#102C2D"/>
<path d="M153.679 79.5852L156.59 78.4958L165.436 101.868L161.872 102.86" fill="#66A3FF"/>
<path style="mix-blend-mode:multiply" opacity="0.68" d="M108.322 169.3C108.322 169.3 125.753 159.018 126.494 158.478L116.157 153.102L96.7734 163.287C97.7583 164.022 107.346 168.565 108.322 169.3Z" fill="url(#paint18_linear_205_4276)"/>
<path style="mix-blend-mode:multiply" opacity="0.68" d="M111.921 155.254C111.921 155.254 129.353 144.972 130.094 144.431L119.757 139.056L100.373 149.232C101.375 149.967 110.919 154.519 111.921 155.254Z" fill="url(#paint19_linear_205_4276)"/>
<path d="M130.155 137.745V144.52L123.252 148.505L116.148 144.245V137.399L124.681 135.088L130.155 137.745Z" fill="#FF671C"/>
<path d="M130.721 137.887L126.459 136.868L122.929 141.341L115.225 136.868L119.06 132.502L122.973 133.352L130.721 137.887Z" fill="#B26542"/>
<path d="M126.459 136.868L119.06 132.502L115.225 136.868L122.929 141.341L126.459 136.868Z" fill="#8E3F17"/>
<path d="M120.846 145.884V142.093L122.171 142.873V146.575L120.846 145.884Z" fill="#8E3F17"/>
<path d="M118.685 144.547V140.765L120.018 141.544V145.246L118.685 144.547Z" fill="#8E3F17"/>
<path d="M116.68 143.342V139.552L118.014 140.331V144.042L116.68 143.342Z" fill="#8E3F17"/>
<path d="M128.229 145.627V142.554L126.459 143.581V146.654L128.229 145.627Z" fill="#8E3F17"/>
<path d="M128.263 142.554C128.263 142.554 128.211 141.527 127.313 141.757C126.416 141.987 126.494 143.59 126.494 143.59" fill="#8E3F17"/>
<path d="M126.555 151.871V158.637L119.652 162.622L112.549 158.363V151.525L121.082 149.205L126.555 151.871Z" fill="#F9AC91"/>
<path d="M127.122 152.004L122.86 150.994L119.33 155.458L111.634 150.994L115.46 146.619L119.382 147.469L127.122 152.004Z" fill="#B26542"/>
<path d="M122.86 150.994L115.46 146.619L111.634 150.994L119.33 155.458L122.86 150.994Z" fill="#8E3F17"/>
<path d="M117.247 160.001V156.21L118.58 156.99V160.701L117.247 160.001Z" fill="#8E3F17"/>
<path d="M115.085 158.672V154.882L116.419 155.661V159.363L115.085 158.672Z" fill="#8E3F17"/>
<path d="M113.089 157.459V153.677L114.414 154.448V158.159L113.089 157.459Z" fill="#8E3F17"/>
<path d="M124.629 159.744V156.671L122.86 157.707V160.771L124.629 159.744Z" fill="#8E3F17"/>
<path d="M124.629 156.671C124.629 156.671 124.577 155.644 123.679 155.874C122.781 156.104 122.86 157.707 122.86 157.707" fill="#8E3F17"/>
<path style="mix-blend-mode:multiply" opacity="0.68" d="M238.885 173.808L234.352 171.151L226.403 174.968C225.811 176.288 228.426 178.635 230.761 178.272C233.547 176.934 236.258 175.444 238.885 173.808Z" fill="url(#paint20_linear_205_4276)"/>
<path d="M233.158 173.835C234.051 174.283 235.037 174.509 236.033 174.492C237.029 174.475 238.007 174.216 238.884 173.737C239.887 172.621 240.131 170.93 239.974 169.132C239.708 166.83 239.103 164.582 238.178 162.463C237.76 161.489 236.592 159.611 235.337 160.515C234.3 161.258 234.004 162.605 233.594 163.765C232.679 166.617 231.223 170.336 232.722 173.241C232.839 173.459 232.986 173.659 233.158 173.835Z" fill="#2C9135"/>
<path d="M234.221 169.539C234.405 167.768 235.006 166.218 234.919 164.403C234.772 163.121 234.881 161.823 235.241 160.585C234.274 161.347 233.986 162.64 233.62 163.765C232.705 166.617 231.249 170.336 232.749 173.241C232.862 173.462 233.005 173.665 233.176 173.843C234.334 174.401 235.627 174.604 236.897 174.428C234.797 173.719 233.995 171.833 234.221 169.539Z" fill="#247728"/>
</g>
<defs>
<linearGradient id="paint0_linear_205_4276" x1="136.918" y1="110.06" x2="130.229" y2="116.321" gradientUnits="userSpaceOnUse">
<stop stop-color="#7F4E00"/>
<stop offset="1" stop-color="white"/>
</linearGradient>
<linearGradient id="paint1_linear_205_4276" x1="179.887" y1="220.951" x2="173.198" y2="227.203" gradientUnits="userSpaceOnUse">
<stop stop-color="#7F4E00"/>
<stop offset="1" stop-color="white"/>
</linearGradient>
<linearGradient id="paint2_linear_205_4276" x1="192.316" y1="214.84" x2="185.627" y2="221.101" gradientUnits="userSpaceOnUse">
<stop stop-color="#7F4E00"/>
<stop offset="1" stop-color="white"/>
</linearGradient>
<linearGradient id="paint3_linear_205_4276" x1="228.007" y1="195.391" x2="221.318" y2="201.643" gradientUnits="userSpaceOnUse">
<stop stop-color="#7F4E00"/>
<stop offset="1" stop-color="white"/>
</linearGradient>
<linearGradient id="paint4_linear_205_4276" x1="117.726" y1="189.537" x2="111.037" y2="195.789" gradientUnits="userSpaceOnUse">
<stop stop-color="#7F4E00"/>
<stop offset="1" stop-color="white"/>
</linearGradient>
<linearGradient id="paint5_linear_205_4276" x1="131.201" y1="183.603" x2="124.512" y2="189.855" gradientUnits="userSpaceOnUse">
<stop stop-color="#7F4E00"/>
<stop offset="1" stop-color="white"/>
</linearGradient>
<linearGradient id="paint6_linear_205_4276" x1="136.918" y1="148.443" x2="130.229" y2="154.704" gradientUnits="userSpaceOnUse">
<stop stop-color="#7F4E00"/>
<stop offset="1" stop-color="white"/>
</linearGradient>
<linearGradient id="paint7_linear_205_4276" x1="99.0481" y1="172.169" x2="92.3591" y2="178.421" gradientUnits="userSpaceOnUse">
<stop stop-color="#7F4E00"/>
<stop offset="1" stop-color="white"/>
</linearGradient>
<linearGradient id="paint8_linear_205_4276" x1="158.246" y1="201.36" x2="122.225" y2="235.068" gradientUnits="userSpaceOnUse">
<stop stop-color="#7F4E00"/>
<stop offset="1" stop-color="white"/>
</linearGradient>
<linearGradient id="paint9_linear_205_4276" x1="70.9222" y1="149.648" x2="34.9104" y2="183.347" gradientUnits="userSpaceOnUse">
<stop stop-color="#7F4E00"/>
<stop offset="1" stop-color="white"/>
</linearGradient>
<linearGradient id="paint10_linear_205_4276" x1="99.1441" y1="137.913" x2="62.2564" y2="172.43" gradientUnits="userSpaceOnUse">
<stop stop-color="#7F4E00"/>
<stop offset="1" stop-color="white"/>
</linearGradient>
<linearGradient id="paint11_linear_205_4276" x1="288.442" y1="141.447" x2="249.891" y2="177.514" gradientUnits="userSpaceOnUse">
<stop stop-color="#7F4E00"/>
<stop offset="1" stop-color="white"/>
</linearGradient>
<linearGradient id="paint12_linear_205_4276" x1="247.365" y1="120.165" x2="208.814" y2="156.232" gradientUnits="userSpaceOnUse">
<stop stop-color="#7F4E00"/>
<stop offset="1" stop-color="white"/>
</linearGradient>
<linearGradient id="paint13_linear_205_4276" x1="213.304" y1="192.017" x2="194.705" y2="209.424" gradientUnits="userSpaceOnUse">
<stop stop-color="#7F4E00"/>
<stop offset="1" stop-color="white"/>
</linearGradient>
<linearGradient id="paint14_linear_205_4276" x1="194.12" y1="180.778" x2="175.521" y2="198.176" gradientUnits="userSpaceOnUse">
<stop stop-color="#7F4E00"/>
<stop offset="1" stop-color="white"/>
</linearGradient>
<linearGradient id="paint15_linear_205_4276" x1="257.466" y1="167.874" x2="238.868" y2="185.281" gradientUnits="userSpaceOnUse">
<stop stop-color="#7F4E00"/>
<stop offset="1" stop-color="white"/>
</linearGradient>
<linearGradient id="paint16_linear_205_4276" x1="230.892" y1="153.819" x2="212.293" y2="171.226" gradientUnits="userSpaceOnUse">
<stop stop-color="#7F4E00"/>
<stop offset="1" stop-color="white"/>
</linearGradient>
<linearGradient id="paint17_linear_205_4276" x1="212.484" y1="142.527" x2="193.886" y2="159.934" gradientUnits="userSpaceOnUse">
<stop stop-color="#7F4E00"/>
<stop offset="1" stop-color="white"/>
</linearGradient>
<linearGradient id="paint18_linear_205_4276" x1="123.444" y1="149.471" x2="104.845" y2="166.877" gradientUnits="userSpaceOnUse">
<stop stop-color="#7F4E00"/>
<stop offset="1" stop-color="white"/>
</linearGradient>
<linearGradient id="paint19_linear_205_4276" x1="127.043" y1="135.425" x2="108.445" y2="152.822" gradientUnits="userSpaceOnUse">
<stop stop-color="#7F4E00"/>
<stop offset="1" stop-color="white"/>
</linearGradient>
<linearGradient id="paint20_linear_205_4276" x1="237.229" y1="169.973" x2="230.539" y2="176.234" gradientUnits="userSpaceOnUse">
<stop stop-color="#7F4E00"/>
<stop offset="1" stop-color="white"/>
</linearGradient>
<clipPath id="clip0_205_4276">
<rect width="348.632" height="267" fill="white" transform="translate(0.141113)"/>
</clipPath>
</defs>
</svg>
