<svg width="30" height="31" viewBox="0 0 30 31" fill="none" xmlns="http://www.w3.org/2000/svg">
<path d="M9.75 1.51025H20.25C24.25 1.51025 27.5 4.77381 27.5 8.79049V19.3343C27.5 21.2651 26.7362 23.1169 25.3765 24.4822C24.0169 25.8475 22.1728 26.6145 20.25 26.6145H9.75C5.75 26.6145 2.5 23.351 2.5 19.3343V8.79049C2.5 6.85965 3.26384 5.0079 4.62348 3.64259C5.98311 2.27728 7.82718 1.51025 9.75 1.51025ZM9.5 4.02068C8.30653 4.02068 7.16193 4.49676 6.31802 5.3442C5.47411 6.19163 5 7.341 5 8.53945V19.5853C5 22.0832 7.0125 24.1041 9.5 24.1041H20.5C21.6935 24.1041 22.8381 23.628 23.682 22.7806C24.5259 21.9331 25 20.7838 25 19.5853V8.53945C25 6.04157 22.9875 4.02068 20.5 4.02068H9.5ZM21.5625 5.9035C21.9769 5.9035 22.3743 6.06881 22.6674 6.36306C22.9604 6.6573 23.125 7.05639 23.125 7.47252C23.125 7.88865 22.9604 8.28773 22.6674 8.58198C22.3743 8.87623 21.9769 9.04153 21.5625 9.04153C21.1481 9.04153 20.7507 8.87623 20.4576 8.58198C20.1646 8.28773 20 7.88865 20 7.47252C20 7.05639 20.1646 6.6573 20.4576 6.36306C20.7507 6.06881 21.1481 5.9035 21.5625 5.9035ZM15 7.78632C16.6576 7.78632 18.2473 8.44755 19.4194 9.62454C20.5915 10.8015 21.25 12.3979 21.25 14.0624C21.25 15.7269 20.5915 17.3232 19.4194 18.5002C18.2473 19.6772 16.6576 20.3385 15 20.3385C13.3424 20.3385 11.7527 19.6772 10.5806 18.5002C9.40848 17.3232 8.75 15.7269 8.75 14.0624C8.75 12.3979 9.40848 10.8015 10.5806 9.62454C11.7527 8.44755 13.3424 7.78632 15 7.78632ZM15 10.2967C14.0054 10.2967 13.0516 10.6935 12.3483 11.3997C11.6451 12.1059 11.25 13.0637 11.25 14.0624C11.25 15.0611 11.6451 16.0189 12.3483 16.7251C13.0516 17.4313 14.0054 17.828 15 17.828C15.9946 17.828 16.9484 17.4313 17.6517 16.7251C18.3549 16.0189 18.75 15.0611 18.75 14.0624C18.75 13.0637 18.3549 12.1059 17.6517 11.3997C16.9484 10.6935 15.9946 10.2967 15 10.2967Z" fill="white"/>
</svg>
