<svg width="30" height="31" viewBox="0 0 30 31" fill="none" xmlns="http://www.w3.org/2000/svg">
<path d="M23.75 2.76562C24.413 2.76563 25.0489 3.03012 25.5178 3.50091C25.9866 3.97171 26.25 4.61025 26.25 5.27605V22.849C26.25 23.5148 25.9866 24.1534 25.5178 24.6242C25.0489 25.095 24.413 25.3595 23.75 25.3595H6.25C5.58696 25.3595 4.95107 25.095 4.48223 24.6242C4.01339 24.1534 3.75 23.5148 3.75 22.849V5.27605C3.75 4.61025 4.01339 3.97171 4.48223 3.50091C4.95107 3.03012 5.58696 2.76563 6.25 2.76562H23.75ZM23.125 22.2214V15.5688C23.125 14.4835 22.6957 13.4427 21.9315 12.6753C21.1673 11.9079 20.1308 11.4768 19.05 11.4768C17.9875 11.4768 16.75 12.1295 16.15 13.1086V11.7153H12.6625V22.2214H16.15V16.0332C16.15 15.0667 16.925 14.2759 17.8875 14.2759C18.3516 14.2759 18.7968 14.4611 19.1249 14.7906C19.4531 15.1202 19.6375 15.5672 19.6375 16.0332V22.2214H23.125ZM8.6 9.74461C9.15696 9.74461 9.6911 9.52244 10.0849 9.12697C10.4788 8.7315 10.7 8.19513 10.7 7.63585C10.7 6.46851 9.7625 5.51454 8.6 5.51454C8.03973 5.51454 7.50241 5.73804 7.10624 6.13586C6.71007 6.53368 6.4875 7.07325 6.4875 7.63585C6.4875 8.8032 7.4375 9.74461 8.6 9.74461ZM10.3375 22.2214V11.7153H6.875V22.2214H10.3375Z" fill="white"/>
</svg>
