<?xml version="1.0" encoding="UTF-8"?>
<svg version="1.1" xmlns="http://www.w3.org/2000/svg" width="520" height="174">
<path d="M0 0 C45.21 0 90.42 0 137 0 C134.19624336 2.80375664 131.96594106 4.87026775 128.796875 7.06640625 C127.98959961 7.62859863 127.18232422 8.19079102 126.35058594 8.77001953 C125.49239258 9.36153809 124.63419922 9.95305664 123.75 10.5625 C122.41243652 11.49231689 122.41243652 11.49231689 121.04785156 12.44091797 C116.94007779 15.29260169 112.82089278 18.1269947 108.6875 20.94140625 C107.37482568 21.83568168 106.06232077 22.73020583 104.75 23.625 C104.10933594 24.06183105 103.46867187 24.49866211 102.80859375 24.94873047 C97.32244836 28.71837734 92.01768697 32.7084028 86.71557617 36.73095703 C81.98751517 40.30244279 77.14856862 43.63668613 72.1875 46.87890625 C67.58398716 49.94227325 63.08273839 53.14560586 58.57641602 56.34960938 C57.192501 57.33262104 55.79990744 58.30349092 54.40039062 59.26416016 C51.8845712 61.03602674 51.8845712 61.03602674 49.22460938 63.35693359 C40.59299354 70.2581419 33.71641899 71.26937131 22.80322266 70.84375 C20.34271277 70.74875344 17.88795809 70.72066673 15.42578125 70.703125 C13.85409592 70.67566273 12.28246912 70.64455066 10.7109375 70.609375 C9.97974701 70.59662537 9.24855652 70.58387573 8.49520874 70.57073975 C4.15336775 70.38631509 3.22133667 70.22133667 0 67 C0 44.89 0 22.78 0 0 Z " fill="#E88018" transform="translate(376,0)"/>
<path d="M0 0 C0.78143372 -0.01947189 1.56286743 -0.03894379 2.36798096 -0.05900574 C4.02886326 -0.09174422 5.68994223 -0.11553542 7.35107422 -0.13110352 C9.843369 -0.16728276 12.32634145 -0.27295161 14.81640625 -0.38085938 C26.57174824 -0.65047731 33.48381878 2.14732668 42.60925293 9.44424438 C44.5859543 10.99357961 46.6663131 12.31176181 48.8125 13.61328125 C49.48200684 14.0294873 50.15151367 14.44569336 50.84130859 14.87451172 C51.51758301 15.29361816 52.19385742 15.71272461 52.890625 16.14453125 C64.37594616 23.33456811 75.61032686 30.90280329 86.86376953 38.44775391 C91.72361462 41.70575466 96.58739255 44.95783163 101.453125 48.20703125 C102.29883057 48.77309082 103.14453613 49.33915039 104.01586914 49.92236328 C107.83334597 52.4708717 111.66278697 54.99147446 115.546875 57.4375 C116.21291748 57.85765381 116.87895996 58.27780762 117.56518555 58.71069336 C119.31098265 59.80540048 121.0634148 60.88950706 122.81640625 61.97265625 C123.96689453 62.80023438 123.96689453 62.80023438 125.140625 63.64453125 C125.140625 64.30453125 125.140625 64.96453125 125.140625 65.64453125 C80.260625 65.64453125 35.380625 65.64453125 -10.859375 65.64453125 C-10.859375 45.18453125 -10.859375 24.72453125 -10.859375 3.64453125 C-7.20936758 -0.00547617 -4.8644126 0.10348209 0 0 Z " fill="#E78018" transform="translate(386.859375,108.35546875)"/>
<path d="M0 0 C2.5625 0.1875 2.5625 0.1875 4.5625 2.1875 C4.75573505 4.86263013 4.82477972 7.43380369 4.80541992 10.10961914 C4.80731827 10.92760483 4.80921661 11.74559052 4.81117249 12.58836365 C4.81488591 15.29989112 4.8041689 18.01115247 4.79296875 20.72265625 C4.79177726 22.6007026 4.79132372 24.47874955 4.7915802 26.35679626 C4.79001441 30.29527509 4.7817168 34.23366315 4.76831055 38.17211914 C4.7513089 43.23219527 4.74749648 48.29217164 4.74825573 53.35227299 C4.74798443 57.2305955 4.74250983 61.10889601 4.73525429 64.98721123 C4.73206203 66.8536201 4.73009892 68.72003149 4.72936058 70.58644295 C4.72720355 73.18926409 4.71847359 75.79197726 4.70776367 78.39477539 C4.70821686 79.17350006 4.70867004 79.95222473 4.70913696 80.75454712 C4.67697464 86.07302536 4.67697464 86.07302536 3.5625 87.1875 C-1.64098908 87.7471776 -4.18643066 86.48511017 -8.4375 83.5625 C-9.67099166 82.73305984 -10.90543401 81.90503241 -12.140625 81.078125 C-12.81931641 80.61857422 -13.49800781 80.15902344 -14.19726562 79.68554688 C-18.4801906 76.82155084 -22.83827282 74.07430256 -27.1875 71.3125 C-28.12263428 70.71703369 -29.05776855 70.12156738 -30.02124023 69.50805664 C-37.55804379 64.71875525 -45.15216876 60.02871643 -52.78515625 55.39453125 C-53.73140869 54.81699097 -53.73140869 54.81699097 -54.69677734 54.2277832 C-56.22808992 53.31264675 -57.7898486 52.44886783 -59.35546875 51.59375 C-61.4375 50.1875 -61.4375 50.1875 -62.6875 46.875 C-62.4375 43.1875 -62.4375 43.1875 -59.9375 40.375 C-55.59260895 37.11633171 -50.99785119 34.17996413 -46.45727539 31.20068359 C-41.99133755 28.26377643 -37.65803712 25.19663986 -33.375 22 C-25.93414174 16.45441634 -18.2728385 11.24689435 -10.58569336 6.05004883 C-9.21682983 5.12421997 -9.21682983 5.12421997 -7.8203125 4.1796875 C-6.99934082 3.62651855 -6.17836914 3.07334961 -5.33251953 2.50341797 C-1.94260368 0.14943105 -1.94260368 0.14943105 0 0 Z " fill="#E88018" transform="translate(515.4375,43.8125)"/>
<path d="M0 0 C5.15625 -0.0825 10.3125 -0.165 15.625 -0.25 C17.24100098 -0.28641602 18.85700195 -0.32283203 20.52197266 -0.36035156 C21.8063623 -0.3703418 23.09075195 -0.38033203 24.4140625 -0.390625 C25.7232666 -0.41157227 27.0324707 -0.43251953 28.38134766 -0.45410156 C33.47616566 0.18524276 36.5671065 2.32829091 39.875 6.1875 C41.47441389 10.18603472 41.70785326 13.75288046 41 18 C39.89195513 20.35039822 38.6658087 21.96979564 37 24 C37.42152344 24.47050781 37.84304687 24.94101563 38.27734375 25.42578125 C38.82519531 26.04839844 39.37304688 26.67101562 39.9375 27.3125 C40.48277344 27.92738281 41.02804688 28.54226562 41.58984375 29.17578125 C44.45680424 32.88456394 44.30135619 36.47965719 44 41 C42.34416522 46.14180273 40.70038175 49.24108028 36 52 C27 54 27 54 0 54 C0 36.18 0 18.36 0 0 Z M12 11 C12 14.3 12 17.6 12 21 C14.10388569 21.05402274 16.20816714 21.09280256 18.3125 21.125 C19.48425781 21.14820313 20.65601563 21.17140625 21.86328125 21.1953125 C25.16393661 21.25320618 25.16393661 21.25320618 28 19 C28.5 16 28.5 16 28 13 C24.36804504 10.57869669 22.61650652 10.78977215 18.3125 10.875 C17.13300781 10.89304687 15.95351562 10.91109375 14.73828125 10.9296875 C13.38283203 10.96449219 13.38283203 10.96449219 12 11 Z M12 32 C12 35.3 12 38.6 12 42 C14.60478883 42.0809313 17.20706653 42.14045434 19.8125 42.1875 C20.55048828 42.21263672 21.28847656 42.23777344 22.04882812 42.26367188 C26.27127276 42.35536554 26.27127276 42.35536554 30.0234375 40.6484375 C31.24156576 38.95005358 31.24156576 38.95005358 30.8125 36.4375 C30.15372967 33.85558728 30.15372967 33.85558728 28 32 C25.25514407 31.85492305 22.61519457 31.81347577 19.875 31.875 C18.74384766 31.88853516 18.74384766 31.88853516 17.58984375 31.90234375 C15.72642746 31.9259313 13.86317407 31.96180281 12 32 Z " fill="#2C4468" transform="translate(149,96)"/>
<path d="M0 0 C6.40911816 4.52697789 9.31487788 10.4418783 11 18 C12.10639547 26.82835151 10.91817306 34.83197932 5.45703125 42.03515625 C-0.57877369 48.54056615 -7.49367315 51.5764364 -16.25 52.25 C-24.97225108 51.66851659 -32.17880889 48.18937071 -38.1875 41.8125 C-43.03630556 35.83103382 -44.57979158 29.15078303 -44.2734375 21.5390625 C-43.29894607 12.49021355 -40.16214037 5.82220351 -33 0 C-22.65643141 -5.8856809 -10.28616227 -5.98986226 0 0 Z M-27 12 C-30.44278002 16.66800467 -31.82902435 21.19682955 -31 27 C-29.17602473 32.17930947 -26.85314677 36.17840304 -22 39 C-17.8480258 40.15332617 -15.52168922 40.15290891 -11.375 38.9375 C-6.66523151 36.23374401 -3.75784689 33.27354066 -2 28 C-1.43569136 22.30265311 -1.71413622 17.87214284 -5 13 C-8.65165394 9.6222201 -11.25853268 8.16744878 -16.25 7.6875 C-20.62605773 8.05217148 -23.72719175 9.10793924 -27 12 Z " fill="#E88018" transform="translate(283,28)"/>
<path d="M0 0 C4.29 0 8.58 0 13 0 C13 6.93 13 13.86 13 21 C19.93 21 26.86 21 34 21 C34 14.07 34 7.14 34 0 C37.96 0 41.92 0 46 0 C46 17.82 46 35.64 46 54 C42.04 54 38.08 54 34 54 C34 47.07 34 40.14 34 33 C27.07 33 20.14 33 13 33 C13 39.93 13 46.86 13 54 C8.71 54 4.42 54 0 54 C0 36.18 0 18.36 0 0 Z " fill="#2C4467" transform="translate(51,25)"/>
<path d="M0 0 C3.58774065 2.038489 5.79794797 3.86986992 7.375 7.8125 C2.23214286 14.38392857 2.23214286 14.38392857 -1.625 15.8125 C-2.264375 15.008125 -2.90375 14.20375 -3.5625 13.375 C-7.3886284 10.17354563 -10.66922177 9.45056114 -15.625 9.8125 C-16.615 10.4725 -17.605 11.1325 -18.625 11.8125 C-18.38908686 13.7794157 -18.38908686 13.7794157 -17.625 15.8125 C-14.94914552 16.98014559 -12.38976476 17.9134997 -9.625 18.8125 C3.37567105 23.52031876 3.37567105 23.52031876 6.48046875 28.6328125 C8.53475332 33.63844913 7.94609462 39.18938899 6.1875 44.1875 C3.3239123 48.33476495 -0.89006837 52.03109096 -5.8125 53.4375 C-15.30783908 54.70354521 -22.5956727 52.96338921 -30.625 47.8125 C-33.125 45.875 -33.125 45.875 -34.625 43.8125 C-34.72266173 40.00369238 -33.64688638 38.83652164 -31.0625 36 C-30.258125 35.278125 -29.45375 34.55625 -28.625 33.8125 C-26.14605044 34.91425536 -24.3004554 36.078793 -22.1875 37.8125 C-18.21846978 40.91027969 -15.95879308 41.92364942 -10.875 41.5 C-7.78589286 41.15521149 -7.78589286 41.15521149 -6.625 39.8125 C-6.58436168 38.14632885 -6.582279 36.47861905 -6.625 34.8125 C-8.2646875 34.19375 -8.2646875 34.19375 -9.9375 33.5625 C-10.66195313 33.28664062 -11.38640625 33.01078125 -12.1328125 32.7265625 C-13.88640975 32.0833936 -15.65379565 31.47721005 -17.4296875 30.8984375 C-23.97800358 28.71566547 -28.39730597 26.73748473 -31.9375 20.5 C-33.31743359 15.10571413 -33.16688715 11.2657428 -31.25 6.125 C-24.56841008 -4.02542929 -10.1473652 -4.65950443 0 0 Z " fill="#2C4569" transform="translate(34.625,26.1875)"/>
<path d="M0 0 C3.96 0 7.92 0 12 0 C12.5347998 1.36729248 13.06959961 2.73458496 13.62060547 4.14331055 C15.60706699 9.22183624 17.59377907 14.30026388 19.58056641 19.37866211 C20.44000969 21.5755755 21.29938525 23.77251539 22.15869141 25.96948242 C23.39467806 29.12946448 24.63090915 32.28935081 25.8671875 35.44921875 C26.25059296 36.42960617 26.63399841 37.40999359 27.02902222 38.42008972 C27.38924469 39.34066666 27.74946716 40.26124359 28.12060547 41.2097168 C28.43593231 42.0157988 28.75125916 42.8218808 29.07614136 43.65238953 C29.73079914 45.31593564 30.41426368 46.96827645 31.11746216 48.6118927 C32 51 32 51 32 54 C27.71 54 23.42 54 19 54 C17.68 50.7 16.36 47.4 15 44 C8.73 44 2.46 44 -4 44 C-5.98 48.95 -5.98 48.95 -8 54 C-12.29 54 -16.58 54 -21 54 C-18.76661818 46.05652859 -15.96822767 38.39571337 -12.97631836 30.71508789 C-12.19375544 28.70357906 -11.41974606 26.68892792 -10.64648438 24.67382812 C-7.40719355 16.28921559 -3.87616656 8.11445437 0 0 Z M5 16 C3.35 21.28 1.7 26.56 0 32 C3.63 32 7.26 32 11 32 C9.35 26.72 7.7 21.44 6 16 C5.67 16 5.34 16 5 16 Z " fill="#2C4468" transform="translate(259,96)"/>
<path d="M0 0 C30.59541985 0 30.59541985 0 35.7421875 4.53515625 C40.39015432 10.80189772 40.71552669 15.23852296 40 23 C38.40357534 27.90206485 35.25164418 31.16557055 31 34 C27.23508833 35.25497056 23.72793525 35.10661648 19.8125 35.0625 C17.234375 35.041875 14.65625 35.02125 12 35 C12 41.27 12 47.54 12 54 C8.04 54 4.08 54 0 54 C0 36.18 0 18.36 0 0 Z M12 12 C12 15.96 12 19.92 12 24 C19.17833412 24.60833895 19.17833412 24.60833895 25.75 22.4375 C27.53239472 18.96183029 26.97865127 16.70489411 26 13 C23.23547967 11.61773984 20.9538637 11.90474613 17.875 11.9375 C15.93625 11.958125 13.9975 11.97875 12 12 Z " fill="#2C4568" transform="translate(149,25)"/>
<path d="M0 0 C10.23 0 20.46 0 31 0 C31 3.63 31 7.26 31 11 C28.03 11 25.06 11 22 11 C22 21.56 22 32.12 22 43 C24.97 43 27.94 43 31 43 C31 46.63 31 50.26 31 54 C20.77 54 10.54 54 0 54 C0 50.37 0 46.74 0 43 C2.97 43 5.94 43 9 43 C9 32.44 9 21.88 9 11 C6.03 11 3.06 11 0 11 C0 7.37 0 3.74 0 0 Z " fill="#2C4468" transform="translate(108,96)"/>
<path d="M0 0 C12.16533438 -1.36670192 12.16533438 -1.36670192 16.3125 1.72265625 C18.11183094 4.0641963 19.57421916 6.4152744 21 9 C21.97545779 10.52321485 22.9543125 12.04426295 23.9375 13.5625 C24.63023384 14.70517673 25.31988872 15.84976571 26 17 C28.77983024 14.68490918 30.10241218 11.92385157 31.75415039 8.75634766 C33.51662078 5.51925671 35.21492151 2.46463106 38 0 C42.87162358 -1.20762821 47.08892631 -0.88022089 52 0 C50.62385892 3.89057168 48.81582093 6.82286601 46.33984375 10.11328125 C35.7981025 24.78124527 31.56260908 35.72226773 33 54 C29.04 54 25.08 54 21 54 C21.03222656 52.40671875 21.06445312 50.8134375 21.09765625 49.171875 C21.1258623 35.41600176 20.52349604 28.17125916 11 18 C8.88830988 15.18578663 6.91153106 12.28680846 4.9375 9.375 C4.44846191 8.67439453 3.95942383 7.97378906 3.45556641 7.25195312 C0 2.24589125 0 2.24589125 0 0 Z " fill="#2C4468" transform="translate(193,96)"/>
<path d="M0 0 C9.9 0 19.8 0 30 0 C30 3.63 30 7.26 30 11 C27.03 11 24.06 11 21 11 C21 21.56 21 32.12 21 43 C23.97 43 26.94 43 30 43 C30 46.63 30 50.26 30 54 C20.1 54 10.2 54 0 54 C0 50.37 0 46.74 0 43 C2.64 43 5.28 43 8 43 C8 32.44 8 21.88 8 11 C5.36 11 2.72 11 0 11 C0 7.37 0 3.74 0 0 Z " fill="#2C4467" transform="translate(108,25)"/>
<path d="M0 0 C14.19 0 28.38 0 43 0 C43 3.96 43 7.92 43 12 C37.72 12 32.44 12 27 12 C27 25.86 27 39.72 27 54 C23.04 54 19.08 54 15 54 C14 53 14 53 13.88647461 49.12280273 C13.88663379 47.39305833 13.89233151 45.66330919 13.90234375 43.93359375 C13.9037587 43.02497086 13.90517365 42.11634796 13.90663147 41.18019104 C13.91224807 38.26592779 13.92480335 35.35174019 13.9375 32.4375 C13.94251286 30.46679798 13.94707614 28.49609476 13.95117188 26.52539062 C13.96222289 21.68356441 13.97949862 16.84179505 14 12 C9.38 12 4.76 12 0 12 C0 8.04 0 4.08 0 0 Z " fill="#E78019" transform="translate(194,25)"/>
<path d="M0 0 C4.29 0 8.58 0 13 0 C13 13.86 13 27.72 13 42 C20.92 42 28.84 42 37 42 C37 45.96 37 49.92 37 54 C24.79 54 12.58 54 0 54 C0 36.18 0 18.36 0 0 Z " fill="#2C4468" transform="translate(64,96)"/>
<path d="M0 0 C3.63 0 7.26 0 11 0 C11.06942341 8.83151775 11.12277203 17.66294198 11.15543652 26.49467278 C11.17111161 30.59534193 11.1923831 34.6958248 11.22631836 38.79638672 C11.25884669 42.75156619 11.27683912 46.70656617 11.28463173 50.66186905 C11.29018704 52.17301384 11.30103491 53.68414849 11.31719017 55.19521713 C11.33887859 57.30728352 11.34197066 59.41860242 11.34057617 61.53076172 C11.34723801 62.73433319 11.35389984 63.93790466 11.36076355 65.177948 C11.24171158 66.10922516 11.12265961 67.04050232 11 68 C8 70 8 70 4.375 69.6875 C1 69 1 69 0 68 C-0.0942174 65.88318683 -0.11742761 63.76319242 -0.11352539 61.64428711 C-0.11367142 60.98089828 -0.11381744 60.31750946 -0.1139679 59.63401794 C-0.11326881 57.43176044 -0.10547665 55.22958655 -0.09765625 53.02734375 C-0.09579206 51.50419664 -0.09436816 49.98104893 -0.09336853 48.457901 C-0.08954346 44.44162349 -0.07971328 40.42538192 -0.06866455 36.40911865 C-0.05845019 32.31376634 -0.05387086 28.21840824 -0.04882812 24.12304688 C-0.038091 16.08201472 -0.02101472 8.04101183 0 0 Z " fill="#E88018" transform="translate(330,0)"/>
<path d="M0 0 C3.5 0.25 3.5 0.25 5.5 2.25 C5.74050903 4.88223267 5.74050903 4.88223267 5.72705078 8.26025391 C5.72682419 10.15198837 5.72682419 10.15198837 5.72659302 12.0819397 C5.71637898 13.46348222 5.70594697 14.84502315 5.6953125 16.2265625 C5.69158288 17.63617757 5.68873567 19.04579523 5.68673706 20.45541382 C5.67909655 24.16759382 5.65944461 27.87961761 5.6373291 31.59173584 C5.61687959 35.37884406 5.60773727 39.1659775 5.59765625 42.953125 C5.576199 50.38548793 5.54205816 57.81772208 5.5 65.25 C1.87 65.25 -1.76 65.25 -5.5 65.25 C-5.54628728 57.07037612 -5.58185072 48.89080673 -5.60362434 40.71108437 C-5.61407321 36.91313688 -5.62825236 33.11527882 -5.65087891 29.31738281 C-5.67256821 25.65398654 -5.68456031 21.99067643 -5.68975449 18.32722092 C-5.69345731 16.92773456 -5.70068777 15.52825305 -5.71146011 14.12880325 C-5.72592225 12.17266669 -5.72681647 10.21644391 -5.72705078 8.26025391 C-5.731492 7.1455069 -5.73593323 6.03075989 -5.74050903 4.88223267 C-5.35340678 0.6456218 -4.13797977 0.29556998 0 0 Z " fill="#E88018" transform="translate(335.5,108.75)"/>
</svg>
