<svg width="44" height="76" viewBox="0 0 44 76" fill="none" xmlns="http://www.w3.org/2000/svg">
<path d="M40.1183 38.4286C40.1183 48.7246 31.9887 56.9286 22.134 56.9286C12.2793 56.9286 4.14966 48.7246 4.14966 38.4286C4.14966 28.1326 12.2793 19.9286 22.134 19.9286C31.9887 19.9286 40.1183 28.1326 40.1183 38.4286Z" fill="#F5C18C" stroke="white" stroke-width="7"/>
<path d="M38.1323 38.9592C38.1323 48.0831 30.9184 55.4184 22.0941 55.4184C13.2698 55.4184 6.05591 48.0831 6.05591 38.9592C6.05591 29.8353 13.2698 22.5 22.0941 22.5C30.9184 22.5 38.1323 29.8353 38.1323 38.9592Z" stroke="white" stroke-width="3"/>
<path d="M20.8788 45.75V31.625L21.8288 33.725L18.1038 35.475L17.3538 31.7L22.3538 29.25H25.0788V45.75H20.8788ZM17.7038 47V43.225H28.3538V47H17.7038Z" fill="white"/>
</svg>
