<svg width="205" height="137" viewBox="0 0 205 137" fill="none" xmlns="http://www.w3.org/2000/svg">
<g clip-path="url(#clip0_218_490)">
<path d="M39.6268 67.8114L42.0422 71.6514L46.9007 63.8889V81.0842H51.0859V56.0717H46.815L39.6268 67.8114ZM27.8868 56.0715H23.6538V81.0841H27.8495V63.8887L37.3752 79.1571L39.805 75.2608L27.8868 56.0715ZM76.2541 73.3307L80.1265 81.0837H85.1737L72.5115 56.0718H67.9612L67.9573 56.0796L74.2974 69.344H65.8725L68.0714 65.0198L65.7779 60.3207L55.1086 81.0837H59.8291L63.8172 73.3324L76.2541 73.3307ZM113.119 56.0715H108.922V68.218L113.119 72.4429V56.0715ZM92.8634 56.0715H88.5937V81.0841H92.7922V62.3941L109.994 81.0841H113.119V78.0447L92.8634 56.0715Z" fill="white"/>
<path d="M142.446 63.0126C140.447 60.9322 137.366 59.5999 133.908 59.5999C128.391 59.5999 123.831 62.9953 123.103 67.4015H118.482C119.086 60.5623 126.067 55.5212 133.965 55.5212C138.662 55.5212 142.883 57.2747 145.724 60.0959L142.446 63.0126ZM133.518 77.5907C128.912 77.5907 124.991 75.0886 123.528 71.5884H118.814C120.373 77.6214 126.502 81.6455 133.779 81.6455C135.469 81.6455 137.414 81.4781 139.028 81.0764C142.672 80.1727 146.651 77.7988 146.651 74.0515V67.4014H133.47L133.461 71.5884H142.439V73.4891C142.439 75.5879 139.31 76.8019 137.396 77.2281C136.366 77.4574 135.043 77.5907 133.976 77.5907H133.518ZM181.346 68.6012C181.346 61.1416 174.591 55.3546 166.295 55.3546C158.261 55.3546 151.203 60.8744 151.203 68.1995C151.203 75.1062 156.746 80.64 164.213 81.5175V77.3389C159.328 76.5322 155.636 72.8735 155.636 68.4734C155.636 63.482 160.384 59.4328 166.238 59.4328C172.095 59.4328 176.841 63.482 176.841 68.4734C176.841 72.8395 173.207 76.4736 168.378 77.3188V81.5064C175.543 80.6333 181.346 75.306 181.346 68.6012Z" fill="white"/>
</g>
<defs>
<clipPath id="clip0_218_490">
<rect width="205" height="137" fill="white"/>
</clipPath>
</defs>
</svg>
