<svg width="150" height="66" viewBox="0 0 150 66" fill="none" xmlns="http://www.w3.org/2000/svg">
<path fill-rule="evenodd" clip-rule="evenodd" d="M0 0L14.3644 62.9599C28.7858 54.6369 58.496 51.7185 75.018 63C91.5448 51.7425 121.223 54.6417 135.636 62.9599L150 0H0Z" fill="white"/>
<path fill-rule="evenodd" clip-rule="evenodd" d="M19 14.6282V38.8608H35.528V33.1717H26.9047V14.6282H19ZM60.7177 14.6676H69.5243L75.4644 30.9451L81.1997 14.6676H89.9038L79.9713 38.8214H70.7535L60.7177 14.6676ZM92.1013 14.6446V38.8444H99.9972V14.6446H92.1013ZM48.8743 14.2266C41.645 14.2266 36.5179 15.6466 36.5179 26.9026C36.5179 36.1596 38.7225 40 49.1816 40C60.3584 40 60.5641 34.5818 60.8714 32.0046H52.9755C52.9755 34.0562 50.9757 34.9498 48.9247 34.9498C48.3093 34.9498 44.5666 35.4762 44.5666 29.2688H60.8706C60.973 28.3744 60.873 24.9528 60.8194 24.4297C60.2568 18.9606 59.7439 14.174 48.8743 14.2266ZM120.944 14.2545C127.393 14.2545 131.488 16.7209 131.998 22.0733H123.81C123.81 20.9194 122.992 18.7676 120.636 18.7676C118.282 18.7676 117.002 19.5544 117.002 21.3383C117.002 23.2273 118.078 23.6995 118.896 23.9098C119.306 24.0149 124.219 24.7491 125.856 24.9594C127.075 25.1155 132.1 25.3791 131.998 30.6264C131.895 35.8746 128.722 39.1278 120.739 39.1278C112.754 39.1278 108.967 36.2943 108.967 31.6769H117.157C117.206 33.3031 118.077 34.5104 120.636 34.5104C123.196 34.5104 124.526 33.3589 124.526 31.5717C124.526 30.2067 123.349 29.4725 122.069 29.3674C121.228 29.2984 115.877 29.2622 113.318 28.1075C111.036 27.0784 108.421 25.4924 108.865 21.4951C109.377 16.8786 112.652 14.2545 120.944 14.2545ZM108.603 15.0495C108.621 16.8909 108.468 18.1007 106.058 19.469C106.213 19.1117 106.686 18.3635 106.609 17.8608C106.204 18.0204 105.773 18.1018 105.339 18.1007C103.537 18.1007 102.077 16.7348 102.077 15.0503C102.077 13.3658 103.537 12 105.339 12C107.143 11.9992 108.603 13.365 108.603 15.0495Z" fill="#EB8319"/>
<path fill-rule="evenodd" clip-rule="evenodd" d="M44 24.0352H52.5324C52.584 20.7645 51.3427 19 48.1884 19C45.3445 19 44 20.8171 44 24.0352ZM130.544 63.3253C130.401 63.1778 130.229 63.0612 130.039 62.9828C129.849 62.9044 129.645 62.8658 129.44 62.8694C129.012 62.8694 128.645 63.0216 128.342 63.3253C128.195 63.4683 128.079 63.64 128 63.8298C127.922 64.0196 127.883 64.2235 127.886 64.429C127.886 64.8639 128.037 65.234 128.338 65.5392C128.642 65.8461 129.009 66 129.441 66C129.872 66 130.241 65.8461 130.545 65.5392C130.849 65.2323 131 64.8623 131 64.429C131.003 64.2236 130.964 64.0196 130.886 63.8298C130.807 63.64 130.691 63.4683 130.544 63.3253ZM130.388 65.3886C130.128 65.6526 129.811 65.7846 129.439 65.7846C129.067 65.7846 128.75 65.6526 128.489 65.3886C128.363 65.2631 128.264 65.1134 128.198 64.9485C128.131 64.7836 128.099 64.6069 128.102 64.429C128.102 64.0565 128.231 63.7391 128.492 63.4759C128.754 63.2119 129.069 63.08 129.439 63.08C129.809 63.08 130.126 63.2119 130.388 63.4759C130.649 63.7391 130.778 64.0565 130.778 64.429C130.779 64.804 130.649 65.1238 130.388 65.3886Z" fill="white"/>
</svg>
