<svg width="306" height="204" viewBox="0 0 306 204" fill="none" xmlns="http://www.w3.org/2000/svg">
<path d="M62.2834 111.287L62.0298 104.847H62.8292L65.4369 110.675C65.8111 111.035 66.246 111.326 66.7215 111.535C67.2709 111.78 67.8674 111.903 68.4691 111.893C68.9903 111.922 69.5117 111.839 69.9978 111.648C70.4839 111.458 70.9233 111.166 71.2863 110.79C71.9993 109.949 72.3606 108.865 72.2952 107.764C72.3197 107.022 72.0727 106.297 71.6006 105.724C70.9794 105.075 70.2063 104.592 69.3512 104.318L66.5947 103.265C63.7315 102.199 62.2999 100.277 62.2999 97.4982C62.288 96.2797 62.6752 95.0908 63.4026 94.1132C64.1893 93.0744 65.2429 92.2685 66.4513 91.7811C67.8481 91.2004 69.3494 90.9132 70.8618 90.9376C72.7619 90.9757 74.6299 91.4352 76.3309 92.2828L76.2537 98.033H75.537L73.1774 92.9003C72.3907 92.23 71.3936 91.8573 70.3601 91.8473C69.9105 91.8261 69.4618 91.9058 69.0469 92.0803C68.6319 92.2549 68.2613 92.5199 67.9619 92.8562C67.316 93.6915 67.0018 94.7361 67.0798 95.7891C67.0616 96.1259 67.1178 96.4626 67.2445 96.7752C67.3713 97.0877 67.5654 97.3685 67.8131 97.5975C68.4889 98.2158 69.2845 98.6886 70.1506 98.9868L72.3559 99.8689C73.7555 100.356 75.034 101.138 76.1048 102.162C76.8985 103.091 77.3051 104.289 77.2405 105.509C77.2586 106.857 76.8302 108.173 76.0221 109.252C75.1644 110.379 74.0229 111.258 72.7142 111.799C71.2924 112.412 69.7581 112.72 68.21 112.703C66.1437 112.655 64.1095 112.182 62.2338 111.314" fill="white"/>
<path d="M81.9874 111.16C81.1899 110.234 80.8039 108.887 80.8297 107.119L80.9565 93.5839H77.8416V92.5199L80.9565 91.5495L85.2898 86.3341H86.1719V91.6763H92.104V93.6556H86.1719V107.879C86.3232 108.639 86.7616 109.31 87.3958 109.754C88.0842 110.152 88.8728 110.344 89.6672 110.305C90.5411 110.29 91.4068 110.133 92.2308 109.842L92.4845 110.349C90.5583 111.747 88.2482 112.517 85.8687 112.555C84.0751 112.555 82.7777 112.091 81.9764 111.165" fill="white"/>
<path d="M95.7813 110.741V95.3371L93.2122 93.7383V93.3634L100.407 91.0479H100.616L100.826 96.561H100.991L101.543 95.4584C102.153 94.1753 102.97 93.0017 103.963 91.9851C104.662 91.3597 105.572 91.021 106.51 91.0368C107.241 91.0195 107.952 91.275 108.506 91.7535C108.778 91.9946 108.993 92.2934 109.135 92.6282C109.277 92.963 109.343 93.3253 109.327 93.6887C109.327 95.3463 108.373 96.3846 106.466 96.8036L103.864 94.6865C103.285 94.9457 102.78 95.3434 102.392 95.8443C101.83 96.4693 101.399 97.2003 101.124 97.9944V110.741L104.613 111.369V112.003H93.2122V111.369L95.7813 110.741Z" fill="white"/>
<path d="M120.921 108.089V101.302L118.165 102.229C117.205 102.475 116.341 103.003 115.684 103.745C115.183 104.477 114.919 105.345 114.926 106.232C114.933 107.118 115.211 107.982 115.722 108.707C115.993 109.024 116.332 109.275 116.714 109.442C117.096 109.609 117.511 109.688 117.927 109.671C118.516 109.66 119.094 109.509 119.614 109.231C120.133 108.953 120.579 108.556 120.916 108.073M111.284 111.226C110.766 110.755 110.357 110.175 110.089 109.528C109.82 108.881 109.697 108.183 109.729 107.483C109.695 106.755 109.832 106.03 110.128 105.365C110.423 104.7 110.87 104.113 111.433 103.651C112.569 102.725 114.372 101.953 116.841 101.335L120.921 100.327V97.5259C120.921 95.7874 120.598 94.4477 119.951 93.5068C119.668 93.063 119.275 92.6998 118.81 92.4526C118.346 92.2053 117.825 92.0823 117.299 92.0954C116.536 92.0725 115.785 92.2926 115.154 92.7239L114.989 98.1103C114.245 98.3709 113.462 98.4996 112.673 98.4907C112.044 98.5224 111.423 98.3267 110.926 97.9394C110.705 97.7462 110.532 97.5052 110.419 97.2347C110.307 96.9643 110.257 96.6716 110.275 96.3791C110.275 95.5963 110.711 94.7895 111.582 93.9589C112.584 93.0652 113.75 92.376 115.017 91.93C116.467 91.379 118.007 91.1005 119.559 91.1086C121.805 91.1086 123.474 91.6213 124.565 92.6467C125.657 93.6722 126.208 95.293 126.219 97.5093V108.927C126.174 109.319 126.28 109.714 126.517 110.03C126.852 110.252 127.254 110.349 127.653 110.305H129.461V110.895C129.323 110.978 128.981 111.149 128.452 111.397C127.843 111.681 127.217 111.928 126.578 112.136C125.934 112.361 125.258 112.482 124.576 112.494C123.653 112.562 122.739 112.268 122.029 111.673C121.398 110.983 121.058 110.076 121.081 109.142H120.866C120.136 110.126 119.265 110.998 118.28 111.728C117.21 112.39 115.957 112.699 114.701 112.609C113.445 112.519 112.249 112.035 111.284 111.226Z" fill="white"/>
<path d="M143.685 108.927V94.5377C142.898 93.2476 141.524 92.6026 139.561 92.6026C138.847 92.6069 138.145 92.7879 137.518 93.1294C136.891 93.4709 136.358 93.9623 135.967 94.5597C135.015 95.8645 134.539 97.886 134.539 100.624C134.523 102.211 134.771 103.789 135.272 105.294C135.684 106.597 136.415 107.776 137.4 108.723C138.294 109.565 139.48 110.025 140.708 110.008C141.786 109.955 142.824 109.579 143.685 108.927ZM148.989 80.5674V110.272L151.64 110.608V111.226L144.325 112.549L143.861 109.793C141.98 111.729 139.958 112.698 137.797 112.698C136.189 112.729 134.609 112.268 133.271 111.375C131.957 110.482 130.915 109.244 130.261 107.797C129.545 106.242 129.185 104.547 129.208 102.835C129.173 100.715 129.757 98.6299 130.889 96.8367C131.987 95.1071 133.517 93.6934 135.327 92.7349C137.116 91.7657 139.12 91.2597 141.155 91.2629C142.008 91.2894 142.856 91.4171 143.68 91.6433V84.0627L140.438 83.1365V82.6348L148.989 80.5674Z" fill="white"/>
<path d="M155.764 86.1026C155.472 85.825 155.239 85.4907 155.08 85.1201C154.92 84.7495 154.838 84.3503 154.838 83.947C154.838 83.5436 154.92 83.1445 155.08 82.7739C155.239 82.4033 155.472 82.069 155.764 81.7913C156.04 81.499 156.372 81.2661 156.741 81.1068C157.11 80.9476 157.507 80.8653 157.909 80.8651C158.314 80.8662 158.714 80.9487 159.087 81.1078C159.459 81.267 159.795 81.4994 160.076 81.7913C160.371 82.0673 160.607 82.401 160.768 82.7719C160.929 83.1427 161.012 83.5427 161.012 83.947C161.012 84.3513 160.929 84.7512 160.768 85.1221C160.607 85.4929 160.371 85.8266 160.076 86.1026C159.788 86.3947 159.445 86.6255 159.066 86.7809C158.687 86.9363 158.28 87.0131 157.87 87.0068C157.471 87.0075 157.075 86.9278 156.706 86.7725C156.338 86.6172 156.004 86.3894 155.726 86.1026M155.384 110.675V95.0449L152.815 93.7438V93.2366L160.726 91.092V110.675L163.483 111.391V112.025H152.732V111.369L155.384 110.675Z" fill="white"/>
<path d="M162.308 91.6764H172.998V92.2057L170.137 92.9113L174.509 105.735L175.016 107.372H175.099L175.523 106.192L180.028 93.1098L176.786 92.3104V91.6764H183.854V92.3104L181.753 92.9389L174.178 112.676H171.945L164.497 92.983L162.308 92.3104V91.6764Z" fill="white"/>
<path d="M194.582 108.089V101.302L191.826 102.229C190.866 102.475 190.002 103.003 189.345 103.745C188.845 104.478 188.582 105.346 188.59 106.233C188.598 107.119 188.877 107.983 189.389 108.707C189.66 109.024 189.999 109.275 190.381 109.442C190.763 109.609 191.178 109.688 191.594 109.671C192.183 109.66 192.761 109.51 193.281 109.232C193.8 108.954 194.246 108.557 194.582 108.073M184.945 111.226C184.427 110.758 184.018 110.181 183.748 109.537C183.477 108.893 183.351 108.197 183.38 107.499C183.345 106.772 183.481 106.046 183.777 105.381C184.072 104.716 184.52 104.129 185.083 103.668C186.219 102.741 188.022 101.969 190.492 101.352L194.577 100.343V97.5259C194.577 95.7874 194.253 94.4477 193.606 93.5068C193.324 93.0626 192.931 92.6992 192.466 92.4518C192.002 92.2045 191.481 92.0817 190.955 92.0954C190.191 92.0725 189.44 92.2926 188.81 92.7239L188.645 98.1103C187.901 98.3713 187.117 98.5001 186.329 98.4907C185.701 98.521 185.083 98.3255 184.587 97.9394C184.367 97.7479 184.194 97.5089 184.08 97.2405C183.966 96.9721 183.915 96.6813 183.931 96.3902C183.931 95.6073 184.365 94.8005 185.232 93.9699C186.239 93.0697 187.414 92.3766 188.689 91.93C190.14 91.3788 191.68 91.1004 193.232 91.1086C195.474 91.1086 197.144 91.6213 198.243 92.6467C199.342 93.6722 199.893 95.293 199.897 97.5093V108.927C199.851 109.319 199.958 109.714 200.195 110.03C200.529 110.252 200.931 110.349 201.33 110.305H203.139V110.895C202.995 110.978 202.665 111.149 202.13 111.397C201.521 111.681 200.895 111.928 200.255 112.136C199.614 112.361 198.94 112.482 198.26 112.494C197.336 112.562 196.422 112.268 195.713 111.673C195.077 110.979 194.737 110.066 194.764 109.126H194.555C193.824 110.11 192.953 110.981 191.969 111.711C190.897 112.382 189.64 112.696 188.378 112.609C187.117 112.522 185.915 112.038 184.945 111.226Z" fill="white"/>
<path d="M206.402 110.741V95.3371L203.833 93.7383V93.3634L211.028 91.0479H211.237L211.447 96.5611H211.618L212.169 95.4584C212.779 94.1753 213.597 93.0017 214.589 91.9851C215.288 91.3588 216.198 91.02 217.136 91.0369C217.868 91.0191 218.579 91.2746 219.132 91.7536C219.405 91.9944 219.62 92.2932 219.762 92.628C219.904 92.9629 219.97 93.3253 219.954 93.6887C219.954 95.3463 219 96.3846 217.092 96.8036L214.479 94.6866C213.901 94.9458 213.395 95.3434 213.007 95.8443C212.447 96.4695 212.017 97.2006 211.745 97.9945V110.741L215.234 111.458V112.009H203.833V111.458L206.402 110.741Z" fill="white"/>
<path d="M223.625 86.1026C223.334 85.8245 223.101 85.4901 222.942 85.1196C222.784 84.749 222.702 84.3501 222.702 83.947C222.702 83.5438 222.784 83.1449 222.942 82.7743C223.101 82.4038 223.334 82.0694 223.625 81.7913C223.901 81.4988 224.233 81.2657 224.602 81.1064C224.971 80.9471 225.368 80.865 225.77 80.8651C226.175 80.8662 226.575 80.9487 226.948 81.1078C227.32 81.267 227.656 81.4994 227.937 81.7913C228.232 82.0673 228.468 82.401 228.629 82.7719C228.79 83.1427 228.873 83.5427 228.873 83.947C228.873 84.3513 228.79 84.7512 228.629 85.1221C228.468 85.4929 228.232 85.8266 227.937 86.1026C227.649 86.3944 227.306 86.625 226.927 86.7804C226.548 86.9358 226.141 87.0128 225.731 87.0068C225.338 87.0027 224.949 86.9206 224.588 86.7655C224.226 86.6103 223.899 86.385 223.625 86.1026ZM223.228 110.675V95.0449L220.659 93.7438V93.2366L228.587 91.0865V110.675L231.344 111.391V112.025H220.577V111.369L223.228 110.675Z" fill="white"/>
<path d="M243.087 111.601C241.935 112.31 240.608 112.683 239.255 112.676C238.454 112.716 237.654 112.59 236.904 112.305C236.155 112.021 235.472 111.584 234.9 111.022C233.819 109.919 233.279 108.286 233.279 106.121V94.3722L230.671 93.2365V92.6852L238.583 91.34V105.393C238.583 108.256 239.831 109.686 242.326 109.682C243.696 109.662 245.018 109.172 246.07 108.293V94.2896L243.208 93.2365V92.6466L251.412 91.2573V110.002L254.229 110.757V111.386L246.621 112.549L246.158 109.098C245.26 110.075 244.225 110.918 243.087 111.601Z" fill="white"/>
<path d="M255.739 111.287L255.486 104.847H256.285L258.909 110.675C259.284 111.035 259.719 111.326 260.194 111.535C260.743 111.78 261.34 111.903 261.942 111.893C262.463 111.922 262.984 111.839 263.47 111.648C263.956 111.458 264.396 111.166 264.759 110.79C265.472 109.949 265.833 108.865 265.768 107.764C265.792 107.022 265.545 106.297 265.073 105.724C264.452 105.075 263.679 104.592 262.824 104.318L260.067 103.265C257.208 102.199 255.778 100.277 255.778 97.4982C255.766 96.2797 256.153 95.0908 256.881 94.1132C257.667 93.0742 258.721 92.2683 259.929 91.7811C261.326 91.2004 262.827 90.9132 264.34 90.9376C266.24 90.9757 268.108 91.4352 269.809 92.2828L269.765 98.0054H269.048L266.628 92.9003C265.841 92.23 264.844 91.8573 263.811 91.8473C263.361 91.8265 262.912 91.9063 262.498 92.0809C262.083 92.2554 261.712 92.5203 261.412 92.8562C260.773 93.6842 260.459 94.7178 260.53 95.7616C260.512 96.0984 260.568 96.435 260.695 96.7476C260.822 97.0602 261.016 97.3409 261.264 97.5699C261.94 98.1878 262.735 98.6606 263.601 98.9592L265.806 99.8413C267.205 100.328 268.482 101.11 269.55 102.135C270.344 103.063 270.75 104.261 270.686 105.481C270.703 106.829 270.275 108.145 269.467 109.225C268.609 110.352 267.468 111.23 266.159 111.772C264.737 112.384 263.203 112.692 261.655 112.676C259.589 112.628 257.555 112.155 255.679 111.287" fill="white"/>
<path d="M62.9505 109.809C60.5413 114.683 56.3347 117.974 51.5548 118.2C51.7048 116.337 51.7508 114.467 51.6927 112.599V112.395C51.6927 112.185 51.7699 112.174 51.9518 112.114L52.6409 111.899C54.828 111.261 56.6771 109.79 57.7902 107.802C58.8101 105.911 59.1685 103.441 57.7902 101.771C57.0167 100.874 55.9262 100.311 54.7469 100.2C54.1129 100.144 52.889 100.2 52.6685 100.9C52.481 101.523 52.9331 101.881 53.3907 102.135C54.1791 102.57 54.6532 102.945 54.6587 103.838C54.6394 104.323 54.5157 104.799 54.2959 105.232C54.0761 105.665 53.7655 106.045 53.3852 106.347C53.1047 106.586 52.7835 106.773 52.4369 106.898C52.0951 107.014 51.6982 107.069 51.6982 106.689V99.5105C51.6982 98.0495 51.9573 97.5754 52.674 96.3294C53.942 94.1242 55.5574 91.2353 56.4726 89.1292C57.1592 87.5879 57.5339 85.9259 57.5752 84.2391C62.0905 87.2548 65.1227 93.2641 65.1227 100.2V101.126C65.6861 101.128 66.2384 101.282 66.7215 101.572V100.194C66.7215 92.178 62.8954 85.2811 57.3988 82.2103C57.176 80.9007 56.75 79.6339 56.1363 78.4558C55.4747 77.0444 53.5341 74.4478 52.2605 73.4719C52.0281 73.2544 51.7289 73.1219 51.4117 73.0959C51.0944 73.0699 50.7776 73.1519 50.5129 73.3286C50.3641 73.4401 50.2437 73.585 50.1614 73.7517C50.079 73.9183 50.037 74.102 50.0387 74.2879V80.5729C41.8186 81.1903 35.3076 89.7247 35.3076 100.2C35.3076 109.958 40.9806 118.062 48.4234 119.617C48.3462 119.863 48.269 120.102 48.1918 120.334C47.5854 122.131 46.0527 126.051 43.5498 126.062C43.4287 126.081 43.305 126.073 43.1869 126.041C43.0688 126.008 42.959 125.951 42.8647 125.873C42.7704 125.795 42.6937 125.697 42.6398 125.587C42.5859 125.477 42.5559 125.357 42.5519 125.235C42.5558 124.99 42.6411 124.753 42.7945 124.562C42.9979 124.328 43.2537 124.145 43.541 124.028C43.8284 123.911 44.1393 123.864 44.4484 123.89C44.6359 123.935 44.8308 123.941 45.0206 123.906C45.2104 123.872 45.3911 123.799 45.551 123.691C45.6199 123.632 45.6751 123.558 45.713 123.475C45.7508 123.392 45.7704 123.302 45.7704 123.211C45.7704 123.12 45.7508 123.031 45.713 122.948C45.6751 122.865 45.6199 122.791 45.551 122.732C44.9897 122.385 44.3357 122.217 43.6766 122.252C41.361 122.252 38.5824 124.016 38.5549 126.58C38.5218 129.596 41.4162 130.919 43.9577 130.908C47.1057 130.908 49.2338 128.978 50.1931 126.073C50.752 124.206 51.1322 122.289 51.3288 120.35L51.3839 119.887C56.8971 119.738 61.6825 116.066 64.4005 110.603C63.8594 110.461 63.3615 110.188 62.9505 109.809ZM51.6982 78.726C51.6919 78.6909 51.6931 78.655 51.7016 78.6205C51.7101 78.5859 51.7258 78.5536 51.7476 78.5255C51.7695 78.4974 51.797 78.4743 51.8283 78.4575C51.8597 78.4407 51.8943 78.4308 51.9297 78.4282C52.2164 78.4282 52.481 78.9796 52.9497 79.9113C53.082 80.1796 53.2014 80.4442 53.308 80.7052C52.7759 80.6087 52.2382 80.546 51.6982 80.5177V78.726ZM51.6982 82.1937C52.4432 82.2375 53.182 82.3557 53.9034 82.5466C54.4606 85.0818 54.176 87.7295 53.093 90.0885C52.8413 90.7055 52.5542 91.3075 52.233 91.8913C52.2158 91.9653 52.1705 92.0297 52.1067 92.0708C52.0429 92.112 51.9656 92.1267 51.8911 92.1119C51.8353 92.0971 51.786 92.0642 51.7511 92.0182C51.7161 91.9723 51.6975 91.916 51.6982 91.8582V82.1937ZM50.0442 101.131V106.815C50.0455 106.85 50.0368 106.883 50.0192 106.913C50.0016 106.942 49.9758 106.966 49.945 106.981C49.9018 107.002 49.8521 107.005 49.8067 106.989C49.7612 106.974 49.7238 106.941 49.7024 106.898C49.5276 106.548 49.3961 106.178 49.311 105.795C48.9889 104.106 49.1376 102.361 49.741 100.751C49.753 100.719 49.7752 100.692 49.8041 100.674C49.833 100.656 49.867 100.648 49.9009 100.652C49.9523 100.68 49.9931 100.725 50.017 100.778C50.0409 100.832 50.0466 100.892 50.0332 100.949C50.0387 101.01 50.0387 101.071 50.0387 101.131H50.0442ZM50.0442 94.488C50.0442 95.8387 49.1842 96.9634 48.3572 97.9668C46.5158 100.172 45.2092 102.273 44.9722 105.084C44.7296 107.979 45.7385 110.917 48.7431 111.921C49.0613 112.021 49.3853 112.102 49.7135 112.163C49.8678 112.163 50.0553 112.196 50.0387 112.406C50.0387 112.461 50.0387 112.521 50.0056 112.604C49.73 114.286 49.3551 116.204 48.903 118.007C42.1219 116.673 36.9505 109.203 36.9505 100.2C36.9505 90.6784 42.7228 82.8829 50.0387 82.2268V94.488H50.0442Z" fill="white"/>
</svg>
