<svg width="145" height="145" viewBox="0 0 145 145" fill="none" xmlns="http://www.w3.org/2000/svg">
<g clip-path="url(#clip0_218_461)">
<path d="M29.5161 84.6742C29.5161 86.9536 27.6137 88.8037 26.1811 88.8037H9.98172L30.3571 56.2542H3.11452V61.6482H4.51232C4.51232 59.3688 5.98552 57.5244 7.42392 57.5244H21.4193L0.922119 90.0681H30.4789V84.6742H29.5161Z" fill="white"/>
<path d="M64.8673 87.4351L49.1029 56.2543L34.6551 87.4583C34.3999 88.1427 33.0079 89.0069 31.0359 89.0069V90.0625H38.7267V89.0069C37.2999 89.0069 35.7687 88.2993 36.1399 87.4525L39.6141 79.9183H52.9425L56.7299 87.4351C57.1591 88.1949 55.2393 89.0127 53.2615 89.0127V90.0683H69.2695L69.2753 89.0127C66.8509 89.0069 65.3719 88.2529 64.8673 87.4351ZM40.1941 78.7003L45.9593 66.0447L52.3973 78.7003H40.1941Z" fill="white"/>
<path d="M71.1079 57.5592C73.4511 57.5592 75.3883 58.1624 75.3883 58.8932C75.3883 64.6932 75.3767 87.4002 75.3883 87.4002C75.3883 88.1773 73.4801 89.0415 71.1311 89.0415L71.1253 90.0623H86.7969V89.1111C84.4711 89.1111 82.5861 88.1831 82.5861 87.4059V57.275H87.1043C91.4543 57.275 94.9807 60.8884 94.9807 64.989C94.9807 69.0896 91.4543 72.4188 87.0985 72.4188H83.9723C83.9723 72.4188 94.5631 88.4557 94.5805 88.4557C94.9981 89.0647 95.2069 90.0681 95.2069 90.0681H106.627V89.1169C104.429 89.1169 103.281 88.2063 102.643 87.4059L92.4461 74.1007C97.3413 73.776 101.129 69.8204 101.129 65.1224C101.129 60.2156 96.9121 56.2542 91.7095 56.2542H71.1079V57.5592Z" fill="white"/>
<path d="M141.52 87.4349L125.755 56.2542L111.308 87.4581C111.052 88.1425 109.666 89.0415 107.688 89.0415V90.0623H115.379V89.1111C113.952 89.1111 112.427 88.2991 112.792 87.4523L116.267 79.9181H129.595L133.382 87.4349C133.817 88.1947 131.892 89.0473 129.914 89.0473V90.0681H145.922L145.928 89.0821C143.503 89.0821 142.024 88.2527 141.52 87.4349ZM116.841 78.7001L122.606 66.0445L129.044 78.7001H116.841Z" fill="white"/>
</g>
<defs>
<clipPath id="clip0_218_461">
<rect width="145" height="145" fill="white"/>
</clipPath>
</defs>
</svg>
