<svg width="150" height="100" viewBox="0 0 150 100" fill="none" xmlns="http://www.w3.org/2000/svg">
<path d="M95.4909 18.6888C99.1615 16.886 100.981 17.1226 101.021 18.9499C101.071 21.3237 100.72 24.4804 100.467 26.7646C99.1043 39.1788 96.8283 49.3231 96.6572 62.0695C102.653 46.548 107.678 35.7601 114.154 22.4737C116.21 18.24 117.523 19.0313 119.212 18.2808C125.787 15.3524 126.031 17.1471 125.175 20.7281C121.985 33.9917 113.82 75.7531 112.572 82.1835C112.213 84.0441 110.19 83.2553 109.668 82.5278C107.327 79.2894 104.684 79.2387 104.978 77.0853C106.446 66.3643 111.732 39.4651 113.11 33.1269C106.087 47.526 98.8026 65.5266 95.0583 75.7328C94.267 77.9001 92.8232 77.7411 91.926 76.1554C90.6616 73.9279 88.2063 72.7905 87.7984 70.1581C86.5178 61.789 89.2667 45.8367 89.6499 35.7446C85.8244 46.769 79.4047 68.1728 76.5904 77.8429C75.4321 81.8441 71.5656 81.1914 72.5933 77.2916C76.8676 61.063 86.0774 32.3603 90.0581 22.0414C90.9964 19.6105 93.4515 19.692 95.4909 18.6888ZM72.1778 16.6983C70.9378 16.3966 67.3406 18.338 65.1298 18.7213C64.4284 18.8437 63.7594 19.5859 63.5228 20.1163C59.9825 28.249 56.8094 36.0015 54.0604 43.0642C50.5447 43.6645 46.4335 44.4548 41.8328 45.4884C45.1284 37.035 48.4565 28.6975 51.7031 20.679C53.3018 16.7309 49.093 16.3558 47.4613 20.3527C45.3403 25.5489 41.3678 35.2845 36.971 46.632C33.5404 47.473 30.1273 48.3838 26.7338 49.3639C24.1315 50.1151 24.0257 50.8084 25.1513 52.369C25.7712 53.2378 27.0519 53.1504 27.6391 53.7695C29.1565 55.3741 30.0783 57.2934 32.7944 57.5839C30.3719 64.0647 27.949 70.7479 25.7548 77.1831C24.3762 81.2225 28.2998 82.0488 29.809 77.7743C32.2398 70.884 34.8012 63.9104 37.4359 56.9572C39.6302 56.4473 44.9405 55.3036 49.8429 54.2399C45.952 64.9046 43.3905 73.0039 42.4199 76.9464C42.2405 77.705 42.5423 78.1259 42.7054 78.4352C44.0188 80.3462 45.2668 80.4245 46.9553 82.7876C47.4122 83.4322 48.9458 83.7796 49.4677 82.1929C53.0732 71.3022 56.7848 61.0838 60.2433 51.9232C61.6789 51.6092 64.2648 50.9851 65.8473 48.6236C68.6614 44.4325 69.469 45.2824 70.1462 44.0082C70.9947 42.4086 70.4316 40.9068 67.4299 41.2779C67.4299 41.2779 66.2962 41.3586 64.1996 41.5976C67.5277 33.0285 70.44 25.7604 72.5363 20.2218C73.2544 18.3461 73.3443 16.9757 72.1778 16.6983Z" fill="white"/>
<path d="M67.267 72.2766C68.042 74.235 70.4647 73.6419 69.543 71.2781C68.6047 68.87 66.2718 61.6207 65.6599 59.2852C64.8279 56.1382 68.4335 56.9989 66.6062 59.0562C65.0401 60.8254 63.9958 61.5342 61.1003 64.8983C58.3024 68.1457 59.061 72.3598 62.0546 73.2906C65.4316 74.3411 68.409 70.6199 70.2525 67.8897C72.0389 65.246 70.3095 63.6953 68.507 65.2582C67.3485 66.2631 66.0107 67.8066 64.6567 68.6385C63.5553 69.3082 62.6906 68.5887 64.159 66.5675C65.8638 64.2273 67.7726 62.2662 69.1919 60.0547C72.0878 55.5479 66.3614 52.9499 63.8979 55.8774C62.5764 57.4379 62.911 58.9699 63.2698 60.2848C63.8491 62.391 66.0026 69.1142 67.267 72.2766Z" fill="white"/>
</svg>
