<svg width="24" height="24" viewBox="0 0 24 24" fill="none" xmlns="http://www.w3.org/2000/svg">
<path d="M3.54189 9.88801C3.51386 9.8459 3.49927 9.79628 3.50003 9.74571H3.50004C3.50082 9.69494 3.517 9.64561 3.54643 9.60423C3.57582 9.56293 3.61703 9.53149 3.66464 9.51408C3.66472 9.51406 3.66479 9.51403 3.66487 9.514L20.1645 3.51415L20.1651 3.51394C20.2098 3.4976 20.2583 3.49439 20.3048 3.50469L20.4129 3.01651L20.3048 3.50469C20.3513 3.51499 20.3939 3.53837 20.4276 3.57207C20.4613 3.60578 20.4846 3.6484 20.4949 3.69492C20.5052 3.74145 20.5019 3.78994 20.4855 3.83468L20.4852 3.83563L14.4852 20.3356C14.4852 20.3356 14.4852 20.3356 14.4852 20.3356C14.4679 20.3832 14.4365 20.4244 14.3953 20.4537C14.3548 20.4826 14.3067 20.4987 14.2571 20.5H14.2501H14.2499C14.1999 20.5 14.1511 20.485 14.1097 20.457C14.0683 20.429 14.0362 20.3892 14.0177 20.3427L14.0176 20.3425L11.1368 13.141L11.0573 12.9421L10.8583 12.8625L3.65757 9.98177L3.65728 9.98166C3.61021 9.96286 3.56997 9.9302 3.54189 9.88801Z" stroke="#767676"/>
</svg>
