<svg width="413" height="317" viewBox="0 0 413 317" fill="none" xmlns="http://www.w3.org/2000/svg">
<path d="M203 302.524L362.6 208.232C367.682 205.377 372.05 200.695 367.084 197.63L206.948 105.333C204.544 103.842 200.9 102.866 198.454 104.283L30.9156 201.493C25.8336 204.443 24.9201 212.682 30.0021 215.632L182 302.377C185.187 304.22 188.799 305.203 192.481 305.229C196.163 305.255 199.788 304.322 203 302.524Z" fill="#EB8319"/>
<path opacity="0.32" d="M149.051 235.313C137.427 242.084 125.468 248.119 113.813 254.837L135.674 266.898L170.146 245.411L149.051 235.313Z" fill="url(#paint0_linear_205_4199)"/>
<path opacity="0.32" d="M243.95 249.442C232.326 256.212 220.367 262.248 208.712 268.966L230.562 281.037L265.034 259.55L243.95 249.442Z" fill="url(#paint1_linear_205_4199)"/>
<path opacity="0.32" d="M214.791 266.73C203.168 273.5 191.208 279.536 179.553 286.254L201.414 298.314L235.886 276.838L214.791 266.73Z" fill="url(#paint2_linear_205_4199)"/>
<path opacity="0.32" d="M83.846 200.8C75.446 205.692 66.794 210.058 58.3625 214.918L74.1651 223.641L99.0921 208.106L83.846 200.8Z" fill="url(#paint3_linear_205_4199)"/>
<path opacity="0.32" d="M295.809 217.049L250.67 246.912L185.087 204.191L225.627 179.03" fill="url(#paint4_linear_205_4199)"/>
<path d="M231.434 13.739C246.05 22.8816 282.8 44.1269 295.295 51.8104C298.13 53.5529 298.561 56.1456 298.613 59.473L298.55 214.908C297.778 215.807 296.71 216.399 295.539 216.578C294.368 216.757 293.171 216.511 292.166 215.884L230.521 181.056C227.455 179.251 225.04 177.393 225.04 173.834L225.617 16.5206C225.617 13.1407 228.536 11.923 231.434 13.739Z" fill="#66A3FF"/>
<path d="M225.743 15.471L245.788 27.0174V31.342C245.792 31.7066 245.891 32.0638 246.075 32.3786C246.259 32.6933 246.522 32.9547 246.838 33.1369L262.346 42.0906C262.555 42.2242 262.796 42.2983 263.044 42.3051C263.292 42.3119 263.537 42.2511 263.753 42.1291C263.969 42.0072 264.148 41.8287 264.27 41.613C264.392 41.3972 264.453 41.1523 264.446 40.9045V37.7555L293.51 54.8126C293.788 54.9757 294.019 55.2088 294.179 55.4887C294.34 55.7686 294.424 56.0856 294.424 56.4081V211.832C294.417 212.05 294.353 212.262 294.24 212.448C294.126 212.634 293.967 212.787 293.776 212.893C293.586 212.998 293.371 213.053 293.153 213.051C292.936 213.049 292.722 212.991 292.534 212.882L225.05 173.834C224.937 175.041 225.153 176.255 225.677 177.347C226.2 178.44 227.011 179.37 228.022 180.038C231.518 182.263 292.954 217.018 292.954 217.018C292.954 217.018 297.815 219.212 299.254 213.417V57.0169C299.256 56.0058 299.018 55.0086 298.56 54.1072C298.102 53.2058 297.436 52.4259 296.618 51.8315C293.825 49.8267 231.151 13.3717 231.151 13.3717C231.151 13.3717 226.741 11.3668 225.743 15.471Z" fill="#124577"/>
<path d="M176.236 96.7783C176.885 95.0409 177.445 93.2717 177.916 91.4775C178.126 90.2074 176.866 85.3789 177.748 85.106C178.63 84.8331 179.732 88.1081 179.732 88.1081C179.732 88.1081 182.357 82.1879 183.071 81.9045C183.785 81.6211 185.917 81.4322 186.431 81.9675C186.946 82.5028 188.363 85.9562 187.733 87.1319C186.372 89.2169 184.896 91.2248 183.313 93.1465C183.082 93.3249 180.32 99.266 179.953 99.4445C179.585 99.6229 176.509 98.1114 176.236 96.7783Z" fill="#FFC9B5"/>
<path d="M147.434 115.945C147.434 115.945 161.861 110.245 164.371 108.178C166.88 106.11 175.921 95.4556 175.921 95.4556C175.921 95.4556 181.171 97.3765 181.108 100.011C181.108 100.011 173.758 112.282 170.345 115.567C166.933 118.853 154.48 127.114 151.75 126.925C149.02 126.736 147.434 115.945 147.434 115.945Z" fill="#688C03"/>
<path d="M156.643 232.668C156.643 232.668 160.087 229.729 163.993 230.863C167.899 231.997 167.059 234.894 164.623 236.71C162.187 238.525 152.81 244.834 149.923 244.771C147.035 244.708 146.405 242.388 146.342 240.793C146.502 238.331 146.786 235.879 147.193 233.445" fill="#2C1D1A"/>
<path d="M154.5 232.458C154.515 232.566 154.553 232.669 154.612 232.76C154.671 232.852 154.75 232.928 154.842 232.986C154.934 233.043 155.038 233.079 155.146 233.091C155.254 233.103 155.364 233.092 155.466 233.056C156.514 232.725 157.541 232.332 158.543 231.881C158.543 231.881 161.871 231.881 159.845 235.208C157.818 238.536 150.836 239.512 148.683 238.273C146.531 237.035 147.969 233.508 147.969 233.508" fill="#2C1D1A"/>
<path d="M164.759 239.166C164.759 239.166 168.203 236.227 172.109 237.36C176.015 238.494 175.175 241.391 172.739 243.207C170.303 245.023 160.926 251.331 158.039 251.268C155.151 251.205 154.521 248.886 154.458 247.29C154.619 244.828 154.903 242.376 155.309 239.942" fill="#2C1D1A"/>
<path d="M162.606 238.956C162.621 239.063 162.659 239.167 162.718 239.258C162.777 239.349 162.855 239.426 162.948 239.483C163.04 239.541 163.144 239.577 163.252 239.589C163.36 239.601 163.47 239.589 163.572 239.554C164.62 239.222 165.647 238.83 166.649 238.378C166.649 238.378 169.977 238.378 167.951 241.706C165.924 245.033 158.942 246.01 156.789 244.771C154.637 243.532 156.075 240.005 156.075 240.005" fill="#FFC9B5"/>
<path d="M166.25 148.411C167.374 150.952 167.983 187.323 167.552 196.696C167.122 206.07 162.638 238.987 162.638 238.987C162.638 238.987 160.087 242.861 155.782 242.588C151.477 242.315 152.317 238.851 152.317 238.851C152.317 238.851 146.815 241.401 144.41 235.796C143.518 233.697 139.328 175.745 139.328 169.142C139.472 161.253 141.641 153.532 145.628 146.721" fill="#C13D3D"/>
<path d="M152.285 238.819C152.285 238.819 149.671 165.343 150.007 163.17C150.343 160.997 149.293 179.282 149.366 184.279C149.45 187.847 151.55 233.802 152.285 238.819Z" fill="#6D5854"/>
<path d="M166.25 148.411C166.25 148.411 170.051 122.39 164.643 117.478C159.236 112.565 144.21 109.08 141.407 111.526C138.603 113.972 142.814 141.568 145.607 146.69C148.4 151.812 164.223 150.406 166.25 148.411Z" fill="#8CCC00"/>
<path d="M159.383 98.3318C159.509 98.6992 162.176 108.828 157.524 110.298C152.873 111.768 151.938 106.215 151.476 105.9C151.014 105.585 149.555 105.092 149.628 103.969C149.702 102.845 151.466 102.824 151.466 102.824C151.466 102.824 152.148 99.8853 154.238 98.6257C156.327 97.3661 159.383 98.3318 159.383 98.3318Z" fill="#FFC9B5"/>
<path d="M155.036 101.187C155.036 101.187 158.921 101.25 160.601 99.5913C160.916 99.2672 161.159 98.8814 161.317 98.4582C161.475 98.0351 161.543 97.5838 161.517 97.133C161.492 96.6821 161.373 96.2415 161.168 95.839C160.963 95.4364 160.677 95.0807 160.328 94.7944C160.328 94.7944 161.872 91.7188 158.974 90.9736C158.974 90.9736 158.711 88.15 152.936 89.441C147.161 90.7321 141.89 94.8153 141.817 100.095C141.743 105.375 141.355 105.984 139.486 107.191C137.617 108.398 138.131 113.027 143.129 113.216C148.127 113.405 154.942 112.964 155.582 110.497C156.223 108.031 152.432 107.768 151.96 105.249C151.894 104.78 151.922 104.303 152.042 103.845C152.161 103.388 152.37 102.958 152.655 102.58C152.941 102.203 153.298 101.886 153.707 101.647C154.115 101.408 154.567 101.251 155.036 101.187Z" fill="#2C1D1A"/>
<path d="M173.736 144.664C173.736 144.664 177.737 148.926 178.892 149.388C180.66 150.196 182.36 151.148 183.974 152.232C183.438 152.712 182.962 153.255 182.556 153.849C182.555 153.87 182.555 153.891 182.556 153.912C182.042 153.544 181.685 153.271 181.696 153.46C181.696 154.059 185.633 159.181 186.231 159.958C186.83 160.734 185.181 163.275 185.181 163.275C182.64 164.125 179.711 161.553 177.831 159.811C175.952 158.068 175.08 154.038 174.429 153.513C173.778 152.988 168.413 149.451 168.035 148.348C167.657 147.246 173.736 144.664 173.736 144.664Z" fill="#FFC9B5"/>
<path d="M165.861 119.336C166.911 121.655 166.911 124.196 167.352 126.683C167.699 128.457 168.056 130.315 168.465 132.11C168.745 133.94 169.319 135.712 170.166 137.358C171.636 139.804 173.547 141.924 175.217 144.223C175.681 144.723 176.016 145.328 176.193 145.987C176.351 147.593 174.324 152.169 168.707 151.602C165.868 149.309 163.214 146.796 160.769 144.087C157.619 140.381 154.637 127.848 154.941 123.681C155.151 120.847 156.695 117.677 159.383 116.438C160.274 116.076 161.256 115.995 162.194 116.207C163.133 116.419 163.984 116.914 164.633 117.625C165.136 118.122 165.551 118.7 165.861 119.336Z" fill="#8CCC00"/>
<path d="M165.536 148.852C165.536 148.852 160.843 144.864 159.688 142.46C158.533 140.056 157.031 135.731 157.031 135.731C157.031 135.731 159.205 148.233 161.284 149.902C162.73 149.682 164.153 149.331 165.536 148.852Z" fill="#2C1D1A"/>
<path d="M76.3806 181.78C76.3806 181.78 73.5981 205.65 86.2296 210.268C98.8611 214.887 105.623 202.921 105.812 181.78" fill="#66A3FF"/>
<path opacity="0.33" d="M76.3806 181.78C76.3806 181.78 73.5981 205.65 86.2296 210.268C98.8611 214.887 105.623 202.921 105.812 181.78" fill="#2E2E75"/>
<path d="M91.0911 190.283C99.2213 190.283 105.812 186.476 105.812 181.78C105.812 177.085 99.2213 173.278 91.0911 173.278C82.9609 173.278 76.3701 177.085 76.3701 181.78C76.3701 186.476 82.9609 190.283 91.0911 190.283Z" fill="#F2696A"/>
<path d="M94.8501 162.855C94.8501 162.855 89.0751 154.521 91.5951 148.747C91.5951 148.747 93.6951 145.042 96.6141 144.454C96.6141 144.454 96.3201 152.358 99.2601 151.351C102.2 150.343 99.2601 143.079 99.2601 143.079C99.2601 143.079 102.347 138.88 105.739 139.027C109.13 139.174 105.739 146.375 108.091 145.22C110.443 144.066 108.238 137.873 110.884 137.107C113.305 136.551 115.76 136.158 118.234 135.931C118.234 135.931 120.733 143.142 118.234 144.171C115.735 145.199 112.049 145.556 113.813 147.141C115.577 148.726 120.586 146.9 120.586 146.9C120.586 146.9 120.901 150.962 119.2 152.715C117.499 154.468 107.482 150.616 109.256 154.08C111.031 157.544 117.656 155.822 117.656 155.822C117.656 155.822 114.275 160.661 110.306 162.865C106.337 165.07 94.8501 162.855 94.8501 162.855Z" fill="#8CCC00"/>
<path d="M96.2149 183.722C96.2149 183.722 92.0149 179.608 92.8654 176.06C92.8654 176.06 93.6529 173.74 95.2594 173.089C95.2594 173.089 95.9314 177.613 97.4959 176.721C99.0604 175.829 96.6139 172.029 96.6139 172.029C96.6139 172.029 97.9264 169.321 99.8584 169.037C101.79 168.754 100.646 173.236 101.853 172.302C103.061 171.368 101.15 168.103 102.578 167.389C103.895 166.817 105.249 166.333 106.631 165.941C106.631 165.941 108.825 169.772 107.513 170.622C106.2 171.473 104.153 172.071 105.318 172.785C106.484 173.499 109.14 171.924 109.14 171.924C109.14 171.924 109.749 174.191 108.972 175.367C108.195 176.543 102.095 175.367 103.47 177.204C104.846 179.041 108.416 177.298 108.416 177.298C107.588 179.096 106.426 180.72 104.993 182.085C102.977 183.754 96.2149 183.722 96.2149 183.722Z" fill="#8CCC00"/>
<path d="M80.8745 174.821C80.8745 174.821 70.7315 175.209 67.2245 169.993C67.2245 169.993 65.219 166.245 66.3005 163.453C66.3005 163.453 72.8105 167.946 73.5455 164.923C74.2805 161.9 66.563 160.483 66.563 160.483C66.563 160.483 64.694 155.623 66.626 152.841C68.558 150.059 72.863 156.809 73.115 154.185C73.367 151.56 66.962 150.091 67.7705 147.467C68.5927 145.119 69.5714 142.829 70.7 140.612C70.7 140.612 78.134 142.376 77.651 145.042C77.168 147.708 75.4985 150.994 77.7875 150.364C80.0765 149.734 81.2 144.58 81.2 144.58C81.2 144.58 84.791 146.501 85.4 148.873C86.009 151.245 77.315 157.606 81.2 157.995C85.085 158.383 87.1745 151.854 87.1745 151.854C87.1745 151.854 89.432 157.313 89.159 161.847C88.886 166.382 80.8745 174.821 80.8745 174.821Z" fill="#8CCC00"/>
<path d="M116.071 139.122C115 140.032 113.918 140.955 112.826 141.893C112.942 140.749 113.068 139.605 113.257 138.461C113.351 137.862 112.427 137.6 112.333 138.209C112.088 139.734 111.902 141.267 111.776 142.806C108.931 145.294 106.117 147.908 103.492 150.668C103.264 148.725 103.205 146.765 103.313 144.811C103.313 144.192 102.389 144.202 102.358 144.811C102.234 147.068 102.329 149.332 102.641 151.571C100.965 153.378 99.391 155.278 97.9265 157.26C96.2778 154.984 95.1553 152.371 94.64 149.608C94.5245 148.999 93.59 149.262 93.716 149.86C94.2622 152.799 95.4724 155.574 97.2545 157.974C97.2822 158.006 97.314 158.034 97.349 158.058C93.149 164.031 90.2405 170.727 89.999 178.484C89.999 179.104 90.9335 179.104 90.9545 178.484C91.196 171.011 93.968 164.545 98.0105 158.761C101.877 159.786 105.884 160.176 109.876 159.916C110.485 159.916 110.495 158.866 109.876 158.961C106.085 159.204 102.279 158.85 98.5985 157.911C100.628 155.169 102.856 152.579 105.266 150.164H105.35C107.587 150.364 109.823 150.563 112.07 150.637C113.488 150.846 114.936 150.68 116.27 150.154C116.816 149.881 116.333 149.052 115.787 149.325C114.244 150.101 112.081 149.692 110.422 149.598C109.004 149.514 107.587 149.398 106.169 149.272C109.582 145.892 113.246 142.743 116.785 139.752C117.226 139.395 116.543 138.723 116.071 139.122Z" fill="#06577A"/>
<path d="M86.3871 157.764C86.4029 157.648 86.376 157.53 86.3113 157.432C86.2466 157.335 86.1487 157.264 86.0356 157.233C85.9225 157.202 85.8021 157.213 85.6968 157.265C85.5915 157.316 85.5084 157.404 85.4631 157.512C84.4267 161.048 82.2669 164.15 79.3101 166.35C78.2251 163.341 77.2311 160.297 76.3281 157.218C78.6397 154.913 80.5396 152.229 81.9456 149.283C82.2081 148.726 81.3891 148.233 81.1161 148.8C79.8219 151.508 78.0987 153.989 76.0131 156.147C74.9631 152.62 74.1336 149.062 73.3881 145.472C73.2621 144.874 72.3381 145.126 72.4641 145.724C73.4791 150.623 74.7356 155.476 76.2336 160.283C74.4199 159.931 72.6566 159.356 70.9836 158.572C70.4271 158.31 69.9336 159.139 70.5006 159.401C72.4205 160.312 74.455 160.958 76.5486 161.322C77.5986 164.471 78.6486 167.62 79.9086 170.664C77.0397 170.574 74.2127 169.951 71.5716 168.827C71.0151 168.586 70.5216 169.415 71.0886 169.657C73.9938 170.906 77.114 171.58 80.2761 171.64C81.8161 175.482 83.5101 179.261 85.3581 182.977C85.6311 183.533 86.4081 183.04 86.1876 182.494C83.7209 177.553 81.5301 172.479 79.6251 167.295C82.8759 164.957 85.2552 161.604 86.3871 157.764Z" fill="#06577A"/>
<path d="M103.733 170.15L101.097 174.569C100.773 174.136 100.491 173.672 100.257 173.183C99.995 172.627 99.2075 173.11 99.428 173.666C99.7285 174.287 100.098 174.871 100.53 175.409L97.7165 180.269C97.3968 179.965 97.1896 179.561 97.1285 179.125C97.055 178.516 96.0785 178.516 96.173 179.125C96.2569 179.893 96.6328 180.599 97.223 181.098L93.653 187.092C93.6052 187.2 93.599 187.323 93.6357 187.435C93.6725 187.548 93.7494 187.644 93.852 187.703C93.9546 187.763 94.0756 187.783 94.1919 187.759C94.3081 187.735 94.4116 187.67 94.4825 187.574L99.197 179.67C99.9878 179.684 100.775 179.567 101.528 179.324C102.116 179.135 101.864 178.211 101.276 178.4C100.795 178.553 100.298 178.648 99.7955 178.684L104.573 170.675C104.643 170.563 104.665 170.429 104.636 170.301C104.606 170.173 104.527 170.062 104.415 169.993C104.304 169.923 104.17 169.9 104.042 169.93C103.914 169.959 103.803 170.039 103.733 170.15Z" fill="#06577A"/>
<path d="M259.25 142.676C268.614 141.011 274.255 128.709 271.85 115.199C269.445 101.689 259.905 92.088 250.542 93.7536C241.179 95.4193 235.538 107.721 237.943 121.231C240.347 134.741 249.887 144.342 259.25 142.676Z" fill="white"/>
<path d="M263.616 109.752L250.334 123.398L246.396 119.199C245.346 120.354 245.052 120.648 243.929 121.739L250.586 129.496L265.832 112.387L263.616 109.752Z" fill="#124577"/>
<path d="M205.709 43.1191V57.3421C205.85 58.4614 206.327 59.5118 207.076 60.355C207.826 61.1982 208.814 61.7946 209.909 62.0656C213.762 62.9369 214.287 57.867 214.287 57.867V47.3703L205.709 43.1191Z" fill="#DD842A"/>
<path d="M214.319 47.4543V61.6564C214.46 62.7756 214.937 63.826 215.686 64.6692C216.436 65.5124 217.424 66.1088 218.519 66.3799C222.373 67.2511 222.898 62.1812 222.898 62.1812V51.6845L214.319 47.4543Z" fill="#C13D3D"/>
<path d="M223.044 53.8679V68.0909C223.185 69.2102 223.662 70.2606 224.412 71.1038C225.161 71.9469 226.149 72.5433 227.244 72.8144C231.098 73.6856 231.623 68.6158 231.623 68.6158V58.1191L223.044 53.8679Z" fill="#DD842A"/>
<path d="M231.655 58.2029V72.4259C231.795 73.5452 232.272 74.5956 233.022 75.4387C233.772 76.2819 234.759 76.8783 235.855 77.1494C239.708 78.0206 240.233 72.9507 240.233 72.9507V62.454L231.655 58.2029Z" fill="#C13D3D"/>
<path d="M240.264 63.3882V77.6112C240.405 78.7305 240.882 79.7809 241.632 80.624C242.381 81.4672 243.369 82.0636 244.464 82.3347C248.318 83.2059 248.843 78.136 248.843 78.136V67.6393L240.264 63.3882Z" fill="#DD842A"/>
<path d="M248.875 67.7339V81.9569C249.015 83.0762 249.492 84.1266 250.242 84.9697C250.992 85.8129 251.979 86.4093 253.075 86.6804C256.928 87.5516 257.453 82.4817 257.453 82.4817V71.985L248.875 67.7339Z" fill="#C13D3D"/>
<path d="M257.348 73.5491V87.7721C257.489 88.8914 257.966 89.9418 258.715 90.7849C259.465 91.6281 260.453 92.2245 261.548 92.4956C265.402 93.3668 265.927 88.2969 265.927 88.2969V77.8002L257.348 73.5491Z" fill="#DD842A"/>
<path d="M225.743 15.4709L205.635 43.0772C205.635 43.0772 273.287 84.2872 274.232 84.0143C275.177 83.7413 293.51 54.8125 293.51 54.8125L225.743 15.4709Z" fill="#8CCC00"/>
<path d="M257.348 74.2629L277.792 45.4495L285.677 50.2674L265.958 79.3537" fill="#F29D40"/>
<path d="M248.875 69.214L268.94 40.4216L277.792 45.4495L257.348 74.2629" fill="#E04F4F"/>
<path d="M240.264 64.1545L261.117 35.6035L268.94 40.4215L248.885 69.2874" fill="#F29D40"/>
<path d="M231.655 58.9167L251.899 30.4182L261.118 35.6036L240.265 64.0811" fill="#E04F4F"/>
<path d="M222.929 53.5529L242.291 25.0544L251.898 30.4182L231.654 58.9167" fill="#F29D40"/>
<path d="M214.319 48.3361L233.555 19.9531L242.291 25.0545L222.929 53.553" fill="#E04F4F"/>
<path d="M205.709 43.3082L226.152 14.2639L234.038 19.0819L214.319 48.1682" fill="#F29D40"/>
<path d="M293.51 54.8125C293.51 54.8125 294.424 55.0014 294.424 56.5654V83.9933L272.069 96.7572L275.219 77.2124L293.51 54.8125Z" fill="#AA2B2B"/>
<path d="M266 79.3538V92.0967C266.141 93.216 266.618 94.2664 267.367 95.1096C268.117 95.9527 269.105 96.5491 270.2 96.8202C274.054 97.6915 274.579 92.6216 274.579 92.6216L274.411 84.2242L266 79.3538Z" fill="#C13D3D"/>
<path d="M274.4 84.2453L293.51 54.8126L285.677 50.2676L265.958 79.3539" fill="#E04F4F"/>
<path d="M243.793 163.233C244.051 164.011 244.179 164.827 244.171 165.647C244.171 167.358 243.583 168.282 242.785 168.376C242.309 168.397 241.839 168.268 241.441 168.009C240.307 167.31 239.475 166.213 239.11 164.933C238.856 164.154 238.732 163.338 238.742 162.519C238.742 160.808 239.33 159.874 240.128 159.8C240.606 159.774 241.08 159.899 241.483 160.157C242.614 160.853 243.44 161.952 243.793 163.233ZM242.606 166.697C242.798 166.465 242.94 166.196 243.023 165.907C243.106 165.618 243.129 165.315 243.089 165.017C243.112 164.253 242.953 163.494 242.627 162.802C242.382 162.257 241.98 161.796 241.472 161.48C241.305 161.351 241.1 161.282 240.889 161.282C240.679 161.282 240.474 161.351 240.307 161.48C240.118 161.713 239.979 161.982 239.898 162.271C239.817 162.56 239.795 162.862 239.834 163.159C239.807 163.923 239.962 164.682 240.286 165.374C240.531 165.926 240.937 166.39 241.451 166.707C241.617 166.839 241.822 166.911 242.034 166.911C242.246 166.911 242.451 166.839 242.617 166.707" fill="#225870"/>
<path d="M248.518 152.757C248.777 153.535 248.905 154.351 248.896 155.171C248.896 156.882 248.308 157.806 247.51 157.9C247.03 157.918 246.557 157.786 246.155 157.523C245.027 156.826 244.199 155.733 243.835 154.458C243.578 153.679 243.454 152.863 243.467 152.043C243.467 150.332 244.055 149.398 244.853 149.325C245.327 149.299 245.798 149.424 246.197 149.682C247.333 150.376 248.162 151.475 248.518 152.757ZM247.331 156.232C247.524 155.998 247.666 155.728 247.749 155.437C247.832 155.146 247.854 154.841 247.814 154.542C247.839 153.777 247.68 153.018 247.352 152.327C247.108 151.78 246.706 151.32 246.197 151.004C246.029 150.877 245.825 150.809 245.614 150.809C245.404 150.809 245.199 150.877 245.032 151.004C244.845 151.238 244.707 151.508 244.625 151.796C244.544 152.085 244.522 152.386 244.559 152.684C244.535 153.45 244.69 154.212 245.01 154.909C245.259 155.456 245.665 155.916 246.176 156.232C246.342 156.362 246.547 156.433 246.759 156.433C246.97 156.433 247.175 156.362 247.342 156.232" fill="#225870"/>
<path d="M252.634 157.722L254.219 162.068L253.022 161.385L251.489 157.187L250.933 156.872V160.189L249.883 159.569V151.896L251.983 153.103C252.524 153.429 252.97 153.892 253.276 154.445C253.582 154.997 253.737 155.621 253.726 156.252C253.715 157.302 253.327 157.848 252.634 157.722ZM251.972 156.137C252.434 156.399 252.655 156.252 252.655 155.665C252.674 155.414 252.621 155.163 252.502 154.941C252.383 154.72 252.203 154.537 251.983 154.415L250.933 153.828V155.549L251.983 156.137" fill="#225870"/>
<path d="M256.812 155.875C257.681 156.465 258.383 157.271 258.848 158.212C259.314 159.154 259.527 160.2 259.469 161.249C259.469 163.926 258.125 164.324 256.77 163.548L254.964 162.498V154.825L256.812 155.875ZM257.747 162.288C258.146 162.162 258.377 161.595 258.387 160.619C258.424 159.781 258.208 158.951 257.768 158.236C257.44 157.725 256.993 157.3 256.466 156.998L256.067 156.767V161.805L256.466 162.036C256.652 162.169 256.865 162.26 257.089 162.304C257.314 162.347 257.545 162.342 257.768 162.288" fill="#225870"/>
<path d="M264.026 160.021L264.016 161.333L261.527 159.895L261.517 161.511L263.512 162.655V163.978L261.506 162.823L261.496 164.944L264.079 166.424L264.068 167.736L260.425 165.636L260.456 157.974L264.026 160.021Z" fill="#225870"/>
<path d="M267.838 166.466L269.423 170.811L268.226 170.129L266.693 165.93L266.126 165.605V168.922L265.076 168.313V160.64L267.176 161.847C267.718 162.173 268.164 162.636 268.47 163.188C268.775 163.741 268.931 164.365 268.919 164.996C268.919 166.035 268.531 166.623 267.838 166.466ZM267.176 164.881C267.638 165.143 267.859 164.996 267.859 164.408C267.878 164.158 267.825 163.907 267.706 163.685C267.587 163.464 267.407 163.281 267.187 163.159L266.137 162.561V164.282L267.187 164.881" fill="#225870"/>
<path d="M235.55 156.788C236.196 157.188 236.744 157.728 237.155 158.367C237.565 159.006 237.828 159.729 237.923 160.483L236.957 160.262C236.884 159.823 236.72 159.404 236.476 159.032C236.232 158.66 235.913 158.342 235.54 158.1C235.37 157.968 235.161 157.896 234.946 157.896C234.732 157.896 234.523 157.968 234.353 158.1C233.985 158.577 233.819 159.181 233.891 159.779C233.871 160.539 234.026 161.293 234.343 161.984C234.59 162.54 235 163.008 235.519 163.327C236.212 163.726 236.684 163.558 236.947 162.813L237.913 163.695C237.629 165.017 236.768 165.364 235.508 164.639C234.678 164.136 234.008 163.408 233.576 162.54C233.045 161.508 232.778 160.362 232.799 159.202C232.741 158.763 232.784 158.317 232.924 157.896C233.064 157.476 233.298 157.094 233.608 156.777C233.892 156.576 234.232 156.469 234.581 156.471C234.929 156.473 235.268 156.584 235.55 156.788Z" fill="#225870"/>
<path d="M250.439 165.406L250.407 173.079L249.336 172.459L249.357 167.725L248.234 171.116L247.457 170.675L246.375 166.014L246.354 170.748L245.283 170.129L245.325 162.467L246.522 163.159L247.856 168.712L249.242 164.713L250.439 165.406Z" fill="#225870"/>
<path d="M253.799 167.327C254.371 167.677 254.839 168.175 255.155 168.767C255.471 169.359 255.622 170.025 255.594 170.696C255.594 172.092 254.954 172.659 253.778 171.987L252.675 171.347V174.359L251.625 173.75V166.077L253.799 167.327ZM253.736 170.654C254.24 170.937 254.492 170.748 254.502 170.066C254.527 169.776 254.469 169.486 254.335 169.228C254.201 168.97 253.997 168.754 253.746 168.607L252.696 167.998V170.035L253.746 170.643" fill="#225870"/>
<path d="M257.653 169.541L257.621 175.902L260.057 177.309V178.621L256.54 176.595L256.582 168.932L257.653 169.541Z" fill="#225870"/>
<path d="M264.624 173.551L264.614 174.863L262.115 173.436V175.042L264.11 176.196L264.099 177.508L262.104 176.354L262.094 178.474L264.666 179.954V181.266L261.023 179.177L261.054 171.504L264.624 173.551Z" fill="#225870"/>
<path d="M269.759 176.5V177.823L268.163 176.899L268.132 183.26L267.061 182.641L267.092 176.29L265.496 175.377L265.507 174.055L269.759 176.5Z" fill="#225870"/>
<path d="M274.253 179.083L274.242 180.405L271.754 178.967L271.743 180.573L273.749 181.728L273.738 183.04L271.733 181.896L271.722 184.006L274.305 185.486L274.295 186.798L270.651 184.709L270.693 177.036L274.253 179.083Z" fill="#225870"/>
<path d="M277.119 180.731C277.99 181.32 278.694 182.125 279.161 183.067C279.629 184.008 279.844 185.055 279.787 186.105C279.787 188.782 278.442 189.18 277.077 188.404L275.271 187.354V179.681L277.119 180.731ZM278.054 187.144C278.453 187.018 278.695 186.462 278.705 185.475C278.738 184.636 278.519 183.806 278.075 183.092C277.751 182.581 277.308 182.156 276.783 181.854L276.385 181.623V186.661L276.783 186.892C276.969 187.026 277.182 187.118 277.407 187.162C277.632 187.205 277.863 187.199 278.086 187.144" fill="#225870"/>
<path d="M263.448 260.421V241.475L280.416 232.028V250.827L263.448 260.421Z" fill="#B24F28"/>
<path d="M263.448 241.475L246.942 232.028C246.942 232.028 246.48 251.132 246.942 251.436C247.404 251.741 263.448 260.453 263.448 260.453V241.475Z" fill="#C96336"/>
<path d="M246.932 231.996L263.449 221.909L280.417 231.996L263.449 241.475L246.932 231.996Z" fill="#DB7D58"/>
<path d="M253.221 228.155L270.41 237.581V247.479L275.355 244.981V234.82L258.167 225.132L253.221 228.155Z" fill="#FDEDCB"/>
<path d="M219.517 195.059C207.967 195.856 208.523 214.614 207.736 222.35C207.536 224.302 210.55 224.964 210.749 222.99C211.4 216.503 210.97 207.718 214.571 201.997C215.684 200.234 217.007 198.502 219.286 198.344C219.984 198.319 220.681 198.439 221.331 198.695C221.981 198.952 222.572 199.34 223.066 199.835C224.116 200.748 224.62 204.38 224.798 205.461C225.399 209.479 225.466 213.559 224.998 217.595C224.788 219.547 227.801 220.209 228.011 218.235C228.673 212.179 229.849 194.345 219.517 195.059Z" fill="#8CCC00"/>
<path d="M236.862 207.655L240.348 213.47L247.331 214.918L242.102 232.941L227.276 223.347" fill="#DD842A"/>
<path d="M201.1 227.42L236.863 207.655L235.708 237.014L208.376 239.627L201.1 227.42Z" fill="#C13D3D"/>
<path d="M213.899 231.776L219.422 287.293L252.854 267.234L247.331 214.918L213.899 231.776Z" fill="#F29D40"/>
<path d="M213.899 231.776L210.119 227.42H201.1L197.32 275.957L207.032 280.428L219.422 287.293L213.899 231.776Z" fill="#DD842A"/>
<path d="M234.447 204.348C222.824 204.453 222.299 223.242 221.049 230.936C220.734 232.878 223.706 233.707 224.021 231.755C225.071 225.321 225.155 216.524 229.092 211.045C230.709 208.799 233.534 206.909 236.327 208.379C238.826 209.702 238.857 212.651 239.099 215.118C239.459 219.165 239.283 223.241 238.574 227.242C238.248 229.183 241.22 230.013 241.545 228.06C242.564 221.972 244.811 204.254 234.447 204.348Z" fill="#8CCC00"/>
<defs>
<linearGradient id="paint0_linear_205_4199" x1="110.8" y1="266.73" x2="144.643" y2="239.549" gradientUnits="userSpaceOnUse">
<stop stop-color="#FEFEFE" stop-opacity="0"/>
<stop offset="1" stop-color="#F15A24"/>
</linearGradient>
<linearGradient id="paint1_linear_205_4199" x1="255.237" y1="251.31" x2="221.13" y2="275.337" gradientUnits="userSpaceOnUse">
<stop stop-color="#5B1D5C"/>
<stop offset="1" stop-color="#F7BA1B"/>
</linearGradient>
<linearGradient id="paint2_linear_205_4199" x1="176.54" y1="298.146" x2="210.384" y2="270.966" gradientUnits="userSpaceOnUse">
<stop stop-color="#FEFEFE" stop-opacity="0"/>
<stop offset="1" stop-color="#F15A24"/>
</linearGradient>
<linearGradient id="paint3_linear_205_4199" x1="56.1839" y1="223.519" x2="80.6571" y2="203.868" gradientUnits="userSpaceOnUse">
<stop stop-color="#FEFEFE" stop-opacity="0"/>
<stop offset="1" stop-color="#F15A24"/>
</linearGradient>
<linearGradient id="paint4_linear_205_4199" x1="179.164" y1="246.551" x2="250.245" y2="194.343" gradientUnits="userSpaceOnUse">
<stop stop-color="#FEFEFE" stop-opacity="0"/>
<stop offset="1" stop-color="#F15A24"/>
</linearGradient>
</defs>
</svg>
