<svg width="60" height="60" viewBox="0 0 60 60" fill="none" xmlns="http://www.w3.org/2000/svg">
<g clip-path="url(#clip0_956_413)">
<path d="M-1.22068e-05 37.5438C0.365613 37.075 0.85155 36.9625 1.4328 36.9672C4.10311 36.9891 6.77343 36.9766 9.44374 36.9766C9.54061 36.9766 9.63905 36.9766 9.73593 36.9766C10.4578 36.9938 10.8797 37.3532 10.875 37.9485C10.8703 38.5438 10.4594 38.886 9.7203 38.9C8.74686 38.911 7.77186 38.9 6.79686 38.9H5.93749V40.9313C6.10936 40.9454 6.27811 40.9719 6.4453 40.9719C7.9078 40.9719 9.36874 40.9719 10.8312 40.9719C11.1547 40.9719 11.3375 40.9016 11.4922 40.5704C12.5672 38.2782 14.3969 36.9985 16.9203 36.9922C19.4672 36.9844 21.2953 38.2704 22.4203 40.5704C22.4747 40.6698 22.5508 40.7556 22.6431 40.8214C22.7354 40.8871 22.8414 40.9311 22.9531 40.95C29.1906 40.9698 35.4276 40.9745 41.6641 40.9641C41.7751 40.9566 41.8857 40.943 41.9953 40.9235V40.2704C41.9953 38.2443 41.9953 36.2172 41.9953 34.1891C41.9953 33.4188 42.35 32.975 42.9484 32.9797C43.5469 32.9844 43.8859 33.4063 43.8859 34.2016C43.8859 36.2688 43.8859 38.3344 43.8953 40.4C43.9252 40.5907 43.9825 40.7759 44.0656 40.95C44.2141 40.8063 44.4187 40.6875 44.5047 40.5125C45.6156 38.261 47.4266 37.0016 49.9234 36.9922C52.4453 36.9813 54.2859 38.2422 55.3766 40.5282C55.5328 40.8657 55.7109 40.9969 56.0734 40.975C56.6984 40.9469 57.3234 40.9672 57.975 40.9672V36.9344C57.5391 36.911 57.0953 36.9047 56.6562 36.8594C55.9603 36.8029 55.309 36.4942 54.8248 35.9912C54.3405 35.4883 54.0566 34.8257 54.0266 34.1282C53.9891 33.4094 53.9953 32.686 54.0172 31.9657C54.0375 31.3329 54.3844 31.0079 55.0203 31C55.9297 30.9875 56.8406 31 57.7547 31C57.6766 30.0704 56.5047 28.9219 55.15 28.9079C51.4281 28.8672 47.7062 28.8938 43.8844 28.8938C43.8844 29.2391 43.8953 29.561 43.8844 29.8813C43.8578 30.5188 43.4844 30.8954 42.9156 30.8782C42.375 30.8625 42.0109 30.4829 42.0031 29.8782C41.9906 28.825 42.0031 27.7735 42.0031 26.7204V12.9032H5.91561C5.90468 13.1469 5.8828 13.3922 5.8828 13.636C5.8828 18.8797 5.8828 24.123 5.8828 29.3657C5.88803 29.5799 5.88229 29.7942 5.86561 30.0079C5.85785 30.2438 5.75736 30.4672 5.58595 30.6296C5.41454 30.7919 5.18602 30.8801 4.94999 30.875C4.71429 30.8811 4.48498 30.798 4.30776 30.6425C4.13054 30.487 4.01842 30.2705 3.99374 30.036C3.98036 29.8801 3.97723 29.7235 3.98436 29.5672V13.2547C3.98436 11.7422 4.72968 10.9954 6.23905 10.9954H41.6734C43.1266 10.9954 43.8703 11.7266 43.8828 13.1704C43.8828 13.75 43.8828 14.3313 43.8828 14.9782H44.5672C46.6344 14.9782 48.7 14.9782 50.7656 14.9782C53.1484 14.986 54.8094 16.6032 54.8844 18.9782C54.8922 19.1922 54.8844 19.4079 54.8844 19.6204C54.9172 20.1938 54.7781 20.6688 54.1516 20.8704C54.6484 22.8454 55.1297 24.786 55.6359 26.7188C55.6717 26.8091 55.7267 26.8906 55.7971 26.9575C55.8675 27.0244 55.9517 27.0752 56.0437 27.1063C58.5047 27.8016 59.875 29.5954 59.8766 32.161C59.8766 35.3381 59.8766 38.5151 59.8766 41.6922C59.8766 42.5547 59.5437 42.8922 58.6812 42.8969C57.7703 42.8969 56.8594 42.8969 55.9594 42.8969C55.3156 46.736 53.175 48.8641 49.9969 48.8766C46.7359 48.8891 44.5953 46.8016 43.9203 42.9266H22.9172C22.8219 44.8469 22.0922 46.4485 20.5734 47.6344C19.4094 48.5438 18.0734 48.9266 16.5937 48.8766C13.6094 48.775 11.4859 46.5625 10.9328 42.8969C9.38905 42.8969 7.83436 42.8969 6.28124 42.8969C6.008 42.9014 5.73521 42.8731 5.46874 42.8125C5.04719 42.7177 4.67032 42.4826 4.39981 42.1457C4.1293 41.8087 3.98117 41.3899 3.97968 40.9579C3.96561 40.2985 3.97968 39.6391 3.97968 38.8969C3.12186 38.8969 2.31093 38.8735 1.50155 38.9047C0.910925 38.9282 0.392175 38.8297 -0.00469971 38.3563L-1.22068e-05 37.5438ZM43.9203 20.911V26.9532H53.6578C53.6697 26.902 53.6749 26.8495 53.6734 26.7969C53.2203 24.9891 52.7516 23.1844 52.3234 21.3704C52.2375 21 52.0859 20.9094 51.7359 20.911C49.9828 20.925 48.2281 20.911 46.4734 20.911H43.9203ZM16.9219 38.9157C15.8504 38.9181 14.8237 39.3451 14.0663 40.103C13.309 40.8609 12.8829 41.888 12.8812 42.9594C12.8987 44.0314 13.3345 45.0541 14.0955 45.8093C14.8565 46.5645 15.8826 46.9924 16.9547 47.0016C18.0264 46.9913 19.0504 46.5569 19.8026 45.7935C20.5549 45.0302 20.9742 43.9999 20.9687 42.9282C20.9726 42.3973 20.8702 41.871 20.6678 41.3802C20.4653 40.8894 20.1668 40.444 19.7898 40.0702C19.4128 39.6964 18.9649 39.4017 18.4724 39.2034C17.9799 39.0052 17.4527 38.9073 16.9219 38.9157ZM49.9234 38.9157C49.3923 38.9146 48.8663 39.019 48.3758 39.2227C47.8854 39.4264 47.4402 39.7254 47.0661 40.1024C46.692 40.4794 46.3965 40.9268 46.1966 41.4189C45.9967 41.9109 45.8964 42.4377 45.9016 42.9688C45.9043 43.5 46.0117 44.0255 46.2176 44.5153C46.4234 45.005 46.7237 45.4494 47.1013 45.8231C47.4789 46.1968 47.9264 46.4924 48.4183 46.6932C48.9101 46.8939 49.4367 46.9958 49.968 46.993C50.4992 46.9902 51.0247 46.8829 51.5144 46.677C52.0042 46.4712 52.4486 46.1709 52.8223 45.7933C53.1959 45.4157 53.4916 44.9681 53.6923 44.4763C53.8931 43.9844 53.9949 43.4578 53.9922 42.9266C53.9904 42.3955 53.8834 41.87 53.6776 41.3805C53.4718 40.8909 53.1711 40.4469 52.7929 40.074C52.4147 39.7012 51.9664 39.4069 51.4739 39.2081C50.9814 39.0093 50.4545 38.9099 49.9234 38.9157ZM52.9594 18.936C52.9422 17.7172 52.1125 16.9141 50.8469 16.9047C48.6672 16.8875 46.4859 16.9047 44.3062 16.9047C44.1747 16.9152 44.0441 16.9356 43.9156 16.9657V18.9391L52.9594 18.936ZM57.9781 34.9422V32.9188H55.9469C55.7328 34.7125 56.1234 35.1047 57.9781 34.9422Z" fill="#EB8319"/>
<path d="M30.784 20.3999L22.9205 28.2771C22.8175 28.1498 22.7171 28.0299 22.607 27.93C22.3891 27.7104 22.1713 27.4904 21.9535 27.2703C20.924 26.2302 19.8928 25.1882 18.8299 24.1796L18.8301 24.1794L18.821 24.1715C18.6611 24.0337 18.4736 23.9316 18.2711 23.872C18.0686 23.8124 17.8557 23.7966 17.6467 23.8258L17.6355 23.8274L17.6246 23.8299C17.4201 23.8775 17.2225 24.0295 17.0819 24.1828C16.9436 24.3337 16.8048 24.5467 16.7882 24.7621L16.7873 24.7738L16.7875 24.7855C16.795 25.2245 16.9693 25.6443 17.2748 25.9596C18.4035 27.1286 19.5562 28.2766 20.707 29.4228C21.0748 29.7892 21.4425 30.1554 21.8091 30.5221C22.1874 30.9004 22.5371 31.1665 22.9354 31.1646C23.3324 31.1627 23.6839 30.8946 24.0674 30.5111L32.4997 22.0788C32.6406 21.9531 32.7694 21.8144 32.8843 21.6646L32.8888 21.6587L32.893 21.6526C33.0568 21.4105 33.1519 21.1458 33.1398 20.8721C33.1275 20.5952 33.0066 20.339 32.793 20.1161C32.5792 19.893 32.3271 19.7609 32.0497 19.7383C31.7752 19.716 31.5059 19.8033 31.2581 19.9634L31.251 19.968L31.2443 19.973C31.076 20.0984 30.9217 20.2415 30.784 20.3999Z" fill="#EB8319" stroke="#EB8319" stroke-width="0.5"/>
<path d="M31.9281 38.9063C29.7469 38.9063 27.5651 38.9063 25.3828 38.9063C25.1884 38.9126 24.9939 38.9016 24.8015 38.8735C24.2937 38.7797 24 38.4563 23.9953 37.9485C23.9906 37.4407 24.3078 37.1235 24.7969 37.011C24.9889 36.9796 25.1839 36.9702 25.3781 36.9829C29.7614 36.9829 34.1442 36.9829 38.5265 36.9829C38.7779 36.9744 39.0289 37.006 39.2703 37.0766C39.4577 37.1444 39.6183 37.271 39.7279 37.4374C39.8376 37.6038 39.8906 37.8012 39.879 38.0002C39.8675 38.1992 39.7919 38.3892 39.6636 38.5417C39.5353 38.6943 39.3612 38.8013 39.1672 38.8469C38.9387 38.8913 38.7061 38.9107 38.4734 38.9047C36.2901 38.9058 34.1083 38.9063 31.9281 38.9063Z" fill="#EB8319"/>
<path d="M8.95314 32.989C10.9 32.989 12.8453 32.989 14.7922 32.989C15.6469 32.989 16.1781 33.7328 15.7531 34.3703C15.6537 34.5054 15.5272 34.6183 15.3816 34.7017C15.2361 34.7851 15.0747 34.8372 14.9078 34.8546C10.9391 34.8859 6.96876 34.8796 2.99845 34.8718C2.37345 34.8718 1.97657 34.4671 1.99376 33.9078C2.01095 33.3484 2.4172 32.9921 3.05626 32.989C5.02189 32.9843 6.98751 32.989 8.95314 32.989Z" fill="#EB8319"/>
<path d="M43.9203 20.9109H46.4734C48.2281 20.9109 49.9828 20.9109 51.7359 20.9109C52.0859 20.9109 52.2375 21 52.3234 21.3703C52.7515 23.1843 53.2203 24.989 53.6734 26.7968C53.6749 26.8494 53.6696 26.9019 53.6578 26.9531H43.9203V20.9109Z" fill="white"/>
<path d="M16.9219 38.9157C17.4527 38.9073 17.9799 39.0051 18.4724 39.2034C18.9649 39.4017 19.4128 39.6964 19.7898 40.0702C20.1668 40.444 20.4653 40.8894 20.6678 41.3802C20.8702 41.8709 20.9725 42.3973 20.9687 42.9282C20.9741 43.9999 20.5549 45.0301 19.8026 45.7935C19.0504 46.5569 18.0264 46.9913 16.9547 47.0016C15.8826 46.9924 14.8565 46.5645 14.0955 45.8093C13.3345 45.0541 12.8987 44.0314 12.8812 42.9594C12.8829 41.888 13.309 40.8609 14.0663 40.103C14.8236 39.3451 15.8504 38.9181 16.9219 38.9157ZM18.8937 42.9172C18.888 42.5292 18.767 42.1516 18.5461 41.8326C18.3252 41.5135 18.0144 41.2674 17.6532 41.1254C17.292 40.9835 16.8968 40.9522 16.5178 41.0355C16.1388 41.1188 15.7931 41.3129 15.5247 41.5932C15.2563 41.8735 15.0774 42.2273 15.0106 42.6096C14.9438 42.9919 14.9923 43.3854 15.1498 43.74C15.3073 44.0947 15.5667 44.3945 15.895 44.6014C16.2234 44.8082 16.6058 44.9127 16.9937 44.9016C17.5058 44.8814 17.99 44.6632 18.3444 44.2931C18.6988 43.9229 18.8957 43.4297 18.8937 42.9172Z" fill="white"/>
<path d="M49.9234 38.9156C50.4536 38.9106 50.9795 39.0105 51.4709 39.2094C51.9624 39.4082 52.4097 39.7023 52.7872 40.0745C53.1646 40.4468 53.4649 40.89 53.6706 41.3786C53.8763 41.8672 53.9835 42.3917 53.9859 42.9218C53.9915 43.9947 53.5707 45.0259 52.816 45.7885C52.0613 46.5511 51.0346 46.9826 49.9617 46.9882C48.8888 46.9938 47.8576 46.573 47.095 45.8183C46.3325 45.0636 45.9009 44.0369 45.8953 42.964C45.8907 42.4328 45.9917 41.906 46.1922 41.4141C46.3928 40.9222 46.689 40.475 47.0637 40.0984C47.4384 39.7218 47.8841 39.4234 48.375 39.2203C48.8659 39.0173 49.3922 38.9137 49.9234 38.9156ZM49.9656 40.9875C49.4539 40.9897 48.9626 41.1885 48.5933 41.5427C48.224 41.8969 48.0049 42.3794 47.9812 42.8906C47.9406 43.9375 48.8578 44.8875 49.9219 44.9015C50.183 44.9112 50.4435 44.8685 50.688 44.7759C50.9324 44.6834 51.1558 44.5428 51.3451 44.3625C51.5343 44.1822 51.6855 43.9658 51.7898 43.7261C51.8941 43.4864 51.9493 43.2283 51.9522 42.9669C51.9551 42.7056 51.9057 42.4463 51.8068 42.2043C51.7079 41.9624 51.5616 41.7427 51.3764 41.5582C51.1913 41.3737 50.971 41.2281 50.7287 41.1301C50.4864 41.0321 50.227 40.9836 49.9656 40.9875Z" fill="white"/>
<path d="M52.9593 18.9359H43.9156V16.9625C44.0441 16.9324 44.1747 16.912 44.3062 16.9015C46.4859 16.9015 48.6672 16.8875 50.8468 16.9015C52.1125 16.914 52.9422 17.7171 52.9593 18.9359Z" fill="white"/>
<path d="M57.9781 34.9421C56.1234 35.0984 55.7328 34.7124 55.9468 32.9187H57.9781V34.9421Z" fill="white"/>
<path d="M18.8938 42.9172C18.899 43.3054 18.7887 43.6863 18.5769 44.0115C18.365 44.3368 18.0612 44.5916 17.704 44.7437C17.3469 44.8958 16.9526 44.9381 16.5713 44.8654C16.19 44.7927 15.8389 44.6082 15.5628 44.3354C15.2867 44.0626 15.0979 43.7138 15.0206 43.3334C14.9433 42.953 14.9809 42.5582 15.1287 42.1993C15.2764 41.8403 15.5276 41.5334 15.8502 41.3176C16.1729 41.1019 16.5525 40.987 16.9406 40.9876C17.4519 40.9962 17.9402 41.2015 18.304 41.5609C18.6677 41.9203 18.879 42.4061 18.8938 42.9172Z" fill="#EB8319"/>
<path d="M49.9656 40.9875C50.2269 40.9837 50.4864 41.0322 50.7287 41.1302C50.971 41.2282 51.1913 41.3738 51.3764 41.5582C51.5616 41.7427 51.7079 41.9624 51.8068 42.2044C51.9057 42.4463 51.9551 42.7056 51.9522 42.967C51.9493 43.2284 51.8941 43.4865 51.7898 43.7262C51.6855 43.9658 51.5343 44.1822 51.3451 44.3625C51.1558 44.5428 50.9324 44.6834 50.688 44.776C50.4435 44.8686 50.183 44.9113 49.9218 44.9016C48.8578 44.8875 47.9406 43.9375 47.9812 42.8906C48.0049 42.3795 48.224 41.8969 48.5933 41.5427C48.9626 41.1885 49.4539 40.9898 49.9656 40.9875Z" fill="#EB8319"/>
</g>
<defs>
<clipPath id="clip0_956_413">
<rect width="60" height="60" fill="white"/>
</clipPath>
</defs>
</svg>
