<svg width="60" height="63" viewBox="0 0 60 63" fill="none" xmlns="http://www.w3.org/2000/svg">
<path d="M50.5089 34.933C51.0571 34.933 51.5254 34.9026 51.9937 34.933C53.1222 35.0159 54.1785 35.5191 54.9539 36.3431C55.7293 37.1672 56.1674 38.2521 56.1815 39.3836C56.1967 44.1907 56.1967 48.9978 56.1815 53.8049C56.1633 54.9751 55.6936 56.093 54.8707 56.9251C54.0478 57.7573 52.9352 58.2393 51.7653 58.2706C46.9264 58.3011 42.0876 58.2935 37.2526 58.2706C36.2923 58.2505 35.3638 57.9232 34.6033 57.3366C33.8427 56.7501 33.2902 55.9353 33.0267 55.0117C32.9048 54.5929 32.7221 54.4902 32.3071 54.494C30.3769 54.5168 28.4429 54.494 26.5127 54.494C26.3898 54.4738 26.2638 54.5023 26.1615 54.5733C26.0592 54.6444 25.9886 54.7525 25.9645 54.8747C25.5668 56.1484 24.7816 57.2664 23.7183 58.0726C23.1305 58.5519 22.4205 58.8572 21.6683 58.954C20.9162 59.0509 20.152 58.9355 19.462 58.6209C16.3503 57.3188 13.2361 56.0244 10.1193 54.7376C9.71001 54.5815 9.28491 54.4705 8.85155 54.4064C7.4371 54.1596 6.15528 53.4211 5.23233 52.3212C4.30937 51.2214 3.80462 49.8308 3.80714 48.395C3.80714 43.7693 3.80714 39.1475 3.80714 34.5219C3.80714 27.6691 3.80714 20.8087 3.80714 13.9407C3.80714 10.895 5.8211 8.5498 8.75638 7.84929C11.4214 7.2097 14.0406 6.36071 16.679 5.59549C17.8592 5.25285 19.0203 4.83406 20.2196 4.55615C21.9023 4.17544 23.2957 4.83406 24.4493 6.0295C24.8404 6.44995 25.1768 6.91812 25.4505 7.4229C25.5159 7.5534 25.6203 7.66024 25.7493 7.7285C25.8783 7.79675 26.0254 7.82301 26.1701 7.80361C28.4962 7.80361 30.8224 7.80361 33.1523 7.80361H44.1929C47.9125 7.80361 50.5089 10.4115 50.5089 14.1234V34.933ZM22.8655 31.7275V10.8797C22.8862 10.0204 22.5832 9.18472 22.0165 8.53838C21.8387 8.29982 21.5867 8.12704 21.3001 8.04711C21.0134 7.96719 20.7084 7.98465 20.4328 8.09675C17.4556 9.04092 14.4556 9.92036 11.4708 10.8493C10.4737 11.1626 9.49931 11.5442 8.5546 11.9914C8.12938 12.1743 7.7751 12.4904 7.54507 12.8921C7.31505 13.2937 7.22175 13.7593 7.27922 14.2186C7.27922 14.5079 7.27922 14.7973 7.27922 15.0866V31.4191C7.27922 37.0028 7.27922 42.5866 7.27922 48.1704C7.25602 48.5355 7.33446 48.8999 7.50583 49.2232C7.6772 49.5464 7.9348 49.8159 8.25003 50.0016C8.78822 50.343 9.3521 50.6421 9.93658 50.8962C13.5343 52.4191 17.1434 53.8924 20.745 55.4001C20.9005 55.4806 21.0776 55.5097 21.2508 55.483C21.4239 55.4563 21.5841 55.3753 21.7081 55.2516C22.0773 54.9216 22.3705 54.5156 22.5677 54.0615C22.7649 53.6073 22.8613 53.1158 22.8503 52.6209C22.8503 50.5079 22.8503 48.395 22.8503 46.2782L22.8655 31.7275ZM47.0102 34.8836V34.4077C47.0102 27.5929 47.0102 20.7795 47.0102 13.9673C47.0228 13.61 46.961 13.254 46.8286 12.9219C46.6963 12.5899 46.4963 12.2889 46.2413 12.0383C45.9864 11.7877 45.6821 11.5928 45.3478 11.4661C45.0135 11.3394 44.6565 11.2836 44.2995 11.3023H26.8706C26.7944 11.3023 26.6993 11.2757 26.6498 11.3023C26.5356 11.3823 26.3719 11.4851 26.3604 11.5917C26.3412 11.9721 26.3412 12.3533 26.3604 12.7338C26.3604 25.31 26.3604 37.8861 26.3604 50.4622C26.3604 50.6412 26.3604 50.8163 26.3833 50.999H32.8554V50.3366C32.8554 46.8061 32.8554 43.2782 32.8554 39.7528C32.8438 39.418 32.8629 39.0829 32.9125 38.7516C33.3312 36.4292 35.1396 34.9445 37.5495 34.9445C40.4848 34.9445 43.4201 34.9445 46.3554 34.9445C46.5381 34.9102 46.7475 34.895 47.014 34.8836H47.0102ZM44.5508 38.3937H37.6675C36.712 38.3937 36.297 38.8011 36.297 39.7452V53.4318C36.297 54.3874 36.6967 54.8023 37.6485 54.8023C42.217 54.8023 46.7792 54.8023 51.335 54.8023C52.3059 54.8023 52.7094 54.3874 52.7094 53.4013C52.7094 48.8556 52.7094 44.31 52.7094 39.7643C52.7094 38.8201 52.2868 38.3937 51.3503 38.3937H44.5508Z" fill="#EB8319"/>
<path d="M14.3506 30.9303C14.3506 29.9802 14.3506 29.0257 14.3506 28.0755C14.3363 27.806 14.3771 27.5365 14.4704 27.2831C14.5638 27.0298 14.7079 26.7979 14.8939 26.6016C15.0799 26.4052 15.304 26.2484 15.5526 26.1406C15.8013 26.0329 16.0693 25.9764 16.3405 25.9747C16.6117 25.9729 16.8804 26.0259 17.1305 26.1304C17.3805 26.2349 17.6066 26.3888 17.7952 26.5827C17.9838 26.7767 18.1308 27.0066 18.2276 27.2587C18.3243 27.5108 18.3686 27.7798 18.3578 28.0495C18.3578 29.9729 18.3578 31.8949 18.3578 33.8155C18.3686 34.0851 18.3243 34.3541 18.2276 34.6062C18.1308 34.8583 17.9838 35.0883 17.7952 35.2822C17.6066 35.4762 17.3805 35.6301 17.1305 35.7346C16.8804 35.8391 16.6117 35.8921 16.3405 35.8903C16.0693 35.8885 15.8013 35.8321 15.5526 35.7243C15.304 35.6166 15.0799 35.4598 14.8939 35.2634C14.7079 35.067 14.5638 34.8352 14.4704 34.5818C14.3771 34.3285 14.3363 34.0589 14.3506 33.7895C14.3418 32.8176 14.3506 31.8675 14.3506 30.9303Z" fill="#EB8319"/>
<path d="M46.6401 42.3715C47.3203 42.3715 48.0006 42.3715 48.6765 42.3715C49.1966 42.3726 49.6953 42.5778 50.0643 42.9425C50.4333 43.3072 50.6428 43.8021 50.6474 44.3195C50.665 44.8298 50.4784 45.3262 50.1285 45.6996C49.7785 46.073 49.2939 46.2929 48.7811 46.311C47.3247 46.3587 45.8596 46.3587 44.4206 46.311C44.1673 46.2999 43.9186 46.239 43.689 46.1318C43.4593 46.0247 43.2532 45.8734 43.0826 45.6867C42.912 45.5 42.7802 45.2815 42.6947 45.0439C42.6093 44.8063 42.572 44.5542 42.5849 44.3022C42.5974 43.7858 42.8124 43.2948 43.184 42.934C43.5555 42.5732 44.0541 42.3714 44.5733 42.3715C45.2491 42.3585 45.9468 42.3715 46.6401 42.3715Z" fill="#EB8319"/>
</svg>
