<svg width="24" height="25" viewBox="0 0 24 25" fill="none" xmlns="http://www.w3.org/2000/svg">
<path d="M20.2037 13.7167C20.423 13.7167 20.6103 13.7046 20.7976 13.7167C21.249 13.7499 21.6715 13.9511 21.9817 14.2808C22.2918 14.6104 22.467 15.0444 22.4727 15.4969C22.4788 17.4198 22.4788 19.3426 22.4727 21.2655C22.4654 21.7335 22.2776 22.1807 21.9484 22.5136C21.6192 22.8464 21.1742 23.0393 20.7062 23.0518C18.7707 23.0639 16.8351 23.0609 14.9011 23.0518C14.517 23.0437 14.1456 22.9128 13.8414 22.6782C13.5372 22.4436 13.3162 22.1176 13.2108 21.7482C13.162 21.5807 13.0889 21.5396 12.923 21.5411C12.1509 21.5502 11.3773 21.5411 10.6052 21.5411C10.556 21.533 10.5056 21.5444 10.4647 21.5729C10.4238 21.6013 10.3955 21.6445 10.3859 21.6934C10.2268 22.2029 9.91274 22.6501 9.48742 22.9726C9.25232 23.1643 8.96829 23.2864 8.66744 23.3251C8.36658 23.3639 8.06088 23.3177 7.78488 23.1919C6.54021 22.6711 5.29453 22.1533 4.04783 21.6386C3.8841 21.5761 3.71406 21.5317 3.54072 21.5061C2.97494 21.4074 2.46221 21.112 2.09303 20.672C1.72385 20.2321 1.52194 19.6758 1.52295 19.1015C1.52295 17.2513 1.52295 15.4025 1.52295 13.5523C1.52295 10.8112 1.52295 8.067 1.52295 5.31979C1.52295 4.10152 2.32854 3.16345 3.50265 2.88325C4.56864 2.62741 5.61635 2.28782 6.67168 1.98172C7.14376 1.84467 7.60823 1.67716 8.08793 1.56599C8.76102 1.4137 9.31838 1.67716 9.77981 2.15533C9.93624 2.32351 10.0708 2.51078 10.1803 2.71269C10.2064 2.76489 10.2482 2.80763 10.2998 2.83493C10.3514 2.86223 10.4103 2.87273 10.4681 2.86497C11.3986 2.86497 12.329 2.86497 13.261 2.86497H17.6773C19.1651 2.86497 20.2037 3.90812 20.2037 5.39289V13.7167ZM9.1463 12.4345V4.09543C9.15459 3.7517 9.03337 3.41742 8.80671 3.15888C8.73557 3.06346 8.63477 2.99434 8.52012 2.96237C8.40547 2.93041 8.28346 2.93739 8.17321 2.98223C6.98234 3.3599 5.78234 3.71167 4.58843 4.08325C4.18958 4.20858 3.79982 4.36122 3.42194 4.5401C3.25185 4.61325 3.11014 4.73969 3.01813 4.90036C2.92612 5.06103 2.8888 5.24724 2.91179 5.43096C2.91179 5.5467 2.91179 5.66243 2.91179 5.77817V12.3112C2.91179 14.5447 2.91179 16.7782 2.91179 19.0117C2.90251 19.1577 2.93388 19.3035 3.00243 19.4328C3.07098 19.5621 3.17402 19.6699 3.30011 19.7441C3.51539 19.8807 3.74094 20.0004 3.97473 20.102C5.41382 20.7112 6.85747 21.3005 8.29808 21.9035C8.3603 21.9358 8.43116 21.9474 8.50041 21.9367C8.56966 21.926 8.63373 21.8936 8.68336 21.8441C8.83101 21.7122 8.94831 21.5498 9.02718 21.3681C9.10604 21.1864 9.14461 20.9899 9.14021 20.7919C9.14021 19.9467 9.14021 19.1015 9.14021 18.2548L9.1463 12.4345ZM18.8042 13.6969V13.5066C18.8042 10.7807 18.8042 8.05532 18.8042 5.33045C18.8092 5.18754 18.7845 5.04514 18.7315 4.91231C18.6786 4.77947 18.5986 4.6591 18.4966 4.55885C18.3947 4.45859 18.2729 4.38065 18.1392 4.32997C18.0055 4.27929 17.8627 4.25698 17.7199 4.26446H10.7483C10.7179 4.26446 10.6798 4.2538 10.66 4.26446C10.6143 4.29644 10.5488 4.33756 10.5443 4.3802C10.5366 4.53239 10.5366 4.68486 10.5443 4.83705C10.5443 9.86751 10.5443 14.898 10.5443 19.9284C10.5443 20 10.5443 20.07 10.5534 20.1431H13.1422V19.8782C13.1422 18.466 13.1422 17.0548 13.1422 15.6447C13.1376 15.5107 13.1453 15.3767 13.1651 15.2442C13.3326 14.3152 14.0559 13.7213 15.0199 13.7213C16.194 13.7213 17.3681 13.7213 18.5422 13.7213C18.6153 13.7076 18.6991 13.7015 18.8057 13.6969H18.8042ZM17.8204 15.101H15.0671C14.6849 15.101 14.5189 15.2639 14.5189 15.6416V21.1162C14.5189 21.4985 14.6788 21.6645 15.0595 21.6645C16.8869 21.6645 18.7118 21.6645 20.5341 21.6645C20.9224 21.6645 21.0839 21.4985 21.0839 21.104C21.0839 19.2858 21.0839 17.4675 21.0839 15.6492C21.0839 15.2716 20.9148 15.101 20.5402 15.101H17.8204Z" fill="#767676"/>
<path d="M5.74032 12.1157C5.74032 11.7356 5.74032 11.3538 5.74032 10.9738C5.73461 10.866 5.75092 10.7582 5.78827 10.6568C5.82563 10.5555 5.88325 10.4628 5.95765 10.3842C6.03206 10.3057 6.12169 10.2429 6.22115 10.1998C6.32061 10.1567 6.42782 10.1341 6.53629 10.1334C6.64477 10.1327 6.75227 10.1539 6.85228 10.1957C6.95229 10.2375 7.04275 10.2991 7.11818 10.3767C7.1936 10.4542 7.25244 10.5462 7.29112 10.6471C7.3298 10.7479 7.34753 10.8555 7.34323 10.9634C7.34323 11.7327 7.34323 12.5015 7.34323 13.2698C7.34753 13.3776 7.3298 13.4852 7.29112 13.5861C7.25244 13.6869 7.1936 13.7789 7.11818 13.8565C7.04275 13.9341 6.95229 13.9956 6.85228 14.0374C6.75227 14.0792 6.64477 14.1004 6.53629 14.0997C6.42782 14.099 6.32061 14.0764 6.22115 14.0333C6.12169 13.9902 6.03206 13.9275 5.95765 13.8489C5.88325 13.7704 5.82563 13.6776 5.78827 13.5763C5.75092 13.475 5.73461 13.3671 5.74032 13.2594C5.73683 12.8706 5.74032 12.4906 5.74032 12.1157Z" fill="#767676"/>
<path d="M18.6563 16.6921C18.9284 16.6921 19.2005 16.6921 19.4708 16.6921C19.6789 16.6926 19.8783 16.7747 20.0259 16.9205C20.1735 17.0664 20.2574 17.2644 20.2592 17.4713C20.2663 17.6755 20.1916 17.874 20.0516 18.0234C19.9117 18.1727 19.7178 18.2607 19.5127 18.2679C18.9301 18.287 18.3441 18.287 17.7685 18.2679C17.6671 18.2635 17.5677 18.2391 17.4758 18.1963C17.384 18.1534 17.3015 18.0929 17.2333 18.0182C17.165 17.9435 17.1123 17.8561 17.0781 17.7611C17.044 17.6661 17.029 17.5652 17.0342 17.4644C17.0392 17.2579 17.1252 17.0614 17.2738 16.9171C17.4224 16.7728 17.6219 16.6921 17.8295 16.6921C18.0999 16.6869 18.379 16.6921 18.6563 16.6921Z" fill="#767676"/>
</svg>
