<svg width="333" height="240" viewBox="0 0 333 240" fill="none" xmlns="http://www.w3.org/2000/svg">
<path d="M161.271 237.055L6.63601 143.537C1.71458 140.712 -2.50764 136.061 2.28829 133.025L157.471 41.4973C159.801 40.0204 163.333 39.0573 165.7 40.4607L328.045 136.832C332.966 139.758 333.853 147.931 328.941 150.857L181.674 236.899C178.581 238.739 175.071 239.722 171.493 239.749C167.915 239.776 164.392 238.848 161.271 237.055Z" fill="#EB8319"/>
<path style="mix-blend-mode:multiply" opacity="0.63" d="M243.286 117.367C237.773 120.192 232.637 123.916 227.41 127.154C222.928 129.906 218.527 132.658 213.964 135.263L233.201 146.839L263.375 129.906L243.286 117.367Z" fill="url(#paint0_linear_205_4126)"/>
<path style="mix-blend-mode:multiply" opacity="0.63" d="M273.819 138.235C265.931 142.29 258.58 147.61 251.086 152.251C244.73 156.196 238.365 160.131 231.893 163.855L259.44 180.44L302.649 156.187L273.819 138.235Z" fill="url(#paint1_linear_205_4126)"/>
<path style="mix-blend-mode:multiply" opacity="0.63" d="M213.229 194.575L171.84 223.58L118.108 191.236L164.615 164.286" fill="url(#paint2_linear_205_4126)"/>
<path style="mix-blend-mode:multiply" opacity="0.63" d="M119.856 158.25L80.7803 187.264L27.0479 154.911L62.9143 135.914" fill="url(#paint3_linear_205_4126)"/>
<path d="M66.8316 96.5442C66.7689 96.5442 64.2857 100.213 64.1423 100.378C59.7587 107.295 58.674 115.734 56.8991 123.604C56.0027 127.457 54.2815 132.172 54.2815 136.098C55.0883 138.703 56.5674 142.216 58.5396 141.262C61.5875 139.795 74.3886 116.367 76.9255 102.131L66.8316 96.5442Z" fill="#FFB288"/>
<path d="M106.777 101.653C106.777 101.653 109.018 144.766 107.414 145.463C105.809 146.16 101.721 146.105 100.242 144.032C98.7631 141.959 96.8088 123.274 97.1495 118.073C97.4901 112.872 96.1096 101.653 96.1096 101.653" fill="#FFB288"/>
<path d="M110.246 146.821C109.286 145.285 108.642 143.566 108.355 141.767C105.02 142.62 102.42 143.124 99.6144 141.381C99.0675 143.84 97.1312 146.885 97.2747 148.811C97.4988 151.802 99.964 150.829 102.456 151.563C104.195 152.105 105.441 153.948 106.508 155.645C109.771 159.507 115.419 160.323 119.865 158.214C120.171 157.498 120.359 156.736 120.421 155.957C120.716 152.536 112.039 149.444 110.246 146.821Z" fill="#29333F"/>
<path d="M75.6078 60.0636C73.8149 60.9809 71.4752 69.5025 69.019 78.9965C66.5627 88.4905 54.2905 130.365 54.2905 130.365C54.2905 130.365 59.9381 133.41 65.6125 133.52C71.287 133.631 86.9567 79.4001 86.9567 79.4001C86.9567 79.4001 94.5764 137.713 97.2657 138.419C99.955 139.125 109.386 136.988 109.386 136.988C109.386 136.988 107.01 62.7421 93.3393 56.4678" fill="#66A3FF"/>
<path opacity="0.31" d="M75.6078 60.0633C73.8149 60.9806 71.4752 69.5022 69.019 78.9962C66.5627 88.4902 54.2905 130.365 54.2905 130.365C54.2905 130.365 59.9381 133.41 65.6125 133.52C71.287 133.63 86.9567 79.3998 86.9567 79.3998C86.9567 79.3998 94.5764 137.712 97.2657 138.419C99.955 139.125 109.386 136.988 109.386 136.988C109.386 136.988 107.422 61.6135 93.7427 55.3484" fill="#29333F"/>
<path d="M63.6404 141.271C63.0419 139.555 62.7917 137.733 62.9054 135.914C59.472 135.978 56.8275 135.914 54.4699 133.529C53.3942 135.795 50.8393 138.345 50.5525 140.226C50.1132 143.188 52.7398 142.812 54.9898 144.142C56.5675 145.06 57.3743 147.151 58.0377 149.05C60.3684 153.563 65.6933 155.664 70.4892 154.627C70.9456 154 71.297 153.299 71.5291 152.554C72.6227 149.261 64.8148 144.243 63.6404 141.271Z" fill="#29333F"/>
<path d="M296.947 79.8676C306.691 80.5555 306.18 96.6816 306.808 103.378C306.969 105.056 304.441 105.625 304.271 103.928C303.724 98.351 304.083 90.8017 301.062 85.8942C300.165 84.3715 299.009 82.8946 297.1 82.757C296.513 82.7361 295.928 82.8394 295.382 83.0604C294.836 83.2814 294.34 83.6153 293.926 84.0412C293.03 84.8301 292.617 87.9489 292.474 88.8754C291.968 92.3321 291.91 95.8421 292.304 99.3142C292.474 100.993 289.946 101.562 289.767 99.8646C289.247 94.5901 288.27 79.253 296.947 79.8676Z" fill="#F15A24"/>
<path d="M282.371 90.6917L279.44 95.6909L273.586 96.9476L277.978 112.441L290.43 104.194" fill="#66A3FF"/>
<path opacity="0.28" d="M282.371 90.6917L279.44 95.6909L273.586 96.9476L277.978 112.441L290.43 104.194" fill="#606060"/>
<path d="M312.42 107.689L282.371 90.6917L283.348 115.936L306.315 118.192L312.42 107.689Z" fill="#66A3FF"/>
<path opacity="0.81" d="M312.42 107.689L282.371 90.6917L283.348 115.936L306.315 118.192L312.42 107.689Z" fill="#606060"/>
<path d="M301.671 111.441L297.028 159.177L268.942 141.932L273.586 96.9478L301.671 111.441Z" fill="#66A3FF"/>
<path d="M301.671 111.441L304.845 107.689H312.419V149.692L307.435 153.279L297.028 159.177L301.671 111.441Z" fill="#66A3FF"/>
<path opacity="0.28" d="M301.671 111.441L304.845 107.689H312.419V149.692L307.435 153.279L297.028 159.177L301.671 111.441Z" fill="#606060"/>
<path d="M284.406 87.8573C294.177 87.949 294.607 104.084 295.656 110.716C295.916 112.386 293.424 113.101 293.155 111.423C292.259 105.919 292.205 98.3328 288.897 93.6179C287.543 91.6824 285.159 90.0588 282.828 91.3246C280.73 92.4621 280.704 94.9938 280.497 97.1128C280.194 100.594 280.341 104.101 280.937 107.542C281.206 109.212 278.713 109.927 278.436 108.249C277.593 103.011 275.701 87.7747 284.406 87.8573Z" fill="#F15A24"/>
<path d="M211.938 197.905L214.385 196.538C214.689 196.37 214.953 196.135 215.158 195.852C215.364 195.568 215.507 195.242 215.578 194.896C216.017 192.704 216.286 187.916 211.033 185.815L208.451 187.429" fill="#F14A24"/>
<path d="M212.824 198.808C214.564 197.784 214.578 194.468 212.856 191.4C211.133 188.333 208.325 186.675 206.585 187.699C204.845 188.722 204.831 192.039 206.554 195.106C208.277 198.174 211.084 199.831 212.824 198.808Z" fill="#F14A24"/>
<path d="M205.582 188.586V185.604L209.123 183.733L213.659 185.559L214.403 188.274L212.413 186.54L209.993 188.026V190.796L205.582 188.586Z" fill="#66A3FF"/>
<path d="M205.582 188.585C205.582 188.585 206.12 193.887 208.03 194.282C209.939 194.676 210.315 190.539 209.993 189.695" fill="#66A3FF"/>
<path d="M170.917 167.965L173.364 166.598C173.667 166.429 173.931 166.195 174.137 165.912C174.343 165.628 174.486 165.302 174.556 164.956C174.996 162.764 175.265 157.975 170.011 155.875L167.43 157.489" fill="#F14A24"/>
<path d="M171.602 168.746C173.342 167.723 173.356 164.406 171.633 161.339C169.91 158.271 167.103 156.614 165.363 157.637C163.623 158.661 163.609 161.977 165.332 165.045C167.054 168.112 169.862 169.769 171.602 168.746Z" fill="#F14A24"/>
<path d="M164.516 158.636V155.654L168.057 153.783L172.593 155.618L173.337 158.324L171.338 156.59L168.927 158.076V160.856L164.516 158.636Z" fill="#66A3FF"/>
<path d="M164.516 158.636C164.516 158.636 165.054 163.938 166.964 164.332C168.873 164.727 169.25 160.59 168.927 159.746" fill="#66A3FF"/>
<path d="M124.723 194.621L127.171 193.254C127.474 193.086 127.738 192.852 127.944 192.568C128.15 192.284 128.293 191.958 128.363 191.612C128.802 189.42 129.071 184.632 123.818 182.531L121.236 184.146" fill="#F14A24"/>
<path d="M125.255 195.47C126.995 194.447 127.009 191.131 125.286 188.063C123.563 184.996 120.756 183.338 119.016 184.362C117.275 185.385 117.261 188.701 118.984 191.769C120.707 194.837 123.515 196.494 125.255 195.47Z" fill="#F14A24"/>
<path d="M118.368 185.247V182.266L121.9 180.394L126.436 182.229L127.189 184.935L125.19 183.21L122.778 184.687V187.467L118.368 185.247Z" fill="#66A3FF"/>
<path d="M118.368 185.246C118.368 185.246 118.906 190.548 120.815 190.943C122.725 191.337 123.101 187.2 122.778 186.356" fill="#66A3FF"/>
<path d="M115.338 144.83L159.667 119.146C160.27 118.728 160.906 118.36 161.567 118.045C160.339 118.495 160.671 117.871 161.773 118.697C164.31 120.614 167.502 121.99 170.245 123.568L198.796 139.969L218.634 151.371C218.863 151.48 219.123 151.499 219.364 151.422C219.605 151.346 219.809 151.18 219.937 150.957C220.065 150.735 220.107 150.471 220.055 150.219C220.003 149.966 219.861 149.742 219.656 149.591L173.122 122.852L163.468 117.348C162.213 116.624 161.675 116.101 160.321 116.431C157.686 117.082 154.656 119.715 152.316 121.073L137.847 129.466L114.325 143.106C114.12 143.257 113.978 143.481 113.926 143.733C113.874 143.986 113.916 144.249 114.044 144.472C114.172 144.695 114.376 144.86 114.617 144.937C114.858 145.013 115.118 144.995 115.347 144.886L115.338 144.83Z" fill="#66A3FF"/>
<path d="M123.988 110.588L129.188 152.838C129.187 153.02 129.234 153.199 129.322 153.357C129.41 153.515 129.536 153.647 129.689 153.74C129.842 153.832 130.016 153.882 130.194 153.885C130.372 153.888 130.547 153.843 130.703 153.756L176.116 126.365C176.321 126.214 176.463 125.99 176.515 125.738C176.567 125.485 176.525 125.222 176.397 124.999C176.269 124.777 176.065 124.611 175.824 124.534C175.583 124.458 175.323 124.476 175.094 124.586L129.681 151.948L131.196 152.866L125.996 110.615C125.835 109.313 123.818 109.294 123.979 110.615L123.988 110.588Z" fill="#66A3FF"/>
<path d="M222.229 131.447L172.396 102.8L160.814 96.1405C159.577 95.425 157.542 93.6363 156.018 93.728C154.225 93.8381 151.384 96.3515 149.878 97.2046L135.122 105.644L109.018 120.577C108.868 120.669 108.743 120.8 108.657 120.955C108.57 121.111 108.525 121.288 108.525 121.467C108.525 121.646 108.57 121.823 108.657 121.978C108.743 122.134 108.868 122.265 109.018 122.357L158.941 150.298L170.917 157.012C172.073 157.663 174.072 159.406 175.471 159.415C177.264 159.415 180.204 156.893 181.665 156.067L196.367 147.812L222.193 133.245C223.332 132.603 222.31 130.823 221.171 131.465C205.932 140.061 190.28 148.124 175.381 157.297C174.548 157.81 176.466 157.939 175.543 157.297C174.671 156.752 173.774 156.253 172.853 155.801L162.222 149.848L130.658 132.181L109.959 120.596V122.375L131.008 110.331L146.713 101.387C149.707 99.6721 153.562 98.1861 156.215 95.9479C157.193 95.1315 155.588 95.5167 156.09 95.7828C156.986 96.2414 157.82 96.7826 158.69 97.2779L169.447 103.442L200.741 121.439L221.261 133.236C221.487 133.318 221.734 133.315 221.958 133.228C222.182 133.141 222.369 132.976 222.485 132.761C222.601 132.546 222.639 132.297 222.592 132.056C222.545 131.815 222.417 131.6 222.229 131.447Z" fill="#66A3FF"/>
<path d="M149.169 58.1002L137.883 51.2114C137.728 51.1187 137.552 51.0698 137.372 51.0698C137.193 51.0698 137.016 51.1187 136.861 51.2114L91.143 79.3448C90.9947 79.4385 90.8723 79.5694 90.7874 79.7251C90.7025 79.8809 90.658 80.0562 90.658 80.2346C90.658 80.4129 90.7025 80.5882 90.7874 80.744C90.8723 80.8997 90.9947 81.0306 91.143 81.1243C94.2357 82.9039 98.6731 84.4358 101.228 86.9216C101.595 87.2794 100.825 85.9126 101.165 87.0042C101.38 87.6922 101.47 88.4443 101.622 89.1507L105.916 109.432L118.197 167.469L120.214 176.991C120.448 178.11 120.483 180.009 121.066 181.008C121.649 182.008 122.518 182.238 123.495 182.761L132.37 187.466L158.725 201.519L169.339 207.179C170.496 207.793 172.324 209.289 173.651 209.472C175.444 209.729 177.658 207.638 179.164 206.72L191.956 198.905L213.049 185.999C213.198 185.905 213.32 185.774 213.405 185.618C213.49 185.462 213.535 185.287 213.535 185.109C213.535 184.93 213.49 184.755 213.405 184.599C213.32 184.444 213.198 184.313 213.049 184.219L188.299 166.387L173.445 155.682C172.28 154.838 171.033 154.049 169.913 153.141C168.792 152.233 169.967 154.058 169.671 152.664C164.836 130.038 160.01 107.435 155.193 84.8577L149.609 58.724C149.331 57.4306 147.385 57.9718 147.663 59.2744L161.406 123.65C163.459 133.263 165.081 143.115 167.591 152.609C168.021 154.242 168.425 154.59 169.832 155.599L183.019 165.103L212.028 186.008V184.228L194.762 194.777L182.257 202.418C180.114 203.73 177.775 205.069 174.332 207.261C173.364 207.876 173.938 207.381 174.458 207.583C173.743 207.25 173.046 206.88 172.369 206.473L163.208 201.593L137.507 187.888L126.893 182.229C125.88 181.687 124.858 181.018 123.8 180.577C123.047 180.256 122.411 179.394 123.047 180.577C122.572 179.715 122.536 178.174 122.339 177.229L120.546 168.854L108.561 112.065L103.595 88.6094C103.361 87.4903 103.317 86.1694 102.564 85.3072C101.434 84.023 98.8434 83.1699 97.3732 82.326L92.1829 79.3448V81.1243L122.877 62.2281L131.572 56.8802C133.186 55.8896 135.795 54.8989 137.085 53.4862C137.731 52.7891 138.349 53.4312 136.924 53.0459C138.036 53.3487 139.282 54.4861 140.25 55.0732L148.147 59.8981C148.263 59.9668 148.39 60.0115 148.523 60.0298C148.655 60.0481 148.789 60.0395 148.918 60.0046C149.047 59.9696 149.168 59.909 149.274 59.8263C149.381 59.7435 149.47 59.6401 149.537 59.522C149.604 59.404 149.648 59.2736 149.666 59.1382C149.683 59.0029 149.675 58.8653 149.641 58.7332C149.607 58.6012 149.548 58.4774 149.467 58.3688C149.386 58.2601 149.285 58.1689 149.169 58.1002Z" fill="#66A3FF"/>
<path d="M119.721 90.2148L130.721 135.492C130.809 135.735 130.984 135.936 131.209 136.053C131.435 136.171 131.696 136.198 131.94 136.129C132.184 136.06 132.394 135.9 132.529 135.68C132.663 135.46 132.712 135.197 132.666 134.942L121.667 89.6644C121.578 89.4214 121.404 89.2213 121.178 89.1034C120.953 88.9854 120.692 88.9584 120.448 89.0275C120.203 89.0966 119.993 89.2568 119.859 89.4766C119.724 89.6964 119.675 89.9598 119.721 90.2148Z" fill="#66A3FF"/>
<path d="M135.409 81.1244L146.256 125.402C146.345 125.645 146.519 125.845 146.745 125.963C146.97 126.081 147.231 126.108 147.475 126.039C147.719 125.97 147.929 125.81 148.064 125.59C148.198 125.37 148.247 125.107 148.201 124.852L137.354 80.574C137.266 80.3311 137.092 80.1309 136.866 80.013C136.64 79.8951 136.38 79.868 136.135 79.9371C135.891 80.0062 135.681 80.1665 135.547 80.3863C135.412 80.6061 135.363 80.8694 135.409 81.1244Z" fill="#66A3FF"/>
<path d="M144.732 159.874C159.075 150.829 173.373 141.702 188.03 133.19C188.235 133.039 188.377 132.815 188.429 132.563C188.481 132.31 188.439 132.046 188.311 131.824C188.183 131.601 187.979 131.436 187.738 131.359C187.497 131.283 187.237 131.301 187.008 131.41C172.351 139.923 158.062 149.05 143.71 158.094C142.608 158.792 143.621 160.58 144.732 159.874Z" fill="#66A3FF"/>
<path d="M105.477 99.929L128.722 86.4631L144.409 77.3819L149.707 74.3182C150.147 74.0613 152.54 72.9881 151.455 73.0156C150.371 73.0431 151.823 73.4559 152.226 73.7403C153.472 74.5934 154.916 75.263 156.207 76.0152L168.712 83.1517L202.615 102.507L223.879 114.642C225.017 115.294 226.03 113.505 224.901 112.863L172.172 82.7114L158.591 74.9603C156.798 73.9421 154.109 71.6213 152.074 71.2452C150.371 70.9242 148.542 72.5845 147.072 73.4376L132.729 81.7574L104.482 98.1128C104.277 98.2638 104.135 98.4875 104.083 98.7401C104.031 98.9928 104.073 99.2561 104.201 99.4787C104.329 99.7013 104.533 99.8671 104.774 99.9436C105.015 100.02 105.276 100.002 105.504 99.8923L105.477 99.929Z" fill="#66A3FF"/>
<path d="M192.53 132.025L187.053 168.533C186.856 169.836 188.846 170.368 188.998 169.084L194.457 132.585C194.655 131.282 192.664 130.75 192.512 132.034L192.53 132.025Z" fill="#66A3FF"/>
<path d="M208.128 122.797L201.97 159.764C201.755 161.067 203.7 161.599 203.915 160.314L210.073 123.384C210.289 122.082 208.343 121.55 208.128 122.834V122.797Z" fill="#66A3FF"/>
<path d="M203.332 102.305V141.51C203.356 141.767 203.472 142.006 203.659 142.179C203.845 142.353 204.089 142.449 204.341 142.449C204.593 142.449 204.836 142.353 205.023 142.179C205.209 142.006 205.326 141.767 205.349 141.51V102.305C205.326 102.048 205.209 101.809 205.023 101.636C204.836 101.462 204.593 101.366 204.341 101.366C204.089 101.366 203.845 101.462 203.659 101.636C203.472 101.809 203.356 102.048 203.332 102.305Z" fill="#66A3FF"/>
<path d="M186.919 92.9389L187.95 133.162C187.973 133.419 188.09 133.658 188.276 133.831C188.463 134.005 188.706 134.101 188.958 134.101C189.21 134.101 189.453 134.005 189.64 133.831C189.826 133.658 189.943 133.419 189.967 133.162L188.963 92.9848C188.939 92.7279 188.822 92.4893 188.636 92.3156C188.449 92.1419 188.206 92.0457 187.954 92.0457C187.702 92.0457 187.459 92.1419 187.272 92.3156C187.086 92.4893 186.969 92.7279 186.946 92.9848L186.919 92.9389Z" fill="#66A3FF"/>
<path d="M171.078 83.8854L175.883 126.191C176.036 127.494 178.053 127.512 177.9 126.191L173.095 83.8854C172.943 82.5829 170.926 82.5645 171.078 83.8854Z" fill="#66A3FF"/>
<path d="M141.558 120.862C141.72 133.478 141.72 146.093 141.558 158.709C141.582 158.966 141.699 159.205 141.885 159.379C142.072 159.552 142.315 159.648 142.567 159.648C142.819 159.648 143.062 159.552 143.249 159.379C143.435 159.205 143.552 158.966 143.575 158.709C143.749 146.093 143.749 133.478 143.575 120.862C143.552 120.605 143.435 120.366 143.249 120.193C143.062 120.019 142.819 119.923 142.567 119.923C142.315 119.923 142.072 120.019 141.885 120.193C141.699 120.366 141.582 120.605 141.558 120.862Z" fill="#66A3FF"/>
<path d="M156.753 130.337V168.799C156.75 168.982 156.795 169.163 156.882 169.323C156.969 169.482 157.096 169.615 157.25 169.709C157.404 169.802 157.579 169.852 157.758 169.853C157.937 169.855 158.113 169.807 158.268 169.717L203.449 141.345C204.551 140.648 203.538 138.868 202.427 139.565L157.246 167.937L158.761 168.855V130.337C158.738 130.08 158.621 129.842 158.435 129.668C158.248 129.494 158.005 129.398 157.753 129.398C157.501 129.398 157.258 129.494 157.071 129.668C156.885 129.842 156.768 130.08 156.744 130.337H156.753Z" fill="#66A3FF"/>
<path d="M177.192 141.244L172.091 177.385C171.912 178.688 173.884 179.22 174.037 177.936L179.137 141.794C179.317 140.492 177.344 139.96 177.192 141.244Z" fill="#66A3FF"/>
<path d="M104.464 99.9289L157.273 130.576L171.096 138.602C172.889 139.648 175.489 141.959 177.542 142.345C179.155 142.647 180.688 141.18 182.086 140.345L196.429 131.731L224.9 114.642L223.421 113.477L218.554 147.28C218.437 148.078 218.392 148.931 218.204 149.72C217.971 150.701 218.831 149.27 218.392 149.72C217.227 150.575 215.98 151.31 214.672 151.912L197.9 161.819L179.881 172.423C177.936 173.569 175.883 174.633 174.001 175.89C173.606 176.156 173.167 176.404 172.746 176.633C172.145 176.963 173.974 176.954 173.337 176.633C163.853 171.872 154.79 165.901 145.592 160.58L115.338 143.042C115.109 142.932 114.849 142.914 114.608 142.99C114.367 143.067 114.163 143.233 114.035 143.455C113.907 143.678 113.865 143.941 113.917 144.194C113.969 144.447 114.111 144.67 114.316 144.821L140.716 160.103L160.052 171.294C163.853 173.496 167.833 176.569 171.921 178.165C173.965 178.963 175.166 177.615 177.075 176.486L194.296 166.313L212.879 155.306C214.806 154.168 219.047 152.701 220.122 150.582C220.956 148.94 220.795 145.885 221.019 144.087L222.812 131.897L225.384 114C225.431 113.804 225.42 113.598 225.355 113.407C225.289 113.217 225.171 113.05 225.014 112.927C224.858 112.803 224.67 112.729 224.473 112.713C224.276 112.697 224.079 112.739 223.905 112.835L200.768 126.741L184.874 136.281L179.881 139.272C179.299 139.548 178.744 139.88 178.223 140.262C177.559 140.877 177.326 140.161 178.644 140.611C176.851 139.996 175.058 138.538 173.445 137.593L160.366 130.007L127.26 110.799L105.477 98.1493C105.248 98.0398 104.988 98.0216 104.747 98.0981C104.506 98.1746 104.302 98.3403 104.174 98.5629C104.046 98.7855 104.004 99.0489 104.056 99.3015C104.108 99.5542 104.25 99.7779 104.455 99.9289H104.464Z" fill="#66A3FF"/>
<path d="M95.4819 76.6756C95.4819 76.6756 96.4859 76.0611 97.0506 76.6756C97.6154 77.2902 97.0506 78.1708 97.0506 78.1708L96.1542 78.6937C96.3926 78.9614 96.7105 79.1414 97.0588 79.2061C97.407 79.2707 97.7664 79.2164 98.0815 79.0514C99.4352 78.5836 133.733 57.651 133.733 57.651C133.733 57.651 134.683 56.4126 134.154 55.3761C133.908 54.7161 133.439 54.1681 132.832 53.8315C132.226 53.4949 131.521 53.392 130.846 53.5415C129.053 53.9359 95.446 74.6392 95.446 74.6392C95.446 74.6392 94.5316 76.0794 95.4819 76.6756Z" fill="#F14A24"/>
<path d="M173.92 220.884L176.368 219.517C176.671 219.348 176.935 219.114 177.141 218.83C177.347 218.547 177.49 218.221 177.56 217.875C177.999 215.683 178.268 210.894 173.015 208.794L170.433 210.408" fill="#F14A24"/>
<path d="M174.652 221.876C176.393 220.853 176.407 217.536 174.684 214.469C172.961 211.401 170.153 209.744 168.413 210.767C166.673 211.791 166.659 215.107 168.382 218.175C170.105 221.242 172.912 222.9 174.652 221.876Z" fill="#F14A24"/>
<path d="M167.564 211.564V208.582L171.105 206.702L175.641 208.536L176.385 211.252L174.386 209.518L171.975 211.004V213.774L167.564 211.564Z" fill="#66A3FF"/>
<path d="M167.564 211.564C167.564 211.564 168.102 216.866 170.011 217.26C171.921 217.655 172.297 213.518 171.975 212.674" fill="#66A3FF"/>
<path d="M125.584 57.9992C124.311 57.0819 119.632 56.0546 119.632 56.0546C119.632 56.0546 106.849 42.3502 105.208 40.2771C101.859 35.1939 98.8632 29.8758 96.2437 24.3621C92.9807 25.7472 92.658 27.3341 89.3232 28.6183C91.3402 34.9201 96.5933 43.4234 97.6691 44.992C99.0048 46.9367 115.938 60.3017 115.938 60.3017L117.803 62.7783C117.803 62.7783 120.492 61.7418 120.125 66.6126L119.04 69.0435C119.04 69.0435 120.322 70.6946 123.361 69.0435C126.4 67.3923 127.494 67.3923 127.485 65.255C127.476 63.1177 126.857 58.9441 125.584 57.9992Z" fill="#FFB288"/>
<path d="M74.1017 37.3419L75.3299 60.0633C76.6206 61.8589 78.2646 63.3579 80.156 64.4638C82.0473 65.5698 84.1441 66.258 86.3112 66.4843C93.8682 67.2549 99.0048 61.6227 98.7538 61.8979C98.559 58.5746 98.5411 55.243 98.7 51.9177C99.0227 45.6251 100.493 39.0756 99.1841 32.7829C98.5028 29.4073 97.6511 25.362 95.0425 22.9587C94.1013 22.0873 92.7028 20.9132 91.3761 20.7847C89.0991 20.5554 86.5712 21.8855 84.5094 22.6835C80.0272 24.4264 75.6795 26.6279 72.282 30.1687L74.1017 37.3419Z" fill="#56D66E"/>
<path d="M75.2314 27.6002C75.2314 27.6002 71.063 29.1871 71.063 35.0119C71.063 40.8367 78.862 53.5046 80.1977 55.4492C81.5334 57.3939 98.4671 70.7864 98.4671 70.7864L100.332 73.2539C100.332 73.2539 103.021 72.2174 102.653 77.0882L101.569 79.519C101.569 79.519 102.851 81.1702 105.89 79.519C108.928 77.8679 110.022 77.8679 110.013 75.7306C110.004 73.5933 109.386 69.4288 108.113 68.4932C106.84 67.5575 102.16 66.5485 102.16 66.5485C102.16 66.5485 89.3413 52.8533 87.7367 50.7527C86.1321 48.6521 81.112 27.3892 75.2314 27.6002Z" fill="#FFB288"/>
<path d="M81.7573 16.5559L82.7165 25.5362C82.7165 25.5362 84.5094 28.1505 89.4936 26.958C89.8981 26.8562 90.2589 26.6218 90.5211 26.2906C90.7833 25.9593 90.9324 25.5495 90.9458 25.1234L91.3492 18.4731" fill="#E8956B"/>
<path d="M92.4162 13.8592C94.5218 11.9373 95.8701 9.29551 96.2081 6.4291C96.7012 1.7142 91.8066 -0.13873 89.2876 0.00803681C89.2876 0.00803681 90.8205 0.92533 91.0805 1.57661C91.0805 1.57661 88.9828 -0.945951 84.0255 0.411645C79.0682 1.76924 83.658 2.31044 83.658 2.31044C83.658 2.31044 78.5393 1.89766 75.7963 2.92503C73.0532 3.9524 71.7354 5.40173 72.2105 5.86038C72.6856 6.31902 73.7882 5.81451 74.2633 6.10805C74.7385 6.40158 71.8161 8.44715 71.7264 9.77722C71.6368 11.1073 74.0751 11.8411 73.9317 12.1714C73.7882 12.5016 71.2424 11.4742 71.1168 11.9879C70.9913 12.5016 76.4955 22.6744 84.3214 21.6837" fill="#A0421D"/>
<path d="M92.7031 8.87822C92.6205 8.85895 92.5347 8.85895 92.4521 8.87822C91.0138 9.3251 89.5317 9.60812 88.0326 9.72213C86.5446 9.72213 85.0565 9.5295 83.5505 9.54785C82.5733 9.54785 81.8741 11.942 81.8114 14.8682C81.1928 14.4554 80.4309 14.2627 79.893 14.9874C79.6595 15.3921 79.5772 15.8697 79.6612 16.3318C79.7453 16.7938 79.99 17.2091 80.3502 17.5008C80.8262 17.9538 81.4106 18.2702 82.0445 18.4181C82.214 19.9255 82.8457 21.3392 83.8491 22.4565C84.8524 23.5738 86.1757 24.3372 87.6292 24.6373C90.3186 25.1052 91.9501 23.5458 92.7389 21.225C93.8595 17.9319 93.8326 15.0975 93.7161 11.7127L93.6623 10.1349C93.6271 9.89645 93.5405 9.66899 93.4087 9.46907C93.2769 9.26914 93.1032 9.10177 92.9003 8.97912C92.8418 8.93235 92.7748 8.89804 92.7031 8.87822Z" fill="#FFB288"/>
<path d="M92.1204 7.73169C92.1204 7.73169 86.446 15.7122 82.2596 14.9508C78.0732 14.1894 82.8961 7.99771 82.8961 7.99771" fill="#A0421D"/>
<path d="M83.6489 35.9292C83.6489 35.9292 77.5083 21.7478 72.2552 30.1594C67.0021 38.571 75.2762 48.3494 75.2762 48.3494L85.3252 39.791L83.6489 35.9292Z" fill="#40B550"/>
<path d="M255.586 78.9045C262.345 79.3815 261.986 90.5633 262.443 95.2048C262.56 96.3698 260.803 96.7642 260.65 95.5901C260.274 91.7283 260.525 86.4906 258.427 83.0874C257.782 82.0325 257.011 81.0051 255.675 80.9134C255.266 80.9017 254.858 80.9771 254.478 81.1351C254.099 81.293 253.755 81.5298 253.47 81.8307C252.878 82.3811 252.573 84.5826 252.466 85.188C252.116 87.5847 252.077 90.0182 252.349 92.4254C252.466 93.5904 250.718 93.9848 250.556 92.8107C250.252 89.1323 249.57 78.4826 255.586 78.9045Z" fill="#F15A24"/>
<path d="M245.482 86.408L243.457 89.8753L239.387 90.7376L242.435 101.479L251.076 95.7644" fill="#66A3FF"/>
<path opacity="0.28" d="M245.482 86.408L243.457 89.8753L239.387 90.7376L242.435 101.479L251.076 95.7644" fill="#606060"/>
<path d="M266.307 98.186L245.482 86.408L246.164 103.91L262.075 105.469L266.307 98.186Z" fill="#66A3FF"/>
<path opacity="0.81" d="M266.307 98.186L245.482 86.408L246.164 103.91L262.075 105.469L266.307 98.186Z" fill="#606060"/>
<path d="M258.858 100.791L255.639 133.878L236.178 121.926L239.387 90.7378L258.858 100.791Z" fill="#66A3FF"/>
<path d="M258.857 100.791L261.063 98.186H266.307V127.301L262.855 129.787L255.639 133.878L258.857 100.791Z" fill="#66A3FF"/>
<path opacity="0.28" d="M258.857 100.791L261.063 98.186H266.307V127.301L262.855 129.787L255.639 133.878L258.857 100.791Z" fill="#606060"/>
<path d="M246.89 84.4358C253.658 84.5 253.963 95.6818 254.689 100.287C254.868 101.442 253.138 101.938 252.959 100.773C252.349 96.9385 252.296 91.7007 250.01 88.426C249.113 87.0867 247.419 85.9585 245.797 86.8391C244.344 87.6279 244.326 89.38 244.183 90.8568C243.973 93.2695 244.076 95.6999 244.488 98.0851C244.676 99.2409 242.946 99.7362 242.758 98.5713C242.166 94.9479 240.839 84.3807 246.89 84.4358Z" fill="#F15A24"/>
<defs>
<linearGradient id="paint0_linear_205_4126" x1="226.433" y1="149.206" x2="249.754" y2="119.029" gradientUnits="userSpaceOnUse">
<stop stop-color="white" stop-opacity="0"/>
<stop offset="1" stop-color="#F15A24"/>
</linearGradient>
<linearGradient id="paint1_linear_205_4126" x1="249.687" y1="183.834" x2="283.085" y2="140.616" gradientUnits="userSpaceOnUse">
<stop stop-color="white" stop-opacity="0"/>
<stop offset="1" stop-color="#F15A24"/>
</linearGradient>
<linearGradient id="paint2_linear_205_4126" x1="147.583" y1="217.407" x2="183.426" y2="171.042" gradientUnits="userSpaceOnUse">
<stop stop-color="white" stop-opacity="0"/>
<stop offset="1" stop-color="#F15A24"/>
</linearGradient>
<linearGradient id="paint3_linear_205_4126" x1="55.8235" y1="180.458" x2="90.7534" y2="135.275" gradientUnits="userSpaceOnUse">
<stop stop-color="white" stop-opacity="0"/>
<stop offset="1" stop-color="#F15A24"/>
</linearGradient>
</defs>
</svg>
