<svg width="24" height="24" viewBox="0 0 24 24" fill="none" xmlns="http://www.w3.org/2000/svg">
<path d="M11.9998 21.1429C17.0493 21.1429 21.1426 17.0495 21.1426 12C21.1426 6.95057 17.0493 2.85718 11.9998 2.85718C6.95033 2.85718 2.85693 6.95057 2.85693 12C2.85693 17.0495 6.95033 21.1429 11.9998 21.1429Z" stroke="#767676" stroke-linecap="round" stroke-linejoin="round"/>
<path d="M11.9997 16.5714C14.5244 16.5714 16.5711 14.5247 16.5711 12C16.5711 9.47529 14.5244 7.42859 11.9997 7.42859C9.47492 7.42859 7.42822 9.47529 7.42822 12C7.42822 14.5247 9.47492 16.5714 11.9997 16.5714Z" stroke="#767676" stroke-linecap="round" stroke-linejoin="round"/>
<path d="M15.4282 8.5715L18.2853 5.71436M15.4282 15.4286L18.2853 18.2858M8.57101 15.4286L5.71387 18.2858M8.57101 8.5715L5.71387 5.71436" stroke="#767676" stroke-linecap="round" stroke-linejoin="round"/>
</svg>
