<svg width="25" height="24" viewBox="0 0 25 24" fill="none" xmlns="http://www.w3.org/2000/svg">
<path d="M8.74707 2C8.93709 2.00006 9.12001 2.07224 9.25886 2.20197C9.39771 2.3317 9.48214 2.5093 9.4951 2.69888C9.50805 2.88846 9.44856 3.07589 9.32864 3.2233C9.20872 3.37071 9.03732 3.4671 8.84907 3.493L8.74707 3.5H5.24707C4.93778 3.50011 4.63952 3.61487 4.40993 3.82211C4.18035 4.02935 4.03574 4.31434 4.00407 4.622L3.99707 4.75V8.252C3.99701 8.44202 3.92483 8.62494 3.7951 8.76379C3.66537 8.90264 3.48777 8.98707 3.29819 9.00003C3.10861 9.01298 2.92118 8.95349 2.77377 8.83357C2.62636 8.71365 2.52997 8.54225 2.50407 8.354L2.49707 8.252V4.75C2.49705 4.04955 2.76432 3.37549 3.24433 2.86538C3.72434 2.35526 4.38091 2.04754 5.08007 2.005L5.24707 2H8.74707ZM3.99007 15.648C3.96537 15.4685 3.87652 15.304 3.73993 15.1849C3.60335 15.0658 3.42827 15.0002 3.24707 15.0002C3.06587 15.0002 2.89079 15.0658 2.75421 15.1849C2.61762 15.304 2.52877 15.4685 2.50407 15.648L2.49707 15.75V19.252L2.50207 19.427C2.54472 20.096 2.83024 20.7263 3.30498 21.1996C3.77971 21.6729 4.41096 21.9564 5.08007 21.997L5.24707 22.002H8.74707L8.84907 21.996C9.02934 21.9721 9.19479 21.8835 9.31463 21.7468C9.43447 21.61 9.50054 21.4343 9.50054 21.2525C9.50054 21.0707 9.43447 20.895 9.31463 20.7582C9.19479 20.6215 9.02934 20.5329 8.84907 20.509L8.74707 20.502H5.24707L5.11907 20.496C4.83327 20.4665 4.56636 20.3394 4.36328 20.1361C4.1602 19.9328 4.03335 19.6658 4.00407 19.38L3.99707 19.252V15.75L3.99007 15.648ZM22.4901 15.648C22.4642 15.4598 22.3678 15.2883 22.2204 15.1684C22.073 15.0485 21.8855 14.989 21.696 15.002C21.5064 15.0149 21.3288 15.0994 21.199 15.2382C21.0693 15.3771 20.9971 15.56 20.9971 15.75V19.252L20.9911 19.38C20.9594 19.6878 20.8146 19.973 20.5848 20.1802C20.355 20.3875 20.0565 20.5021 19.7471 20.502H16.2471L16.1451 20.509C15.9568 20.5349 15.7854 20.6313 15.6655 20.7787C15.5456 20.9261 15.4861 21.1135 15.499 21.3031C15.512 21.4927 15.5964 21.6703 15.7353 21.8C15.8741 21.9298 16.057 22.0019 16.2471 22.002H19.7471L19.9151 21.997C20.614 21.9542 21.2704 21.6464 21.7502 21.1363C22.23 20.6262 22.4971 19.9523 22.4971 19.252V15.75L22.4901 15.648ZM19.9151 2.005L19.7471 2H16.2471L16.1451 2.007C15.9656 2.0317 15.8011 2.12055 15.682 2.25714C15.5629 2.39372 15.4973 2.5688 15.4973 2.75C15.4973 2.9312 15.5629 3.10628 15.682 3.24286C15.8011 3.37945 15.9656 3.4683 16.1451 3.493L16.2471 3.5H19.7471L19.8751 3.506C20.1611 3.53532 20.4282 3.66232 20.6315 3.8656C20.8348 4.06888 20.9618 4.33602 20.9911 4.622L20.9971 4.75V8.252L21.0041 8.354C21.0288 8.53351 21.1176 8.69801 21.2542 8.81709C21.3908 8.93617 21.5659 9.00177 21.7471 9.00177C21.9283 9.00177 22.1033 8.93617 22.2399 8.81709C22.3765 8.69801 22.4654 8.53351 22.4901 8.354L22.4971 8.252V4.75L22.4921 4.576C22.4497 3.90701 22.1644 3.27653 21.6898 2.80309C21.2153 2.32964 20.5842 2.04583 19.9151 2.005ZM6.70207 11.764L6.71007 11.744L6.75407 11.644C6.79707 11.554 6.86407 11.418 6.96007 11.253C7.15407 10.921 7.46007 10.476 7.90507 10.03C8.78507 9.15 10.2251 8.25 12.5001 8.25C14.7741 8.25 16.2151 9.15 17.0951 10.03C17.5401 10.476 17.8461 10.921 18.0401 11.253C18.1327 11.4114 18.2162 11.575 18.2901 11.743L18.2981 11.764C18.4481 12.144 18.8771 12.347 19.2631 12.202C19.4494 12.1324 19.6004 11.9916 19.6829 11.8106C19.7654 11.6296 19.7727 11.4233 19.7031 11.237L19.7021 11.235L19.7011 11.233L19.6991 11.228L19.6931 11.213C19.6663 11.1454 19.6373 11.0787 19.6061 11.013C19.5241 10.8369 19.434 10.6647 19.3361 10.497C19.0095 9.93976 18.6129 9.4266 18.1561 8.97C17.0341 7.85 15.2251 6.75 12.5001 6.75C9.77407 6.75 7.96507 7.85 6.84507 8.97C6.38823 9.4266 5.99168 9.93976 5.66507 10.497C5.53059 10.7278 5.41101 10.9669 5.30707 11.213L5.30107 11.228C5.29907 11.233 5.13907 11.978 5.73707 12.202C5.92275 12.2715 6.1284 12.2647 6.30905 12.1829C6.4897 12.1012 6.63064 11.9513 6.70107 11.766L6.70207 11.764ZM12.5001 10C11.5718 10 10.6816 10.3687 10.0252 11.0251C9.36882 11.6815 9.00007 12.5717 9.00007 13.5C9.00007 14.4283 9.36882 15.3185 10.0252 15.9749C10.6816 16.6313 11.5718 17 12.5001 17C13.4283 17 14.3186 16.6313 14.9749 15.9749C15.6313 15.3185 16.0001 14.4283 16.0001 13.5C16.0001 12.5717 15.6313 11.6815 14.9749 11.0251C14.3186 10.3687 13.4283 10 12.5001 10ZM10.5001 13.5C10.5001 12.9696 10.7108 12.4609 11.0859 12.0858C11.4609 11.7107 11.9696 11.5 12.5001 11.5C13.0305 11.5 13.5392 11.7107 13.9143 12.0858C14.2894 12.4609 14.5001 12.9696 14.5001 13.5C14.5001 14.0304 14.2894 14.5391 13.9143 14.9142C13.5392 15.2893 13.0305 15.5 12.5001 15.5C11.9696 15.5 11.4609 15.2893 11.0859 14.9142C10.7108 14.5391 10.5001 14.0304 10.5001 13.5Z" fill="#2D4568"/>
</svg>
