<svg width="30" height="31" viewBox="0 0 30 31" fill="none" xmlns="http://www.w3.org/2000/svg">
<path d="M28.075 6.53142C27.1125 6.97075 26.075 7.25945 25 7.39752C26.1 6.73226 26.95 5.67788 27.35 4.41011C26.3125 5.03772 25.1625 5.47704 23.95 5.72809C22.9625 4.6486 21.575 4.021 20 4.021C17.0625 4.021 14.6625 6.43101 14.6625 9.40586C14.6625 9.83264 14.7125 10.2469 14.8 10.636C10.35 10.41 6.38755 8.26362 3.75005 5.01261C3.28755 5.8034 3.02505 6.73226 3.02505 7.71132C3.02505 9.58159 3.96255 11.2385 5.41255 12.1799C4.52505 12.1799 3.70005 11.9288 2.97505 11.5523V11.5899C2.97505 14.2008 4.82505 16.3849 7.27505 16.8744C6.48846 17.0905 5.66267 17.1206 4.86255 16.9623C5.20206 18.0323 5.86697 18.9686 6.76382 19.6395C7.66067 20.3105 8.74436 20.6823 9.86255 20.7028C7.96709 22.2096 5.61754 23.0241 3.20005 23.0124C2.77505 23.0124 2.35005 22.9873 1.92505 22.9371C4.30005 24.4684 7.12505 25.3596 10.15 25.3596C20 25.3596 25.4125 17.1505 25.4125 10.0335C25.4125 9.79498 25.4125 9.56904 25.4 9.33055C26.45 8.57742 27.35 7.62346 28.075 6.53142Z" fill="white"/>
</svg>
