<svg width="21" height="20" viewBox="0 0 21 20" fill="none" xmlns="http://www.w3.org/2000/svg">
<g clip-path="url(#clip0_221_1433)">
<path d="M13.2083 11.6666C13.0425 11.6666 12.8835 11.7325 12.7663 11.8497C12.6491 11.9669 12.5833 12.1259 12.5833 12.2916C12.5833 12.4574 12.6491 12.6164 12.7663 12.7336C12.8835 12.8508 13.0425 12.9166 13.2083 12.9166H16.1249C16.2907 12.9166 16.4497 12.8508 16.5669 12.7336C16.6841 12.6164 16.7499 12.4574 16.7499 12.2916C16.7499 12.1259 16.6841 11.9669 16.5669 11.8497C16.4497 11.7325 16.2907 11.6666 16.1249 11.6666H13.2083Z" fill="#2D4568"/>
<path d="M1.95833 2.5H19.0417C19.8467 2.5 20.5 3.15333 20.5 3.95833V16.0417C20.5 16.4284 20.3464 16.7994 20.0729 17.0729C19.7994 17.3464 19.4284 17.5 19.0417 17.5H1.95833C1.57156 17.5 1.20063 17.3464 0.927136 17.0729C0.653645 16.7994 0.5 16.4284 0.5 16.0417V3.95833C0.5 3.15333 1.15333 2.5 1.95833 2.5ZM1.75 8.33333V16.0417C1.75 16.1567 1.84333 16.25 1.95833 16.25H19.0417C19.0969 16.25 19.1499 16.2281 19.189 16.189C19.2281 16.1499 19.25 16.0969 19.25 16.0417V8.33333H1.75ZM1.75 3.95833V7.08333H19.25V3.95833C19.25 3.90308 19.2281 3.85009 19.189 3.81102C19.1499 3.77195 19.0969 3.75 19.0417 3.75H1.95833C1.90308 3.75 1.85009 3.77195 1.81102 3.81102C1.77195 3.85009 1.75 3.90308 1.75 3.95833Z" fill="#2D4568"/>
</g>
<defs>
<clipPath id="clip0_221_1433">
<rect width="20" height="20" fill="white" transform="translate(0.5)"/>
</clipPath>
</defs>
</svg>
