<svg width="236" height="198" viewBox="0 0 236 198" fill="none" xmlns="http://www.w3.org/2000/svg">
<path d="M107.914 0.203565C84.6971 1.48943 62.1777 8.81887 42.4655 21.5052C33.2628 27.5083 24.5493 34.8154 18.8344 44.3753C13.1195 53.9352 10.7545 66.0448 14.4432 76.5923C16.6451 82.8602 20.7854 88.1791 23.7401 94.1048C26.6947 100.031 28.3948 107.325 25.4526 113.257C22.0777 120.125 13.9351 122.649 8.16999 127.593C-0.982603 135.43 0.0587471 142.505 3.15143 152.729C5.83008 161.663 10.1335 169.396 17.1156 175.503C30.7535 187.432 49.6358 191.117 66.7804 194.048C91.6223 198.295 117.091 199.406 142.096 195.984C154.335 194.319 165.759 190.82 177.621 187.741C189.214 184.753 200.895 181.022 210.782 173.895C222.549 165.413 230.869 152.77 234.155 138.378C237.441 123.987 235.463 108.854 228.597 95.867C218.711 77.1475 199.954 65.0766 188.556 47.3188C181.856 36.8875 177.822 24.681 170.018 15.1211C162.848 6.45848 143.928 3.05023 133.671 1.41066C128.529 0.601148 123.34 0.141842 118.139 0.0357338C114.733 -0.0417265 111.32 0.00345886 107.914 0.203565Z" fill="#96BFFC"/>
<path d="M40.0378 146.333C42.2836 147.998 44.5357 149.663 46.9007 151.142C51.1853 153.82 55.8024 155.879 60.4006 157.926C61.7431 158.52 63.0918 159.12 64.4406 159.694C65.3048 160.126 66.2423 160.38 67.2008 160.443C69.3023 160.443 70.9647 158.752 72.8466 157.732C74.484 156.835 76.3408 156.441 77.9969 155.602C78.6243 155.292 79.2516 154.776 79.1951 154.085C79.1387 153.394 78.5678 153.065 78.022 152.794C73.2481 150.212 68.0477 148.501 62.8848 146.842C62.0642 146.512 61.1875 146.354 60.3065 146.378C58.6567 146.533 57.3707 147.882 55.8087 148.45C54.7654 148.777 53.67 148.891 52.5842 148.785C48.2683 148.547 44.3224 146.378 40.0378 146.333Z" fill="url(#paint0_linear_205_4570)"/>
<path d="M129.293 158.474L128.935 158.526C128.672 158.739 129.406 158.797 129.293 158.474Z" fill="url(#paint1_linear_205_4570)"/>
<path d="M49.4856 115.613C52.1642 116.717 54.9809 117.788 56.7186 119.054L97.877 148.792C101.029 151.141 104.314 153.296 107.713 155.247C110.486 156.79 112.067 159.765 115.429 160.514C117.093 160.81 118.796 160.78 120.448 160.424C123.153 159.971 125.815 159.276 128.402 158.345C128.722 158.236 129.168 158.165 129.312 158.481C153.282 155.111 176.204 146.158 199.967 141.498C200.25 141.449 200.511 141.306 200.707 141.09C200.903 140.874 201.025 140.598 201.053 140.303C201.081 140.009 201.013 139.713 200.861 139.463C200.709 139.212 200.481 139.019 200.212 138.916C198.221 138.194 196.166 137.675 194.076 137.366C190.313 136.643 186.505 135.94 182.703 135.301C175.04 133.939 167.303 133.055 159.536 132.654C146.639 132.119 133.628 133.513 120.875 131.454C108.755 129.517 97.325 124.514 86.0458 119.538C83.3295 118.337 80.5567 117.091 78.4238 115.019C76.7552 113.373 75.4127 111.185 73.2798 110.1C71.1469 109.016 68.3993 109.171 66.0029 109.287C61.2828 109.616 56.5887 110.263 51.951 111.224C51.0727 112.644 50.2572 114.122 49.4856 115.613Z" fill="url(#paint2_linear_205_4570)"/>
<path d="M198.875 133.145L145.039 109.048C143.876 108.447 142.564 108.222 141.275 108.403L74.6661 114.257C73.4115 114.444 73.6185 120.067 74.6661 120.983L113.993 155.427C115.175 156.499 116.588 157.265 118.116 157.66C119.644 158.055 121.241 158.069 122.775 157.7L198.411 138.786C199.371 138.515 199.785 133.622 198.875 133.145Z" fill="#96BFFC"/>
<path d="M198.875 133.145L145.039 109.048C143.876 108.447 142.564 108.222 141.275 108.403L74.6661 114.257C73.4115 114.444 73.6185 120.067 74.6661 120.983L113.993 155.427C115.175 156.499 116.588 157.265 118.116 157.66C119.644 158.055 121.241 158.069 122.775 157.7L198.411 138.786C199.371 138.515 199.785 133.622 198.875 133.145Z" fill="url(#paint3_linear_205_4570)"/>
<path d="M74.6658 116.956L113.986 151.4C115.168 152.472 116.582 153.237 118.11 153.632C119.638 154.026 121.235 154.037 122.769 153.665L198.373 134.759C198.679 134.625 198.921 134.372 199.046 134.054C199.17 133.737 199.168 133.382 199.038 133.067C198.94 132.829 198.773 132.626 198.561 132.486L177.828 120.448L172.39 117.304L155.835 107.693C154.672 107.091 153.36 106.866 152.071 107.047L75.3496 113.922C74.0699 114.109 73.6496 116.052 74.6658 116.956Z" fill="#96BFFC"/>
<path d="M152.103 108.951L81.9431 119.634L103.542 137.67L175.539 122.681L152.103 108.951Z" fill="url(#paint4_linear_205_4570)"/>
<path d="M159.442 127.161L130.529 133.171L145.478 145.719L175.539 138.78L159.442 127.161Z" fill="url(#paint5_linear_205_4570)"/>
<path d="M173.895 140.955C173.601 141.568 173.183 142.109 172.669 142.542C172.155 142.975 171.557 143.29 170.916 143.466C168.795 143.989 156.412 147.249 156.412 147.249C156.412 147.249 154.398 147.501 153.275 146.113L173.895 140.955Z" fill="url(#paint6_linear_205_4570)"/>
<path d="M154.298 107.047L75.1241 118.666C74.5435 118.749 73.9543 118.6 73.4764 118.251C72.9985 117.902 72.6679 117.379 72.5521 116.788L61.2603 58.0985C61.025 56.925 61.2523 55.7033 61.8923 54.7022C62.5322 53.7011 63.5325 53.0025 64.6729 52.7602C64.8487 52.7218 65.0269 52.6959 65.2061 52.6827L143.395 45.5822C144.548 45.4704 145.697 45.8316 146.592 46.5871C147.487 47.3427 148.056 48.4315 148.175 49.6166L154.298 107.047Z" fill="#96BFFC"/>
<path d="M154.298 107.047L75.3308 118.608C74.6933 118.703 74.0447 118.542 73.5192 118.159C72.9937 117.776 72.6316 117.199 72.5078 116.549L61.2537 58.0985C61.0184 56.925 61.2457 55.7033 61.8857 54.7022C62.5256 53.7011 63.5259 53.0025 64.6663 52.7602C64.8421 52.7218 65.0203 52.6959 65.1995 52.6827L143.395 45.5822C144.548 45.4704 145.697 45.8316 146.592 46.5871C147.487 47.3427 148.056 48.4315 148.175 49.6166L154.298 107.047Z" fill="url(#paint7_linear_205_4570)"/>
<path d="M76.548 115.264L65.3064 56.0461L145.252 50.3269L151.594 106.389L76.548 115.264Z" fill="white"/>
<path d="M188.092 91.5937C188.092 97.3186 185.881 102.809 181.947 106.857C178.013 110.905 172.678 113.179 167.114 113.179C161.55 113.179 156.215 110.905 152.281 106.857C148.347 102.809 146.136 97.3186 146.136 91.5937C146.126 91.0443 146.147 90.4946 146.199 89.9477C146.618 84.3859 149.113 79.207 153.162 75.4967C157.21 71.7864 162.497 69.8329 167.915 70.0458C173.332 70.2586 178.459 72.6213 182.22 76.6385C185.982 80.6556 188.086 86.0153 188.092 91.5937Z" fill="#96BFFC"/>
<path opacity="0.14" d="M158.294 101.399C157.604 104.517 158.451 107.854 157.83 110.953C152.986 108.485 149.249 104.195 147.391 98.9721C147.29 97.8968 147.317 96.8129 147.473 95.7445C147.709 94.6095 147.719 93.437 147.504 92.2976C147.204 91.4407 146.763 90.6437 146.199 89.9415C146.434 86.783 147.343 83.7166 148.861 80.9608C150.379 78.205 152.469 75.8275 154.982 73.9976C155.007 74.1427 155.007 74.2913 154.982 74.4365L154.085 78.5483C154.26 79.766 154.26 81.0036 154.085 82.2213C153.988 82.8286 153.763 83.407 153.428 83.9163C153.092 84.4257 152.652 84.8538 152.14 85.1712C151.75 85.334 151.373 85.526 151.011 85.7457C150.666 86.0391 150.376 86.3959 150.158 86.7979C149.585 87.6313 149.161 88.5622 148.903 89.5477C148.775 90.0417 148.77 90.5606 148.886 91.0576C149.002 91.5545 149.236 92.014 149.568 92.3944L155.415 91.226C156.042 91.1034 156.77 91.0195 157.19 91.4971C157.61 91.9748 157.378 92.9624 157.491 93.7241C157.629 94.6988 158.47 95.396 158.859 96.3061C159.505 97.9005 158.683 99.695 158.294 101.399Z" fill="#020202"/>
<path opacity="0.14" d="M188.092 91.5937C188.095 94.8587 187.378 98.0818 185.993 101.02C184.609 103.957 182.593 106.533 180.099 108.551C179.812 108.352 179.565 108.098 179.372 107.802C179.055 107.319 178.938 106.725 179.047 106.153C179.155 105.58 179.479 105.076 179.949 104.749C179.598 104.936 178.211 104.472 177.797 104.401L175.639 104.058C174.604 103.897 172.797 103.962 172.195 102.89C172.127 102.742 172.045 102.602 171.951 102.47C171.826 102.334 171.674 102.226 171.505 102.154C170.878 101.825 170.094 101.457 169.937 100.728C169.83 100.198 170.087 99.5915 169.824 99.1138C169.736 98.9718 169.611 98.8556 169.529 98.7072C169.437 98.4877 169.402 98.2474 169.427 98.0098C169.453 97.7722 169.537 97.5454 169.673 97.3516C170.583 95.712 172.471 94.9245 174.278 94.6082C176.085 94.2919 177.954 94.3436 179.717 93.8143C180.797 93.3822 181.906 93.0327 183.035 92.7686C183.663 92.6782 184.453 92.6136 184.685 92.0004C184.817 91.6583 184.685 91.2516 184.823 90.9031C184.873 90.7546 184.968 90.619 185.024 90.4706C185.093 90.2463 185.073 90.003 184.969 89.7937C184.864 89.5845 184.683 89.4264 184.466 89.3538C184.413 89.3348 184.358 89.3219 184.303 89.3151C184.447 88.9085 184.566 88.392 184.259 88.1016C184.15 88.019 184.024 87.9647 183.891 87.9433C183.757 87.922 183.621 87.9342 183.493 87.9789C182.741 88.179 182.195 88.831 181.561 89.2699C179.466 90.7998 176.599 90.2575 174.849 88.4566C174.563 88.1996 174.36 87.8599 174.265 87.4819C174.241 87.1608 174.314 86.8399 174.473 86.5627C174.633 86.2856 174.871 86.0656 175.156 85.9327C175.728 85.6791 176.346 85.5537 176.969 85.5647L176.279 80.8849C172.791 81.8467 171.373 78.4319 170.878 75.5917C170.382 72.7515 172.34 71.7187 174.868 71.5444C178.767 73.1426 182.112 75.9072 184.469 79.4812C186.827 83.0552 188.088 87.2744 188.092 91.5937Z" fill="#020202"/>
<path d="M87.6451 93.2269C88.2724 99.0365 88.31 104.917 89.32 110.656C89.5521 111.947 89.9473 113.418 91.0639 114.07C91.9569 114.47 92.9521 114.561 93.8994 114.328C99.8642 113.486 105.668 111.705 111.107 109.048C109.528 101.347 107.197 93.8296 104.15 86.6105C103.353 84.7386 102.481 82.8408 101.063 81.4078C98.9117 79.2389 95.9319 78.5547 93.0714 77.9737C91.5846 77.6703 90.0728 77.4638 88.5986 77.0765C87.689 76.8376 85.1044 75.2755 84.3516 75.424C81.8424 75.9081 84.3516 79.9877 84.9789 81.5692C86.3967 85.3065 87.2942 89.2312 87.6451 93.2269Z" fill="url(#paint8_linear_205_4570)"/>
<path d="M140.239 73.6036L80.4497 79.4325L78.9253 72.2416L138.721 66.4062L140.239 73.6036Z" fill="#96BFFC"/>
<path d="M140.239 73.6036L80.4497 79.4325L78.9253 72.2416L138.721 66.4062L140.239 73.6036Z" fill="url(#paint9_linear_205_4570)"/>
<path d="M133.791 69.3884C138.408 68.8784 142.881 71.9059 145.352 75.9467C147.824 79.9875 148.489 81.9434 148.803 86.7072C148.903 88.2564 149.029 89.9735 150.139 91.0256C151.99 92.775 154.881 91.4129 157.303 90.7287C163.043 89.102 169.711 92.5619 171.857 98.2811C173.952 103.865 170.953 112.153 175.721 115.587C179.968 118.634 191.404 111.282 194.986 104.665C194.986 104.665 196.027 119.195 184.88 126.457C168.337 137.237 137.329 141.426 134.067 141.065C128.641 140.452 122.719 138.515 120.122 133.577C117.525 128.639 119.206 122.429 119.206 116.73C119.206 113.45 117.769 109.345 114.582 109.274C112.199 109.216 110.474 111.553 109.363 113.722C108.253 115.89 107.092 118.388 104.828 119.163C102.808 119.854 100.512 118.827 99.1253 117.168C97.7389 115.51 97.1053 113.295 96.6788 111.172C95.2046 103.723 95.8758 95.9831 94.6902 88.4759C94.2385 85.6228 93.4355 82.6987 91.5536 80.562C89.6716 78.4254 85.249 75.2625 81.874 75.398L133.791 69.3884Z" fill="#96BFFC"/>
<path d="M133.791 69.3884C138.408 68.8784 142.881 71.9059 145.352 75.9467C147.824 79.9875 148.489 81.9434 148.803 86.7072C148.903 88.2564 149.028 89.9735 150.139 91.0256C151.989 92.775 154.881 91.4129 157.303 90.7287C163.043 89.102 169.711 92.5619 171.857 98.2811C173.601 102.929 172.559 108.144 174.247 112.798C175.225 115.51 176.8 115.832 179.541 115.632C182.214 115.369 184.772 114.385 186.956 112.779C190.237 110.449 192.759 107.176 195.23 103.955C194.647 107.925 194.747 112.05 193.436 115.826C191.272 122.074 185.658 126.309 180.056 129.594C170.528 135.172 160.195 139.147 149.449 141.368C144.43 142.414 139.173 141.607 134.092 141.039C128.666 140.394 122.744 138.457 120.147 133.551C117.55 128.646 119.237 122.404 119.256 116.704C119.256 113.425 117.819 109.319 114.633 109.248C112.249 109.19 110.524 111.527 109.413 113.696C108.303 115.865 107.142 118.363 104.878 119.137C102.858 119.828 100.562 118.802 99.1754 117.143C97.789 115.484 97.1554 113.27 96.7288 111.146C95.2546 103.697 95.9258 95.9573 94.7402 88.4501C94.2885 85.597 93.4856 82.6406 91.6036 80.5362C89.7216 78.4319 85.2991 75.2366 81.9241 75.3722L133.791 69.3884Z" fill="url(#paint10_linear_205_4570)"/>
<path d="M153.282 91.8197L114.294 106.989C114.294 106.989 112.142 107.525 109.413 113.722C106.684 119.918 96.9548 122.113 96.4592 102.335C95.9636 82.5567 94.9474 83.809 92.5071 79.7036L148.69 85.4228C148.69 85.4228 148.32 93.2721 153.282 91.8197Z" fill="url(#paint11_linear_205_4570)"/>
<path d="M104.796 78.6451L134.255 75.4111" stroke="#473F47" stroke-width="1.99518" stroke-linecap="round" stroke-linejoin="round"/>
<path d="M108.165 88.3534L137.624 85.1194" stroke="#473F47" stroke-width="1.99518" stroke-linecap="round" stroke-linejoin="round"/>
<path d="M109.583 94.8277L139.048 91.5938" stroke="#473F47" stroke-width="1.99518" stroke-linecap="round" stroke-linejoin="round"/>
<path d="M130.027 81.1173L135.748 80.4912" stroke="#473F47" stroke-width="1.99518" stroke-linecap="round" stroke-linejoin="round"/>
<path d="M118.578 82.376L126.332 81.5239" stroke="#473F47" stroke-width="1.99518" stroke-linecap="round" stroke-linejoin="round"/>
<path d="M106.283 83.7251L113.208 82.9634" stroke="#473F47" stroke-width="1.99518" stroke-linecap="round" stroke-linejoin="round"/>
<path d="M131.714 107.738L160.558 96.719" stroke="#473F47" stroke-width="1.99518" stroke-linecap="round" stroke-linejoin="round"/>
<path d="M134.054 117.388L162.899 106.369" stroke="#473F47" stroke-width="1.99518" stroke-linecap="round" stroke-linejoin="round"/>
<path d="M134.813 124.037L163.664 113.018" stroke="#473F47" stroke-width="1.99518" stroke-linecap="round" stroke-linejoin="round"/>
<path d="M155.923 103.975L161.518 101.838" stroke="#473F47" stroke-width="1.99518" stroke-linecap="round" stroke-linejoin="round"/>
<path d="M144.712 108.254L152.303 105.356" stroke="#473F47" stroke-width="1.99518" stroke-linecap="round" stroke-linejoin="round"/>
<path d="M132.674 112.857L139.456 110.262" stroke="#473F47" stroke-width="1.99518" stroke-linecap="round" stroke-linejoin="round"/>
<path opacity="0.45" d="M192.276 108.338C192.276 108.338 165.301 133.113 147.109 130.472C147.109 130.472 132.16 147.843 126.3 137.676C120.441 127.51 130.497 120.964 130.497 120.964L174.215 112.799C174.215 112.799 177.113 122.836 192.276 108.338Z" fill="url(#paint12_linear_205_4570)"/>
<path d="M59.88 149.341C59.9364 150.089 60.9715 150.102 62.1446 149.986C63.3177 149.87 63.004 150.154 64.6539 150.173C66.3037 150.193 66.8683 149.637 66.9498 149.399C67.0314 149.16 66.2284 149.005 65.3815 148.792L65.0553 148.708C64.1018 148.456 63.4682 147.72 62.6527 147.081C61.8372 146.442 60.8837 144.267 60.8837 144.267L58.6316 144.164C58.6316 144.164 59.5788 146.139 59.9364 146.991C60.0807 147.51 60.0807 148.06 59.9364 148.579C59.8863 148.829 59.8673 149.085 59.88 149.341Z" fill="#FFB27D"/>
<path d="M62.1195 149.96C63.2926 149.818 62.979 150.128 64.6288 150.147C66.2787 150.167 66.8433 149.612 66.9248 149.373C67.0064 149.134 66.2034 148.979 65.3565 148.766C64.6048 149.134 63.7706 149.288 62.9413 149.211C61.8373 149.095 60.7144 148.624 59.9553 148.566C59.8938 148.823 59.8663 149.088 59.8737 149.353C59.9365 150.089 60.9716 150.102 62.1195 149.96Z" fill="#473F47"/>
<path d="M44.9185 148.579L45.1632 148.708C46.1729 149.168 47.2233 149.527 48.2998 149.779C48.652 149.884 49.0216 149.913 49.3851 149.863C49.612 149.817 49.8263 149.72 50.0124 149.579C50.1002 149.508 50.188 149.398 50.1378 149.302C50.1216 149.265 50.0955 149.233 50.0626 149.211C49.5858 148.817 48.9898 148.695 48.488 148.34C47.9861 147.985 47.5847 147.578 47.1204 147.217C46.3426 146.603 47.1204 142.995 47.1204 142.995L44.6551 142.75C44.6551 142.75 44.768 145.79 44.768 147.165C44.768 147.578 44.4292 148.133 44.768 148.456C44.8108 148.506 44.8618 148.547 44.9185 148.579Z" fill="#FFB27D"/>
<path d="M46.6436 150.089C47.0913 150.298 47.5524 150.475 48.0237 150.619C48.48 150.782 48.9585 150.869 49.4414 150.877C49.9292 150.891 50.4064 150.729 50.7902 150.419C50.8418 150.383 50.8853 150.336 50.9178 150.282C50.9503 150.227 50.9709 150.166 50.9784 150.102C50.9708 149.991 50.929 149.884 50.8592 149.799C50.6314 149.467 50.3332 149.194 49.9872 148.998C49.8053 148.908 49.6986 148.998 49.523 149.095C49.32 149.179 49.11 149.244 48.8957 149.289C48.1586 149.445 47.3957 149.412 46.6739 149.194C45.952 148.975 45.2932 148.578 44.7554 148.037C44.7554 148.037 44.7114 147.979 44.6801 147.972C44.6487 147.966 44.5546 148.037 44.5421 148.114C44.5137 148.235 44.5102 148.361 44.5318 148.483C44.5534 148.605 44.5996 148.721 44.6675 148.824C44.7847 148.989 44.9317 149.129 45.1004 149.237C45.5871 149.572 46.1038 149.857 46.6436 150.089Z" fill="#473F47"/>
<path d="M51.656 87.1463C51.7115 86.7466 51.7325 86.3427 51.7188 85.9392C51.7136 85.522 51.6103 85.1122 51.4177 84.745C51.2859 84.4998 50.9221 84.2738 50.828 84.0479C50.4811 83.3386 49.9911 82.7138 49.3907 82.215C48.7903 81.7163 48.0933 81.3553 47.3464 81.1561C46.2481 81.0018 45.1297 81.1557 44.1094 81.6014C43.8405 81.6732 43.5886 81.8006 43.3691 81.9758C43.1829 82.1702 43.0395 82.4035 42.9488 82.6601C42.7057 83.201 42.4962 83.7572 42.3215 84.3255C41.8507 83.5987 41.2014 83.013 40.4396 82.6278C39.9923 82.475 39.5142 82.4434 39.0516 82.5361C38.589 82.6288 38.1574 82.8427 37.7986 83.1571C37.4468 83.4765 37.1602 83.8647 36.9556 84.2991C36.751 84.7335 36.6324 85.2055 36.6066 85.6875C36.633 86.3085 36.5867 86.9305 36.4686 87.5401C36.35 87.895 36.1384 88.2093 35.8573 88.4485C35.5761 88.6877 35.2363 88.8424 34.8752 88.8956C35.2237 89.4319 35.7171 89.8514 36.2945 90.1026C36.8719 90.3538 37.5081 90.4257 38.1248 90.3093C37.9052 90.8203 37.6537 91.3162 37.372 91.7939C38.1713 92.0303 39.0259 91.9709 39.7872 91.6261C40.2743 91.266 40.6667 90.7869 40.9289 90.2318L40.4082 91.4002C41.3115 90.5223 41.0857 88.8182 42.0267 87.9984C42.2964 88.1339 42.3968 88.476 42.585 88.7149C42.7732 88.9537 43.2123 89.0376 43.3127 88.7149C43.3736 89.4514 43.6154 90.16 44.0153 90.774C44.2898 91.1431 44.6489 91.4365 45.0605 91.628C45.4721 91.8195 45.9234 91.9031 46.374 91.8714C46.5434 91.8714 46.7567 91.7423 46.7002 91.5874C47.108 91.497 47.3275 91.0452 47.6914 90.8192C48.1619 90.5158 48.7704 90.6643 49.3224 90.5675C49.653 90.4904 49.9645 90.3439 50.2376 90.1374C50.5106 89.9308 50.7394 89.6685 50.9095 89.3668C51.3124 88.6914 51.5671 87.9336 51.656 87.1463Z" fill="#FC682D"/>
<path d="M49.9748 93.9564C49.2742 94.3494 48.4688 94.4989 47.6789 94.3825C47.0066 94.0913 46.4619 93.556 46.1482 92.8785C46.5434 92.7945 46.6563 92.2329 46.65 89.8381L46.8257 89.8769L49.8306 90.4836C49.8306 90.4836 49.7616 91.4584 49.7616 92.375C49.7553 93.1431 49.8055 93.8725 49.9748 93.9564Z" fill="#FFB27D"/>
<path d="M49.8303 90.4835C49.8303 90.4835 49.7613 91.4582 49.7613 92.3748C48.0801 92.3232 47.1893 90.7481 46.8254 89.8767L49.8303 90.4835Z" fill="#ED975D"/>
<path d="M62.0443 145.467C62.1013 145.661 62.0819 145.87 61.9903 146.048C61.8987 146.227 61.7423 146.362 61.555 146.423C61.4947 146.432 61.4333 146.432 61.3731 146.423L60.2 146.481L58.9453 146.52C58.7918 146.526 58.6389 146.495 58.4993 146.428C58.3598 146.362 58.2374 146.263 58.1424 146.139C55.5143 142.718 53.5178 138.83 52.2518 134.668C52.2017 134.5 52.1452 134.326 52.0887 134.152C50.8341 130.492 48.3248 125.889 47.0012 121.726C46.7879 121.08 46.5997 120.435 46.424 119.854C46.3739 119.66 46.3174 119.473 46.2672 119.292C45.5094 116.594 45.0032 113.827 44.7554 111.03L54.391 111.107C56.0353 122.755 58.5947 134.246 62.0443 145.467Z" fill="#473F47"/>
<path d="M53.0423 105.42C53.0423 110.139 53.7136 112.159 53.7136 112.159C50.8688 113.46 47.664 113.661 44.6864 112.728L40.6277 111.772C40.7092 111.579 41.4369 108.403 41.5185 108.228C42.5536 105.937 43.3377 104.936 43.4632 104.233C43.6721 102.927 43.7122 101.599 43.5824 100.282C43.387 98.1788 42.9877 96.1007 42.3905 94.079C43.7449 93.7034 45.0736 93.2354 46.3677 92.6782C46.9569 93.2198 47.7231 93.5125 48.5131 93.498C49.4917 93.498 49.8054 93.0462 49.7677 92.575C50.8091 93.1688 51.6497 93.7304 51.6497 93.7304C52.5342 95.3119 54.3283 96.8482 54.4538 99.2753C54.4664 99.8691 53.0423 105.291 53.0423 105.42Z" fill="white"/>
<path d="M44.7555 105.943C44.3352 106.557 43.5009 110.288 41.5186 110.759C42.5536 108.099 43.3378 106.931 43.4632 106.118C43.6722 104.597 43.7122 103.058 43.5824 101.528C44.2537 100.315 44.7555 99.4818 44.7555 99.4818C44.812 99.2882 45.822 96.0542 46.1482 98.9461C46.3109 101.365 45.8294 103.785 44.7555 105.943Z" fill="#96BFFC"/>
<path d="M50.3888 91.355C50.3888 91.355 46.4179 91.4196 46.4116 88.8763C46.4053 86.333 45.8972 84.6225 48.4316 84.4675C50.9659 84.3126 51.4678 85.2873 51.6685 86.1394C51.8693 86.9914 51.4553 91.2711 50.3888 91.355Z" fill="#FFB27D"/>
<path d="M50.2443 84.4095C50.2443 84.4095 49.1527 87.3981 47.4841 87.8371C45.8154 88.276 45.094 87.8371 45.094 87.8371C45.9161 87.0923 46.4615 86.0771 46.6372 84.9646C46.6372 84.9646 49.4225 82.9829 50.2443 84.4095Z" fill="#FC682D"/>
<path d="M49.9746 84.6483C50.4009 84.9954 50.7461 85.4366 50.9846 85.9393C51.1853 86.5848 51.2732 87.921 51.6496 87.8758C51.6496 87.8758 52.4713 85.8489 51.5492 84.6999C50.627 83.5509 49.9746 84.6483 49.9746 84.6483Z" fill="#FC682D"/>
<path d="M58.23 107.247L61.2098 112.637L60.2437 113.283L56.1975 108.822L58.23 107.247Z" fill="#FFB27D"/>
<path d="M50.3135 93.2852C50.3135 93.2852 52.6534 93.7176 53.5567 94.9635C54.4601 96.2093 57.2328 105.292 57.7974 106.15C58.362 107.009 58.7948 107.719 58.7948 107.719C58.2726 108.384 57.5856 108.893 56.8062 109.19C55.721 109.494 50.3135 93.2852 50.3135 93.2852Z" fill="#96BFFC"/>
<path d="M49.7551 92.575C49.7551 92.575 52.0574 98.4167 52.1264 99.6045C52.1954 100.792 52.3961 118.97 52.3961 118.97C52.3961 118.97 52.2581 119.802 53.8139 119.454C54.5067 119.361 55.1744 119.126 55.7774 118.763C55.7774 118.763 54.2906 107.557 54.6921 103.665C55.0936 99.7723 51.5555 93.4141 51.5555 93.4141L49.7551 92.575Z" fill="#96BFFC"/>
<path d="M60.2001 146.533L58.8576 146.571C58.7381 146.578 58.6189 146.555 58.5098 146.504C58.4007 146.454 58.3049 146.377 58.2303 146.281C55.5702 142.837 53.5499 138.918 52.2708 134.72C52.2206 134.552 52.1641 134.378 52.1077 134.204C50.853 130.544 48.3437 125.941 47.0201 121.778C46.8068 121.132 46.6186 120.487 46.443 119.906C46.3928 119.712 46.3363 119.525 46.2861 119.344L47.7039 118.24C47.7039 118.24 51.9634 125.341 53.2807 132.015C54.4287 137.793 59.0144 144.777 60.2001 146.533Z" fill="url(#paint13_linear_205_4570)"/>
<path d="M47.8544 132.615C47.8544 135.688 47.7352 142.537 47.3713 145.88C47.3573 146.029 47.2896 146.168 47.1817 146.268C47.0738 146.368 46.9334 146.423 46.7879 146.423H44.8307C44.7418 146.42 44.6563 146.387 44.588 146.329C44.5197 146.27 44.4726 146.189 44.4543 146.1C43.4569 140.865 42.7417 136.521 42.2211 132.764C41.7819 129.614 41.393 126.954 41.0919 124.598C40.7908 122.242 40.5775 120.306 40.5022 118.653V117.175L48.8267 116.342C48.695 122.003 47.8418 130.731 47.8544 132.615Z" fill="#473F47"/>
<path d="M45.8093 146.423H44.8997C44.7921 146.421 44.6883 146.382 44.6051 146.311C44.522 146.241 44.4644 146.144 44.4418 146.036C43.4506 140.826 42.7417 136.501 42.2211 132.764C41.7819 129.614 41.393 126.954 41.0919 124.598C40.7908 122.242 40.5775 120.306 40.5022 118.653L43.5572 120.506C43.5572 120.506 41.6126 121.21 42.3528 126.567C43.093 131.925 44.7429 145.661 45.8093 146.423Z" fill="url(#paint14_linear_205_4570)"/>
<path d="M46.1733 118.595C46.1733 118.595 45.5899 120.777 43.5574 120.499C41.8724 120.169 40.2259 119.656 38.6455 118.97C38.6455 118.97 39.5112 116.149 40.5902 112.444C41.895 107.964 43.5135 102.187 44.2726 98.5394C44.4542 97.7193 44.5924 96.8897 44.6866 96.0542L46.3678 92.6912C46.3678 92.6912 48.8771 98.5007 49.0151 99.9466C49.1531 101.393 46.1733 118.595 46.1733 118.595Z" fill="#96BFFC"/>
<path d="M46.0852 103.013C45.9911 105.375 45.4578 109.971 40.6275 112.424H40.5898C41.8947 107.944 43.5132 102.167 44.2722 98.52C45.1818 99.9014 46.1353 101.709 46.0852 103.013Z" fill="url(#paint15_linear_205_4570)"/>
<path d="M46.3675 92.6912C46.3675 92.6912 42.2523 92.9945 41.2611 95.2732C40.27 97.5518 40.3139 100.547 40.408 102.974C40.4644 104.446 40.5021 105.976 41.1733 107.312C42.0768 108.861 43.1852 110.273 44.4667 111.508C44.6571 111.748 44.906 111.933 45.1881 112.043C45.5044 112.107 45.8322 112.064 46.1229 111.921C46.7983 111.644 47.4096 111.224 47.917 110.688C47.71 110.501 47.6284 110.042 47.4716 109.765C47.2379 109.372 47.0284 108.964 46.8443 108.545C46.4674 107.699 46.0486 106.874 45.5896 106.072C45.1184 105.426 44.6988 104.742 44.335 104.026C44.1761 103.659 44.0977 103.261 44.1053 102.859C44.1129 102.458 44.2063 102.063 44.3789 101.702C44.647 100.801 44.8566 99.8825 45.0062 98.9525C45.4579 96.8676 45.9096 94.7761 46.3675 92.6912Z" fill="#96BFFC"/>
<path fill-rule="evenodd" clip-rule="evenodd" d="M68.7568 141.717C67.8911 141.317 67.1885 141.827 67.1885 142.86C67.2099 143.393 67.3658 143.911 67.6408 144.364C67.9157 144.817 68.3003 145.188 68.7568 145.442C69.6225 145.842 70.3188 145.332 70.3188 144.299C70.2986 143.766 70.1439 143.248 69.87 142.795C69.5962 142.342 69.2125 141.971 68.7568 141.717Z" fill="#96BFFC"/>
<path fill-rule="evenodd" clip-rule="evenodd" d="M68.2548 141.575C67.9263 141.556 67.5975 141.607 67.2887 141.724C67.0942 141.814 68.3928 142.576 68.2548 141.575Z" fill="#96BFFC"/>
<path fill-rule="evenodd" clip-rule="evenodd" d="M68.744 145.661C69.07 145.682 69.3968 145.634 69.7038 145.519C69.8983 145.429 68.5872 144.667 68.744 145.661Z" fill="#96BFFC"/>
<path fill-rule="evenodd" clip-rule="evenodd" d="M68.1858 141.788C67.3201 141.388 66.6238 141.898 66.6238 142.931C66.6428 143.464 66.7969 143.983 67.0709 144.435C67.3449 144.888 67.7293 145.26 68.1858 145.513C69.0515 145.919 69.7541 145.409 69.7541 144.377C69.7325 143.842 69.5766 143.323 69.3018 142.869C69.0269 142.416 68.6424 142.043 68.1858 141.788Z" fill="#96BFFC"/>
<path fill-rule="evenodd" clip-rule="evenodd" d="M68.1857 143.111C67.9348 142.989 67.7278 143.144 67.7278 143.447C67.7326 143.604 67.7774 143.757 67.8578 143.891C67.9382 144.024 68.0512 144.134 68.1857 144.209C68.4429 144.325 68.6499 144.176 68.6499 143.873C68.6445 143.715 68.5987 143.562 68.5172 143.428C68.4357 143.294 68.3214 143.185 68.1857 143.111Z" fill="#96BFFC"/>
<path fill-rule="evenodd" clip-rule="evenodd" d="M58.3181 137.573L74.3775 149.108L74.1705 149.553L58.1111 138.012L58.3181 137.573Z" fill="#96BFFC"/>
<path fill-rule="evenodd" clip-rule="evenodd" d="M60.3506 136.947L76.4099 148.482L76.2092 148.927L60.1436 137.386L60.3506 136.947Z" fill="#96BFFC"/>
<path fill-rule="evenodd" clip-rule="evenodd" d="M62.5713 135.411L78.6306 146.946L78.4236 147.378L62.3643 135.85L62.5713 135.411Z" fill="#96BFFC"/>
<path fill-rule="evenodd" clip-rule="evenodd" d="M64.8611 134.83L80.9204 146.365L80.7134 146.81L64.6541 135.269L64.8611 134.83Z" fill="#96BFFC"/>
<path fill-rule="evenodd" clip-rule="evenodd" d="M78.4299 148.669C77.5642 148.269 76.8679 148.779 76.8679 149.812C76.8882 150.345 77.0428 150.863 77.3167 151.316C77.5906 151.768 77.9742 152.14 78.4299 152.394C79.2956 152.794 79.9982 152.284 79.9982 151.251C79.9768 150.718 79.8209 150.199 79.546 149.747C79.271 149.294 78.8864 148.923 78.4299 148.669Z" fill="#96BFFC"/>
<path fill-rule="evenodd" clip-rule="evenodd" d="M77.947 148.527C77.6185 148.509 77.2897 148.559 76.9809 148.676C76.7864 148.766 78.0975 149.528 77.947 148.527Z" fill="#96BFFC"/>
<path fill-rule="evenodd" clip-rule="evenodd" d="M78.4298 152.613C78.7579 152.634 79.0867 152.586 79.3959 152.471C79.5966 152.381 78.2855 151.619 78.4298 152.613Z" fill="#96BFFC"/>
<path fill-rule="evenodd" clip-rule="evenodd" d="M77.8777 148.74C77.0183 148.34 76.3157 148.85 76.3157 149.883C76.3347 150.416 76.4888 150.935 76.7628 151.388C77.0368 151.841 77.4212 152.212 77.8777 152.465C78.7434 152.871 79.446 152.361 79.446 151.329C79.4244 150.794 79.2685 150.275 78.9936 149.822C78.7188 149.368 78.3343 148.995 77.8777 148.74Z" fill="#96BFFC"/>
<path fill-rule="evenodd" clip-rule="evenodd" d="M77.8779 150.063C77.6269 149.941 77.4199 150.096 77.4199 150.399C77.4247 150.556 77.4696 150.709 77.5499 150.843C77.6303 150.977 77.7434 151.086 77.8779 151.161C78.1351 151.277 78.3421 151.161 78.3421 150.825C78.3367 150.667 78.2909 150.514 78.2094 150.38C78.1279 150.246 78.0135 150.137 77.8779 150.063Z" fill="#96BFFC"/>
<path fill-rule="evenodd" clip-rule="evenodd" d="M78.2478 147.959C78.2441 147.853 78.2054 147.751 78.1382 147.67C78.071 147.589 77.9792 147.534 77.8777 147.514C77.839 147.505 77.799 147.505 77.7601 147.512C77.7211 147.519 77.684 147.535 77.6508 147.557C77.6176 147.579 77.5889 147.608 77.5665 147.641C77.5441 147.675 77.5283 147.713 77.5201 147.753C77.5171 147.778 77.5171 147.804 77.5201 147.83V150.541C77.5236 150.647 77.5613 150.748 77.6273 150.828C77.6932 150.909 77.7836 150.965 77.884 150.986C77.9211 150.997 77.9598 151 77.998 150.995C78.0362 150.99 78.0731 150.977 78.1064 150.958C78.1397 150.938 78.1689 150.911 78.1921 150.88C78.2153 150.848 78.2321 150.812 78.2415 150.773C78.2476 150.742 78.2476 150.709 78.2415 150.677L78.2478 147.959Z" fill="#96BFFC"/>
<path fill-rule="evenodd" clip-rule="evenodd" d="M68.5559 141.013C68.5513 140.907 68.5125 140.804 68.4456 140.723C68.3786 140.641 68.2873 140.584 68.1858 140.562C68.1462 140.553 68.1054 140.553 68.0657 140.56C68.026 140.568 67.9882 140.584 67.9544 140.607C67.9206 140.629 67.8915 140.659 67.8688 140.693C67.8461 140.728 67.8301 140.766 67.8219 140.807C67.8188 140.83 67.8188 140.854 67.8219 140.878V143.589C67.8257 143.695 67.8643 143.797 67.9315 143.878C67.9987 143.959 68.0905 144.014 68.192 144.034C68.2291 144.045 68.2679 144.048 68.3061 144.043C68.3443 144.038 68.3811 144.025 68.4144 144.005C68.4478 143.986 68.4769 143.959 68.5001 143.927C68.5233 143.896 68.5401 143.86 68.5496 143.821C68.5557 143.789 68.5557 143.757 68.5496 143.725L68.5559 141.013Z" fill="#96BFFC"/>
<path fill-rule="evenodd" clip-rule="evenodd" d="M69.0576 121.171L69.572 136.476C69.5726 136.536 69.5936 136.594 69.6314 136.64C69.6692 136.686 69.7214 136.717 69.779 136.727C69.8021 136.729 69.8253 136.726 69.8473 136.719C69.8692 136.711 69.8896 136.699 69.907 136.684C69.9245 136.668 69.9388 136.649 69.9492 136.628C69.9595 136.606 69.9656 136.583 69.9672 136.56V136.527L69.4591 121.222C69.4563 121.163 69.4345 121.106 69.3971 121.06C69.3597 121.015 69.3087 120.983 69.2521 120.971C69.229 120.968 69.2056 120.97 69.1833 120.977C69.161 120.983 69.1402 120.995 69.1221 121.01C69.104 121.025 69.089 121.043 69.0779 121.064C69.0669 121.085 69.06 121.108 69.0576 121.132V121.171ZM81.9302 130.531L79.4209 143.634C79.4109 143.694 79.421 143.755 79.4495 143.808C79.4781 143.861 79.5233 143.902 79.5778 143.925C79.5983 143.934 79.6204 143.939 79.6428 143.939C79.6652 143.939 79.6874 143.935 79.708 143.925C79.7286 143.916 79.7472 143.903 79.7626 143.886C79.7779 143.869 79.7898 143.85 79.7973 143.828C79.8 143.815 79.8 143.802 79.7973 143.789L82.3066 130.692C82.3217 130.635 82.3175 130.575 82.2947 130.521C82.2719 130.467 82.2318 130.422 82.1811 130.395C82.1402 130.377 82.0941 130.375 82.0521 130.391C82.0102 130.407 81.9756 130.438 81.9553 130.479C81.9526 130.494 81.9526 130.509 81.9553 130.524L81.9302 130.531ZM72.5894 123.733L71.661 138.031C71.6574 138.092 71.6742 138.152 71.7084 138.201C71.7427 138.25 71.7924 138.286 71.8492 138.302C71.8941 138.312 71.9408 138.303 71.9795 138.278C72.0182 138.253 72.0457 138.213 72.0562 138.167L72.9846 123.862C72.9882 123.802 72.9715 123.742 72.9372 123.693C72.9029 123.643 72.8533 123.608 72.7964 123.591C72.7516 123.582 72.7048 123.59 72.6661 123.616C72.6274 123.641 72.5999 123.681 72.5894 123.727C72.5893 123.729 72.5893 123.731 72.5894 123.733ZM78.574 128.084L76.2969 141.369C76.2899 141.428 76.3021 141.488 76.3316 141.539C76.3611 141.59 76.4062 141.63 76.46 141.653C76.4993 141.671 76.5439 141.673 76.5847 141.659C76.6255 141.644 76.6594 141.614 76.6796 141.575C76.6825 141.556 76.6825 141.536 76.6796 141.517L78.9504 128.245C78.9593 128.186 78.9487 128.125 78.9204 128.073C78.892 128.02 78.8474 127.979 78.7936 127.955C78.7731 127.946 78.751 127.941 78.7286 127.941C78.7061 127.94 78.6839 127.945 78.6633 127.954C78.6427 127.963 78.6242 127.977 78.6088 127.993C78.5935 128.01 78.5816 128.03 78.574 128.052C78.5713 128.067 78.5713 128.082 78.574 128.097V128.084ZM73.9821 139.703C73.9763 139.763 73.9905 139.823 74.0225 139.874C74.0544 139.924 74.1021 139.962 74.1577 139.981C74.1977 139.995 74.2417 139.994 74.2803 139.976C74.319 139.957 74.3493 139.925 74.3647 139.884C74.3677 139.865 74.3677 139.845 74.3647 139.826L76.046 126.122C76.0491 126.073 76.0391 126.024 76.0169 125.981C75.9948 125.938 75.9614 125.901 75.9205 125.876C75.8999 125.868 75.878 125.865 75.856 125.865C75.834 125.866 75.8123 125.872 75.7924 125.881C75.7725 125.891 75.7546 125.905 75.74 125.921C75.7254 125.938 75.7142 125.958 75.7072 125.98C75.7044 125.997 75.7044 126.014 75.7072 126.031L73.9821 139.703Z" fill="#96BFFC"/>
<path fill-rule="evenodd" clip-rule="evenodd" d="M66.1782 119.421L86.1207 134.023L82.3568 145.196L67.138 134.087L66.1782 119.421ZM66.6111 134.668L82.3944 146.229C82.4289 146.26 82.469 146.283 82.5123 146.298C82.5557 146.313 82.6014 146.318 82.6469 146.315C82.6924 146.311 82.7368 146.298 82.7774 146.277C82.8181 146.256 82.8542 146.226 82.8837 146.19L82.9276 146.119L86.9927 134.094C87.023 133.988 87.0206 133.875 86.9857 133.771C86.9509 133.667 86.8853 133.577 86.7982 133.513L65.8834 118.24C65.8489 118.209 65.8088 118.186 65.7655 118.171C65.7221 118.156 65.6764 118.151 65.6308 118.154C65.5853 118.158 65.541 118.171 65.5003 118.192C65.4597 118.214 65.4236 118.243 65.3941 118.279L65.3501 118.35C65.3199 118.421 65.305 118.498 65.3062 118.576L66.3789 134.268C66.3815 134.352 66.404 134.434 66.4444 134.507C66.4849 134.58 66.5421 134.642 66.6111 134.688V134.668Z" fill="#96BFFC"/>
<path fill-rule="evenodd" clip-rule="evenodd" d="M70.0679 136.779L58.4751 141.098L58.2681 140.581L69.8672 136.263L70.0679 136.779Z" fill="#96BFFC"/>
<path fill-rule="evenodd" clip-rule="evenodd" d="M72.1629 138.38L60.5638 142.692L60.363 142.188L71.9622 137.87L72.1629 138.38Z" fill="#96BFFC"/>
<path fill-rule="evenodd" clip-rule="evenodd" d="M74.3524 139.871L62.7595 144.189L62.5525 143.679L74.1516 139.367L74.3524 139.871Z" fill="#96BFFC"/>
<path fill-rule="evenodd" clip-rule="evenodd" d="M77.056 141.846L65.4568 146.158L65.2561 145.642L76.8552 141.336L77.056 141.846Z" fill="#96BFFC"/>
<path fill-rule="evenodd" clip-rule="evenodd" d="M79.8414 144.008L68.2422 148.327L68.0415 147.817L79.6406 143.499L79.8414 144.008Z" fill="#96BFFC"/>
<path fill-rule="evenodd" clip-rule="evenodd" d="M55.9407 138.141L52.1454 124.54L65.3756 119.254L66.3542 133.971L55.9407 138.141ZM67.1697 134.339L66.1221 118.64C66.1161 118.522 66.0704 118.408 65.9927 118.32C65.9149 118.232 65.81 118.174 65.6955 118.156C65.6394 118.154 65.5836 118.165 65.5324 118.189L51.4805 123.804C51.3924 123.848 51.3232 123.924 51.2862 124.017C51.2491 124.11 51.2468 124.213 51.2797 124.308L55.3259 138.787C55.35 138.902 55.4146 139.003 55.5072 139.073C55.5998 139.142 55.714 139.173 55.8278 139.161H55.8968L66.9564 134.739C67.0299 134.706 67.0906 134.649 67.1292 134.576C67.1678 134.504 67.182 134.421 67.1697 134.339Z" fill="#96BFFC"/>
<path fill-rule="evenodd" clip-rule="evenodd" d="M63.0229 119.602L64.5034 135.126C64.5073 135.186 64.5314 135.243 64.5714 135.286C64.6115 135.33 64.6651 135.358 64.7229 135.365C64.7471 135.365 64.771 135.36 64.7932 135.35C64.8153 135.341 64.8353 135.326 64.8518 135.308C64.8683 135.29 64.8809 135.268 64.889 135.245C64.897 135.221 64.9003 135.196 64.8986 135.172L63.4244 119.647C63.4193 119.588 63.3949 119.532 63.355 119.489C63.3152 119.445 63.2622 119.417 63.2048 119.408C63.1566 119.408 63.1103 119.428 63.0762 119.463C63.0421 119.498 63.0229 119.546 63.0229 119.596V119.602ZM60.1686 120.751L62.3642 135.998C62.3715 136.057 62.3989 136.111 62.4413 136.151C62.4838 136.191 62.5387 136.215 62.5963 136.217C62.6202 136.216 62.6436 136.209 62.6651 136.198C62.6865 136.187 62.7057 136.172 62.7214 136.154C62.7372 136.135 62.7492 136.113 62.7568 136.09C62.7644 136.067 62.7674 136.042 62.7657 136.017C62.7657 136.017 62.7657 136.017 62.7657 135.985L60.5701 120.745C60.5629 120.687 60.5365 120.633 60.4953 120.593C60.4542 120.553 60.4008 120.529 60.3442 120.525C60.2965 120.528 60.2518 120.55 60.2192 120.586C60.1866 120.622 60.1685 120.67 60.1686 120.719C60.1686 120.719 60.1686 120.712 60.1686 120.751ZM55.15 122.772L57.8287 137.818C57.8348 137.878 57.8617 137.933 57.9045 137.973C57.9472 138.013 58.0028 138.036 58.0608 138.038C58.0856 138.034 58.1095 138.026 58.1312 138.013C58.1529 138.001 58.1719 137.984 58.1871 137.963C58.2023 137.943 58.2133 137.919 58.2197 137.894C58.226 137.87 58.2274 137.844 58.2239 137.818L55.5452 122.772C55.5364 122.713 55.5076 122.659 55.4639 122.62C55.4203 122.581 55.3646 122.559 55.3069 122.559C55.2837 122.561 55.2613 122.568 55.2409 122.579C55.2205 122.591 55.2024 122.606 55.1878 122.625C55.1733 122.643 55.1624 122.665 55.1559 122.688C55.1494 122.711 55.1474 122.735 55.15 122.759C55.1497 122.763 55.1497 122.767 55.15 122.772ZM57.8099 121.532C57.8675 121.535 57.9224 121.558 57.9649 121.598C58.0073 121.638 58.0346 121.693 58.042 121.752L60.4885 136.895C60.4951 136.919 60.4968 136.944 60.4937 136.968C60.4905 136.993 60.4825 137.016 60.4702 137.037C60.4578 137.059 60.4414 137.077 60.4219 137.091C60.4024 137.106 60.3802 137.116 60.3568 137.121C60.2992 137.118 60.2443 137.095 60.2018 137.055C60.1593 137.015 60.132 136.96 60.1247 136.902L57.6781 121.765C57.6714 121.741 57.6694 121.716 57.6721 121.691C57.6748 121.667 57.6822 121.643 57.6938 121.621C57.7055 121.6 57.7212 121.581 57.74 121.566C57.7589 121.55 57.7805 121.539 57.8036 121.532H57.8099Z" fill="#96BFFC"/>
<path fill-rule="evenodd" clip-rule="evenodd" d="M66.7932 140.148C66.8033 140.253 66.8471 140.351 66.9176 140.427C66.9881 140.503 67.0812 140.553 67.1822 140.568C67.2205 140.575 67.2599 140.575 67.2981 140.567C67.3362 140.558 67.3724 140.542 67.4045 140.519C67.4366 140.497 67.4639 140.467 67.485 140.434C67.5061 140.4 67.5204 140.362 67.5272 140.323C67.5303 140.293 67.5303 140.262 67.5272 140.232L65.7143 113.121C65.7052 113.015 65.6611 112.914 65.5893 112.837C65.5175 112.759 65.4222 112.709 65.3191 112.695C65.2807 112.689 65.2416 112.69 65.2038 112.699C65.166 112.708 65.1303 112.725 65.0988 112.749C65.0674 112.772 65.0407 112.802 65.0204 112.836C65 112.87 64.9864 112.907 64.9803 112.947C64.974 112.977 64.974 113.007 64.9803 113.037L66.7932 140.148Z" fill="#96BFFC"/>
<path fill-rule="evenodd" clip-rule="evenodd" d="M65.6704 113.709C65.7399 113.676 65.8024 113.63 65.8544 113.572C65.9063 113.514 65.9465 113.446 65.9728 113.373C65.9991 113.299 66.0108 113.22 66.0074 113.142C66.0039 113.063 65.9853 112.986 65.9526 112.915C65.9426 112.888 65.93 112.862 65.915 112.837C65.8406 112.669 65.7092 112.534 65.5453 112.458C65.3813 112.382 65.1961 112.37 65.0242 112.424L49.887 118.473C49.7486 118.538 49.6403 118.656 49.5852 118.802C49.5302 118.947 49.5326 119.11 49.5922 119.254C49.603 119.284 49.6178 119.312 49.6361 119.338C49.7125 119.505 49.8438 119.638 50.0069 119.715C50.1699 119.792 50.3541 119.807 50.5269 119.757L65.6704 113.709Z" fill="#96BFFC"/>
<path d="M60.9149 112.534C60.9149 112.534 62.7969 113.134 63.1482 113.825C63.4995 114.516 63.6626 116.058 63.3928 116.097C63.1231 116.136 62.4017 114.593 62.1382 114.529C61.8747 114.464 61.5109 114.186 61.5673 114.432C61.6238 114.677 61.9312 115.077 61.8308 115.187C61.7305 115.297 61.2411 114.645 60.9714 114.541C60.7016 114.438 60.3817 113.354 60.0806 113.096C59.7795 112.837 60.9149 112.534 60.9149 112.534Z" fill="#96BFFC"/>
<path d="M47.9173 110.262L50.897 115.645L49.9372 116.31L45.8848 111.837L47.9173 110.262Z" fill="#96BFFC"/>
<path d="M50.6085 115.548C50.764 115.589 50.9153 115.645 51.0602 115.716C51.3764 115.808 51.6769 115.949 51.9509 116.136C52.424 116.555 52.8029 117.074 53.0613 117.659C53.1424 117.8 53.1917 117.958 53.2059 118.121C53.22 118.284 53.1984 118.448 53.1429 118.602C53.0057 118.797 52.816 118.948 52.5971 119.034C52.539 119.067 52.4749 119.087 52.4089 119.092C52.3075 119.077 52.2133 119.029 52.1391 118.957L50.7528 117.762C50.5471 117.609 50.3724 117.416 50.2384 117.194C50.1192 116.975 50.0815 116.717 49.9749 116.491C49.8682 116.265 49.655 116.136 49.8118 115.916C49.9686 115.697 50.3764 115.619 50.6085 115.548Z" fill="#96BFFC"/>
<path fill-rule="evenodd" clip-rule="evenodd" d="M56.687 143.821C56.712 143.924 56.7718 144.015 56.8558 144.076C56.9397 144.138 57.0423 144.166 57.1449 144.157C57.2238 144.147 57.2958 144.106 57.3452 144.042C57.3945 143.978 57.4173 143.896 57.4084 143.815V143.737L50.5769 119.066C50.5497 118.965 50.4893 118.876 50.4059 118.815C50.3225 118.754 50.2212 118.724 50.119 118.731C50.039 118.743 49.967 118.788 49.9179 118.854C49.8688 118.92 49.8464 119.003 49.8555 119.086V119.157L56.687 143.821Z" fill="#96BFFC"/>
<path fill-rule="evenodd" clip-rule="evenodd" d="M58.9829 145.816C58.1172 145.409 57.4209 145.919 57.4209 146.952C57.4411 147.485 57.5958 148.003 57.8697 148.456C58.1435 148.909 58.5272 149.28 58.9829 149.534C59.8486 149.934 60.5512 149.424 60.5512 148.392C60.5305 147.859 60.3749 147.341 60.0998 146.889C59.8248 146.437 59.4397 146.067 58.9829 145.816Z" fill="#96BFFC"/>
<path fill-rule="evenodd" clip-rule="evenodd" d="M58.5 145.667C58.1715 145.649 57.8427 145.699 57.5339 145.816C57.3394 145.887 58.6505 146.668 58.5 145.667Z" fill="#96BFFC"/>
<path fill-rule="evenodd" clip-rule="evenodd" d="M58.9828 149.76C59.311 149.784 59.6404 149.736 59.9489 149.618C60.1496 149.521 58.8385 148.759 58.9828 149.76Z" fill="#96BFFC"/>
<path fill-rule="evenodd" clip-rule="evenodd" d="M58.4309 145.887C57.5715 145.487 56.8689 145.997 56.8689 147.029C56.8879 147.563 57.042 148.081 57.316 148.534C57.59 148.987 57.9744 149.359 58.4309 149.611C59.2966 150.018 59.9992 149.508 59.9992 148.475C59.9776 147.941 59.8217 147.422 59.5469 146.968C59.272 146.515 58.8875 146.142 58.4309 145.887Z" fill="#96BFFC"/>
<path fill-rule="evenodd" clip-rule="evenodd" d="M58.4308 147.178C58.1799 147.055 57.9729 147.21 57.9729 147.514C57.9777 147.671 58.0225 147.824 58.1029 147.957C58.1833 148.091 58.2964 148.201 58.4308 148.275C58.688 148.398 58.8951 148.275 58.8951 147.94C58.8896 147.782 58.8439 147.628 58.7624 147.495C58.6809 147.361 58.5665 147.252 58.4308 147.178Z" fill="#96BFFC"/>
<path fill-rule="evenodd" clip-rule="evenodd" d="M68.6939 152.762C67.8344 152.361 67.1318 152.871 67.1318 153.904C67.1521 154.437 67.3067 154.955 67.5806 155.408C67.8545 155.861 68.2381 156.232 68.6939 156.486C69.5596 156.886 70.2622 156.376 70.2622 155.344C70.2407 154.81 70.0848 154.292 69.8099 153.839C69.5349 153.387 69.1503 153.015 68.6939 152.762Z" fill="#96BFFC"/>
<path fill-rule="evenodd" clip-rule="evenodd" d="M68.1922 152.62C67.8637 152.601 67.535 152.651 67.2261 152.768C67.0379 152.858 68.3428 153.633 68.1922 152.62Z" fill="#96BFFC"/>
<path fill-rule="evenodd" clip-rule="evenodd" d="M68.6813 156.706C69.0093 156.727 69.3381 156.678 69.6473 156.564C69.8418 156.473 68.5307 155.712 68.6813 156.706Z" fill="#96BFFC"/>
<path fill-rule="evenodd" clip-rule="evenodd" d="M68.1293 152.833C67.2636 152.432 66.561 152.942 66.561 153.975C66.5807 154.509 66.7357 155.028 67.0109 155.481C67.286 155.934 67.6716 156.305 68.1293 156.557C68.995 156.964 69.6914 156.454 69.6914 155.421C69.6722 154.887 69.518 154.368 69.2441 153.914C68.9702 153.46 68.586 153.087 68.1293 152.833Z" fill="#96BFFC"/>
<path fill-rule="evenodd" clip-rule="evenodd" d="M68.4995 152.058C68.4949 151.951 68.4561 151.849 68.3892 151.767C68.3222 151.686 68.2309 151.629 68.1294 151.606C68.0906 151.597 68.0504 151.595 68.0111 151.602C67.9718 151.608 67.9341 151.623 67.9003 151.644C67.8665 151.666 67.8371 151.694 67.814 151.728C67.7908 151.761 67.7744 151.799 67.7655 151.839C67.7624 151.866 67.7624 151.895 67.7655 151.923V154.634C67.7701 154.74 67.8089 154.843 67.8758 154.924C67.9428 155.006 68.0341 155.063 68.1356 155.085C68.1752 155.094 68.216 155.094 68.2557 155.087C68.2954 155.079 68.3332 155.063 68.367 155.04C68.4008 155.018 68.4299 154.988 68.4526 154.954C68.4753 154.92 68.4913 154.881 68.4995 154.84C68.5026 154.817 68.5026 154.793 68.4995 154.769V152.058Z" fill="#96BFFC"/>
<path fill-rule="evenodd" clip-rule="evenodd" d="M80.3433 150.289L66.9813 140.491L57.9793 144.022L71.3036 153.917L80.3433 150.289ZM71.1154 154.634L57.0446 144.189C56.9596 144.133 56.8978 144.047 56.8712 143.947C56.8445 143.847 56.8549 143.74 56.9003 143.647C56.9319 143.592 56.9804 143.549 57.0383 143.524L66.7994 139.697C66.8611 139.677 66.9265 139.673 66.9899 139.686C67.0534 139.698 67.1129 139.726 67.1633 139.768L81.278 150.096C81.3629 150.152 81.4247 150.238 81.4514 150.338C81.4781 150.438 81.4677 150.545 81.4222 150.638C81.3896 150.699 81.3358 150.745 81.2717 150.767L71.4855 154.692C71.4239 154.714 71.3579 154.721 71.2933 154.711C71.2287 154.7 71.1676 154.674 71.1154 154.634Z" fill="#96BFFC"/>
<path fill-rule="evenodd" clip-rule="evenodd" d="M58.8013 145.106C58.7987 144.999 58.7605 144.897 58.6931 144.815C58.6257 144.734 58.5332 144.68 58.4312 144.66C58.3933 144.651 58.3539 144.649 58.3153 144.655C58.2768 144.661 58.2398 144.675 58.2065 144.696C58.1733 144.717 58.1444 144.745 58.1216 144.778C58.0988 144.81 58.0825 144.847 58.0736 144.886C58.0705 144.914 58.0705 144.942 58.0736 144.97V147.681C58.0768 147.788 58.1143 147.89 58.1802 147.972C58.2461 148.053 58.3366 148.11 58.4375 148.133C58.4762 148.143 58.5164 148.144 58.5557 148.138C58.595 148.131 58.6327 148.117 58.6665 148.095C58.7004 148.074 58.7297 148.045 58.7528 148.012C58.776 147.979 58.7925 147.941 58.8013 147.901C58.8044 147.873 58.8044 147.845 58.8013 147.817V145.106Z" fill="#96BFFC"/>
<path fill-rule="evenodd" clip-rule="evenodd" d="M69.7479 142.014L69.5471 141.504L59.3657 145.293L59.5665 145.803L69.7479 142.014ZM71.8431 143.621L61.6617 147.41L61.461 146.901L71.6424 143.111L71.8431 143.621ZM74.0387 145.113L63.8573 148.902L63.6566 148.392L73.8317 144.596L74.0325 145.106L74.0387 145.113ZM76.7425 147.049L66.5611 150.838L66.3603 150.328L76.548 146.578L76.7487 147.088L76.7425 147.049ZM69.3464 153.007L69.1456 152.497L79.327 148.708L79.5278 149.218L69.3464 153.007Z" fill="#96BFFC"/>
<path fill-rule="evenodd" clip-rule="evenodd" d="M78.4299 148.669C77.5642 148.269 76.8679 148.779 76.8679 149.812C76.8882 150.345 77.0428 150.863 77.3167 151.316C77.5906 151.768 77.9742 152.14 78.4299 152.394C79.2956 152.794 79.9982 152.284 79.9982 151.251C79.9768 150.718 79.8209 150.199 79.546 149.747C79.271 149.294 78.8864 148.923 78.4299 148.669Z" fill="url(#paint16_linear_205_4570)"/>
<path fill-rule="evenodd" clip-rule="evenodd" d="M77.947 148.527C77.6185 148.509 77.2897 148.559 76.9809 148.676C76.7864 148.766 78.0975 149.528 77.947 148.527Z" fill="url(#paint17_linear_205_4570)"/>
<path fill-rule="evenodd" clip-rule="evenodd" d="M78.4298 152.613C78.7579 152.634 79.0867 152.586 79.3959 152.471C79.5966 152.381 78.2855 151.619 78.4298 152.613Z" fill="url(#paint18_linear_205_4570)"/>
<path fill-rule="evenodd" clip-rule="evenodd" d="M77.8777 148.74C77.0183 148.34 76.3157 148.85 76.3157 149.883C76.3347 150.416 76.4888 150.935 76.7628 151.388C77.0368 151.841 77.4212 152.212 77.8777 152.465C78.7434 152.871 79.446 152.361 79.446 151.329C79.4244 150.794 79.2685 150.275 78.9936 149.822C78.7188 149.368 78.3343 148.995 77.8777 148.74Z" fill="#473F47"/>
<path fill-rule="evenodd" clip-rule="evenodd" d="M77.8779 150.063C77.6269 149.941 77.4199 150.096 77.4199 150.399C77.4247 150.556 77.4696 150.709 77.5499 150.843C77.6303 150.977 77.7434 151.086 77.8779 151.161C78.1351 151.277 78.3421 151.161 78.3421 150.825C78.3367 150.667 78.2909 150.514 78.2094 150.38C78.1279 150.246 78.0135 150.137 77.8779 150.063Z" fill="url(#paint19_linear_205_4570)"/>
<path fill-rule="evenodd" clip-rule="evenodd" d="M78.2478 147.959C78.2441 147.853 78.2054 147.751 78.1382 147.67C78.071 147.589 77.9792 147.534 77.8777 147.514C77.839 147.505 77.799 147.505 77.7601 147.512C77.7211 147.519 77.684 147.535 77.6508 147.557C77.6176 147.579 77.5889 147.608 77.5665 147.641C77.5441 147.675 77.5283 147.713 77.5201 147.753C77.5171 147.778 77.5171 147.804 77.5201 147.83V150.541C77.5236 150.647 77.5613 150.748 77.6273 150.828C77.6932 150.909 77.7836 150.965 77.884 150.986C77.9211 150.997 77.9598 151 77.998 150.995C78.0362 150.99 78.0731 150.977 78.1064 150.958C78.1397 150.938 78.1689 150.911 78.1921 150.88C78.2153 150.848 78.2321 150.812 78.2415 150.773C78.2476 150.742 78.2476 150.709 78.2415 150.677L78.2478 147.959Z" fill="url(#paint20_linear_205_4570)"/>
<path fill-rule="evenodd" clip-rule="evenodd" d="M69.0576 121.171L69.572 136.476C69.5726 136.536 69.5936 136.594 69.6314 136.64C69.6692 136.686 69.7214 136.717 69.779 136.727C69.8021 136.729 69.8253 136.726 69.8473 136.719C69.8692 136.711 69.8896 136.699 69.907 136.684C69.9245 136.668 69.9388 136.649 69.9492 136.628C69.9595 136.606 69.9656 136.583 69.9672 136.56V136.527L69.4591 121.222C69.4563 121.163 69.4345 121.106 69.3971 121.06C69.3597 121.015 69.3087 120.983 69.2521 120.971C69.229 120.968 69.2056 120.97 69.1833 120.977C69.161 120.983 69.1402 120.995 69.1221 121.01C69.104 121.025 69.089 121.043 69.0779 121.064C69.0669 121.085 69.06 121.108 69.0576 121.132V121.171ZM81.9302 130.531L79.4209 143.634C79.4109 143.694 79.421 143.755 79.4495 143.808C79.4781 143.861 79.5233 143.902 79.5778 143.925C79.5983 143.934 79.6204 143.939 79.6428 143.939C79.6652 143.939 79.6874 143.935 79.708 143.925C79.7286 143.916 79.7472 143.903 79.7626 143.886C79.7779 143.869 79.7898 143.85 79.7973 143.828C79.8 143.815 79.8 143.802 79.7973 143.789L82.3066 130.692C82.3217 130.635 82.3175 130.575 82.2947 130.521C82.2719 130.467 82.2318 130.422 82.1811 130.395C82.1402 130.377 82.0941 130.375 82.0521 130.391C82.0102 130.407 81.9756 130.438 81.9553 130.479C81.9526 130.494 81.9526 130.509 81.9553 130.524L81.9302 130.531ZM72.5894 123.733L71.661 138.031C71.6574 138.092 71.6742 138.152 71.7084 138.201C71.7427 138.25 71.7924 138.286 71.8492 138.302C71.8941 138.312 71.9408 138.303 71.9795 138.278C72.0182 138.253 72.0457 138.213 72.0562 138.167L72.9846 123.862C72.9882 123.802 72.9715 123.742 72.9372 123.693C72.9029 123.643 72.8533 123.608 72.7964 123.591C72.7516 123.582 72.7048 123.59 72.6661 123.616C72.6274 123.641 72.5999 123.681 72.5894 123.727C72.5893 123.729 72.5893 123.731 72.5894 123.733ZM78.574 128.084L76.2969 141.369C76.2899 141.428 76.3021 141.488 76.3316 141.539C76.3611 141.59 76.4062 141.63 76.46 141.653C76.4993 141.671 76.5439 141.673 76.5847 141.659C76.6255 141.644 76.6594 141.614 76.6796 141.575C76.6825 141.556 76.6825 141.536 76.6796 141.517L78.9504 128.245C78.9593 128.186 78.9487 128.125 78.9204 128.073C78.892 128.02 78.8474 127.979 78.7936 127.955C78.7731 127.946 78.751 127.941 78.7286 127.941C78.7061 127.94 78.6839 127.945 78.6633 127.954C78.6427 127.963 78.6242 127.977 78.6088 127.993C78.5935 128.01 78.5816 128.03 78.574 128.052C78.5713 128.067 78.5713 128.082 78.574 128.097V128.084ZM73.9821 139.703C73.9763 139.763 73.9905 139.823 74.0225 139.874C74.0544 139.924 74.1021 139.962 74.1577 139.981C74.1977 139.995 74.2417 139.994 74.2803 139.976C74.319 139.957 74.3493 139.925 74.3647 139.884C74.3677 139.865 74.3677 139.845 74.3647 139.826L76.046 126.122C76.0491 126.073 76.0391 126.024 76.0169 125.981C75.9948 125.938 75.9614 125.901 75.9205 125.876C75.8999 125.868 75.878 125.865 75.856 125.865C75.834 125.866 75.8123 125.872 75.7924 125.881C75.7725 125.891 75.7546 125.905 75.74 125.921C75.7254 125.938 75.7142 125.958 75.7072 125.98C75.7044 125.997 75.7044 126.014 75.7072 126.031L73.9821 139.703Z" fill="url(#paint21_linear_205_4570)"/>
<path fill-rule="evenodd" clip-rule="evenodd" d="M66.1782 119.421L86.1207 134.023L82.3568 145.196L67.138 134.087L66.1782 119.421ZM66.6111 134.668L82.3944 146.229C82.4289 146.26 82.469 146.283 82.5123 146.298C82.5557 146.313 82.6014 146.318 82.6469 146.315C82.6924 146.311 82.7368 146.298 82.7774 146.277C82.8181 146.256 82.8542 146.226 82.8837 146.19L82.9276 146.119L86.9927 134.094C87.023 133.988 87.0206 133.875 86.9857 133.771C86.9509 133.667 86.8853 133.577 86.7982 133.513L65.8834 118.24C65.8489 118.209 65.8088 118.186 65.7655 118.171C65.7221 118.156 65.6764 118.151 65.6308 118.154C65.5853 118.158 65.541 118.171 65.5003 118.192C65.4597 118.214 65.4236 118.243 65.3941 118.279L65.3501 118.35C65.3199 118.421 65.305 118.498 65.3062 118.576L66.3789 134.268C66.3815 134.352 66.404 134.434 66.4444 134.507C66.4849 134.58 66.5421 134.642 66.6111 134.688V134.668Z" fill="url(#paint22_linear_205_4570)"/>
<path fill-rule="evenodd" clip-rule="evenodd" d="M55.9407 138.141L52.1454 124.54L65.3756 119.254L66.3542 133.971L55.9407 138.141ZM67.1697 134.339L66.1221 118.64C66.1161 118.522 66.0704 118.408 65.9927 118.32C65.9149 118.232 65.81 118.174 65.6955 118.156C65.6394 118.154 65.5836 118.165 65.5324 118.189L51.4805 123.804C51.3924 123.848 51.3232 123.924 51.2862 124.017C51.2491 124.11 51.2468 124.213 51.2797 124.308L55.3259 138.787C55.35 138.902 55.4146 139.003 55.5072 139.073C55.5998 139.142 55.714 139.173 55.8278 139.161H55.8968L66.9564 134.739C67.0299 134.706 67.0906 134.649 67.1292 134.576C67.1678 134.504 67.182 134.421 67.1697 134.339Z" fill="url(#paint23_linear_205_4570)"/>
<path fill-rule="evenodd" clip-rule="evenodd" d="M63.0229 119.602L64.5034 135.126C64.5073 135.186 64.5314 135.243 64.5714 135.286C64.6115 135.33 64.6651 135.358 64.7229 135.365C64.7471 135.365 64.771 135.36 64.7932 135.35C64.8153 135.341 64.8353 135.326 64.8518 135.308C64.8683 135.29 64.8809 135.268 64.889 135.245C64.897 135.221 64.9003 135.196 64.8986 135.172L63.4244 119.647C63.4193 119.588 63.3949 119.532 63.355 119.489C63.3152 119.445 63.2622 119.417 63.2048 119.408C63.1566 119.408 63.1103 119.428 63.0762 119.463C63.0421 119.498 63.0229 119.546 63.0229 119.596V119.602ZM60.1686 120.751L62.3642 135.998C62.3715 136.057 62.3989 136.111 62.4413 136.151C62.4838 136.191 62.5387 136.215 62.5963 136.217C62.6202 136.216 62.6436 136.209 62.6651 136.198C62.6865 136.187 62.7057 136.172 62.7214 136.154C62.7372 136.135 62.7492 136.113 62.7568 136.09C62.7644 136.067 62.7674 136.042 62.7657 136.017C62.7657 136.017 62.7657 136.017 62.7657 135.985L60.5701 120.745C60.5629 120.687 60.5365 120.633 60.4953 120.593C60.4542 120.553 60.4008 120.529 60.3442 120.525C60.2965 120.528 60.2518 120.55 60.2192 120.586C60.1866 120.622 60.1685 120.67 60.1686 120.719C60.1686 120.719 60.1686 120.712 60.1686 120.751ZM55.15 122.772L57.8287 137.818C57.8348 137.878 57.8617 137.933 57.9045 137.973C57.9472 138.013 58.0028 138.036 58.0608 138.038C58.0856 138.034 58.1095 138.026 58.1312 138.013C58.1529 138.001 58.1719 137.984 58.1871 137.963C58.2023 137.943 58.2133 137.919 58.2197 137.894C58.226 137.87 58.2274 137.844 58.2239 137.818L55.5452 122.772C55.5364 122.713 55.5076 122.659 55.4639 122.62C55.4203 122.581 55.3646 122.559 55.3069 122.559C55.2837 122.561 55.2613 122.568 55.2409 122.579C55.2205 122.591 55.2024 122.606 55.1878 122.625C55.1733 122.643 55.1624 122.665 55.1559 122.688C55.1494 122.711 55.1474 122.735 55.15 122.759C55.1497 122.763 55.1497 122.767 55.15 122.772ZM57.8099 121.532C57.8675 121.535 57.9224 121.558 57.9649 121.598C58.0073 121.638 58.0346 121.693 58.042 121.752L60.4885 136.895C60.4951 136.919 60.4968 136.944 60.4937 136.968C60.4905 136.993 60.4825 137.016 60.4702 137.037C60.4578 137.059 60.4414 137.077 60.4219 137.091C60.4024 137.106 60.3802 137.116 60.3568 137.121C60.2992 137.118 60.2443 137.095 60.2018 137.055C60.1593 137.015 60.132 136.96 60.1247 136.902L57.6781 121.765C57.6714 121.741 57.6694 121.716 57.6721 121.691C57.6748 121.667 57.6822 121.643 57.6938 121.621C57.7055 121.6 57.7212 121.581 57.74 121.566C57.7589 121.55 57.7805 121.539 57.8036 121.532H57.8099Z" fill="url(#paint24_linear_205_4570)"/>
<path fill-rule="evenodd" clip-rule="evenodd" d="M66.7932 140.148C66.8033 140.253 66.8471 140.351 66.9176 140.427C66.9881 140.503 67.0812 140.553 67.1822 140.568C67.2205 140.575 67.2599 140.575 67.2981 140.567C67.3362 140.558 67.3724 140.542 67.4045 140.519C67.4366 140.497 67.4639 140.467 67.485 140.434C67.5061 140.4 67.5204 140.362 67.5272 140.323C67.5303 140.293 67.5303 140.262 67.5272 140.232L65.7143 113.121C65.7052 113.015 65.6611 112.914 65.5893 112.837C65.5175 112.759 65.4222 112.709 65.3191 112.695C65.2807 112.689 65.2416 112.69 65.2038 112.699C65.166 112.708 65.1303 112.725 65.0988 112.749C65.0674 112.772 65.0407 112.802 65.0204 112.836C65 112.87 64.9864 112.907 64.9803 112.947C64.974 112.977 64.974 113.007 64.9803 113.037L66.7932 140.148Z" fill="url(#paint25_linear_205_4570)"/>
<path fill-rule="evenodd" clip-rule="evenodd" d="M65.6704 113.709C65.7399 113.676 65.8024 113.63 65.8544 113.572C65.9063 113.514 65.9465 113.446 65.9728 113.373C65.9991 113.299 66.0108 113.22 66.0074 113.142C66.0039 113.063 65.9853 112.986 65.9526 112.915C65.9426 112.888 65.93 112.862 65.915 112.837C65.8406 112.669 65.7092 112.534 65.5453 112.458C65.3813 112.382 65.1961 112.37 65.0242 112.424L49.887 118.473C49.7486 118.538 49.6403 118.656 49.5852 118.802C49.5302 118.947 49.5326 119.11 49.5922 119.254C49.603 119.284 49.6178 119.312 49.6361 119.338C49.7125 119.505 49.8438 119.638 50.0069 119.715C50.1699 119.792 50.3541 119.807 50.5269 119.757L65.6704 113.709Z" fill="#96BFFC"/>
<path d="M60.9149 112.534C60.9149 112.534 62.7969 113.134 63.1482 113.825C63.4995 114.516 63.6626 116.058 63.3928 116.097C63.1231 116.136 62.4017 114.593 62.1382 114.529C61.8747 114.464 61.5109 114.186 61.5673 114.432C61.6238 114.677 61.9312 115.077 61.8308 115.187C61.7305 115.297 61.2411 114.645 60.9714 114.541C60.7016 114.438 60.3817 113.354 60.0806 113.096C59.7795 112.837 60.9149 112.534 60.9149 112.534Z" fill="#FFB27D"/>
<path d="M47.9173 110.262L50.897 115.645L49.9372 116.31L45.8848 111.837L47.9173 110.262Z" fill="#FFB27D"/>
<path d="M50.6085 115.548C50.764 115.589 50.9153 115.645 51.0602 115.716C51.3764 115.808 51.6769 115.949 51.9509 116.136C52.424 116.555 52.8029 117.074 53.0613 117.659C53.1424 117.8 53.1917 117.958 53.2059 118.121C53.22 118.284 53.1984 118.448 53.1429 118.602C53.0057 118.797 52.816 118.948 52.5971 119.034C52.539 119.067 52.4749 119.087 52.4089 119.092C52.3075 119.077 52.2133 119.029 52.1391 118.957L50.7528 117.762C50.5471 117.609 50.3724 117.416 50.2384 117.194C50.1192 116.975 50.0815 116.717 49.9749 116.491C49.8682 116.265 49.655 116.136 49.8118 115.916C49.9686 115.697 50.3764 115.619 50.6085 115.548Z" fill="#FFB27D"/>
<path fill-rule="evenodd" clip-rule="evenodd" d="M56.687 143.821C56.712 143.924 56.7718 144.015 56.8558 144.076C56.9397 144.138 57.0423 144.166 57.1449 144.157C57.2238 144.147 57.2958 144.106 57.3452 144.042C57.3945 143.978 57.4173 143.896 57.4084 143.815V143.737L50.5769 119.066C50.5497 118.965 50.4893 118.876 50.4059 118.815C50.3225 118.754 50.2212 118.724 50.119 118.731C50.039 118.743 49.967 118.788 49.9179 118.854C49.8688 118.92 49.8464 119.003 49.8555 119.086V119.157L56.687 143.821Z" fill="url(#paint26_linear_205_4570)"/>
<path fill-rule="evenodd" clip-rule="evenodd" d="M58.9829 145.816C58.1172 145.409 57.4209 145.919 57.4209 146.952C57.4411 147.485 57.5958 148.003 57.8697 148.456C58.1435 148.909 58.5272 149.28 58.9829 149.534C59.8486 149.934 60.5512 149.424 60.5512 148.392C60.5305 147.859 60.3749 147.341 60.0998 146.889C59.8248 146.437 59.4397 146.067 58.9829 145.816Z" fill="url(#paint27_linear_205_4570)"/>
<path fill-rule="evenodd" clip-rule="evenodd" d="M58.5 145.667C58.1715 145.649 57.8427 145.699 57.5339 145.816C57.3394 145.887 58.6505 146.668 58.5 145.667Z" fill="url(#paint28_linear_205_4570)"/>
<path fill-rule="evenodd" clip-rule="evenodd" d="M58.9828 149.76C59.311 149.784 59.6404 149.736 59.9489 149.618C60.1496 149.521 58.8385 148.759 58.9828 149.76Z" fill="url(#paint29_linear_205_4570)"/>
<path fill-rule="evenodd" clip-rule="evenodd" d="M58.4309 145.887C57.5715 145.487 56.8689 145.997 56.8689 147.029C56.8879 147.563 57.042 148.081 57.316 148.534C57.59 148.987 57.9744 149.359 58.4309 149.611C59.2966 150.018 59.9992 149.508 59.9992 148.475C59.9776 147.941 59.8217 147.422 59.5469 146.968C59.272 146.515 58.8875 146.142 58.4309 145.887Z" fill="#473F47"/>
<path fill-rule="evenodd" clip-rule="evenodd" d="M58.4308 147.178C58.1799 147.055 57.9729 147.21 57.9729 147.514C57.9777 147.671 58.0225 147.824 58.1029 147.957C58.1833 148.091 58.2964 148.201 58.4308 148.275C58.688 148.398 58.8951 148.275 58.8951 147.94C58.8896 147.782 58.8439 147.628 58.7624 147.495C58.6809 147.361 58.5665 147.252 58.4308 147.178Z" fill="url(#paint30_linear_205_4570)"/>
<path fill-rule="evenodd" clip-rule="evenodd" d="M68.6939 152.762C67.8344 152.361 67.1318 152.871 67.1318 153.904C67.1521 154.437 67.3067 154.955 67.5806 155.408C67.8545 155.861 68.2381 156.232 68.6939 156.486C69.5596 156.886 70.2622 156.376 70.2622 155.344C70.2407 154.81 70.0848 154.292 69.8099 153.839C69.5349 153.387 69.1503 153.015 68.6939 152.762Z" fill="url(#paint31_linear_205_4570)"/>
<path fill-rule="evenodd" clip-rule="evenodd" d="M68.1922 152.62C67.8637 152.601 67.535 152.651 67.2261 152.768C67.0379 152.858 68.3428 153.633 68.1922 152.62Z" fill="url(#paint32_linear_205_4570)"/>
<path fill-rule="evenodd" clip-rule="evenodd" d="M68.6813 156.706C69.0093 156.727 69.3381 156.678 69.6473 156.564C69.8418 156.473 68.5307 155.712 68.6813 156.706Z" fill="url(#paint33_linear_205_4570)"/>
<path fill-rule="evenodd" clip-rule="evenodd" d="M68.1293 152.833C67.2636 152.432 66.561 152.942 66.561 153.975C66.5807 154.509 66.7357 155.028 67.0109 155.481C67.286 155.934 67.6716 156.305 68.1293 156.557C68.995 156.964 69.6914 156.454 69.6914 155.421C69.6722 154.887 69.518 154.368 69.2441 153.914C68.9702 153.46 68.586 153.087 68.1293 152.833Z" fill="#473F47"/>
<path fill-rule="evenodd" clip-rule="evenodd" d="M68.4995 152.058C68.4949 151.951 68.4561 151.849 68.3892 151.767C68.3222 151.686 68.2309 151.629 68.1294 151.606C68.0906 151.597 68.0504 151.595 68.0111 151.602C67.9718 151.608 67.9341 151.623 67.9003 151.644C67.8665 151.666 67.8371 151.694 67.814 151.728C67.7908 151.761 67.7744 151.799 67.7655 151.839C67.7624 151.866 67.7624 151.895 67.7655 151.923V154.634C67.7701 154.74 67.8089 154.843 67.8758 154.924C67.9428 155.006 68.0341 155.063 68.1356 155.085C68.1752 155.094 68.216 155.094 68.2557 155.087C68.2954 155.079 68.3332 155.063 68.367 155.04C68.4008 155.018 68.4299 154.988 68.4526 154.954C68.4753 154.92 68.4913 154.881 68.4995 154.84C68.5026 154.817 68.5026 154.793 68.4995 154.769V152.058Z" fill="white"/>
<path fill-rule="evenodd" clip-rule="evenodd" d="M58.8013 145.106C58.7987 144.999 58.7605 144.897 58.6931 144.815C58.6257 144.734 58.5332 144.68 58.4312 144.66C58.3933 144.651 58.3539 144.649 58.3153 144.655C58.2768 144.661 58.2398 144.675 58.2065 144.696C58.1733 144.717 58.1444 144.745 58.1216 144.778C58.0988 144.81 58.0825 144.847 58.0736 144.886C58.0705 144.914 58.0705 144.942 58.0736 144.97V147.681C58.0768 147.788 58.1143 147.89 58.1802 147.972C58.2461 148.053 58.3366 148.11 58.4375 148.133C58.4762 148.143 58.5164 148.144 58.5557 148.138C58.595 148.131 58.6327 148.117 58.6665 148.095C58.7004 148.074 58.7297 148.045 58.7528 148.012C58.776 147.979 58.7925 147.941 58.8013 147.901C58.8044 147.873 58.8044 147.845 58.8013 147.817V145.106Z" fill="white"/>
<path fill-rule="evenodd" clip-rule="evenodd" d="M69.7479 142.014L69.5471 141.504L59.3657 145.293L59.5665 145.803L69.7479 142.014ZM71.8431 143.621L61.6617 147.41L61.461 146.901L71.6424 143.111L71.8431 143.621ZM74.0387 145.113L63.8573 148.902L63.6566 148.392L73.8317 144.596L74.0325 145.106L74.0387 145.113ZM76.7425 147.049L66.5611 150.838L66.3603 150.328L76.548 146.578L76.7487 147.088L76.7425 147.049ZM69.3464 153.007L69.1456 152.497L79.327 148.708L79.5278 149.218L69.3464 153.007Z" fill="url(#paint34_linear_205_4570)"/>
<path fill-rule="evenodd" clip-rule="evenodd" d="M71.9747 149.611L72.922 139.877L85.9075 134.713L82.2502 145.532L71.9747 149.637V149.611ZM82.9528 146.068L86.9927 134.113C87.0247 133.997 87.018 133.874 86.9736 133.763C86.9293 133.651 86.8498 133.559 86.7481 133.5C86.6515 133.447 86.5391 133.436 86.4344 133.467L72.3699 139.09C72.3091 139.117 72.2566 139.161 72.218 139.217C72.1793 139.273 72.156 139.338 72.1504 139.406L71.1027 150.192C71.0942 150.312 71.1247 150.431 71.1895 150.53C71.2544 150.63 71.3497 150.704 71.4603 150.741C71.5314 150.767 71.6088 150.767 71.6799 150.741L82.752 146.313C82.8016 146.291 82.8455 146.257 82.8803 146.214C82.9151 146.172 82.9399 146.122 82.9528 146.068Z" fill="white"/>
<path fill-rule="evenodd" clip-rule="evenodd" d="M83.0408 135.172L80.5629 146.532C80.5508 146.592 80.5593 146.654 80.5867 146.709C80.6142 146.763 80.6589 146.805 80.7134 146.829C80.7544 146.848 80.8005 146.849 80.8425 146.833C80.8844 146.818 80.919 146.786 80.9393 146.745C80.942 146.731 80.942 146.715 80.9393 146.7L83.4486 135.333C83.4579 135.274 83.4482 135.214 83.421 135.162C83.3938 135.109 83.3506 135.067 83.298 135.043C83.257 135.024 83.2109 135.023 83.169 135.039C83.127 135.054 83.0924 135.086 83.0722 135.126C83.0694 135.141 83.0694 135.157 83.0722 135.172H83.0408ZM80.1802 136.321C80.1865 136.275 80.2094 136.234 80.2444 136.205C80.2794 136.176 80.3238 136.162 80.3684 136.166H80.4123C80.4661 136.188 80.5112 136.228 80.5407 136.279C80.5702 136.331 80.5824 136.391 80.5754 136.45L78.8189 147.514C78.8173 147.537 78.8114 147.559 78.8014 147.579C78.7913 147.6 78.7775 147.618 78.7606 147.633C78.7437 147.648 78.7241 147.66 78.7028 147.667C78.6816 147.674 78.6593 147.677 78.637 147.675H78.5868C78.5319 147.652 78.486 147.612 78.4564 147.559C78.4268 147.506 78.4153 147.445 78.4237 147.385L80.1802 136.321ZM75.1617 138.348L73.907 149.218C73.9012 149.278 73.9155 149.338 73.9474 149.388C73.9794 149.439 74.0271 149.477 74.0827 149.495C74.1259 149.508 74.1721 149.503 74.2118 149.481C74.2514 149.459 74.2816 149.423 74.296 149.379C74.299 149.364 74.299 149.349 74.296 149.334L75.5506 138.464C75.5564 138.404 75.5421 138.344 75.5102 138.293C75.4783 138.243 75.4306 138.205 75.375 138.186C75.3317 138.174 75.2855 138.179 75.2458 138.201C75.2062 138.222 75.1761 138.259 75.1617 138.302C75.1586 138.317 75.1586 138.333 75.1617 138.348ZM76.1591 148.301C76.1526 148.361 76.1657 148.422 76.1964 148.473C76.2271 148.525 76.2735 148.564 76.3285 148.585C76.3502 148.594 76.3736 148.598 76.397 148.597C76.4204 148.596 76.4433 148.59 76.4641 148.579C76.4849 148.568 76.5032 148.552 76.5177 148.533C76.5322 148.514 76.5425 148.492 76.548 148.469L78.0536 137.495C78.0613 137.435 78.0486 137.374 78.0178 137.323C77.987 137.271 77.9398 137.232 77.8842 137.211C77.8393 137.199 77.7916 137.205 77.7508 137.228C77.7099 137.251 77.6791 137.289 77.6647 137.334C77.6641 137.345 77.6641 137.356 77.6647 137.366L76.1591 148.301Z" fill="white"/>
<path d="M41.4181 84.5125C41.3105 84.6996 41.2302 84.9018 41.1797 85.1129C41.0337 85.466 40.9585 85.8458 40.9585 86.2296C40.9585 86.6133 41.0337 86.9932 41.1797 87.3463C41.2853 87.6294 41.4311 87.8948 41.6126 88.1338C41.7993 88.3738 42.0607 88.5403 42.3528 88.605C42.3838 88.6115 42.4158 88.6115 42.4469 88.605C42.4732 88.5929 42.4951 88.5726 42.5096 88.5469C42.5848 88.3498 42.5848 88.1308 42.5096 87.9337C42.3907 87.1586 42.4465 86.3657 42.6727 85.6164C42.7612 85.3412 42.8098 85.0541 42.817 84.7643C42.8264 84.6061 42.7821 84.4495 42.6917 84.3211C42.6013 84.1928 42.4704 84.1008 42.3214 84.0607C42.1441 84.0329 41.9627 84.0612 41.8014 84.1419C41.64 84.2226 41.5064 84.3519 41.4181 84.5125Z" fill="#96BFFC"/>
<path fill-rule="evenodd" clip-rule="evenodd" d="M51.4805 123.798L72.7842 139.206L72.4518 140.291L51.6749 124.947L51.4805 123.798Z" fill="white"/>
<path fill-rule="evenodd" clip-rule="evenodd" d="M56.53 128.375L58.5124 140.691L58.9264 140.82L57.3016 128.839L56.53 128.375Z" fill="white"/>
<path fill-rule="evenodd" clip-rule="evenodd" d="M60.3882 131.15L61.4672 142.995L61.8812 143.137L61.1598 131.622L60.3882 131.15Z" fill="white"/>
<path fill-rule="evenodd" clip-rule="evenodd" d="M64.1711 133.739L64.2966 145.016L64.7106 145.158L64.9427 134.223L64.1711 133.739Z" fill="white"/>
<path fill-rule="evenodd" clip-rule="evenodd" d="M66.9937 136.205L67.5206 147.675L67.9346 147.817L67.7653 136.682L66.9937 136.205Z" fill="white"/>
<path fill-rule="evenodd" clip-rule="evenodd" d="M71.3663 149.612L55.9343 138.135L55.8276 139.18L71.4604 150.741L71.3663 149.612Z" fill="white"/>
<path d="M29.2545 57.4145V68.3429C29.2462 68.8431 29.3338 69.34 29.5121 69.8053C29.6905 70.2707 29.9562 70.6953 30.2941 71.055C30.632 71.4146 31.0354 71.7022 31.4813 71.9014C31.9272 72.1006 32.4069 72.2075 32.893 72.2159H41.0482L44.718 77.6833V72.2159H51.6185C52.1056 72.2092 52.5867 72.1036 53.034 71.9051C53.4814 71.7067 53.8863 71.4193 54.2255 71.0595C54.5647 70.6996 54.8315 70.2744 55.0107 69.8083C55.1898 69.3421 55.2778 68.8441 55.2695 68.3429V57.3694C55.2829 56.358 54.9061 55.3825 54.2218 54.6565C53.5374 53.9305 52.6013 53.5133 51.6185 53.4963H32.8993C32.4091 53.5047 31.9255 53.613 31.4763 53.8149C31.0271 54.0169 30.6213 54.3085 30.2823 54.6728C29.9434 55.0372 29.678 55.4672 29.5016 55.9378C29.3252 56.4084 29.2412 56.9103 29.2545 57.4145Z" fill="white"/>
<path d="M40.7908 70.8087L40.8598 68.9496C39.9308 68.9045 39.0347 68.5815 38.2815 68.0201L38.7332 66.8195C39.4422 67.3553 40.2886 67.665 41.1672 67.7103C42.4218 67.7555 43.2436 67.0648 43.2812 66.0061C43.3189 64.9475 42.6539 64.3537 41.3993 63.7469C39.6741 62.9465 38.6202 62.0557 38.683 60.4742C38.7107 59.7357 39.0073 59.0349 39.5141 58.5111C40.0208 57.9872 40.7005 57.6788 41.4181 57.6469L41.4808 55.7878L42.5473 55.833L42.4845 57.6017C43.27 57.6466 44.0308 57.9002 44.6927 58.3376L44.2285 59.5447C43.5828 59.095 42.8249 58.8463 42.0454 58.8282C40.7218 58.7701 40.1635 59.5899 40.1635 60.3193C40.1258 61.2682 40.7469 61.7652 42.2022 62.4882C43.9525 63.3273 44.8056 64.3149 44.7115 65.9351C44.6794 66.704 44.3731 67.4338 43.8513 67.9851C43.3294 68.5364 42.6284 68.8706 41.8823 68.9238L41.8133 70.8216L40.7908 70.8087Z" fill="#96BFFC"/>
<defs>
<linearGradient id="paint0_linear_205_4570" x1="59.1836" y1="120.68" x2="61.236" y2="251.896" gradientUnits="userSpaceOnUse">
<stop offset="0.01"/>
<stop offset="0.08" stop-opacity="0.69"/>
<stop offset="0.21" stop-opacity="0.32"/>
<stop offset="1" stop-opacity="0"/>
</linearGradient>
<linearGradient id="paint1_linear_205_4570" x1="129.726" y1="158.094" x2="128.081" y2="159.294" gradientUnits="userSpaceOnUse">
<stop offset="0.01"/>
<stop offset="0.08" stop-opacity="0.69"/>
<stop offset="0.21" stop-opacity="0.32"/>
<stop offset="1" stop-opacity="0"/>
</linearGradient>
<linearGradient id="paint2_linear_205_4570" x1="283.476" y1="5.23208" x2="-134.831" y2="309.274" gradientUnits="userSpaceOnUse">
<stop offset="0.01"/>
<stop offset="0.08" stop-opacity="0.69"/>
<stop offset="0.21" stop-opacity="0.32"/>
<stop offset="1" stop-opacity="0"/>
</linearGradient>
<linearGradient id="paint3_linear_205_4570" x1="145.585" y1="96.8674" x2="100.769" y2="235.194" gradientUnits="userSpaceOnUse">
<stop offset="0.01"/>
<stop offset="0.08" stop-opacity="0.69"/>
<stop offset="0.21" stop-opacity="0.32"/>
<stop offset="1" stop-opacity="0"/>
</linearGradient>
<linearGradient id="paint4_linear_205_4570" x1="121.452" y1="70.4666" x2="148.962" y2="251.212" gradientUnits="userSpaceOnUse">
<stop offset="0.01"/>
<stop offset="0.08" stop-opacity="0.69"/>
<stop offset="0.21" stop-opacity="0.32"/>
<stop offset="1" stop-opacity="0"/>
</linearGradient>
<linearGradient id="paint5_linear_205_4570" x1="147.253" y1="95.7701" x2="168.455" y2="235.043" gradientUnits="userSpaceOnUse">
<stop offset="0.01"/>
<stop offset="0.08" stop-opacity="0.69"/>
<stop offset="0.21" stop-opacity="0.32"/>
<stop offset="1" stop-opacity="0"/>
</linearGradient>
<linearGradient id="paint6_linear_205_4570" x1="161.186" y1="137.179" x2="172.391" y2="165.191" gradientUnits="userSpaceOnUse">
<stop offset="0.01"/>
<stop offset="0.08" stop-opacity="0.69"/>
<stop offset="0.21" stop-opacity="0.32"/>
<stop offset="1" stop-opacity="0"/>
</linearGradient>
<linearGradient id="paint7_linear_205_4570" x1="114.005" y1="25.5716" x2="65.6539" y2="435.96" gradientUnits="userSpaceOnUse">
<stop offset="0.01"/>
<stop offset="0.08" stop-opacity="0.69"/>
<stop offset="0.21" stop-opacity="0.32"/>
<stop offset="1" stop-opacity="0"/>
</linearGradient>
<linearGradient id="paint8_linear_205_4570" x1="125.297" y1="42.9165" x2="48.6883" y2="171.012" gradientUnits="userSpaceOnUse">
<stop offset="0.01"/>
<stop offset="0.08" stop-opacity="0.69"/>
<stop offset="0.21" stop-opacity="0.32"/>
<stop offset="1" stop-opacity="0"/>
</linearGradient>
<linearGradient id="paint9_linear_205_4570" x1="103.435" y1="52.2246" x2="127.696" y2="129.316" gradientUnits="userSpaceOnUse">
<stop offset="0.01"/>
<stop offset="0.08" stop-opacity="0.69"/>
<stop offset="0.21" stop-opacity="0.32"/>
<stop offset="1" stop-opacity="0"/>
</linearGradient>
<linearGradient id="paint10_linear_205_4570" x1="111.427" y1="73.5067" x2="217.756" y2="177.499" gradientUnits="userSpaceOnUse">
<stop stop-color="white" stop-opacity="0"/>
<stop offset="0.54" stop-color="white"/>
</linearGradient>
<linearGradient id="paint11_linear_205_4570" x1="125.448" y1="139.309" x2="122.266" y2="76.3236" gradientUnits="userSpaceOnUse">
<stop offset="0.01"/>
<stop offset="0.13" stop-opacity="0.69"/>
<stop offset="0.25" stop-opacity="0.32"/>
<stop offset="1" stop-opacity="0"/>
</linearGradient>
<linearGradient id="paint12_linear_205_4570" x1="167.34" y1="143.563" x2="156.84" y2="118.521" gradientUnits="userSpaceOnUse">
<stop offset="0.01"/>
<stop offset="0.13" stop-opacity="0.69"/>
<stop offset="0.25" stop-opacity="0.32"/>
<stop offset="1" stop-opacity="0"/>
</linearGradient>
<linearGradient id="paint13_linear_205_4570" x1="46.2861" y1="132.409" x2="60.2001" y2="132.409" gradientUnits="userSpaceOnUse">
<stop offset="0.01"/>
<stop offset="0.08" stop-opacity="0.69"/>
<stop offset="0.21" stop-opacity="0.32"/>
<stop offset="1" stop-opacity="0"/>
</linearGradient>
<linearGradient id="paint14_linear_205_4570" x1="40.5022" y1="132.538" x2="45.7842" y2="132.538" gradientUnits="userSpaceOnUse">
<stop offset="0.01"/>
<stop offset="0.08" stop-opacity="0.69"/>
<stop offset="0.21" stop-opacity="0.32"/>
<stop offset="1" stop-opacity="0"/>
</linearGradient>
<linearGradient id="paint15_linear_205_4570" x1="38.8083" y1="94.3307" x2="53.2977" y2="133.689" gradientUnits="userSpaceOnUse">
<stop offset="0.01"/>
<stop offset="0.08" stop-opacity="0.69"/>
<stop offset="0.21" stop-opacity="0.32"/>
<stop offset="1" stop-opacity="0"/>
</linearGradient>
<linearGradient id="paint16_linear_205_4570" x1="77.6207" y1="154.188" x2="87.5683" y2="111.786" gradientUnits="userSpaceOnUse">
<stop stop-color="white" stop-opacity="0"/>
<stop offset="0.54" stop-color="white"/>
</linearGradient>
<linearGradient id="paint17_linear_205_4570" x1="76.316" y1="153.885" x2="86.2636" y2="111.482" gradientUnits="userSpaceOnUse">
<stop stop-color="white" stop-opacity="0"/>
<stop offset="0.54" stop-color="white"/>
</linearGradient>
<linearGradient id="paint18_linear_205_4570" x1="78.48" y1="154.395" x2="88.421" y2="111.986" gradientUnits="userSpaceOnUse">
<stop stop-color="white" stop-opacity="0"/>
<stop offset="0.54" stop-color="white"/>
</linearGradient>
<linearGradient id="paint19_linear_205_4570" x1="77.1125" y1="154.072" x2="87.0601" y2="111.67" gradientUnits="userSpaceOnUse">
<stop stop-color="white" stop-opacity="0"/>
<stop offset="0.54" stop-color="white"/>
</linearGradient>
<linearGradient id="paint20_linear_205_4570" x1="76.8301" y1="154.007" x2="86.7711" y2="111.598" gradientUnits="userSpaceOnUse">
<stop stop-color="white" stop-opacity="0"/>
<stop offset="0.54" stop-color="white"/>
</linearGradient>
<linearGradient id="paint21_linear_205_4570" x1="70.0111" y1="152.407" x2="79.9587" y2="110.004" gradientUnits="userSpaceOnUse">
<stop stop-color="white" stop-opacity="0"/>
<stop offset="0.54" stop-color="white"/>
</linearGradient>
<linearGradient id="paint22_linear_205_4570" x1="70.3499" y1="152.49" x2="80.2909" y2="110.081" gradientUnits="userSpaceOnUse">
<stop stop-color="white" stop-opacity="0"/>
<stop offset="0.54" stop-color="white"/>
</linearGradient>
<linearGradient id="paint23_linear_205_4570" x1="54.8805" y1="148.856" x2="64.8215" y2="106.454" gradientUnits="userSpaceOnUse">
<stop stop-color="white" stop-opacity="0"/>
<stop offset="0.54" stop-color="white"/>
</linearGradient>
<linearGradient id="paint24_linear_205_4570" x1="55.5766" y1="149.018" x2="65.5242" y2="106.615" gradientUnits="userSpaceOnUse">
<stop stop-color="white" stop-opacity="0"/>
<stop offset="0.54" stop-color="white"/>
</linearGradient>
<linearGradient id="paint25_linear_205_4570" x1="61.0094" y1="150.296" x2="70.9569" y2="107.893" gradientUnits="userSpaceOnUse">
<stop stop-color="white" stop-opacity="0"/>
<stop offset="0.54" stop-color="white"/>
</linearGradient>
<linearGradient id="paint26_linear_205_4570" x1="50.0186" y1="147.72" x2="59.9662" y2="105.311" gradientUnits="userSpaceOnUse">
<stop stop-color="white" stop-opacity="0"/>
<stop offset="0.54" stop-color="white"/>
</linearGradient>
<linearGradient id="paint27_linear_205_4570" x1="58.5313" y1="149.715" x2="68.4788" y2="107.306" gradientUnits="userSpaceOnUse">
<stop stop-color="white" stop-opacity="0"/>
<stop offset="0.54" stop-color="white"/>
</linearGradient>
<linearGradient id="paint28_linear_205_4570" x1="57.2265" y1="149.411" x2="67.174" y2="107.002" gradientUnits="userSpaceOnUse">
<stop stop-color="white" stop-opacity="0"/>
<stop offset="0.54" stop-color="white"/>
</linearGradient>
<linearGradient id="paint29_linear_205_4570" x1="59.3968" y1="149.915" x2="69.3378" y2="107.512" gradientUnits="userSpaceOnUse">
<stop stop-color="white" stop-opacity="0"/>
<stop offset="0.54" stop-color="white"/>
</linearGradient>
<linearGradient id="paint30_linear_205_4570" x1="58.0168" y1="149.599" x2="67.9643" y2="107.19" gradientUnits="userSpaceOnUse">
<stop stop-color="white" stop-opacity="0"/>
<stop offset="0.54" stop-color="white"/>
</linearGradient>
<linearGradient id="paint31_linear_205_4570" x1="69.2271" y1="152.226" x2="79.1681" y2="109.817" gradientUnits="userSpaceOnUse">
<stop stop-color="white" stop-opacity="0"/>
<stop offset="0.54" stop-color="white"/>
</linearGradient>
<linearGradient id="paint32_linear_205_4570" x1="67.9036" y1="151.916" x2="77.8447" y2="109.507" gradientUnits="userSpaceOnUse">
<stop stop-color="white" stop-opacity="0"/>
<stop offset="0.54" stop-color="white"/>
</linearGradient>
<linearGradient id="paint33_linear_205_4570" x1="70.0739" y1="152.419" x2="80.0215" y2="110.017" gradientUnits="userSpaceOnUse">
<stop stop-color="white" stop-opacity="0"/>
<stop offset="0.54" stop-color="white"/>
</linearGradient>
<linearGradient id="paint34_linear_205_4570" x1="68.3928" y1="152.026" x2="78.3404" y2="109.623" gradientUnits="userSpaceOnUse">
<stop stop-color="white" stop-opacity="0"/>
<stop offset="0.54" stop-color="white"/>
</linearGradient>
</defs>
</svg>
