<svg width="235" height="232" viewBox="0 0 235 232" fill="none" xmlns="http://www.w3.org/2000/svg">
<path d="M228.61 195.929C228.329 196.505 228.049 197.047 227.769 197.601C224.043 204.811 219.173 211.831 212.079 215.468C202.721 220.298 191.57 218.35 181.26 216.557C162.051 213.208 142.388 210.759 123.14 213.86C94.3653 218.471 66.6221 235.433 37.9655 230.171C27.8855 228.308 18.4544 223.766 10.609 216.995C7.6559 214.436 4.90456 211.52 3.15625 207.981C1.28466 204.286 0.629045 200.096 0.371282 195.929C0.371282 195.601 0.326453 195.266 0.315246 194.944C-0.324681 181.516 2.20951 168.129 7.70073 155.93C12.3405 145.648 19.1208 136.086 20.8018 124.887C23.0433 110.069 15.9436 95.3083 16.3862 80.3229C16.6779 72.9797 18.7449 65.8272 22.4002 59.5124C26.0555 53.1976 31.1838 47.9197 37.3211 44.1564C46.0178 38.9691 56.2555 37.1075 65.5742 33.1306C72.6657 30.0917 79.2001 25.8287 84.8953 20.5256C89.4846 16.2836 92.8019 9.90907 97.8563 6.3414C106.973 -0.0792456 124.641 -2.30399 134.391 2.88324C139.799 5.76504 143.761 10.7794 148.019 15.2577C159.098 26.8886 172.86 35.3669 185.339 45.3898C197.818 55.4127 209.507 67.7813 213.811 83.4295C218.198 99.3716 214.416 116.858 219.19 132.662C223.225 146.051 233.199 157.503 234.32 171.474C235.015 179.975 232.33 188.327 228.61 195.929Z" fill="#96BFFC"/>
<path opacity="0.55" d="M228.609 195.929C228.329 196.506 228.049 197.047 227.769 197.601C224.043 204.811 219.173 211.831 212.079 215.468C202.721 220.298 191.57 218.35 181.259 216.557C162.05 213.208 142.388 210.759 123.139 213.86C94.3651 218.471 66.6219 235.433 37.9653 230.171C27.8853 228.308 18.4542 223.766 10.6088 216.995C7.65571 214.436 4.90437 211.52 3.15606 207.981C1.28447 204.286 0.628857 200.096 0.371094 195.929H228.609Z" fill="#66A3FF"/>
<path d="M27.3412 211.906C29.7339 214.678 33.6956 215.197 37.2931 215.468C54.0847 216.741 70.9477 216.648 87.7251 215.191C93.889 214.655 100.081 213.929 106.189 212.811C113.602 211.451 120.926 209.503 128.418 208.748C151.869 206.385 175.74 215.768 198.816 210.863C201.477 210.286 204.531 209.134 205.209 206.413C205.809 204.044 204.122 201.572 201.976 200.506C199.83 199.439 197.353 199.445 194.972 199.468C145.868 199.906 96.7636 200.54 47.6597 200.782C43.7372 200.782 39.5065 200.281 35.7521 201.687C32.6253 202.863 23.8726 207.895 27.3412 211.906Z" fill="url(#paint0_linear_205_4713)"/>
<path d="M80.8607 28.8308H43.8212C36.4897 28.8308 30.5464 34.9439 30.5464 42.4848V192.165C30.5464 199.706 36.4897 205.819 43.8212 205.819H80.8607C88.1922 205.819 94.1355 199.706 94.1355 192.165V42.4848C94.1355 34.9439 88.1922 28.8308 80.8607 28.8308Z" fill="#66A3FF"/>
<path d="M80.8607 28.8308H43.8212C36.4897 28.8308 30.5464 34.9439 30.5464 42.4848V192.165C30.5464 199.706 36.4897 205.819 43.8212 205.819H80.8607C88.1922 205.819 94.1355 199.706 94.1355 192.165V42.4848C94.1355 34.9439 88.1922 28.8308 80.8607 28.8308Z" fill="url(#paint1_linear_205_4713)"/>
<path d="M104.85 28.8308H54.653C46.4303 28.8308 39.7644 35.6871 39.7644 44.1447V190.505C39.7644 198.963 46.4303 205.819 54.653 205.819H104.85C113.072 205.819 119.738 198.963 119.738 190.505V44.1447C119.738 35.6871 113.072 28.8308 104.85 28.8308Z" fill="#66A3FF"/>
<path d="M114.449 42.1621H46.3149V192.217H114.449V42.1621Z" fill="white"/>
<path d="M126.888 163.751L127.124 197.313L123.683 197.647C123.683 197.647 119.228 182.99 119.761 180.788C120.293 178.587 121.442 173.371 121.442 173.371C121.442 173.371 118.08 166.777 118.192 164.725C118.302 163.428 118.766 162.19 119.531 161.152L126.888 163.751Z" fill="#F3BD8F"/>
<path d="M112.549 163.751C112.549 163.751 112.549 169.065 112.017 170.345C111.484 171.624 97.2288 194.897 97.2288 194.897L95.1331 193.019C95.1331 193.019 99.0107 176.759 101.857 173.463L104.704 170.166L105.141 163.105L112.549 163.751Z" fill="#F3BD8F"/>
<path d="M107.422 82.4209C107.287 80.8647 106.676 79.4584 106.973 77.81C107.478 74.9916 110.055 72.9167 112.784 72.3404C115.513 71.764 118.354 72.421 120.982 73.3778C122.743 73.9433 124.379 74.8556 125.801 76.0636C129.27 79.2682 129.679 84.5822 131.03 89.1758C131.556 90.9568 132.33 92.7838 133.831 93.8501C135.798 95.2679 138.449 95.0028 140.735 95.7405C142.174 96.2355 143.453 97.1279 144.433 98.3203C145.412 99.5126 146.054 100.959 146.288 102.501C146.663 105.227 145.812 108.392 147.532 110.501C148.429 111.602 149.88 112.161 150.631 113.383C151.005 114.069 151.246 114.822 151.342 115.602C151.774 117.965 151.903 120.864 150.037 122.288C149.094 122.877 148.014 123.196 146.91 123.21C144.237 123.452 141.48 123.458 138.947 122.564C136.672 121.757 134.694 120.259 132.755 118.806C128.777 115.792 124.782 112.766 121.19 109.273C118.948 107.101 116.853 104.853 114.465 102.853C112.868 101.516 111.664 99.2275 110.078 98.0806C109.26 97.5042 108.262 97.5042 107.455 96.7204C106.82 96.0802 106.348 95.2881 106.082 94.4149C105.483 92.415 105.825 90.2594 106.318 88.2363C106.738 86.5073 107.562 84.4842 107.439 82.6802L107.422 82.4209Z" fill="#3E3E54"/>
<path d="M124.843 85.787C125.595 87.6612 126.218 89.5871 126.709 91.5506C127.269 93.4929 128.031 95.4352 129.359 96.9395C130.073 97.6314 130.743 98.3687 131.366 99.147C132.582 100.963 132.441 103.441 131.691 105.487C131.321 106.496 130.671 107.568 129.634 107.735C128.597 107.902 127.74 107.158 126.995 106.444L118.999 98.951C117.878 98.008 116.906 96.892 116.118 95.6427C115.082 93.7926 114.902 91.5448 115.132 89.418C115.271 87.5736 115.849 85.7924 116.813 84.2308C117.586 83.0781 119.542 81.009 121.083 81.4643C122.787 82.0118 124.159 84.2942 124.843 85.787Z" fill="url(#paint2_linear_205_4713)"/>
<path d="M130.721 130.847L149.829 130.587L156.839 152.933L165.328 183.705H146.383L130.721 130.847ZM154.57 153.665L148.109 133.072L133.915 133.267L148.137 181.29H162.185L154.57 153.665Z" fill="#66A3FF"/>
<path d="M188.337 122.616H158.414V178.679H188.337V122.616Z" fill="#66A3FF"/>
<path d="M188.337 122.616H158.414V178.679H188.337V122.616Z" fill="url(#paint3_linear_205_4713)"/>
<path d="M182.33 122.755V139.383L171.51 178.408H186.202L189.413 166.587L188.343 122.616L182.33 122.755Z" fill="url(#paint4_linear_205_4713)"/>
<path d="M212.469 133.917L188.98 127.09L176.888 171.1L200.377 177.928L212.469 133.917Z" fill="#66A3FF"/>
<path d="M212.47 133.85L188.981 127.023L176.889 171.034L200.378 177.861L212.47 133.85Z" fill="url(#paint5_linear_205_4713)"/>
<path d="M160.398 200.085C159.862 199.173 159.688 198.084 159.913 197.044C160.137 196.004 160.742 195.093 161.602 194.5C162.462 193.906 163.511 193.677 164.532 193.858C165.552 194.039 166.466 194.618 167.083 195.474C167.407 195.924 167.64 196.438 167.766 196.983C167.892 197.528 167.909 198.095 167.816 198.647C167.723 199.2 167.522 199.727 167.226 200.197C166.929 200.667 166.542 201.071 166.09 201.383C165.637 201.695 165.127 201.91 164.592 202.014C164.056 202.118 163.506 202.109 162.973 201.987C162.441 201.866 161.939 201.634 161.496 201.307C161.053 200.98 160.679 200.564 160.398 200.085ZM165.116 196.828C164.934 196.539 164.673 196.312 164.365 196.176C164.057 196.04 163.717 196.002 163.388 196.067C163.059 196.131 162.756 196.296 162.518 196.538C162.281 196.781 162.119 197.091 162.054 197.429C161.989 197.767 162.023 198.118 162.153 198.435C162.283 198.753 162.502 199.023 162.782 199.212C163.062 199.401 163.391 199.499 163.726 199.494C164.061 199.489 164.387 199.382 164.662 199.185C165.02 198.93 165.267 198.541 165.352 198.101C165.437 197.661 165.352 197.205 165.116 196.828Z" fill="#2E2E3F"/>
<path d="M189.911 200.085C189.358 199.172 189.171 198.074 189.391 197.022C189.61 195.97 190.219 195.048 191.087 194.449C191.956 193.85 193.017 193.622 194.046 193.814C195.075 194.005 195.992 194.6 196.602 195.474C197.155 196.386 197.342 197.485 197.123 198.536C196.903 199.588 196.295 200.511 195.426 201.109C194.557 201.708 193.496 201.936 192.467 201.745C191.438 201.553 190.522 200.958 189.911 200.085ZM194.63 196.828C194.447 196.539 194.186 196.312 193.877 196.177C193.569 196.042 193.229 196.005 192.9 196.07C192.571 196.136 192.268 196.301 192.031 196.544C191.794 196.787 191.633 197.098 191.569 197.436C191.504 197.774 191.54 198.124 191.67 198.442C191.801 198.759 192.021 199.029 192.301 199.217C192.582 199.405 192.911 199.502 193.246 199.497C193.581 199.491 193.907 199.383 194.181 199.185C194.538 198.929 194.785 198.54 194.868 198.1C194.952 197.66 194.866 197.204 194.63 196.828Z" fill="#2E2E3F"/>
<path d="M130.816 115.896C130.961 116.376 131.168 116.834 131.433 117.256C131.965 117.909 132.642 118.423 133.405 118.755C136.409 120.345 141.009 122.051 143.542 124.345C143.855 124.596 144.113 124.912 144.299 125.273C144.663 126.086 144.299 127.002 143.962 127.85C143.81 128.313 143.541 128.726 143.183 129.048C142.533 129.532 141.631 129.325 140.864 129.089C137.894 128.183 134.974 127.113 132.116 125.884C130.521 125.224 128.971 124.454 127.477 123.579C126.905 123.321 126.411 122.912 126.046 122.392C125.68 121.872 125.456 121.261 125.398 120.622C124.856 117.666 124.493 114.679 124.311 111.677L123.75 104.616C123.644 103.256 119.626 98.5128 120.836 97.5734C123.201 95.7463 126.653 100.72 127.196 101.74C128.715 104.611 130.222 114.155 130.816 115.896Z" fill="#66A3FF"/>
<path d="M130.816 115.896C130.961 116.376 131.168 116.834 131.433 117.256C131.965 117.909 132.642 118.423 133.405 118.755C136.409 120.345 141.009 122.051 143.542 124.345C143.855 124.596 144.113 124.912 144.299 125.273C144.663 126.086 144.299 127.002 143.962 127.85C143.81 128.313 143.541 128.726 143.183 129.048C142.533 129.532 141.631 129.325 140.864 129.089C137.894 128.183 134.974 127.113 132.116 125.884C130.521 125.224 128.971 124.454 127.477 123.579C126.905 123.321 126.411 122.912 126.046 122.392C125.68 121.872 125.456 121.261 125.398 120.622C124.856 117.666 124.493 114.679 124.311 111.677L123.75 104.616C123.644 103.256 119.626 98.5128 120.836 97.5734C123.201 95.7463 126.653 100.72 127.196 101.74C128.715 104.611 130.222 114.155 130.816 115.896Z" fill="url(#paint6_linear_205_4713)"/>
<path d="M128.95 161.353C128.996 161.925 128.858 162.496 128.558 162.979C128.239 163.311 127.835 163.543 127.392 163.647C125.151 164.373 106.099 165.111 102.541 164.431C101.157 159.175 101.106 153.619 101.801 148.218C102.076 146.114 102.479 143.97 103.561 142.166C103.834 141.671 104.218 141.25 104.681 140.939C105.366 140.602 106.126 140.456 106.883 140.518C112.375 140.46 117.962 140.328 123.42 141.129C125.101 141.377 126.014 141.924 126.608 143.636C127.464 146.336 128.061 149.116 128.39 151.936C128.818 155.055 129.006 158.204 128.95 161.353Z" fill="#2E2E3F"/>
<path d="M102.552 164.431L103.404 164.581C103.607 164.472 103.806 164.353 103.998 164.224C104.466 163.956 104.861 163.571 105.146 163.106C105.353 162.629 105.453 162.111 105.438 161.59C105.595 157.238 104.788 152.818 105.651 148.553C105.959 147.019 106.575 145.636 107.012 144.161C107.416 142.812 106.519 142.005 105.46 141.215C105.275 141.071 105.076 140.946 104.866 140.841L104.676 140.939C104.21 141.247 103.825 141.669 103.555 142.166C102.468 143.97 102.064 146.115 101.79 148.218C101.117 153.613 101.162 159.175 102.552 164.431Z" fill="url(#paint7_linear_205_4713)"/>
<path d="M116.062 93.4123C116.089 94.2932 116.428 95.1338 117.015 95.7754C117.889 96.5823 119.217 96.5362 120.304 96.9857C120.443 97.0345 120.57 97.1153 120.674 97.222C120.754 97.3211 120.812 97.4373 120.842 97.5621C120.979 98.1514 120.934 98.7698 120.713 99.3315C120.378 100.17 119.869 100.924 119.222 101.539C118.574 102.154 117.804 102.616 116.965 102.893C115.279 103.433 113.495 103.561 111.753 103.268C111.162 103.232 110.587 103.056 110.072 102.755C109.533 102.335 109.105 101.782 108.828 101.147C108.487 100.568 108.26 99.9259 108.161 99.2566C108.116 98.9212 108.155 98.5794 108.276 98.2643C108.397 97.9492 108.595 97.6716 108.851 97.4583C109.091 97.3051 109.349 97.1831 109.618 97.0952C110.04 96.9254 110.445 96.7151 110.829 96.467C111.22 96.2615 111.527 95.9178 111.692 95.4987C111.755 95.1405 111.74 94.7723 111.647 94.4209C111.434 93.234 111.434 92.0171 111.647 90.8302C111.698 90.4787 111.804 90.1381 111.961 89.8216C112.106 89.5503 112.31 89.3169 112.556 89.1392C112.803 88.9615 113.086 88.8442 113.383 88.7963C113.681 88.7485 113.985 88.7713 114.273 88.8631C114.56 88.9549 114.824 89.1132 115.043 89.3259C116.146 90.3749 115.911 92.0348 116.062 93.4123Z" fill="#F3BD8F"/>
<path d="M121.29 87.0836C121.357 87.8923 121.291 88.7068 121.094 89.4928C120.534 91.3602 118.612 92.5648 116.712 92.6455C116.089 92.6959 115.465 92.5746 114.902 92.2939C114.582 92.1004 114.284 91.8682 114.017 91.6023C112.689 90.3516 111.467 88.8588 111.064 87.0548C110.925 86.369 110.866 85.6685 110.89 84.9684C110.873 83.94 111.045 82.9175 111.395 81.954C111.751 81.0985 112.316 80.3525 113.036 79.7889C113.756 79.2252 114.605 78.8631 115.502 78.7379C117.346 78.4958 119.066 79.4526 120.411 80.6399C121.083 81.2163 120.971 82.4093 121.066 83.2969C121.167 84.5592 121.251 85.8214 121.29 87.0836Z" fill="#F3BD8F"/>
<path d="M103.858 142.61C104.71 143.21 105.683 143.604 106.704 143.763C112.155 145.005 117.805 144.995 123.251 143.734C124.372 143.463 125.655 143.037 126.148 141.942C126.371 141.342 126.456 140.696 126.395 140.057C126.268 134.028 126.137 127.996 126.003 121.959C125.857 115.101 125.711 108.219 124.731 101.435C124.442 100.035 123.903 98.7016 123.139 97.5044C122.501 96.611 119.62 97.0894 117.216 95.4871C116.555 95.0491 117.99 97.3199 115.832 98.2594C113.675 99.1989 111.103 94.6572 109.736 96.49C108.968 97.5159 106.542 96.7551 105.774 97.7753C105.158 98.5937 104.777 100.329 104.536 102.415C104.02 106.853 104.149 112.876 104.037 115.066C103.633 122.732 104.261 132.512 101.795 138.847C101.269 140.218 102.742 141.705 103.858 142.61Z" fill="#66A3FF"/>
<path d="M103.858 142.61C104.71 143.209 105.683 143.603 106.704 143.763C108.065 144.073 109.442 144.305 110.828 144.46L111.221 144.408C110.206 141.008 110.156 137.4 110.184 133.844C110.206 131.884 110.238 129.92 110.279 127.953C110.279 126.714 110.346 125.411 110.968 124.351C111.59 123.29 113.003 122.622 114.039 123.262C112.257 122.155 110.8 117.498 110.072 115.579C109.022 112.809 108.286 109.923 107.881 106.979C107.601 104.962 107.707 101.406 104.698 102.369L104.536 102.426C104.02 106.864 104.149 112.887 104.037 115.077C103.633 122.743 104.261 132.524 101.795 138.858C101.269 140.218 102.742 141.705 103.858 142.61Z" fill="url(#paint8_linear_205_4713)"/>
<path d="M124.019 197.261C123.847 197.277 123.687 197.359 123.571 197.491C123.502 197.634 123.475 197.794 123.492 197.952C123.492 198.921 122.887 199.814 122.932 200.777C122.932 201.647 123.492 202.454 123.408 203.318C123.408 203.491 123.364 203.687 123.481 203.808C123.559 203.875 123.655 203.917 123.756 203.929C126.139 204.394 128.532 204.803 130.934 205.157C131.378 205.275 131.848 205.222 132.256 205.007C132.443 204.856 132.588 204.657 132.677 204.431C133.327 203.065 132.749 201.399 131.87 200.183C129.696 197.232 127.611 196.517 124.019 197.261Z" fill="#2E2E3F"/>
<path d="M90.8745 197.111C91.0408 197.893 91.4717 198.59 92.0904 199.076C93.6186 200.523 95.363 201.708 97.2569 202.586C97.6408 202.806 98.08 202.902 98.5177 202.863C98.8458 202.76 99.1326 202.551 99.3348 202.266C99.5369 201.981 99.6435 201.636 99.6384 201.284C99.6134 200.575 99.4333 199.882 99.1117 199.255C98.1983 197.076 97.5595 193.877 95.1164 193.019C92.9982 192.281 90.6447 194.944 90.8745 197.111Z" fill="#2E2E3F"/>
<path d="M123.975 197.261C123.802 197.277 123.642 197.359 123.526 197.491C123.458 197.634 123.43 197.794 123.448 197.952C123.448 198.921 122.843 199.814 122.888 200.777C122.916 201.647 123.448 202.454 123.364 203.318C123.364 203.491 123.319 203.687 123.437 203.808C123.515 203.875 123.61 203.917 123.711 203.929C126.095 204.394 128.487 204.803 130.89 205.157C131.333 205.275 131.804 205.222 132.212 205.007C132.398 204.856 132.543 204.657 132.632 204.431C133.282 203.065 132.705 201.399 131.825 200.183C129.651 197.232 127.567 196.517 123.975 197.261Z" fill="url(#paint9_linear_205_4713)"/>
<path d="M92.0903 199.076C93.6185 200.523 95.3629 201.709 97.2568 202.586C97.6407 202.806 98.0799 202.902 98.5176 202.863" fill="url(#paint10_linear_205_4713)"/>
<path d="M108.509 115.371C108.428 115.983 108.491 116.606 108.693 117.187C109.035 117.994 109.814 118.478 110.576 118.916L127.387 128.714C128.177 129.175 129.018 129.694 129.354 130.564C130.093 132.495 127.774 134.264 125.762 134.42C123.649 134.581 121.565 133.924 119.564 133.215C113.241 130.971 107.133 128.129 101.319 124.726C100.6 124.452 99.9963 123.926 99.6143 123.242C99.2324 122.557 99.0961 121.757 99.2291 120.979C99.2136 116.201 99.5696 111.429 100.294 106.709C100.692 104.127 101.258 101.435 102.939 99.4695C105.438 96.5532 110.016 96.4609 110.408 100.749C110.879 105.579 108.828 110.559 108.509 115.371Z" fill="#66A3FF"/>
<path d="M108.509 115.371C108.428 115.983 108.491 116.606 108.693 117.187C109.035 117.994 109.814 118.478 110.576 118.916L127.387 128.714C128.177 129.175 129.018 129.694 129.354 130.564C130.093 132.495 127.774 134.264 125.762 134.42C123.649 134.581 121.565 133.924 119.564 133.215C113.241 130.971 107.133 128.129 101.319 124.726C100.6 124.452 99.9963 123.926 99.6143 123.242C99.2324 122.557 99.0961 121.757 99.2291 120.979C99.2136 116.201 99.5696 111.429 100.294 106.709C100.692 104.127 101.258 101.435 102.939 99.4695C105.438 96.5532 110.016 96.4609 110.408 100.749C110.879 105.579 108.828 110.559 108.509 115.371Z" fill="url(#paint11_linear_205_4713)"/>
<path d="M131.556 130.316C132.77 130.316 133.939 130.787 134.828 131.636C135.261 132.069 135.552 132.629 135.662 133.239C135.773 133.849 135.697 134.479 135.445 135.043C135.264 135.421 134.949 135.713 134.565 135.861C134.228 135.956 133.87 135.944 133.54 135.826C132.576 135.532 131.808 134.772 130.878 134.386C130.653 134.269 130.395 134.238 130.149 134.299C129.993 134.381 129.845 134.477 129.707 134.587C129.512 134.7 129.294 134.762 129.071 134.77C128.847 134.778 128.626 134.731 128.424 134.633C128.022 134.432 127.684 134.118 127.449 133.728C127.107 133.238 126.942 132.641 126.983 132.04C127.079 131.112 127.6 130.818 128.379 130.72C129.426 130.502 130.488 130.367 131.556 130.316Z" fill="#F3BD8F"/>
<path d="M147.19 127.308C147.641 127.88 147.949 128.557 148.086 129.279C148.162 129.618 148.151 129.972 148.053 130.305C147.915 130.629 147.686 130.903 147.396 131.093C147.105 131.282 146.766 131.377 146.422 131.366C145.735 131.333 145.068 131.121 144.483 130.749C143.4 130.103 142.365 129.377 141.384 128.576C141.175 128.433 140.987 128.26 140.824 128.063C140.644 127.757 140.57 127.397 140.615 127.042C140.66 126.687 140.82 126.358 141.071 126.109C142.696 124.438 145.985 125.769 147.19 127.308Z" fill="#F3BD8F"/>
<path d="M150.367 140.195H217.912L202.396 183.693H162.404L150.367 140.195ZM214.517 142.633H153.505L164.191 181.249H200.738L214.517 142.633Z" fill="#66A3FF"/>
<path d="M133.433 140.195H202.133L186.611 183.693H146.619L133.433 140.195ZM198.743 142.633H137.726L148.412 181.249H184.986L198.743 142.633Z" fill="#66A3FF"/>
<path d="M146.422 195.854H192.792V193.416H148.798V182.471H146.422V195.854Z" fill="#66A3FF"/>
<path d="M161.944 195.854H199.695V193.416H164.314V182.471H161.944V195.854Z" fill="#66A3FF"/>
<path d="M150.042 197.773C150.042 196.954 150.279 196.152 150.722 195.471C151.165 194.789 151.794 194.258 152.531 193.944C153.267 193.631 154.078 193.549 154.859 193.709C155.641 193.87 156.359 194.265 156.922 194.845C157.485 195.425 157.869 196.164 158.023 196.969C158.178 197.773 158.098 198.606 157.792 199.363C157.486 200.12 156.969 200.767 156.305 201.222C155.642 201.677 154.863 201.919 154.066 201.917C152.998 201.914 151.976 201.477 151.222 200.7C150.468 199.923 150.044 198.871 150.042 197.773ZM152.413 197.773C152.407 198.118 152.502 198.456 152.684 198.745C152.867 199.033 153.129 199.26 153.437 199.394C153.746 199.528 154.086 199.565 154.415 199.499C154.743 199.433 155.045 199.268 155.282 199.025C155.519 198.781 155.68 198.47 155.743 198.132C155.807 197.794 155.772 197.444 155.641 197.127C155.51 196.81 155.291 196.54 155.01 196.353C154.729 196.165 154.4 196.067 154.066 196.073C153.629 196.081 153.213 196.262 152.905 196.579C152.596 196.897 152.42 197.325 152.413 197.773Z" fill="#2E2E3F"/>
<path d="M179.5 200.085C178.964 199.173 178.791 198.084 179.015 197.044C179.239 196.004 179.844 195.093 180.704 194.5C181.565 193.906 182.614 193.677 183.634 193.858C184.655 194.039 185.568 194.618 186.185 195.474C186.51 195.924 186.742 196.438 186.868 196.983C186.994 197.528 187.011 198.095 186.919 198.647C186.826 199.2 186.625 199.727 186.328 200.197C186.031 200.667 185.645 201.071 185.192 201.383C184.74 201.695 184.23 201.91 183.694 202.014C183.159 202.118 182.608 202.109 182.076 201.987C181.544 201.866 181.041 201.634 180.598 201.307C180.156 200.98 179.782 200.564 179.5 200.085ZM184.218 196.828C184.037 196.539 183.775 196.312 183.467 196.176C183.16 196.04 182.819 196.002 182.49 196.067C182.161 196.131 181.859 196.296 181.621 196.538C181.383 196.781 181.222 197.091 181.156 197.429C181.091 197.767 181.126 198.118 181.256 198.435C181.385 198.753 181.605 199.023 181.885 199.212C182.165 199.401 182.494 199.499 182.829 199.494C183.163 199.489 183.489 199.382 183.764 199.185C184.122 198.93 184.37 198.541 184.455 198.101C184.539 197.661 184.455 197.205 184.218 196.828Z" fill="#2E2E3F"/>
<path d="M212.606 148.91H137.614V150.748H212.606V148.91Z" fill="#66A3FF"/>
<path d="M210.998 155.094H139.569V156.933H210.998V155.094Z" fill="#66A3FF"/>
<path d="M208.684 161.278H141.531V163.117H208.684V161.278Z" fill="#66A3FF"/>
<path d="M206.369 167.463H143.492V169.301H206.369V167.463Z" fill="#66A3FF"/>
<path d="M204.049 173.641H145.447V175.48H204.049V173.641Z" fill="#66A3FF"/>
<path d="M207.829 140.883L193.405 181.558L195.084 182.188L209.508 141.513L207.829 140.883Z" fill="#66A3FF"/>
<path d="M186.98 140.956L175.492 181.079L177.207 181.599L188.695 141.476L186.98 140.956Z" fill="#66A3FF"/>
<path d="M169.441 140.63L168.107 181.58L169.893 181.642L171.228 140.691L169.441 140.63Z" fill="#66A3FF"/>
<path d="M148.89 141.769L147.182 142.31L159.199 182.437L160.907 181.896L148.89 141.769Z" fill="#66A3FF"/>
<path d="M117.575 80.8876C119.077 81.8098 120.937 81.6196 122.697 81.3948C122.526 80.3246 122.001 79.3476 121.212 78.6283C120.654 78.0743 120 77.6325 119.284 77.3257C118.304 76.9165 115.698 76.392 115.054 77.6542C114.527 78.6859 116.819 80.4265 117.575 80.8876Z" fill="#3E3E54"/>
<path d="M85.5453 195.191H75.7447C74.0735 195.191 72.7188 196.585 72.7188 198.304V198.31C72.7188 200.028 74.0735 201.422 75.7447 201.422H85.5453C87.2165 201.422 88.5712 200.028 88.5712 198.31V198.304C88.5712 196.585 87.2165 195.191 85.5453 195.191Z" fill="url(#paint12_linear_205_4713)"/>
<defs>
<linearGradient id="paint0_linear_205_4713" x1="116.286" y1="119.763" x2="115.723" y2="258.274" gradientUnits="userSpaceOnUse">
<stop offset="0.01"/>
<stop offset="0.13" stop-opacity="0.69"/>
<stop offset="1" stop-opacity="0"/>
</linearGradient>
<linearGradient id="paint1_linear_205_4713" x1="-16.0696" y1="167.635" x2="154.884" y2="63.9557" gradientUnits="userSpaceOnUse">
<stop offset="0.01"/>
<stop offset="0.13" stop-opacity="0.69"/>
<stop offset="1" stop-opacity="0"/>
</linearGradient>
<linearGradient id="paint2_linear_205_4713" x1="126.731" y1="81.6487" x2="116.585" y2="127.565" gradientUnits="userSpaceOnUse">
<stop offset="0.01"/>
<stop offset="0.13" stop-opacity="0.69"/>
<stop offset="1" stop-opacity="0"/>
</linearGradient>
<linearGradient id="paint3_linear_205_4713" x1="166.248" y1="192.702" x2="180.919" y2="110.941" gradientUnits="userSpaceOnUse">
<stop offset="0.01"/>
<stop offset="0.13" stop-opacity="0.69"/>
<stop offset="1" stop-opacity="0"/>
</linearGradient>
<linearGradient id="paint4_linear_205_4713" x1="234.454" y1="158.777" x2="141.899" y2="145.518" gradientUnits="userSpaceOnUse">
<stop offset="0.01"/>
<stop offset="0.13" stop-opacity="0.69"/>
<stop offset="1" stop-opacity="0"/>
</linearGradient>
<linearGradient id="paint5_linear_205_4713" x1="208.089" y1="182.041" x2="183.469" y2="130.723" gradientUnits="userSpaceOnUse">
<stop offset="0.01"/>
<stop offset="0.13" stop-opacity="0.69"/>
<stop offset="1" stop-opacity="0"/>
</linearGradient>
<linearGradient id="paint6_linear_205_4713" x1="125.936" y1="124.005" x2="130.112" y2="117.099" gradientUnits="userSpaceOnUse">
<stop offset="0.01"/>
<stop offset="0.13" stop-opacity="0.69"/>
<stop offset="1" stop-opacity="0"/>
</linearGradient>
<linearGradient id="paint7_linear_205_4713" x1="107.113" y1="152.708" x2="101.375" y2="152.708" gradientUnits="userSpaceOnUse">
<stop offset="0.01"/>
<stop offset="0.13" stop-opacity="0.69"/>
<stop offset="1" stop-opacity="0"/>
</linearGradient>
<linearGradient id="paint8_linear_205_4713" x1="83.4326" y1="124.789" x2="137.292" y2="121.836" gradientUnits="userSpaceOnUse">
<stop offset="0.01"/>
<stop offset="0.13" stop-opacity="0.69"/>
<stop offset="1" stop-opacity="0"/>
</linearGradient>
<linearGradient id="paint9_linear_205_4713" x1="132.901" y1="201.099" x2="122.876" y2="201.099" gradientUnits="userSpaceOnUse">
<stop offset="0.01"/>
<stop offset="0.13" stop-opacity="0.69"/>
<stop offset="1" stop-opacity="0"/>
</linearGradient>
<linearGradient id="paint10_linear_205_4713" x1="98.5176" y1="200.978" x2="92.0903" y2="200.978" gradientUnits="userSpaceOnUse">
<stop offset="0.01"/>
<stop offset="0.13" stop-opacity="0.69"/>
<stop offset="1" stop-opacity="0"/>
</linearGradient>
<linearGradient id="paint11_linear_205_4713" x1="107.024" y1="133.717" x2="115.82" y2="117.158" gradientUnits="userSpaceOnUse">
<stop offset="0.01"/>
<stop offset="0.13" stop-opacity="0.69"/>
<stop offset="1" stop-opacity="0"/>
</linearGradient>
<linearGradient id="paint12_linear_205_4713" x1="80.7318" y1="177.076" x2="80.5243" y2="226.833" gradientUnits="userSpaceOnUse">
<stop offset="0.01"/>
<stop offset="0.13" stop-opacity="0.69"/>
<stop offset="1" stop-opacity="0"/>
</linearGradient>
</defs>
</svg>
