<svg width="235" height="209" viewBox="0 0 235 209" fill="none" xmlns="http://www.w3.org/2000/svg">
<path d="M87.5729 199.415C108.108 195.859 128.948 201.29 149.575 204.231C170.203 207.172 192.933 207.072 209.683 194.357C229.39 179.389 234.915 151.455 234.397 126.262C233.817 97.0995 226.398 66.6257 206.558 45.7712C195.979 34.6542 182.549 26.9424 169.269 19.5038C152.665 10.1896 135.207 0.834429 116.31 0.197093C99.7903 -0.27241 83.7539 5.95923 71.6639 17.5463C62.2486 26.6511 55.8567 38.5146 48.004 49.0808C33.5027 68.5923 13.5124 84.4757 4.69028 107.292C-3.33946 128.056 -0.400239 152.93 12.2552 171.09C24.9107 189.249 46.8398 200.143 68.5343 199.023" fill="#96BFFC"/>
<path d="M68.5298 180.185L185.957 196.551C188.051 196.843 190.173 196.288 191.877 195.002C193.58 193.716 194.732 191.8 195.089 189.659L204.133 135.599C204.317 134.494 204.284 133.362 204.036 132.27C203.788 131.178 203.33 130.149 202.689 129.242C202.048 128.335 201.237 127.569 200.303 126.99C199.37 126.411 198.333 126.031 197.254 125.87L90.574 110.087C88.7398 109.815 86.8701 110.193 85.2729 111.159C83.6757 112.126 82.4463 113.623 81.7873 115.404L62.0139 168.886C61.5768 170.066 61.4043 171.332 61.5094 172.591C61.6145 173.849 61.9944 175.066 62.6207 176.153C63.2471 177.239 64.1038 178.165 65.1269 178.864C66.1501 179.562 67.3132 180.014 68.5298 180.185Z" fill="#66A3FF"/>
<path d="M68.5298 180.185L185.957 196.551C188.051 196.843 190.173 196.288 191.877 195.002C193.58 193.716 194.732 191.8 195.089 189.659L204.133 135.599C204.317 134.494 204.284 133.362 204.036 132.27C203.788 131.178 203.33 130.149 202.689 129.242C202.048 128.335 201.237 127.569 200.303 126.99C199.37 126.411 198.333 126.031 197.254 125.87L90.574 110.087C88.7398 109.815 86.8701 110.193 85.2729 111.159C83.6757 112.126 82.4463 113.623 81.7873 115.404L62.0139 168.886C61.5768 170.066 61.4043 171.332 61.5094 172.591C61.6145 173.849 61.9944 175.066 62.6207 176.153C63.2471 177.239 64.1038 178.165 65.1269 178.864C66.1501 179.562 67.3132 180.014 68.5298 180.185Z" fill="url(#paint0_linear_205_4767)"/>
<path d="M90.4102 106.041L199.595 122.156C201.333 122.414 203.101 121.971 204.527 120.919C205.954 119.866 206.929 118.287 207.249 116.511L221.086 38.4921C221.252 37.5537 221.23 36.5903 221.02 35.6611C220.811 34.7319 220.419 33.8566 219.868 33.089C219.317 32.3215 218.62 31.6779 217.818 31.1979C217.017 30.7179 216.129 30.4116 215.208 30.2978L95.1466 15.4479C94.2147 15.3327 93.2698 15.4173 92.3712 15.6961C91.4727 15.975 90.64 16.4422 89.9257 17.0682C89.2113 17.6943 88.6307 18.4657 88.2204 19.3338C87.8102 20.202 87.5791 21.1481 87.5418 22.1126L84.5893 98.8569C84.5261 100.582 85.0857 102.27 86.1604 103.597C87.2351 104.923 88.7488 105.793 90.4102 106.041Z" fill="#66A3FF"/>
<path d="M93.9427 105.813L195.696 120.836C197.318 121.076 198.968 120.661 200.299 119.676C201.63 118.691 202.538 117.214 202.831 115.555L215.726 42.8487C215.882 41.9738 215.862 41.0753 215.668 40.2086C215.473 39.3419 215.108 38.5254 214.595 37.8092C214.082 37.0931 213.432 36.4926 212.685 36.0448C211.937 35.5969 211.109 35.3112 210.25 35.2052L98.356 21.3659C97.4877 21.2597 96.6075 21.3394 95.7707 21.6C94.9338 21.8605 94.1584 22.2963 93.4932 22.8799C92.8281 23.4635 92.2875 24.1824 91.9055 24.9912C91.5235 25.8001 91.3083 26.6815 91.2735 27.58L88.5158 99.0891C88.4503 100.702 88.9691 102.282 89.9716 103.525C90.9742 104.767 92.3892 105.582 93.9427 105.813Z" fill="#66A3FF"/>
<path d="M93.9427 105.813L195.696 120.836C197.318 121.076 198.968 120.661 200.299 119.676C201.63 118.691 202.538 117.214 202.831 115.555L215.726 42.8487C215.882 41.9738 215.862 41.0753 215.668 40.2086C215.473 39.3419 215.108 38.5254 214.595 37.8092C214.082 37.0931 213.432 36.4926 212.685 36.0448C211.937 35.5969 211.109 35.3112 210.25 35.2052L98.356 21.3659C97.4877 21.2597 96.6075 21.3394 95.7707 21.6C94.9338 21.8605 94.1584 22.2963 93.4932 22.8799C92.8281 23.4635 92.2875 24.1824 91.9055 24.9912C91.5235 25.8001 91.3083 26.6815 91.2735 27.58L88.5158 99.0891C88.4503 100.702 88.9691 102.282 89.9716 103.525C90.9742 104.767 92.3892 105.582 93.9427 105.813Z" fill="url(#paint1_linear_205_4767)"/>
<path d="M119.723 53.5332L124.419 49.1538L132.17 50.4968L130.205 59.4832L116.664 57.4619L119.723 53.5332Z" fill="#66A3FF"/>
<path d="M119.723 53.5332L124.419 49.1538L132.17 50.4968L130.205 59.4832L116.664 57.4619L119.723 53.5332Z" fill="url(#paint2_linear_205_4767)"/>
<path d="M128.824 53.9429L136.796 54.2798L137.558 60.4574L125.216 58.773L128.824 53.9429Z" fill="#66A3FF"/>
<path d="M128.824 53.9429L136.796 54.2798L137.558 60.4574L125.216 58.773L128.824 53.9429Z" fill="url(#paint3_linear_205_4767)"/>
<path d="M134.574 51.061L130.205 59.483L142.329 60.7212L142.112 51.621L134.574 51.061Z" fill="#66A3FF"/>
<path d="M134.574 51.061L130.205 59.483L142.329 60.7212L142.112 51.621L134.574 51.061Z" fill="url(#paint4_linear_205_4767)"/>
<path d="M107.78 56.638L107.342 47.5059L121.467 47.6515L122.489 58.8869L107.78 56.638Z" fill="#66A3FF"/>
<path d="M107.78 56.638L107.342 47.5059L121.467 47.6515L122.489 58.8869L107.78 56.638Z" fill="url(#paint5_linear_205_4767)"/>
<path d="M69.1852 175.019L186.626 191.407C188.72 191.699 190.842 191.144 192.546 189.858C194.249 188.572 195.401 186.657 195.758 184.515L204.801 130.455C204.989 129.348 204.959 128.212 204.712 127.117C204.465 126.022 204.007 124.989 203.364 124.08C202.721 123.17 201.906 122.403 200.969 121.824C200.032 121.245 198.992 120.866 197.909 120.708L91.2294 104.921C89.3953 104.648 87.5256 105.026 85.9284 105.993C84.3312 106.959 83.1018 108.457 82.4427 110.238L62.6561 163.719C62.2189 164.901 62.0468 166.168 62.1526 167.427C62.2585 168.686 62.6395 169.904 63.2673 170.991C63.895 172.077 64.7533 173.004 65.7781 173.701C66.8028 174.399 67.9675 174.849 69.1852 175.019Z" fill="#66A3FF"/>
<path d="M180.446 168.508L84.3059 155.707C78.5292 154.838 75.0101 149.27 76.4753 143.274L85.4081 120.767C86.86 114.772 92.7207 110.616 98.5018 111.49L188.697 125.092C194.474 125.962 197.993 131.529 196.528 137.525L193.54 159.231C192.088 165.222 186.223 169.382 180.446 168.508Z" fill="url(#paint6_linear_205_4767)"/>
<path d="M106.151 175.073C105.682 176.867 105.168 178.738 103.938 180.081C101.432 182.762 97.2007 182.225 93.655 181.487C92.8051 181.31 91.911 181.114 91.2559 180.527C90.7011 179.959 90.3012 179.251 90.0961 178.474C87.4402 170.489 90.2687 161.666 94.1818 154.25C95.5717 151.619 97.1255 149.033 99.2502 146.989C102.433 143.925 106.651 142.309 110.759 140.766C106.894 144.458 103.789 148.911 101.629 153.86C99.469 158.809 98.2972 164.154 98.1834 169.578C98.1834 170.448 104.969 165.8 105.381 165.772C109.166 165.513 106.722 172.902 106.151 175.073Z" fill="url(#paint7_linear_205_4767)"/>
<path d="M156.122 176.106C157.826 171.64 159.566 166.897 158.778 162.167C158.198 158.698 156.286 155.507 156.122 151.988C156.034 149.944 156.565 147.859 156.122 145.865C155.237 141.854 150.925 139.746 148.832 136.236C148.19 135.167 147.818 133.646 148.677 132.754C149.297 132.103 150.292 132.08 151.173 132.121C159.06 132.488 166.819 134.308 174.081 137.493C177.339 138.922 180.641 140.766 182.491 143.866C184.341 146.966 184.439 150.859 184.39 154.519C184.223 166.242 183.172 177.934 181.247 189.49C181.205 190.043 181.014 190.573 180.694 191.02C179.999 191.817 178.764 191.635 177.75 191.384C171.203 189.773 167.051 189.563 160.487 187.974C158.504 187.483 153.462 187.414 151.749 186.477C152.528 183.527 154.971 179.097 156.122 176.106Z" fill="url(#paint8_linear_205_4767)"/>
<path d="M181.141 123.376C178.042 121.842 174.103 121.555 171.292 123.617C168.977 125.302 167.826 128.202 167.109 131.019C166.038 135.226 165.688 139.719 166.843 143.898C167.999 148.077 170.827 151.892 174.758 153.49C178.689 155.088 183.669 154.073 186.218 150.608C188.272 147.822 188.516 144.099 188.684 140.593C188.826 137.584 190.069 132.267 188.741 129.667C187.467 127.155 183.531 124.605 181.141 123.376Z" fill="#F3A984"/>
<path d="M181.141 123.376C178.042 121.842 174.103 121.555 171.292 123.617C168.977 125.302 167.826 128.202 167.109 131.019C166.038 135.226 165.688 139.719 166.843 143.898C167.999 148.077 170.827 151.892 174.758 153.49C178.689 155.088 183.669 154.073 186.218 150.608C188.272 147.822 188.516 144.099 188.684 140.593C188.826 137.584 190.069 132.267 188.741 129.667C187.467 127.155 183.531 124.605 181.141 123.376Z" fill="url(#paint9_linear_205_4767)"/>
<path d="M182.656 106.372L151.503 90.5934C149.694 89.677 147.504 90.4426 146.613 92.3034L137.875 110.551C136.984 112.411 137.728 114.663 139.538 115.579L170.691 131.358C172.5 132.275 174.689 131.509 175.58 129.648L184.319 111.401C185.21 109.54 184.465 107.289 182.656 106.372Z" fill="#66A3FF"/>
<path d="M183.095 107.091L151.881 91.3967C150.106 90.504 147.963 91.2606 147.094 93.0867L138.79 110.557C137.922 112.383 138.657 114.587 140.433 115.48L171.647 131.174C173.422 132.067 175.565 131.31 176.433 129.484L184.738 112.014C185.606 110.187 184.871 107.983 183.095 107.091Z" fill="url(#paint10_linear_205_4767)"/>
<path d="M165.932 127.892C164.048 125.56 161.46 123.943 158.579 123.299C157.799 123.088 156.982 123.069 156.193 123.244C155.8 123.337 155.437 123.532 155.138 123.811C154.84 124.09 154.616 124.444 154.489 124.837C154.373 125.505 154.459 126.193 154.737 126.809C156.251 131.042 159.54 134.429 160.961 138.695C162.147 142.259 163.975 145.023 164.117 148.783C164.294 153.654 163.09 158.575 163.966 163.351C164.577 166.688 166.179 169.811 166.458 173.193C166.644 175.442 166.281 177.909 167.485 179.799C168.981 182.148 172.138 182.489 174.864 182.594C177.277 182.689 179.946 182.698 181.783 181.082C182.854 180.145 183.474 178.783 184.058 177.468L195.169 152.557C195.802 151.137 196.448 149.648 196.373 148.087C196.262 145.906 194.793 144.099 193.89 142.123C190.924 135.659 194.182 128.01 193.336 120.913C192.619 114.9 188.994 109.683 184.983 105.244C184.027 104.183 182.726 103.054 181.376 103.459C179.654 103.978 179.477 106.532 180.322 108.157C181.168 109.783 182.646 111.035 183.244 112.774C183.686 114.117 183.576 115.587 183.447 117.007L182.562 126.64C182.332 129.149 182.119 131.648 181.703 134.152C181.225 137.133 180.066 140.571 177.233 141.367C175.019 141.995 172.647 140.602 171.248 138.718C169.849 136.833 169.145 134.511 168.216 132.344C167.286 130.177 167.397 129.713 165.932 127.892Z" fill="#F3A984"/>
<path d="M173.966 175.096C171.978 174.722 169.982 174.149 167.963 174.29C165.945 174.431 163.824 175.492 163.094 177.431C162.789 178.228 162.744 179.106 162.483 179.917C162.098 181.119 161.266 182.106 160.713 183.226C159.783 185.047 159.557 187.128 159.345 189.167L157.685 205.101C168.123 208.979 180.296 210.213 189.932 204.55C190.588 204.226 191.146 203.726 191.548 203.102C191.955 202.342 191.893 201.418 191.818 200.557C191.172 192.9 191.242 184.729 189.848 177.185C189.042 172.842 187.489 174.59 183.806 175.228C180.38 175.829 177.321 175.096 173.966 175.096Z" fill="#66A3FF"/>
<path d="M149.085 101.298L151.479 102.481C152.567 103.018 153.403 103.978 153.802 105.15C154.202 106.321 154.133 107.607 153.61 108.726L153.482 109.001C153.267 109.461 152.883 109.815 152.414 109.984C151.946 110.153 151.431 110.124 150.983 109.903L146.175 107.527C145.954 107.418 145.755 107.264 145.591 107.076C145.427 106.888 145.301 106.668 145.22 106.429C145.138 106.191 145.103 105.938 145.117 105.685C145.13 105.433 145.192 105.186 145.299 104.958L146.587 102.2C146.693 101.972 146.842 101.768 147.025 101.599C147.209 101.431 147.422 101.301 147.654 101.217C147.886 101.133 148.132 101.097 148.378 101.111C148.623 101.125 148.864 101.189 149.085 101.298Z" fill="url(#paint11_linear_205_4767)"/>
<path d="M152.528 113.894L150.779 113.033L149.448 115.896L151.197 116.756L152.528 113.894Z" fill="url(#paint12_linear_205_4767)"/>
<path d="M155.126 115.243L153.377 114.382L152.046 117.245L153.795 118.105L155.126 115.243Z" fill="url(#paint13_linear_205_4767)"/>
<path d="M157.724 116.591L155.975 115.731L154.643 118.593L156.393 119.454L157.724 116.591Z" fill="url(#paint14_linear_205_4767)"/>
<path d="M160.326 117.935L158.577 117.075L157.245 119.938L158.995 120.798L160.326 117.935Z" fill="url(#paint15_linear_205_4767)"/>
<path d="M162.921 119.289L161.172 118.428L159.841 121.291L161.59 122.151L162.921 119.289Z" fill="url(#paint16_linear_205_4767)"/>
<path d="M165.519 120.638L163.77 119.777L162.439 122.64L164.188 123.5L165.519 120.638Z" fill="url(#paint17_linear_205_4767)"/>
<path d="M168.117 121.986L166.368 121.126L165.037 123.988L166.786 124.849L168.117 121.986Z" fill="url(#paint18_linear_205_4767)"/>
<path d="M170.719 123.331L168.97 122.47L167.639 125.333L169.388 126.193L170.719 123.331Z" fill="url(#paint19_linear_205_4767)"/>
<path d="M173.317 124.68L171.568 123.819L170.236 126.682L171.986 127.542L173.317 124.68Z" fill="url(#paint20_linear_205_4767)"/>
<path d="M108.103 165.531C108.231 165.194 108.266 164.827 108.205 164.47C108.077 164.102 107.822 163.796 107.488 163.61C105.469 162.294 102.729 163.305 100.937 164.926C99.144 166.546 97.8381 168.722 95.9834 170.247C94.8945 166.523 96.5234 162.595 98.117 159.067C101.021 152.639 104.314 145.787 110.343 142.382C111.078 141.972 111.923 141.526 112.149 140.698C112.539 139.296 110.857 138.194 109.44 138.144C107.333 138.066 105.332 139.086 103.243 139.273C101.472 139.428 99.7017 138.991 97.9311 139.013C96.3569 139.094 94.7965 139.355 93.2788 139.792C89.6844 140.68 85.9794 141.613 83.0269 143.889C81.0084 145.45 79.4547 147.558 78.0205 149.698C75.8471 152.935 73.8507 156.358 72.7928 160.136C70.8584 167.038 72.1332 174.8 68.9992 181.219C67.8881 183.495 66.2016 185.867 66.87 188.316C67.3968 190.255 69.2604 191.466 71.0575 192.267C74.7976 193.929 78.8692 194.648 82.934 194.366C83.6694 194.339 84.3952 194.185 85.0808 193.911C85.7692 193.557 86.4007 193.096 86.9533 192.545C95.7045 184.706 105.115 177.813 108.103 165.531Z" fill="#F3A984"/>
<path d="M132.396 181.497L113.057 178.72C110.843 178.401 109.582 176.443 110.241 174.34L112.716 166.496C113.375 164.393 115.708 162.95 117.926 163.269L137.265 166.046C139.479 166.364 140.74 168.322 140.076 170.425L137.606 178.269C136.955 180.372 134.609 181.815 132.396 181.497Z" fill="url(#paint21_linear_205_4767)"/>
<path d="M54.7719 197.279C59.7518 199.292 64.7715 201.317 70.0258 202.355C75.2801 203.393 80.8487 203.393 85.8462 201.422C86.8776 201.017 88.002 200.38 88.2321 199.269C88.3959 198.481 88.0551 197.685 87.7187 196.952L86.1251 193.483C85.9883 193.033 85.7152 192.639 85.3458 192.36C84.9763 192.081 84.5297 191.93 84.0712 191.93C80.8265 191.348 77.4933 190.988 74.4567 189.654C69.3928 187.46 69.0696 181.651 63.4966 185.161C62.2749 185.948 53.6387 196.82 54.7719 197.279Z" fill="#66A3FF"/>
<path d="M145.197 93.0343L98.3071 87.0342L105.305 56.4922L112.322 57.2615L113.902 57.4345L134.211 59.6698L135.796 59.8428L143.458 60.6895L145.197 93.0343Z" fill="#66A3FF"/>
<path d="M134.122 38.8789C131.373 35.2051 127.155 33.5799 122.237 34.281C120.894 34.4501 119.601 34.9049 118.438 35.6166C117.276 36.3283 116.271 37.2812 115.487 38.4146C111.529 43.9184 111.945 53.2554 112.322 57.2615L113.902 57.4345C113.53 53.829 113.017 44.5239 116.726 39.3569C117.397 38.4018 118.252 37.5987 119.237 36.9973C120.222 36.3959 121.317 36.009 122.454 35.8607C126.845 35.2233 130.457 36.6118 132.896 39.8486C136.34 44.4465 136.805 52.0718 134.224 59.6697L135.804 59.8427C138.434 51.8669 137.827 43.8228 134.122 38.8789Z" fill="#66A3FF"/>
<path d="M145.197 93.0343L98.3071 87.0342L105.305 56.4922L112.322 57.2615L113.902 57.4345L134.211 59.6698L135.796 59.8428L143.458 60.6895L145.197 93.0343Z" fill="#66A3FF"/>
<path d="M134.122 38.8789C131.373 35.2051 127.155 33.5799 122.237 34.281C120.894 34.4501 119.601 34.9049 118.438 35.6166C117.276 36.3283 116.271 37.2812 115.487 38.4146C111.529 43.9184 111.945 53.2554 112.322 57.2615L113.902 57.4345C113.53 53.829 113.017 44.5239 116.726 39.3569C117.397 38.4018 118.252 37.5987 119.237 36.9973C120.222 36.3959 121.317 36.009 122.454 35.8607C126.845 35.2233 130.457 36.6118 132.896 39.8486C136.34 44.4465 136.805 52.0718 134.224 59.6697L135.804 59.8427C138.434 51.8669 137.827 43.8228 134.122 38.8789Z" fill="#66A3FF"/>
<path d="M202.068 51.0307L163.112 46.5652C160.92 46.314 158.946 47.9375 158.702 50.1913L158.651 50.6619C158.406 52.9158 159.985 54.9465 162.176 55.1977L201.132 59.6633C203.324 59.9145 205.298 58.291 205.543 56.0371L205.594 55.5666C205.838 53.3127 204.259 51.282 202.068 51.0307Z" fill="url(#paint22_linear_205_4767)"/>
<path d="M200.973 62.9424L162.017 58.4768C159.826 58.2256 157.851 59.8491 157.607 62.103L157.556 62.5735C157.312 64.8274 158.89 66.8581 161.082 67.1094L200.037 71.5749C202.229 71.8261 204.204 70.2026 204.448 67.9488L204.499 67.4782C204.743 65.2244 203.165 63.1936 200.973 62.9424Z" fill="url(#paint23_linear_205_4767)"/>
<path d="M199.883 74.8452L160.928 70.3797C158.736 70.1285 156.761 71.7519 156.517 74.0058L156.466 74.4763C156.222 76.7302 157.801 78.761 159.992 79.0122L198.948 83.4777C201.139 83.7289 203.114 82.1055 203.358 79.8516L203.409 79.3811C203.654 77.1272 202.075 75.0964 199.883 74.8452Z" fill="url(#paint24_linear_205_4767)"/>
<defs>
<linearGradient id="paint0_linear_205_4767" x1="132.055" y1="137.593" x2="141.295" y2="304.246" gradientUnits="userSpaceOnUse">
<stop stop-color="#010101" stop-opacity="0"/>
<stop offset="0.95" stop-color="#010101"/>
</linearGradient>
<linearGradient id="paint1_linear_205_4767" x1="165.684" y1="-24.9274" x2="128.802" y2="155.289" gradientUnits="userSpaceOnUse">
<stop stop-color="white" stop-opacity="0"/>
<stop offset="0.66" stop-color="white"/>
</linearGradient>
<linearGradient id="paint2_linear_205_4767" x1="125.535" y1="51.2297" x2="120.553" y2="67.4781" gradientUnits="userSpaceOnUse">
<stop stop-color="#010101" stop-opacity="0"/>
<stop offset="0.95" stop-color="#010101"/>
</linearGradient>
<linearGradient id="paint3_linear_205_4767" x1="129.78" y1="54.3253" x2="137.526" y2="67.4673" gradientUnits="userSpaceOnUse">
<stop stop-color="#010101" stop-opacity="0"/>
<stop offset="0.95" stop-color="#010101"/>
</linearGradient>
<linearGradient id="paint4_linear_205_4767" x1="134.702" y1="52.6043" x2="150.689" y2="83.2444" gradientUnits="userSpaceOnUse">
<stop stop-color="#010101" stop-opacity="0"/>
<stop offset="0.95" stop-color="#010101"/>
</linearGradient>
<linearGradient id="paint5_linear_205_4767" x1="117.027" y1="49.2176" x2="105.323" y2="70.0601" gradientUnits="userSpaceOnUse">
<stop stop-color="#010101" stop-opacity="0"/>
<stop offset="0.95" stop-color="#010101"/>
</linearGradient>
<linearGradient id="paint6_linear_205_4767" x1="147.721" y1="110.16" x2="98.9179" y2="259.426" gradientUnits="userSpaceOnUse">
<stop stop-color="#010101" stop-opacity="0"/>
<stop offset="0.95" stop-color="#010101"/>
</linearGradient>
<linearGradient id="paint7_linear_205_4767" x1="86.7851" y1="182.817" x2="157.546" y2="94.8873" gradientUnits="userSpaceOnUse">
<stop stop-color="#010101" stop-opacity="0"/>
<stop offset="0.95" stop-color="#010101"/>
</linearGradient>
<linearGradient id="paint8_linear_205_4767" x1="162.665" y1="136.705" x2="181.117" y2="238.963" gradientUnits="userSpaceOnUse">
<stop stop-color="#010101" stop-opacity="0"/>
<stop offset="0.95" stop-color="#010101"/>
</linearGradient>
<linearGradient id="paint9_linear_205_4767" x1="170.128" y1="126.117" x2="194.62" y2="160.518" gradientUnits="userSpaceOnUse">
<stop stop-color="#010101" stop-opacity="0"/>
<stop offset="0.95" stop-color="#010101"/>
</linearGradient>
<linearGradient id="paint10_linear_205_4767" x1="151.144" y1="92.1394" x2="208.068" y2="196.578" gradientUnits="userSpaceOnUse">
<stop stop-color="#010101" stop-opacity="0"/>
<stop offset="0.95" stop-color="#010101"/>
</linearGradient>
<linearGradient id="paint11_linear_205_4767" x1="154.421" y1="99.6111" x2="145.464" y2="111.2" gradientUnits="userSpaceOnUse">
<stop stop-color="white" stop-opacity="0"/>
<stop offset="0.66" stop-color="white"/>
</linearGradient>
<linearGradient id="paint12_linear_205_4767" x1="95.5383" y1="38.7456" x2="327.957" y2="387.381" gradientUnits="userSpaceOnUse">
<stop stop-color="white" stop-opacity="0"/>
<stop offset="0.66" stop-color="white"/>
</linearGradient>
<linearGradient id="paint13_linear_205_4767" x1="96.6367" y1="38.0122" x2="329.056" y2="386.645" gradientUnits="userSpaceOnUse">
<stop stop-color="white" stop-opacity="0"/>
<stop offset="0.66" stop-color="white"/>
</linearGradient>
<linearGradient id="paint14_linear_205_4767" x1="97.736" y1="37.284" x2="330.148" y2="385.921" gradientUnits="userSpaceOnUse">
<stop stop-color="white" stop-opacity="0"/>
<stop offset="0.66" stop-color="white"/>
</linearGradient>
<linearGradient id="paint15_linear_205_4767" x1="98.8422" y1="36.5476" x2="331.254" y2="385.185" gradientUnits="userSpaceOnUse">
<stop stop-color="white" stop-opacity="0"/>
<stop offset="0.66" stop-color="white"/>
</linearGradient>
<linearGradient id="paint16_linear_205_4767" x1="99.9349" y1="35.8113" x2="332.352" y2="384.451" gradientUnits="userSpaceOnUse">
<stop stop-color="white" stop-opacity="0"/>
<stop offset="0.66" stop-color="white"/>
</linearGradient>
<linearGradient id="paint17_linear_205_4767" x1="101.034" y1="35.0846" x2="333.454" y2="383.72" gradientUnits="userSpaceOnUse">
<stop stop-color="white" stop-opacity="0"/>
<stop offset="0.66" stop-color="white"/>
</linearGradient>
<linearGradient id="paint18_linear_205_4767" x1="102.136" y1="34.3526" x2="334.551" y2="382.985" gradientUnits="userSpaceOnUse">
<stop stop-color="white" stop-opacity="0"/>
<stop offset="0.66" stop-color="white"/>
</linearGradient>
<linearGradient id="paint19_linear_205_4767" x1="103.237" y1="33.6185" x2="335.651" y2="382.248" gradientUnits="userSpaceOnUse">
<stop stop-color="white" stop-opacity="0"/>
<stop offset="0.66" stop-color="white"/>
</linearGradient>
<linearGradient id="paint20_linear_205_4767" x1="104.333" y1="32.8842" x2="336.753" y2="381.519" gradientUnits="userSpaceOnUse">
<stop stop-color="white" stop-opacity="0"/>
<stop offset="0.66" stop-color="white"/>
</linearGradient>
<linearGradient id="paint21_linear_205_4767" x1="125.886" y1="164.808" x2="126.522" y2="195.175" gradientUnits="userSpaceOnUse">
<stop stop-color="#010101" stop-opacity="0"/>
<stop offset="0.95" stop-color="#010101"/>
</linearGradient>
<linearGradient id="paint22_linear_205_4767" x1="187.184" y1="36.7143" x2="176.997" y2="67.9022" gradientUnits="userSpaceOnUse">
<stop stop-color="white" stop-opacity="0"/>
<stop offset="0.66" stop-color="white"/>
</linearGradient>
<linearGradient id="paint23_linear_205_4767" x1="186.09" y1="48.6214" x2="175.907" y2="79.8145" gradientUnits="userSpaceOnUse">
<stop stop-color="white" stop-opacity="0"/>
<stop offset="0.66" stop-color="white"/>
</linearGradient>
<linearGradient id="paint24_linear_205_4767" x1="185" y1="60.5287" x2="174.813" y2="91.7167" gradientUnits="userSpaceOnUse">
<stop stop-color="white" stop-opacity="0"/>
<stop offset="0.66" stop-color="white"/>
</linearGradient>
</defs>
</svg>
